<svg width="24" height="24" viewBox="0 0 24 24" fill="none" xmlns="http://www.w3.org/2000/svg">
<path d="M20.1048 7.94186C19.67 7.52995 19.0902 7.30874 18.48 7.30874H13.6896L13.4455 6.58408C13.293 6.15691 12.9955 5.79077 12.6065 5.53142C12.2174 5.27207 11.7598 5.13477 11.2792 5.13477H7.80084C7.19823 5.13477 6.61851 5.3636 6.18371 5.77552C5.75655 6.1798 5.51245 6.72901 5.51245 7.30874V10.4438H7.03805V7.30874C7.03805 7.11041 7.12195 6.92734 7.26688 6.79766C7.41182 6.66036 7.60251 6.58408 7.80084 6.58408H11.2792C11.4394 6.58408 11.5996 6.62985 11.7292 6.71376C11.8589 6.80529 11.9581 6.92734 12.0039 7.07227L12.4158 8.26223C12.4692 8.39954 12.5683 8.52921 12.698 8.61312C12.8277 8.70466 12.9802 8.75042 13.1404 8.75042H18.48C18.686 8.75042 18.8767 8.8267 19.0216 8.96401C19.1665 9.10131 19.2428 9.28438 19.2428 9.47508V16.6988C19.2428 16.8895 19.1665 17.0725 19.0216 17.2098C18.8767 17.3471 18.686 17.4234 18.48 17.4234H7.80084C7.60251 17.4234 7.41182 17.3471 7.26688 17.2098C7.12195 17.0725 7.03805 16.8895 7.03805 16.6988V15.0435H5.51245V16.6988C5.51245 17.2709 5.75655 17.8277 6.18371 18.232C6.61851 18.6363 7.19823 18.8651 7.80084 18.8651H18.48C19.0902 18.8651 19.67 18.6363 20.1048 18.232C20.5319 17.8277 20.7684 17.2709 20.7684 16.6988V9.47508C20.7684 8.89536 20.5319 8.34614 20.1048 7.94186Z" fill="currentColor"/>
<path d="M9.60092 14.7764C9.49413 14.8908 9.44074 15.051 9.44074 15.2188C9.44074 15.3866 9.50176 15.5392 9.60092 15.6612C9.70771 15.7757 9.84502 15.8443 9.98995 15.8443C10.1349 15.8443 10.2722 15.7757 10.379 15.6612L12.5682 13.1898C12.6216 13.1287 12.6597 13.0601 12.6826 12.9838C12.7131 12.9075 12.7284 12.8313 12.7284 12.7473C12.7284 12.6634 12.7131 12.5872 12.6826 12.5109C12.6597 12.4346 12.614 12.3659 12.5682 12.3049L10.379 9.83346C10.2722 9.71904 10.1349 9.65039 9.98995 9.65039C9.84502 9.65039 9.70771 9.71904 9.60092 9.83346C9.54753 9.89449 9.50939 9.96314 9.47887 10.0318C9.44836 10.1004 9.44074 10.1843 9.44074 10.2683C9.44074 10.4361 9.50176 10.5886 9.60092 10.7107L10.8595 12.1219H3.78078C3.63585 12.1219 3.49855 12.1905 3.39175 12.3049C3.29259 12.4193 3.23157 12.5795 3.23157 12.7397C3.23157 12.8999 3.29259 13.0601 3.39175 13.1745C3.49092 13.2889 3.63585 13.3576 3.78078 13.3576H10.8595L9.60092 14.7688V14.7764Z" fill="currentColor"/>
</svg>
