<svg width="24" height="24" viewBox="0 0 24 24" fill="none" xmlns="http://www.w3.org/2000/svg">
    <path d="M19.9832 12.96C19.9782 12.9016 19.964 12.8443 19.9411 12.7904C19.9237 12.7401 19.9011 12.6917 19.8737 12.6462C19.8506 12.598 19.8224 12.5524 19.7895 12.5104L19.6547 12.4002L19.5789 12.3238L7.18316 5.1132C6.98885 5.00071 6.75814 4.97058 6.54179 5.02944C6.32543 5.08831 6.14114 5.23134 6.02947 5.42708C5.9178 5.62281 5.88789 5.85522 5.94633 6.07317C6.00476 6.29113 6.14675 6.47677 6.34105 6.58926L16.0168 12.2135H4.84211C4.61877 12.2135 4.40457 12.3029 4.24665 12.462C4.08872 12.6211 4 12.8369 4 13.0618V16.4551C4 17.13 4.26616 17.7773 4.73994 18.2546C5.21372 18.7319 5.8563 19 6.52632 19H17.4737C18.1437 19 18.7863 18.7319 19.2601 18.2546C19.7338 17.7773 20 17.13 20 16.4551V13.0618C20 13.0618 19.9832 12.994 19.9832 12.96ZM18.2989 16.4551C18.2989 16.6801 18.2102 16.8958 18.0523 17.0549C17.8944 17.214 17.6802 17.3034 17.4568 17.3034H6.52632C6.30298 17.3034 6.08878 17.214 5.93086 17.0549C5.77293 16.8958 5.68421 16.6801 5.68421 16.4551V13.9102H18.3158L18.2989 16.4551ZM15.7726 16.4551C15.9392 16.4551 16.102 16.4053 16.2405 16.3121C16.379 16.2189 16.4869 16.0864 16.5506 15.9314C16.6144 15.7764 16.631 15.6058 16.5986 15.4413C16.5661 15.2767 16.4859 15.1256 16.3681 15.0069C16.2503 14.8883 16.1003 14.8075 15.9369 14.7748C15.7736 14.742 15.6042 14.7588 15.4504 14.823C15.2965 14.8872 15.165 14.996 15.0724 15.1355C14.9799 15.275 14.9305 15.439 14.9305 15.6068C14.9305 15.7196 14.9528 15.8313 14.9962 15.9354C15.0396 16.0394 15.1031 16.1337 15.1831 16.2127C15.2631 16.2917 15.3579 16.3538 15.462 16.3954C15.5662 16.4371 15.6775 16.4573 15.7895 16.4551H15.7726Z"
          fill="currentColor"/>
</svg>

