<svg width="24" height="24" viewBox="0 0 24 24" fill="none" xmlns="http://www.w3.org/2000/svg">
    <path d="M12.7983 15.201H7.99921C7.78708 15.201 7.58364 15.2852 7.43364 15.4352C7.28364 15.5852 7.19937 15.7887 7.19937 16.0008C7.19937 16.2129 7.28364 16.4164 7.43364 16.5664C7.58364 16.7164 7.78708 16.8006 7.99921 16.8006H12.7983C13.0104 16.8006 13.2138 16.7164 13.3638 16.5664C13.5138 16.4164 13.5981 16.2129 13.5981 16.0008C13.5981 15.7887 13.5138 15.5852 13.3638 15.4352C13.2138 15.2852 13.0104 15.201 12.7983 15.201ZM9.59889 10.4019H11.1986C11.4107 10.4019 11.6141 10.3176 11.7641 10.1676C11.9141 10.0176 11.9984 9.8142 11.9984 9.60207C11.9984 9.38994 11.9141 9.18649 11.7641 9.03649C11.6141 8.88649 11.4107 8.80223 11.1986 8.80223H9.59889C9.38676 8.80223 9.18332 8.88649 9.03332 9.03649C8.88332 9.18649 8.79905 9.38994 8.79905 9.60207C8.79905 9.8142 8.88332 10.0176 9.03332 10.1676C9.18332 10.3176 9.38676 10.4019 9.59889 10.4019ZM19.197 12.0016H16.7975V4.80302C16.798 4.66208 16.7613 4.52349 16.6911 4.4013C16.6209 4.2791 16.5196 4.17763 16.3975 4.10716C16.276 4.03696 16.138 4 15.9976 4C15.8572 4 15.7193 4.03696 15.5977 4.10716L13.1982 5.48288L10.7987 4.10716C10.6771 4.03696 10.5391 4 10.3987 4C10.2583 4 10.1204 4.03696 9.99881 4.10716L7.59929 5.48288L5.19977 4.10716C5.07818 4.03696 4.94025 4 4.79985 4C4.65945 4 4.52152 4.03696 4.39993 4.10716C4.27787 4.17763 4.1766 4.2791 4.10637 4.4013C4.03614 4.52349 3.99945 4.66208 4.00001 4.80302V17.6005C4.00001 18.2369 4.25281 18.8472 4.70281 19.2972C5.15281 19.7472 5.76314 20 6.39953 20H17.5973C18.2337 20 18.844 19.7472 19.294 19.2972C19.744 18.8472 19.9968 18.2369 19.9968 17.6005V12.8014C19.9968 12.5893 19.9126 12.3859 19.7626 12.2359C19.6126 12.0859 19.4091 12.0016 19.197 12.0016ZM6.39953 18.4003C6.1874 18.4003 5.98396 18.316 5.83396 18.1661C5.68396 18.0161 5.59969 17.8126 5.59969 17.6005V6.18674L7.19937 7.09856C7.32282 7.16304 7.46002 7.19671 7.59929 7.19671C7.73856 7.19671 7.87577 7.16304 7.99921 7.09856L10.3987 5.72284L12.7983 7.09856C12.9217 7.16304 13.0589 7.19671 13.1982 7.19671C13.3374 7.19671 13.4747 7.16304 13.5981 7.09856L15.1978 6.18674V17.6005C15.1999 17.8733 15.2486 18.1438 15.3418 18.4003H6.39953ZM18.3971 17.6005C18.3971 17.8126 18.3129 18.0161 18.1629 18.1661C18.0129 18.316 17.8094 18.4003 17.5973 18.4003C17.3852 18.4003 17.1817 18.316 17.0317 18.1661C16.8817 18.0161 16.7975 17.8126 16.7975 17.6005V13.6013H18.3971V17.6005ZM12.7983 12.0016H7.99921C7.78708 12.0016 7.58364 12.0859 7.43364 12.2359C7.28364 12.3859 7.19937 12.5893 7.19937 12.8014C7.19937 13.0136 7.28364 13.217 7.43364 13.367C7.58364 13.517 7.78708 13.6013 7.99921 13.6013H12.7983C13.0104 13.6013 13.2138 13.517 13.3638 13.367C13.5138 13.217 13.5981 13.0136 13.5981 12.8014C13.5981 12.5893 13.5138 12.3859 13.3638 12.2359C13.2138 12.0859 13.0104 12.0016 12.7983 12.0016Z"
          fill="currentColor"/>
</svg>
