<svg xmlns="http://www.w3.org/2000/svg" width="24" height="24" fill="currentColor" viewBox="0 0 24 24">
  <path fill="#2C333B" d="M6.402 17.964a.783.783 0 0 0-.38-.085H4.819v1.325h1.203a.72.72 0 0 0 .353-.085.62.62 0 0 0 .243-.237.715.715 0 0 0 .088-.362.698.698 0 0 0-.075-.328.553.553 0 0 0-.23-.229v.001Zm-.222-1.057a.449.449 0 0 0 .205-.178.586.586 0 0 0 .076-.311.573.573 0 0 0-.148-.4c-.098-.108-.242-.163-.428-.163H4.819v1.109h1.066a.72.72 0 0 0 .295-.058v.001Z"/>
  <path fill="#2C333B" d="M21.6 13.18V7.414c0-.73-.306-1.428-.85-1.943a2.984 2.984 0 0 0-2.05-.805h-6.07l-.31-.915a2.771 2.771 0 0 0-1.063-1.33 3.012 3.012 0 0 0-1.681-.501H5.169c-.77 0-1.507.29-2.05.805a2.675 2.675 0 0 0-.85 1.942v8.614a5.15 5.15 0 0 0-1.952 4.04v.32a5.16 5.16 0 0 0 5.16 5.16h13.04a5.16 5.16 0 0 0 5.16-5.16v-.32c0-1.696-.817-3.2-2.08-4.14l.003-.001ZM4.204 4.666c0-.243.101-.476.283-.647a.994.994 0 0 1 .683-.268h4.407c.203 0 .4.06.565.171.165.112.288.27.353.452l.522 1.501c.064.182.188.34.352.451.165.112.363.172.565.172H18.7c.256 0 .502.096.683.268a.891.891 0 0 1 .283.647v4.876a5.161 5.161 0 0 0-1.147-.13H5.48a5.11 5.11 0 0 0-1.276.16V4.665Zm7.29 9.735h-.9l-.54-.648-.54.648h-.9l1.037-1.188h.806l1.037 1.188Zm-3.973 4.972a1.254 1.254 0 0 1-.52.552c-.232.134-.525.2-.878.2H3.826v-5.184H5.9c.37 0 .668.074.896.222.228.148.394.333.5.556.106.223.159.449.159.677 0 .29-.066.532-.196.723a.933.933 0 0 1-.292.28c.204.08.365.206.483.375.163.233.243.493.243.781 0 .31-.056.582-.17.818H7.52Zm4.276-3.518H9.392v1.109h1.973v.914H9.392v1.332h2.405v.915H8.413V14.94h3.384v.914Zm4.68 0h-1.635v4.27h-.979v-4.27h-1.634v-.914h4.248v.914Zm3.693 4.27-.333-1.08h-1.952l-.328 1.08h-1.008l1.584-5.184h1.461l1.584 5.184H20.17Z"/>
  <path fill="#2C333B" d="M18.163 18.131h1.392l-.702-2.272-.69 2.272Z"/>
</svg>
