<svg xmlns="http://www.w3.org/2000/svg" width="24" height="24" fill="currentColor" viewBox="0 0 24 24">
  <path d="M22.325 11.77 20.04 5.24s-.02-.03-.03-.05l-.069-.09c-.06-.09-1.578-2.1-4.239-2.1-1.668 0-2.958 1-3.733 1.79C11.206 4 9.915 3 8.247 3c-2.67 0-4.18 2.02-4.239 2.1l-.04.06s-.05.08-.06.12l-2.422 6.91c-.129.29-.228.58-.307.89l-.05.21c-.08.38-.129.77-.129 1.17C1 17.52 3.472 20 6.5 20s5.331-2.31 5.49-5.22h.02c.169 2.91 2.57 5.22 5.49 5.22s5.5-2.49 5.5-5.54c0-.98-.248-1.89-.695-2.69h.02Zm-6.622-6.9c1.47 0 2.413.95 2.67 1.25l1.103 3.16a5.369 5.369 0 0 0-1.966-.37c-1.916 0-3.604.99-4.587 2.49l-.02-4.84c.388-.49 1.46-1.69 2.8-1.69Zm-7.446 0c1.35 0 2.413 1.2 2.79 1.69v4.75c-1.003-1.44-2.66-2.39-4.537-2.39-.725 0-1.41.14-2.045.4l1.112-3.19c.268-.31 1.21-1.25 2.67-1.25l.01-.01Zm-1.42 13.24c-2.273.2-4.16-1.7-3.96-3.99.158-1.75 1.558-3.16 3.295-3.32 2.274-.2 4.16 1.7 3.962 3.99-.16 1.75-1.56 3.16-3.296 3.32Zm11.01 0c-2.273.2-4.16-1.7-3.96-3.99.158-1.75 1.558-3.16 3.295-3.32 2.274-.2 4.16 1.7 3.962 3.99-.16 1.75-1.56 3.16-3.296 3.32Z"/>
</svg>
