<svg width="24" height="24" viewBox="0 0 24 24" fill="none" xmlns="http://www.w3.org/2000/svg">
    <path d="M18.125 18.3996H5.875C5.64294 18.3996 5.42038 18.4839 5.25628 18.634C5.09219 18.784 5 18.9876 5 19.1998C5 19.412 5.09219 19.6156 5.25628 19.7656C5.42038 19.9157 5.64294 20 5.875 20H18.125C18.3571 20 18.5796 19.9157 18.7437 19.7656C18.9078 19.6156 19 19.412 19 19.1998C19 18.9876 18.9078 18.784 18.7437 18.634C18.5796 18.4839 18.3571 18.3996 18.125 18.3996ZM9.12125 8.56515L11.125 6.72469V15.999C11.125 16.2112 11.2172 16.4148 11.3813 16.5648C11.5454 16.7149 11.7679 16.7992 12 16.7992C12.2321 16.7992 12.4546 16.7149 12.6187 16.5648C12.7828 16.4148 12.875 16.2112 12.875 15.999V6.72469L14.8787 8.56515C14.9601 8.64015 15.0569 8.69968 15.1635 8.74031C15.2701 8.78093 15.3845 8.80185 15.5 8.80185C15.6155 8.80185 15.7299 8.78093 15.8365 8.74031C15.9431 8.69968 16.0399 8.64015 16.1212 8.56515C16.2033 8.49076 16.2684 8.40226 16.3128 8.30475C16.3572 8.20723 16.3801 8.10264 16.3801 7.99701C16.3801 7.89137 16.3572 7.78678 16.3128 7.68927C16.2684 7.59176 16.2033 7.50325 16.1212 7.42887L12.6213 4.22807C12.538 4.15522 12.4399 4.09811 12.3325 4.06003C12.1195 3.97999 11.8805 3.97999 11.6675 4.06003C11.5601 4.09811 11.462 4.15522 11.3787 4.22807L7.87875 7.42887C7.79717 7.50348 7.73245 7.59205 7.6883 7.68953C7.64415 7.78701 7.62142 7.89149 7.62142 7.99701C7.62142 8.10252 7.64415 8.207 7.6883 8.30448C7.73245 8.40197 7.79717 8.49054 7.87875 8.56515C7.96033 8.63976 8.05719 8.69894 8.16378 8.73932C8.27038 8.7797 8.38462 8.80048 8.5 8.80048C8.61538 8.80048 8.72962 8.7797 8.83622 8.73932C8.94281 8.69894 9.03967 8.63976 9.12125 8.56515Z"
          fill="currentColor"/>
</svg>
