<svg width="24" height="24" viewBox="0 0 24 24" fill="none" xmlns="http://www.w3.org/2000/svg">
    <path d="M12 4C10.4178 4 8.87103 4.46919 7.55544 5.34824C6.23985 6.22729 5.21447 7.47672 4.60897 8.93853C4.00347 10.4003 3.84504 12.0089 4.15372 13.5607C4.4624 15.1126 5.22433 16.538 6.34315 17.6569C7.46197 18.7757 8.88743 19.5376 10.4393 19.8463C11.9911 20.155 13.5997 19.9965 15.0615 19.391C16.5233 18.7855 17.7727 17.7602 18.6518 16.4446C19.5308 15.129 20 13.5822 20 12C20 9.87827 19.1571 7.84344 17.6569 6.34315C16.1566 4.84285 14.1217 4 12 4ZM12 18.5455C10.7054 18.5455 9.43994 18.1616 8.36354 17.4423C7.28715 16.7231 6.4482 15.7009 5.95279 14.5048C5.45738 13.3088 5.32776 11.9927 5.58032 10.723C5.83288 9.45335 6.45627 8.28706 7.37167 7.37166C8.28707 6.45627 9.45335 5.83287 10.723 5.58031C11.9927 5.32776 13.3088 5.45738 14.5048 5.95279C15.7009 6.4482 16.7231 7.28714 17.4423 8.36354C18.1616 9.43993 18.5455 10.7054 18.5455 12C18.5455 13.736 17.8558 15.4008 16.6283 16.6283C15.4008 17.8558 13.736 18.5455 12 18.5455ZM12.4291 8.85091C12.8025 8.86044 13.1686 8.95595 13.4991 9.13002C13.8296 9.30408 14.1155 9.55202 14.3345 9.85454C14.4514 10.0077 14.6242 10.1083 14.8151 10.1342C15.0059 10.1601 15.1993 10.1092 15.3527 9.99273C15.4291 9.93429 15.4931 9.86131 15.541 9.77799C15.589 9.69467 15.6199 9.60267 15.6321 9.50731C15.6443 9.41195 15.6374 9.31512 15.6119 9.22242C15.5865 9.12973 15.5428 9.04301 15.4836 8.96727C15.1298 8.48792 14.6701 8.09676 14.1402 7.82428C13.6104 7.55179 13.0248 7.40535 12.4291 7.39636C11.5962 7.4206 10.7911 7.70106 10.1235 8.19952C9.45582 8.69798 8.95811 9.3902 8.69818 10.1818H7.63637C7.44348 10.1818 7.2585 10.2584 7.12211 10.3948C6.98572 10.5312 6.90909 10.7162 6.90909 10.9091C6.90909 11.102 6.98572 11.287 7.12211 11.4233C7.2585 11.5597 7.44348 11.6364 7.63637 11.6364H8.36364C8.36364 11.76 8.36364 11.8764 8.36364 12C8.36364 12.1236 8.36364 12.24 8.36364 12.3636H7.63637C7.44348 12.3636 7.2585 12.4403 7.12211 12.5766C6.98572 12.713 6.90909 12.898 6.90909 13.0909C6.90909 13.2838 6.98572 13.4688 7.12211 13.6052C7.2585 13.7416 7.44348 13.8182 7.63637 13.8182H8.69818C8.95811 14.6098 9.45582 15.302 10.1235 15.8005C10.7911 16.2989 11.5962 16.5794 12.4291 16.6036C13.0248 16.5946 13.6104 16.4482 14.1402 16.1757C14.6701 15.9032 15.1298 15.5121 15.4836 15.0327C15.5619 14.96 15.6231 14.8709 15.6631 14.7719C15.703 14.6728 15.7206 14.5662 15.7147 14.4595C15.7087 14.3529 15.6793 14.2488 15.6286 14.1548C15.5779 14.0608 15.5072 13.9791 15.4213 13.9155C15.3355 13.852 15.2367 13.8081 15.132 13.787C15.0273 13.766 14.9192 13.7682 14.8154 13.7936C14.7117 13.8191 14.6148 13.867 14.5317 13.9341C14.4486 14.0012 14.3813 14.0858 14.3345 14.1818C14.1155 14.4843 13.8296 14.7323 13.4991 14.9063C13.1686 15.0804 12.8025 15.1759 12.4291 15.1855C11.9853 15.1679 11.5543 15.0319 11.1808 14.7914C10.8074 14.551 10.5051 14.2149 10.3055 13.8182H12C12.1929 13.8182 12.3779 13.7416 12.5143 13.6052C12.6507 13.4688 12.7273 13.2838 12.7273 13.0909C12.7273 12.898 12.6507 12.713 12.5143 12.5766C12.3779 12.4403 12.1929 12.3636 12 12.3636H9.85455C9.83523 12.2432 9.82309 12.1218 9.81818 12C9.82309 11.8782 9.83523 11.7567 9.85455 11.6364H12C12.1929 11.6364 12.3779 11.5597 12.5143 11.4233C12.6507 11.287 12.7273 11.102 12.7273 10.9091C12.7273 10.7162 12.6507 10.5312 12.5143 10.3948C12.3779 10.2584 12.1929 10.1818 12 10.1818H10.3055C10.5099 9.79186 10.8143 9.46317 11.1874 9.22934C11.5605 8.99551 11.989 8.86492 12.4291 8.85091Z"
          fill="currentColor"/>
</svg>
