<svg xmlns="http://www.w3.org/2000/svg" width="24" height="24" fill="currentColor" viewBox="0 0 24 24">
  <path d="M18.487 6.385h-2.139c-.13-1.737-.579-3.078-1.335-4.005-.74-.897-1.786-1.38-3.019-1.38s-2.363.492-3.11 1.428c-.747.917-1.177 2.249-1.28 3.947H5.513C4.13 6.375 3 7.543 3 8.972v10.432C3 20.832 4.13 22 5.513 22h12.974C19.87 22 21 20.832 21 19.404V8.972c0-1.429-1.13-2.587-2.513-2.587Zm-8.182-2.731c.401-.492.952-.733 1.69-.733.7 0 1.215.221 1.607.704.551.666.794 1.718.897 2.77H9.455c.074-1.033.308-2.065.85-2.731v-.01Zm8.855 15.77a.681.681 0 0 1-.673.694H5.503a.681.681 0 0 1-.672-.695V8.991c0-.386.299-.695.672-.695h2.102c.056.801.15 1.36.159 1.39 0 0 .28.627 1.018.473.85-.174.794-.82.794-.82a9.296 9.296 0 0 1-.121-1.053h5.062c-.018.3-.037.57-.065.792-.037.337.084.675.346.878a.972.972 0 0 0 .41.193c.197.048.365.02.505-.039a.94.94 0 0 0 .57-.781c.028-.242.065-.608.084-1.052h2.12a.68.68 0 0 1 .673.695v10.452Z"/>
</svg>
