<svg width="24" height="24" viewBox="0 0 24 24" fill="none" xmlns="http://www.w3.org/2000/svg">
<path d="M6.14994 15.9C6.24994 15.85 6.31994 15.78 6.37994 15.69C6.43994 15.6 6.45994 15.49 6.45994 15.35C6.45994 15.18 6.39994 15.03 6.28994 14.91C6.17994 14.79 6.01994 14.74 5.81994 14.74H4.68994V15.96H5.81994C5.93994 15.96 6.04994 15.94 6.14994 15.89V15.9Z" fill="currentColor"/>
<path d="M6.35994 16.86C6.24994 16.79 6.10994 16.76 5.95994 16.76H4.68994V18.21H5.92994C6.07994 18.21 6.20994 18.18 6.32994 18.12C6.44994 18.06 6.53994 17.98 6.59994 17.87C6.66994 17.76 6.69994 17.63 6.69994 17.48C6.69994 17.34 6.66994 17.22 6.60994 17.12C6.54994 17.01 6.46994 16.93 6.34994 16.86H6.35994Z" fill="currentColor"/>
<path d="M17.5601 17.12H19.0501L18.3001 14.78L17.5601 17.12Z" fill="currentColor"/>
<path d="M18.67 10.41V6.95C18.67 6.43 18.46 5.92 18.08 5.55C17.7 5.18 17.2 4.97 16.67 4.97H12.48L12.27 4.31C12.13 3.92 11.88 3.59 11.54 3.35C11.19 3.12 10.79 3 10.37 3H7.33C6.8 3 6.29 3.21 5.92 3.58C5.54 3.95 5.33 4.45 5.33 4.98V10.41C2.36 10.54 0 12.97 0 15.97C0 18.97 2.5 21.54 5.57 21.54H18.42C21.5 21.54 23.99 19.04 23.99 15.97C23.99 12.9 21.62 10.54 18.66 10.41H18.67ZM6.67 4.97C6.67 4.8 6.74 4.63 6.87 4.5C7 4.38 7.16 4.31 7.34 4.31H10.38C10.52 4.31 10.66 4.35 10.77 4.43C10.88 4.51 10.97 4.62 11.01 4.75L11.37 5.83C11.41 5.96 11.5 6.07 11.61 6.15C11.72 6.23 11.86 6.27 12 6.27H16.67C16.85 6.27 17.02 6.34 17.14 6.46C17.27 6.58 17.34 6.75 17.34 6.93V10.38H6.67V4.97ZM11.14 13.41H10.35L9.83 12.79L9.3 13.41H8.51L9.47 12.31H10.18L11.14 13.41ZM7.38 18.28C7.27 18.5 7.1 18.68 6.87 18.8C6.65 18.93 6.37 18.99 6.04 18.99H3.83V13.95H5.83C6.17 13.95 6.45 14.02 6.67 14.16C6.89 14.3 7.05 14.47 7.16 14.68C7.27 14.89 7.32 15.11 7.32 15.34C7.32 15.62 7.25 15.85 7.12 16.05C7.03 16.18 6.91 16.27 6.78 16.35C6.99 16.43 7.18 16.55 7.3 16.72C7.47 16.95 7.55 17.21 7.55 17.5C7.55 17.79 7.49 18.06 7.38 18.28ZM11.51 14.74H9.1V15.98H11.09V16.77H9.1V18.19H11.51V18.98H8.25V13.94H11.51V14.73V14.74ZM16.04 14.74H14.41V18.99H13.57V14.74H11.94V13.95H16.05V14.74H16.04ZM19.66 18.99L19.31 17.9H17.32L16.98 18.99H16.11L17.7 13.95H18.94L20.53 18.99H19.66Z" fill="currentColor"/>
</svg>
