<svg xmlns="http://www.w3.org/2000/svg" width="24" height="24" fill="currentColor" viewBox="0 0 24 24">
  <path d="M19.875 20H4.125a1.2 1.2 0 0 0-.795.293A.948.948 0 0 0 3 21c0 .265.119.52.33.707a1.2 1.2 0 0 0 .795.293h15.75a1.2 1.2 0 0 0 .796-.293A.947.947 0 0 0 21 21a.947.947 0 0 0-.33-.707 1.2 1.2 0 0 0-.795-.293ZM8.299 7.706l2.576-2.3v11.593c0 .265.118.52.33.707a1.2 1.2 0 0 0 .795.293 1.2 1.2 0 0 0 .796-.293.947.947 0 0 0 .329-.707V5.406l2.576 2.3c.105.094.23.169.366.22a1.247 1.247 0 0 0 .866 0 1.15 1.15 0 0 0 .366-.22c.105-.093.189-.203.246-.325a.905.905 0 0 0 0-.77 1.002 1.002 0 0 0-.246-.325l-4.5-4a1.255 1.255 0 0 0-1.597 0l-4.5 4a1.005 1.005 0 0 0-.246.326.909.909 0 0 0 0 .769c.057.121.14.232.245.325.105.094.23.168.367.218a1.253 1.253 0 0 0 .864 0c.137-.05.262-.124.367-.218Z"/>
</svg>
