<svg xmlns="http://www.w3.org/2000/svg" width="24" height="24" fill="currentColor" viewBox="0 0 24 24">
  <path d="M20.1 9.619a.858.858 0 0 0 .345-.073.899.899 0 0 0 .291-.206.96.96 0 0 0 .196-.31A1 1 0 0 0 21 8.666V5.81a.99.99 0 0 0-.17-.557.905.905 0 0 0-.445-.346l-8.1-2.857a.855.855 0 0 0-.57 0l-8.1 2.857a.904.904 0 0 0-.445.346.99.99 0 0 0-.17.557v2.857a1 1 0 0 0 .068.365c.046.115.112.22.196.309a.898.898 0 0 0 .292.206.853.853 0 0 0 .344.073h.9v6.842c-.525.196-.98.559-1.302 1.039A2.967 2.967 0 0 0 3 19.143v1.905a1 1 0 0 0 .068.364c.046.116.112.22.196.31a.898.898 0 0 0 .292.206A.87.87 0 0 0 3.9 22h16.2a.859.859 0 0 0 .345-.072.899.899 0 0 0 .291-.207.96.96 0 0 0 .196-.309c.045-.115.068-.24.068-.364v-1.905a2.968 2.968 0 0 0-.498-1.643 2.717 2.717 0 0 0-1.302-1.04V9.62h.9Zm-.9 10.476H4.8v-.952c0-.253.095-.495.264-.673a.877.877 0 0 1 .636-.28h12.6c.239 0 .467.101.636.28.169.178.264.42.264.673v.952Zm-12.6-3.81V9.62h1.8v6.667H6.6Zm3.6 0V9.62h3.6v6.667h-3.6Zm5.4 0V9.62h1.8v6.667h-1.8ZM4.8 7.715V6.496l7.2-2.54 7.2 2.54v1.218H4.8Z"/>
</svg>
