<svg width="24" height="24" viewBox="0 0 24 24" xmlns="http://www.w3.org/2000/svg" xml:space="preserve"
     style="fill-rule:evenodd;clip-rule:evenodd;stroke-linejoin:round;stroke-miterlimit:2;">
    <path d="M22.392,17.992L22.392,6.008L12,0.016L1.608,6.008L1.608,17.992L12,23.984L22.392,17.992Z" style="fill:rgb(76,183,173);fill-rule:nonzero;"/>
    <path d="M8.704,12.336L8.704,15.336L7.272,15.336L7.272,7.656L9.616,7.656C10.144,7.656 10.592,7.712 10.968,7.816C11.344,7.92 11.648,8.072 11.888,8.272C12.128,8.464 12.304,8.696 12.416,8.968C12.528,9.24 12.584,9.536 12.584,9.864C12.584,10.12 12.544,10.368 12.472,10.6C12.392,10.832 12.288,11.04 12.144,11.224C12,11.416 11.824,11.576 11.616,11.72C11.408,11.864 11.168,11.976 10.896,12.056C11.08,12.16 11.232,12.304 11.368,12.496L13.296,15.336L12.008,15.336C11.88,15.336 11.776,15.312 11.688,15.264C11.6,15.216 11.528,15.144 11.464,15.048L9.848,12.584C9.784,12.496 9.72,12.424 9.648,12.384C9.576,12.344 9.472,12.328 9.328,12.328L8.704,12.336ZM8.704,11.312L9.6,11.312C9.872,11.312 10.104,11.28 10.304,11.208C10.504,11.136 10.672,11.048 10.8,10.928C10.928,10.808 11.024,10.672 11.088,10.504C11.152,10.336 11.184,10.16 11.184,9.968C11.184,9.576 11.056,9.28 10.8,9.072C10.544,8.864 10.152,8.76 9.624,8.76L8.712,8.76L8.704,11.312Z" style="fill:white;fill-rule:nonzero;"/>
    <path d="M16.504,11.752C16.472,11.816 16.416,11.848 16.344,11.848C16.304,11.848 16.256,11.832 16.2,11.8C16.144,11.768 16.08,11.736 16,11.696C15.92,11.656 15.832,11.624 15.72,11.592C15.608,11.56 15.488,11.544 15.336,11.544C15.208,11.544 15.096,11.56 14.992,11.592C14.888,11.624 14.8,11.672 14.728,11.728C14.656,11.784 14.6,11.848 14.56,11.928C14.52,12 14.504,12.088 14.504,12.176C14.504,12.288 14.536,12.376 14.6,12.448C14.664,12.52 14.752,12.584 14.856,12.64C14.96,12.696 15.08,12.744 15.216,12.784C15.352,12.824 15.488,12.872 15.624,12.912C15.768,12.96 15.904,13.008 16.032,13.064C16.168,13.12 16.28,13.192 16.392,13.272C16.496,13.36 16.584,13.464 16.648,13.584C16.712,13.704 16.744,13.856 16.744,14.032C16.744,14.232 16.712,14.416 16.64,14.584C16.568,14.752 16.464,14.896 16.328,15.024C16.192,15.144 16.016,15.248 15.816,15.312C15.616,15.384 15.384,15.416 15.12,15.416C14.816,15.416 14.544,15.368 14.304,15.272C14.064,15.176 13.856,15.048 13.68,14.896L13.856,14.608C13.88,14.568 13.904,14.544 13.936,14.52C13.968,14.496 14.008,14.488 14.056,14.488C14.104,14.488 14.16,14.504 14.216,14.544C14.272,14.584 14.344,14.632 14.424,14.672C14.504,14.72 14.6,14.76 14.72,14.8C14.832,14.84 14.976,14.856 15.152,14.856C15.296,14.856 15.424,14.84 15.536,14.8C15.648,14.76 15.736,14.712 15.816,14.648C15.888,14.584 15.944,14.504 15.984,14.424C16.016,14.336 16.04,14.248 16.04,14.152C16.04,14.032 16.008,13.936 15.944,13.856C15.88,13.776 15.792,13.712 15.688,13.656C15.584,13.6 15.464,13.552 15.328,13.512C15.192,13.472 15.056,13.424 14.92,13.384C14.784,13.344 14.64,13.288 14.512,13.232C14.376,13.176 14.256,13.104 14.152,13.016C14.048,12.928 13.96,12.824 13.896,12.688C13.832,12.56 13.8,12.4 13.8,12.216C13.8,12.048 13.832,11.896 13.904,11.744C13.976,11.592 14.072,11.456 14.2,11.344C14.328,11.232 14.488,11.136 14.68,11.072C14.872,11 15.088,10.968 15.328,10.968C15.608,10.968 15.864,11.016 16.088,11.104C16.312,11.192 16.504,11.312 16.672,11.472L16.504,11.752Z" style="fill:white;fill-rule:nonzero;"/>
</svg>
