<svg width="24" height="24" viewBox="0 0 24 24" xmlns="http://www.w3.org/2000/svg" xml:space="preserve"
     style="fill-rule:evenodd;clip-rule:evenodd;stroke-linejoin:round;stroke-miterlimit:2;">
    <path d="M22.392,17.992L22.392,6.008L12,0.016L1.608,6.008L1.608,17.992L12,23.984L22.392,17.992Z" style="fill:rgb(161,136,127);fill-rule:nonzero;"/>
    <path d="M12.944,9.056C12.904,9.136 12.856,9.192 12.808,9.224C12.76,9.256 12.696,9.272 12.624,9.272C12.552,9.272 12.472,9.248 12.384,9.192C12.296,9.136 12.192,9.08 12.072,9.008C11.952,8.944 11.808,8.88 11.648,8.824C11.488,8.768 11.296,8.744 11.08,8.744C10.88,8.744 10.712,8.768 10.56,8.816C10.416,8.864 10.288,8.928 10.184,9.016C10.08,9.104 10.008,9.2 9.96,9.32C9.912,9.44 9.888,9.568 9.888,9.712C9.888,9.896 9.936,10.04 10.04,10.168C10.144,10.288 10.272,10.392 10.44,10.48C10.608,10.568 10.8,10.64 11.008,10.712C11.224,10.776 11.44,10.848 11.656,10.928C11.88,11 12.096,11.096 12.304,11.192C12.52,11.296 12.704,11.424 12.872,11.576C13.04,11.728 13.176,11.92 13.272,12.144C13.376,12.368 13.424,12.64 13.424,12.96C13.424,13.304 13.368,13.632 13.248,13.936C13.128,14.24 12.952,14.504 12.728,14.728C12.504,14.952 12.216,15.128 11.888,15.256C11.56,15.384 11.176,15.448 10.752,15.448C10.504,15.448 10.264,15.424 10.024,15.376C9.784,15.328 9.56,15.264 9.336,15.168C9.112,15.072 8.912,14.976 8.72,14.848C8.528,14.72 8.36,14.584 8.216,14.432L8.632,13.744C8.672,13.696 8.72,13.656 8.776,13.616C8.832,13.584 8.888,13.568 8.96,13.568C9.048,13.568 9.144,13.6 9.248,13.68C9.352,13.752 9.472,13.832 9.616,13.92C9.76,14.008 9.92,14.088 10.112,14.16C10.304,14.232 10.528,14.272 10.8,14.272C11.208,14.272 11.528,14.176 11.744,13.984C11.968,13.792 12.08,13.512 12.08,13.152C12.08,12.952 12.032,12.784 11.928,12.656C11.824,12.528 11.696,12.424 11.528,12.336C11.36,12.248 11.168,12.176 10.96,12.112C10.744,12.048 10.528,11.984 10.312,11.912C10.096,11.84 9.872,11.76 9.664,11.656C9.456,11.552 9.264,11.424 9.096,11.264C8.928,11.104 8.792,10.904 8.696,10.664C8.592,10.424 8.544,10.128 8.544,9.776C8.544,9.496 8.6,9.224 8.712,8.96C8.824,8.696 8.984,8.456 9.2,8.256C9.416,8.056 9.68,7.888 9.992,7.76C10.304,7.632 10.664,7.576 11.064,7.576C11.52,7.576 11.936,7.648 12.32,7.792C12.704,7.936 13.032,8.128 13.296,8.384L12.944,9.056Z" style="fill:white;fill-rule:nonzero;"/>
    <path d="M15.384,9.688C15.384,9.76 15.368,9.832 15.336,9.896C15.304,9.96 15.264,10.016 15.216,10.064C15.168,10.112 15.112,10.152 15.048,10.184C14.984,10.208 14.912,10.224 14.84,10.224C14.768,10.224 14.696,10.208 14.632,10.184C14.568,10.16 14.512,10.12 14.464,10.064C14.416,10.016 14.376,9.96 14.344,9.896C14.312,9.832 14.304,9.76 14.304,9.688C14.304,9.616 14.32,9.544 14.344,9.48C14.376,9.416 14.408,9.352 14.464,9.304C14.512,9.256 14.568,9.216 14.632,9.184C14.696,9.152 14.768,9.144 14.84,9.144C14.912,9.144 14.984,9.16 15.048,9.184C15.112,9.208 15.168,9.248 15.216,9.304C15.264,9.36 15.304,9.408 15.336,9.48C15.368,9.544 15.384,9.616 15.384,9.688ZM15.216,11.04L15.216,15.344L14.456,15.344L14.456,11.04L15.216,11.04Z" style="fill:white;fill-rule:nonzero;"/>
</svg>
