<svg width="24" height="24" viewBox="0 0 300 300"  xmlns="http://www.w3.org/2000/svg" xml:space="preserve"
     style="fill-rule:evenodd;clip-rule:evenodd;stroke-linejoin:round;stroke-miterlimit:2;">
    <g>
        <g>
            <path d="M279.9,224.9L279.9,75.1L150,0.2L20.1,75.1L20.1,224.9L150,299.8L279.9,224.9Z" style="fill:rgb(172,72,189);fill-rule:nonzero;"/>
        </g>
        <g>
            <path d="M151.4,191.8L137.6,191.8C136,191.8 134.8,191.4 133.8,190.6C132.8,189.8 132.1,188.9 131.6,187.7L124.4,168.1L84.5,168.1L77.3,187.7C76.9,188.7 76.2,189.6 75.2,190.5C74.2,191.4 72.9,191.8 71.4,191.8L57.5,191.8L95.3,95.7L113.6,95.7L151.4,191.8ZM89.1,155.5L119.8,155.5L108.1,123.5C107.6,122.1 107,120.4 106.3,118.5C105.6,116.6 105,114.5 104.4,112.2C103.8,114.5 103.2,116.6 102.6,118.5C102,120.4 101.4,122.2 100.8,123.6L89.1,155.5Z" style="fill:white;fill-rule:nonzero;"/>
            <path d="M196.1,147.5C195.8,147.9 195.5,148.2 195.2,148.4C194.9,148.6 194.5,148.7 194,148.7C193.5,148.7 192.9,148.5 192.3,148C191.7,147.5 190.9,147.1 189.9,146.5C188.9,146 187.8,145.5 186.4,145C185,144.5 183.4,144.3 181.4,144.3C178.8,144.3 176.5,144.8 174.4,145.7C172.3,146.6 170.7,148 169.3,149.8C167.9,151.6 166.9,153.7 166.2,156.2C165.5,158.7 165.2,161.5 165.2,164.6C165.2,167.9 165.6,170.7 166.3,173.3C167,175.8 168.1,177.9 169.4,179.7C170.7,181.5 172.4,182.7 174.3,183.6C176.2,184.5 178.4,185 180.8,185C183.1,185 185,184.7 186.5,184.2C188,183.7 189.2,183 190.2,182.4C191.2,181.8 192,181.1 192.6,180.6C193.2,180.1 193.9,179.8 194.5,179.8C195.3,179.8 195.9,180.1 196.3,180.7L199,184.1C196.7,187 193.7,189.1 190.2,190.4C186.7,191.7 183,192.4 179.1,192.4C175.7,192.4 172.6,191.8 169.7,190.5C166.8,189.2 164.3,187.5 162.2,185.1C160.1,182.7 158.4,179.9 157.2,176.4C156,173 155.4,169.1 155.4,164.7C155.4,160.7 156,157 157.1,153.6C158.2,150.2 159.9,147.3 162,144.8C164.1,142.3 166.8,140.4 169.9,139C173,137.6 176.7,136.9 180.7,136.9C184.5,136.9 187.8,137.5 190.7,138.7C193.6,139.9 196.2,141.6 198.4,143.9L196.1,147.5Z" style="fill:white;fill-rule:nonzero;"/>
            <path d="M209,191.8L209,138L214.4,138C215.4,138 216.1,138.2 216.5,138.6C216.9,139 217.2,139.7 217.3,140.6L217.9,149C219.7,145.2 222,142.3 224.7,140.2C227.4,138.1 230.6,137 234.2,137C235.7,137 237,137.2 238.2,137.5C239.4,137.8 240.5,138.3 241.6,138.9L240.4,146C240.2,146.9 239.6,147.3 238.8,147.3C238.3,147.3 237.5,147.1 236.5,146.8C235.5,146.5 234,146.3 232.2,146.3C228.9,146.3 226.1,147.3 223.9,149.2C221.7,151.1 219.8,153.9 218.3,157.5L218.3,191.7L209,191.8Z" style="fill:white;fill-rule:nonzero;"/>
        </g>
    </g>
</svg>

