<svg width="24" height="24" viewBox="0 0 24 24" xmlns="http://www.w3.org/2000/svg" xml:space="preserve"
     style="fill-rule:evenodd;clip-rule:evenodd;stroke-linejoin:round;stroke-miterlimit:2;">
    <path d="M22.392,17.992L22.392,6.008L12,0.016L1.608,6.008L1.608,17.992L12,23.984L22.392,17.992Z" style="fill:rgb(239,108,2);fill-rule:nonzero;"/>
    <path d="M12.608,7.656L12.608,8.832L10.296,8.832L10.296,15.344L8.864,15.344L8.864,8.832L6.536,8.832L6.536,7.656L12.608,7.656Z" style="fill:white;fill-rule:nonzero;"/>
    <path d="M13.384,15.344L13.384,9.088L14.144,9.088L14.144,11.664C14.32,11.456 14.528,11.288 14.76,11.168C14.992,11.04 15.256,10.976 15.552,10.976C15.8,10.976 16.024,11.024 16.224,11.12C16.424,11.216 16.6,11.352 16.736,11.536C16.88,11.72 16.984,11.952 17.064,12.224C17.144,12.496 17.176,12.816 17.176,13.168C17.176,13.488 17.136,13.776 17.048,14.056C16.96,14.328 16.84,14.568 16.68,14.768C16.52,14.968 16.328,15.128 16.096,15.24C15.864,15.352 15.608,15.408 15.312,15.408C15.032,15.408 14.8,15.352 14.6,15.248C14.408,15.144 14.24,14.992 14.088,14.8L14.048,15.192C14.024,15.304 13.96,15.352 13.856,15.352L13.384,15.344ZM15.304,11.576C15.056,11.576 14.84,11.632 14.656,11.744C14.472,11.856 14.304,12.016 14.144,12.224L14.144,14.304C14.28,14.488 14.432,14.624 14.6,14.696C14.768,14.768 14.952,14.808 15.152,14.808C15.552,14.808 15.864,14.664 16.08,14.376C16.296,14.088 16.4,13.68 16.4,13.152C16.4,12.872 16.376,12.632 16.328,12.432C16.28,12.232 16.208,12.064 16.112,11.936C16.016,11.808 15.904,11.712 15.768,11.656C15.632,11.608 15.48,11.576 15.304,11.576Z" style="fill:white;fill-rule:nonzero;"/>
</svg>
