<svg width="24" height="24" id="Calque_1" xmlns="http://www.w3.org/2000/svg" x="0px" y="0px"
     viewBox="0 0 30 30" enable-background="new 0 0 30 30" xml:space="preserve">
<g>

		<radialGradient id="SVGID_1_" cx="-2.3649" cy="-2.3661" r="32.6789" gradientTransform="matrix(0.8011 0.4256 -0.3216 0.6052 1.8702 1.2131)" gradientUnits="userSpaceOnUse">
		<stop  offset="0" style="stop-color:#47BAEC"/>
		<stop  offset="0.3167" style="stop-color:#44B8EA"/>
		<stop  offset="0.5302" style="stop-color:#3BB3E4"/>
		<stop  offset="0.7131" style="stop-color:#2CA9DA"/>
		<stop  offset="0.8779" style="stop-color:#179BCC"/>
		<stop  offset="1" style="stop-color:#018EBE"/>
	</radialGradient>
	<path fill="url(#SVGID_1_)" d="M29.231,0H0.769C0.344,0,0,0.344,0,0.769v22.312c6.977,0.933,19.011,0.429,30-4.03V0.769
		C30,0.344,29.656,0,29.231,0z"/>
	<path fill="#018EBE" d="M0,26.855v2.376C0,29.656,0.344,30,0.769,30H30v-9.764C24.69,23.767,11.666,27.041,0,26.855z"/>
	<g>
		<path fill="#FFFFFF" d="M9.977,14.885c0.276,0,0.517-0.022,0.727-0.069c0.21-0.048,0.41-0.11,0.599-0.188v-1.295H10.46
			c-0.127,0-0.224-0.033-0.293-0.098c-0.072-0.067-0.107-0.152-0.107-0.253v-1.089h3.035v3.602c-0.22,0.16-0.448,0.298-0.682,0.413
			c-0.238,0.115-0.489,0.21-0.758,0.282c-0.265,0.076-0.551,0.127-0.854,0.165c-0.303,0.034-0.627,0.052-0.975,0.052
			c-0.624,0-1.202-0.11-1.733-0.331s-0.992-0.525-1.381-0.913c-0.386-0.389-0.692-0.849-0.913-1.381
			c-0.22-0.534-0.331-1.113-0.331-1.738c0-0.636,0.107-1.22,0.317-1.754c0.21-0.532,0.513-0.992,0.906-1.38
			C7.083,8.525,7.555,8.226,8.113,8.01c0.555-0.215,1.178-0.322,1.864-0.322c0.355,0,0.689,0.029,1.003,0.088
			c0.314,0.059,0.599,0.138,0.865,0.239c0.262,0.102,0.503,0.222,0.723,0.363c0.217,0.141,0.413,0.293,0.586,0.456l-0.575,0.873
			c-0.055,0.081-0.121,0.146-0.196,0.193c-0.076,0.047-0.158,0.071-0.248,0.071c-0.117,0-0.238-0.04-0.362-0.117
			c-0.158-0.095-0.307-0.176-0.444-0.243c-0.138-0.069-0.279-0.124-0.424-0.167c-0.145-0.043-0.296-0.074-0.458-0.095
			c-0.158-0.019-0.338-0.029-0.537-0.029c-0.372,0-0.706,0.065-1.003,0.196s-0.548,0.315-0.758,0.555
			c-0.21,0.238-0.369,0.524-0.482,0.858c-0.114,0.334-0.172,0.705-0.172,1.114c0,0.453,0.065,0.856,0.189,1.208
			S7.979,13.9,8.2,14.143c0.22,0.241,0.482,0.425,0.785,0.553C9.288,14.823,9.619,14.885,9.977,14.885z"/>
		<path fill="#FFFFFF" d="M14.301,16.315v-6.074h1.078c0.09,0,0.165,0.009,0.224,0.024c0.062,0.016,0.114,0.04,0.155,0.072
			c0.038,0.034,0.069,0.078,0.093,0.133c0.021,0.055,0.038,0.121,0.055,0.198l0.1,0.568c0.22-0.343,0.472-0.615,0.748-0.813
			c0.279-0.2,0.582-0.3,0.91-0.3c0.276,0,0.5,0.067,0.668,0.2l-0.234,1.335c-0.017,0.083-0.048,0.14-0.093,0.172
			c-0.048,0.034-0.11,0.05-0.189,0.05c-0.065,0-0.145-0.009-0.234-0.026s-0.203-0.026-0.338-0.026c-0.479,0-0.854,0.253-1.127,0.761
			v3.724H14.301z"/>
		<path fill="#FFFFFF" d="M23.522,11.683c-0.055,0.065-0.107,0.119-0.158,0.157c-0.052,0.04-0.124,0.059-0.217,0.059
			c-0.09,0-0.172-0.021-0.245-0.064c-0.072-0.043-0.152-0.091-0.241-0.143c-0.09-0.053-0.196-0.102-0.317-0.145
			c-0.121-0.041-0.272-0.064-0.451-0.064c-0.224,0-0.413,0.041-0.575,0.122c-0.162,0.083-0.296,0.2-0.403,0.351
			c-0.103,0.153-0.183,0.339-0.234,0.56c-0.052,0.22-0.076,0.47-0.076,0.748c0,0.58,0.114,1.028,0.338,1.34
			c0.224,0.314,0.534,0.469,0.927,0.469c0.214,0,0.379-0.026,0.503-0.079c0.121-0.052,0.227-0.11,0.314-0.176
			c0.086-0.064,0.162-0.124,0.234-0.177c0.072-0.055,0.165-0.083,0.276-0.083c0.141,0,0.251,0.053,0.327,0.158l0.527,0.649
			c-0.189,0.215-0.386,0.389-0.593,0.525c-0.207,0.134-0.42,0.238-0.634,0.314c-0.217,0.076-0.438,0.131-0.655,0.158
			c-0.217,0.031-0.431,0.045-0.637,0.045c-0.372,0-0.727-0.069-1.065-0.21s-0.634-0.345-0.889-0.612
			c-0.26-0.269-0.463-0.598-0.612-0.987c-0.152-0.391-0.227-0.835-0.227-1.335c0-0.438,0.065-0.847,0.196-1.228
			c0.131-0.381,0.324-0.71,0.582-0.989c0.257-0.279,0.574-0.5,0.949-0.66c0.376-0.16,0.813-0.239,1.309-0.239
			c0.475,0,0.896,0.076,1.254,0.227c0.358,0.153,0.682,0.376,0.972,0.668L23.522,11.683z"/>
	</g>
</g>
</svg>
