<svg width="24" height="24" viewBox="0 0 24 24" xmlns="http://www.w3.org/2000/svg" xml:space="preserve"
     style="fill-rule:evenodd;clip-rule:evenodd;stroke-linejoin:round;stroke-miterlimit:2;">
    <path d="M22.392,17.992L22.392,6.008L12,0.016L1.608,6.008L1.608,17.992L12,23.984L22.392,17.992Z" style="fill:rgb(211,46,48);fill-rule:nonzero;"/>
    <path d="M8.92,12.632L8.92,15.336L7.488,15.336L7.488,7.656L9.992,7.656C10.504,7.656 10.952,7.72 11.328,7.84C11.704,7.96 12.016,8.128 12.256,8.344C12.496,8.56 12.68,8.816 12.8,9.12C12.92,9.424 12.976,9.752 12.976,10.112C12.976,10.488 12.912,10.824 12.792,11.136C12.664,11.448 12.48,11.712 12.232,11.936C11.984,12.16 11.672,12.336 11.304,12.456C10.928,12.584 10.496,12.64 9.992,12.64L8.92,12.64L8.92,12.632ZM8.92,11.52L9.992,11.52C10.256,11.52 10.48,11.488 10.68,11.424C10.872,11.36 11.04,11.264 11.168,11.144C11.296,11.024 11.392,10.872 11.456,10.696C11.52,10.52 11.552,10.328 11.552,10.112C11.552,9.904 11.52,9.72 11.456,9.552C11.392,9.384 11.296,9.248 11.168,9.128C11.04,9.008 10.88,8.92 10.68,8.856C10.488,8.792 10.256,8.76 9.992,8.76L8.92,8.76L8.92,11.52Z" style="fill:white;fill-rule:nonzero;"/>
    <path d="M13.936,15.344L13.936,11.04L14.368,11.04C14.448,11.04 14.504,11.056 14.536,11.088C14.568,11.12 14.592,11.176 14.6,11.248L14.648,11.92C14.792,11.616 14.976,11.384 15.192,11.216C15.408,11.048 15.664,10.96 15.952,10.96C16.072,10.96 16.176,10.976 16.272,11C16.368,11.024 16.456,11.064 16.544,11.112L16.448,11.68C16.432,11.752 16.384,11.784 16.32,11.784C16.28,11.784 16.216,11.768 16.136,11.744C16.056,11.72 15.936,11.704 15.792,11.704C15.528,11.704 15.304,11.784 15.128,11.936C14.952,12.088 14.8,12.312 14.68,12.6L14.68,15.336L13.936,15.344Z" style="fill:white;fill-rule:nonzero;"/>
</svg>
