<svg width="24" height="24" viewBox="0 0 24 24" xmlns="http://www.w3.org/2000/svg" xml:space="preserve"
     style="fill-rule:evenodd;clip-rule:evenodd;stroke-linejoin:round;stroke-miterlimit:2;">
    <path d="M22.392,17.992L22.392,6.008L12,0.016L1.608,6.008L1.608,17.992L12,23.984L22.392,17.992Z" style="fill:rgb(0,135,210);fill-rule:nonzero;"/>
    <g opacity="0.6">
        <path d="M1.608,17.992L12,23.904L22.392,17.992L12,23.984L1.608,17.992Z" style="fill:rgb(0,135,210);fill-opacity:0.6;fill-rule:nonzero;"/>
    </g>
    <path d="M7.736,14.16L10.816,14.16L10.816,15.344L6.304,15.344L6.304,7.656L7.736,7.656L7.736,14.16Z" style="fill:white;fill-rule:nonzero;"/>
    <path d="M11.648,15.344L11.648,11.04L12.096,11.04C12.208,11.04 12.272,11.096 12.304,11.2L12.36,11.64C12.52,11.448 12.696,11.288 12.896,11.16C13.096,11.032 13.32,10.976 13.584,10.976C13.872,10.976 14.112,11.056 14.296,11.216C14.48,11.376 14.608,11.592 14.688,11.872C14.744,11.72 14.824,11.584 14.92,11.472C15.016,11.36 15.128,11.264 15.248,11.192C15.368,11.12 15.496,11.064 15.64,11.032C15.776,11 15.92,10.984 16.056,10.984C16.28,10.984 16.488,11.016 16.664,11.096C16.84,11.168 16.992,11.272 17.112,11.408C17.232,11.544 17.328,11.72 17.392,11.92C17.456,12.12 17.488,12.352 17.488,12.616L17.488,15.352L16.728,15.352L16.728,12.616C16.728,12.28 16.656,12.024 16.504,11.848C16.36,11.672 16.144,11.584 15.864,11.584C15.736,11.584 15.624,11.608 15.512,11.648C15.4,11.696 15.304,11.76 15.216,11.84C15.128,11.928 15.064,12.032 15.016,12.16C14.968,12.288 14.944,12.44 14.944,12.608L14.944,15.344L14.184,15.344L14.184,12.608C14.184,12.264 14.112,12.008 13.976,11.832C13.84,11.664 13.632,11.576 13.368,11.576C13.184,11.576 13.008,11.624 12.848,11.728C12.688,11.832 12.544,11.968 12.408,12.136L12.408,15.344L11.648,15.344Z" style="fill:white;fill-rule:nonzero;"/>
</svg>
