<svg width="24" height="24"  viewBox="0 0 300 300"  xmlns="http://www.w3.org/2000/svg" xml:space="preserve"
     style="fill-rule:evenodd;clip-rule:evenodd;stroke-linejoin:round;stroke-miterlimit:2;">
    <g>
        <g>
            <path d="M279.9,224.9L279.9,75.1L150,0.2L20.1,75.1L20.1,224.9L150,299.8L279.9,224.9Z" style="fill:rgb(4,86,155);fill-rule:nonzero;"/>
        </g>
        <g>
            <rect x="107.5" y="95.7" width="18" height="96.1" style="fill:white;fill-rule:nonzero;"/>
            <path d="M163.3,137.1C165.6,137.1 167.8,137.4 169.9,137.9C171.9,138.4 173.8,139.2 175.5,140.2L190,140.2L190,143.7C190,144.9 189.3,145.6 187.8,145.9L181.7,146.8C182.9,149.1 183.5,151.7 183.5,154.5C183.5,157.1 183,159.5 182,161.6C181,163.7 179.6,165.6 177.8,167.1C176,168.6 173.9,169.8 171.4,170.6C168.9,171.4 166.2,171.8 163.3,171.8C160.8,171.8 158.4,171.5 156.2,170.9C155.1,171.6 154.2,172.4 153.6,173.3C153,174.2 152.7,175 152.7,175.8C152.7,177.1 153.2,178.1 154.2,178.8C155.2,179.5 156.6,180 158.3,180.2C160,180.4 161.9,180.6 164.1,180.6L170.7,180.6C172.9,180.6 175.1,180.8 177.3,181.2C179.5,181.6 181.4,182.2 183.1,183.1C184.8,184 186.2,185.2 187.2,186.8C188.2,188.4 188.7,190.4 188.7,192.9C188.7,195.2 188.1,197.5 187,199.7C185.9,201.9 184.2,203.8 182,205.5C179.8,207.2 177.2,208.6 174.1,209.6C171,210.6 167.5,211.1 163.5,211.1C159.6,211.1 156.1,210.7 153.2,209.9C150.3,209.1 147.8,208.1 145.8,206.8C143.9,205.5 142.4,204 141.4,202.3C140.4,200.6 139.9,198.8 139.9,196.9C139.9,194.2 140.7,192 142.4,190.1C144.1,188.2 146.4,186.8 149.3,185.7C147.8,185 146.6,184.1 145.7,182.9C144.8,181.7 144.3,180.1 144.3,178.2C144.3,177.4 144.4,176.6 144.7,175.8C145,175 145.4,174.2 146,173.3C146.6,172.5 147.3,171.7 148.1,171C148.9,170.3 149.9,169.6 151.1,169C148.4,167.5 146.4,165.5 144.9,163.1C143.4,160.6 142.6,157.8 142.6,154.5C142.6,151.9 143.1,149.5 144.1,147.4C145.1,145.3 146.5,143.4 148.3,141.9C150.1,140.4 152.3,139.2 154.8,138.4C157.6,137.5 160.3,137.1 163.3,137.1ZM180.1,194.5C180.1,193.1 179.7,192 179,191.2C178.3,190.4 177.2,189.7 176,189.3C174.8,188.9 173.2,188.5 171.6,188.3C170,188.1 168.2,188 166.3,188L160.7,188C158.8,188 157,187.8 155.2,187.3C153.2,188.3 151.5,189.4 150.3,190.8C149,192.2 148.4,193.8 148.4,195.7C148.4,196.9 148.7,198 149.3,199.1C149.9,200.2 150.9,201 152.1,201.8C153.4,202.6 155,203.2 156.9,203.6C158.8,204 161.1,204.3 163.7,204.3C166.3,204.3 168.5,204.1 170.6,203.6C172.6,203.1 174.3,202.5 175.7,201.6C177.1,200.7 178.2,199.7 178.9,198.5C179.7,197.3 180.1,195.9 180.1,194.5ZM163.3,165.5C165.2,165.5 166.9,165.2 168.4,164.7C169.9,164.2 171.1,163.4 172.1,162.5C173.1,161.5 173.8,160.4 174.3,159.1C174.8,157.8 175,156.3 175,154.7C175,151.4 174,148.8 172,146.8C170,144.8 167.1,143.9 163.3,143.9C159.5,143.9 156.6,144.9 154.6,146.8C152.6,148.7 151.6,151.4 151.6,154.7C151.6,156.3 151.9,157.8 152.4,159.1C152.9,160.4 153.7,161.6 154.7,162.5C155.7,163.5 156.9,164.2 158.4,164.7C159.8,165.2 161.4,165.5 163.3,165.5Z" style="fill:white;fill-rule:nonzero;"/>
        </g>
    </g>
</svg>
