<svg width="24" height="24" viewBox="0 0 24 24" xmlns="http://www.w3.org/2000/svg" xml:space="preserve"
     style="fill-rule:evenodd;clip-rule:evenodd;stroke-linejoin:round;stroke-miterlimit:2;">
    <path d="M22.376,17.992L22.376,6.008L11.992,0.016L1.608,6.008L1.608,17.992L11.992,23.984L22.376,17.992Z" style="fill:rgb(175,181,44);fill-rule:nonzero;"/>
    <path d="M8.064,15.344L8.064,7.656L10.72,7.656C11.224,7.656 11.656,7.704 12.008,7.8C12.36,7.896 12.656,8.032 12.888,8.208C13.12,8.384 13.28,8.6 13.392,8.848C13.496,9.104 13.552,9.384 13.552,9.696C13.552,9.88 13.528,10.048 13.472,10.216C13.416,10.384 13.336,10.536 13.224,10.68C13.112,10.824 12.968,10.952 12.8,11.072C12.632,11.192 12.424,11.288 12.184,11.368C13.24,11.608 13.768,12.176 13.768,13.08C13.768,13.408 13.704,13.704 13.584,13.984C13.464,14.264 13.28,14.496 13.04,14.696C12.8,14.896 12.512,15.056 12.16,15.168C11.808,15.28 11.416,15.336 10.968,15.336L8.064,15.344ZM9.496,10.984L10.64,10.984C11.128,10.984 11.496,10.896 11.744,10.72C11.992,10.544 12.12,10.264 12.12,9.872C12.12,9.472 12.008,9.184 11.776,9.016C11.544,8.848 11.192,8.76 10.712,8.76L9.488,8.76L9.496,10.984ZM9.496,11.968L9.496,14.224L10.944,14.224C11.208,14.224 11.432,14.192 11.608,14.128C11.784,14.064 11.928,13.976 12.04,13.872C12.152,13.768 12.224,13.64 12.272,13.504C12.32,13.36 12.344,13.216 12.344,13.056C12.344,12.888 12.32,12.744 12.264,12.608C12.208,12.472 12.128,12.36 12.016,12.272C11.904,12.184 11.76,12.104 11.584,12.056C11.408,12.008 11.192,11.984 10.936,11.984L9.496,11.968Z" style="fill:white;fill-rule:nonzero;"/>
    <path d="M15.848,9.688C15.848,9.76 15.832,9.832 15.8,9.896C15.768,9.96 15.728,10.016 15.68,10.064C15.632,10.112 15.576,10.152 15.512,10.184C15.448,10.216 15.376,10.224 15.304,10.224C15.232,10.224 15.16,10.208 15.096,10.184C15.032,10.16 14.976,10.12 14.928,10.064C14.88,10.016 14.84,9.96 14.808,9.896C14.776,9.832 14.768,9.76 14.768,9.688C14.768,9.616 14.784,9.544 14.808,9.48C14.84,9.416 14.872,9.352 14.928,9.304C14.976,9.256 15.032,9.216 15.096,9.184C15.16,9.16 15.224,9.144 15.304,9.144C15.376,9.144 15.448,9.16 15.512,9.184C15.576,9.208 15.632,9.248 15.68,9.304C15.728,9.36 15.768,9.408 15.8,9.48C15.832,9.544 15.848,9.616 15.848,9.688ZM15.68,11.04L15.68,15.344L14.92,15.344L14.92,11.04L15.68,11.04Z" style="fill:white;fill-rule:nonzero;"/>
</svg>
