<svg width="24" height="24" viewBox="0 0 24 24" xmlns="http://www.w3.org/2000/svg" xml:space="preserve"
     style="fill-rule:evenodd;clip-rule:evenodd;stroke-linejoin:round;stroke-miterlimit:2;">
    <path d="M22.392,17.992L22.392,6.008L12,0.016L1.608,6.008L1.608,17.992L12,23.984L22.392,17.992Z" style="fill:rgb(69,89,99);fill-rule:nonzero;"/>
    <g opacity="0.6">
        <path d="M1.608,17.992L12,23.904L22.392,17.992L12,23.984L1.608,17.992Z" style="fill:rgb(69,89,99);fill-opacity:0.6;fill-rule:nonzero;"/>
    </g>
    <path d="M12.824,13.528C12.904,13.528 12.968,13.56 13.024,13.616L13.592,14.224C13.28,14.608 12.896,14.904 12.44,15.112C11.984,15.32 11.44,15.424 10.8,15.424C10.232,15.424 9.712,15.328 9.256,15.136C8.8,14.944 8.408,14.672 8.088,14.32C7.768,13.976 7.52,13.56 7.344,13.072C7.168,12.592 7.088,12.064 7.088,11.496C7.088,10.92 7.184,10.392 7.376,9.912C7.568,9.432 7.84,9.016 8.184,8.672C8.528,8.328 8.952,8.056 9.432,7.864C9.92,7.672 10.448,7.576 11.04,7.576C11.608,7.576 12.112,7.664 12.536,7.848C12.96,8.032 13.328,8.272 13.632,8.576L13.152,9.24C13.12,9.28 13.088,9.32 13.04,9.352C12.992,9.384 12.936,9.4 12.856,9.4C12.776,9.4 12.688,9.368 12.608,9.304C12.52,9.24 12.416,9.168 12.28,9.096C12.152,9.024 11.984,8.952 11.784,8.888C11.584,8.824 11.328,8.792 11.016,8.792C10.656,8.792 10.32,8.856 10.016,8.984C9.712,9.112 9.448,9.288 9.232,9.52C9.016,9.752 8.84,10.04 8.72,10.376C8.6,10.712 8.536,11.088 8.536,11.504C8.536,11.936 8.6,12.32 8.72,12.656C8.84,12.992 9.008,13.28 9.216,13.504C9.424,13.728 9.672,13.912 9.952,14.032C10.232,14.152 10.544,14.216 10.864,14.216C11.056,14.216 11.232,14.208 11.392,14.184C11.552,14.16 11.696,14.128 11.832,14.08C11.968,14.032 12.088,13.976 12.208,13.904C12.328,13.832 12.448,13.744 12.56,13.632C12.592,13.6 12.632,13.576 12.672,13.552C12.736,13.536 12.784,13.528 12.824,13.528Z" style="fill:white;fill-rule:nonzero;"/>
    <path d="M14.688,15.344L14.688,11.688L14.216,11.632C14.16,11.616 14.104,11.6 14.072,11.568C14.032,11.536 14.016,11.496 14.016,11.44L14.016,11.128L14.696,11.128L14.696,10.712C14.696,10.464 14.728,10.248 14.8,10.056C14.872,9.864 14.968,9.704 15.096,9.568C15.224,9.432 15.384,9.336 15.56,9.272C15.736,9.208 15.944,9.168 16.168,9.168C16.36,9.168 16.536,9.192 16.704,9.256L16.688,9.632C16.688,9.688 16.664,9.72 16.616,9.736C16.568,9.744 16.504,9.752 16.424,9.752L16.296,9.752C16.168,9.752 16.048,9.768 15.944,9.8C15.84,9.832 15.744,9.888 15.672,9.968C15.6,10.048 15.536,10.144 15.496,10.272C15.456,10.4 15.432,10.552 15.432,10.736L15.432,11.128L16.68,11.128L16.68,11.68L15.464,11.68L15.464,15.352L14.688,15.344Z" style="fill:white;fill-rule:nonzero;"/>
</svg>
