<svg width="24" height="24" viewBox="0 0 24 24" version="1.1" xmlns="http://www.w3.org/2000/svg" xml:space="preserve"
     style="fill-rule:evenodd;clip-rule:evenodd;stroke-linejoin:round;stroke-miterlimit:2;">
    <path d="M22.392,17.992L22.392,6.008L12,0.016L1.608,6.008L1.608,17.992L12,23.984L22.392,17.992Z" style="fill:rgb(109,76,65);fill-rule:nonzero;"/>
    <g opacity="0.6">
        <path d="M1.608,17.992L12,23.904L22.392,17.992L12,23.984L1.608,17.992Z" style="fill:rgb(109,76,65);fill-opacity:0.6;fill-rule:nonzero;"/>
    </g>
    <path d="M6.36,9.768C6.704,9.768 7.024,9.824 7.312,9.936C7.6,10.048 7.848,10.208 8.056,10.416C8.264,10.624 8.432,10.888 8.544,11.192C8.656,11.496 8.72,11.848 8.72,12.24C8.72,12.336 8.712,12.424 8.704,12.488C8.696,12.552 8.68,12.608 8.656,12.64C8.632,12.68 8.6,12.704 8.56,12.72C8.52,12.736 8.472,12.744 8.408,12.744L5.048,12.744C5.088,13.304 5.24,13.712 5.504,13.976C5.768,14.24 6.112,14.368 6.544,14.368C6.76,14.368 6.944,14.344 7.096,14.296C7.248,14.248 7.384,14.192 7.504,14.128C7.616,14.064 7.72,14.016 7.808,13.96C7.896,13.912 7.976,13.888 8.064,13.888C8.12,13.888 8.16,13.896 8.2,13.92C8.24,13.944 8.272,13.968 8.304,14.008L8.688,14.488C8.544,14.656 8.376,14.8 8.2,14.92C8.024,15.04 7.832,15.128 7.632,15.2C7.432,15.272 7.232,15.32 7.032,15.344C6.824,15.376 6.632,15.384 6.44,15.384C6.056,15.384 5.704,15.32 5.384,15.192C5.064,15.064 4.776,14.88 4.536,14.632C4.296,14.384 4.104,14.08 3.968,13.72C3.832,13.36 3.76,12.936 3.76,12.456C3.76,12.088 3.824,11.736 3.944,11.408C4.064,11.08 4.24,10.792 4.464,10.552C4.688,10.312 4.96,10.12 5.288,9.976C5.584,9.84 5.952,9.768 6.36,9.768ZM6.384,10.712C6,10.712 5.704,10.824 5.488,11.04C5.272,11.256 5.136,11.56 5.072,11.96L7.544,11.96C7.544,11.792 7.52,11.632 7.472,11.48C7.424,11.328 7.352,11.2 7.256,11.088C7.16,10.976 7.04,10.888 6.896,10.816C6.752,10.744 6.584,10.712 6.384,10.712Z" style="fill:white;fill-rule:nonzero;"/>
    <path d="M14.128,14.056C14.176,14.056 14.216,14.072 14.248,14.112L14.568,14.464C14.32,14.752 14.016,14.976 13.656,15.136C13.304,15.296 12.872,15.376 12.368,15.376C11.928,15.376 11.528,15.304 11.176,15.152C10.816,15 10.512,14.784 10.264,14.512C10.008,14.24 9.816,13.912 9.68,13.528C9.544,13.144 9.472,12.728 9.472,12.264C9.472,11.808 9.544,11.384 9.696,11C9.848,10.616 10.056,10.288 10.32,10.016C10.592,9.744 10.912,9.528 11.288,9.376C11.664,9.224 12.08,9.152 12.536,9.152C12.984,9.152 13.368,9.224 13.696,9.36C14.024,9.496 14.312,9.688 14.56,9.928L14.288,10.304C14.272,10.336 14.248,10.352 14.216,10.376C14.192,10.392 14.152,10.408 14.104,10.408C14.064,10.408 14.032,10.392 13.984,10.368C13.944,10.344 13.896,10.304 13.84,10.272C13.784,10.232 13.72,10.192 13.64,10.144C13.56,10.096 13.472,10.056 13.368,10.016C13.264,9.976 13.144,9.944 13,9.92C12.856,9.896 12.704,9.88 12.52,9.88C12.192,9.88 11.896,9.936 11.624,10.048C11.352,10.16 11.12,10.32 10.928,10.528C10.736,10.736 10.576,10.984 10.472,11.28C10.368,11.576 10.304,11.912 10.304,12.28C10.304,12.656 10.36,13 10.472,13.296C10.584,13.592 10.728,13.848 10.92,14.048C11.112,14.256 11.328,14.408 11.592,14.52C11.848,14.624 12.128,14.68 12.424,14.68C12.608,14.68 12.768,14.672 12.912,14.648C13.056,14.624 13.192,14.592 13.312,14.552C13.432,14.504 13.552,14.448 13.656,14.384C13.76,14.32 13.872,14.232 13.976,14.136C14.032,14.072 14.08,14.056 14.128,14.056Z" style="fill:white;fill-rule:nonzero;"/>
    <path d="M16.56,12.768L16.56,15.304L15.736,15.304L15.736,9.216L17.456,9.216C17.84,9.216 18.176,9.256 18.456,9.336C18.736,9.416 18.968,9.528 19.152,9.672C19.336,9.816 19.472,10 19.56,10.208C19.648,10.416 19.688,10.648 19.688,10.904C19.688,11.12 19.656,11.32 19.584,11.504C19.512,11.688 19.416,11.856 19.288,12.008C19.16,12.16 19,12.28 18.816,12.392C18.632,12.496 18.424,12.576 18.184,12.632C18.288,12.688 18.376,12.776 18.456,12.888L20.232,15.304L19.504,15.304C19.352,15.304 19.24,15.248 19.176,15.128L17.6,12.96C17.552,12.888 17.496,12.84 17.44,12.816C17.384,12.792 17.296,12.768 17.184,12.768L16.56,12.768ZM16.56,12.168L17.424,12.168C17.664,12.168 17.88,12.136 18.056,12.08C18.232,12.024 18.392,11.936 18.512,11.832C18.632,11.728 18.728,11.6 18.792,11.448C18.856,11.296 18.888,11.136 18.888,10.96C18.888,10.6 18.768,10.328 18.528,10.144C18.288,9.96 17.936,9.872 17.456,9.872L16.56,9.872L16.56,12.168Z" style="fill:white;fill-rule:nonzero;"/>
</svg>
