<svg width="24" height="24" viewBox="0 0 24 24"  xmlns="http://www.w3.org/2000/svg" xml:space="preserve"
     style="fill-rule:evenodd;clip-rule:evenodd;stroke-linejoin:round;stroke-miterlimit:2;">
    <path d="M22.392,17.992L22.392,6.008L12,0.016L1.608,6.008L1.608,17.992L12,23.984L22.392,17.992Z" style="fill:rgb(255,179,1);fill-rule:nonzero;"/>
    <path d="M11.872,9.056C11.832,9.136 11.784,9.192 11.736,9.224C11.688,9.256 11.624,9.272 11.552,9.272C11.48,9.272 11.4,9.248 11.312,9.192C11.224,9.136 11.12,9.08 11,9.008C10.88,8.944 10.736,8.88 10.576,8.824C10.416,8.768 10.224,8.744 10,8.744C9.8,8.744 9.624,8.768 9.48,8.816C9.336,8.864 9.208,8.928 9.104,9.016C9,9.104 8.928,9.2 8.88,9.32C8.832,9.44 8.808,9.568 8.808,9.712C8.808,9.896 8.856,10.04 8.96,10.168C9.064,10.288 9.192,10.392 9.36,10.48C9.528,10.568 9.72,10.64 9.928,10.712C10.136,10.784 10.36,10.848 10.576,10.928C10.8,11 11.016,11.096 11.224,11.192C11.44,11.296 11.624,11.424 11.792,11.576C11.96,11.728 12.096,11.92 12.192,12.144C12.296,12.368 12.344,12.64 12.344,12.96C12.344,13.304 12.288,13.632 12.168,13.936C12.048,14.24 11.872,14.504 11.648,14.728C11.424,14.952 11.136,15.128 10.808,15.256C10.48,15.384 10.104,15.448 9.672,15.448C9.424,15.448 9.184,15.424 8.944,15.376C8.704,15.328 8.48,15.264 8.256,15.168C8.032,15.072 7.832,14.976 7.64,14.848C7.448,14.72 7.28,14.584 7.136,14.432L7.552,13.744C7.592,13.696 7.64,13.656 7.696,13.616C7.752,13.584 7.808,13.568 7.88,13.568C7.968,13.568 8.064,13.6 8.168,13.68C8.272,13.752 8.392,13.832 8.536,13.92C8.68,14.008 8.84,14.088 9.032,14.16C9.224,14.232 9.448,14.272 9.72,14.272C10.128,14.272 10.448,14.176 10.664,13.984C10.888,13.792 11,13.512 11,13.152C11,12.952 10.952,12.784 10.848,12.656C10.744,12.528 10.616,12.424 10.448,12.336C10.28,12.248 10.088,12.176 9.88,12.112C9.664,12.048 9.448,11.984 9.232,11.912C9.016,11.84 8.792,11.76 8.584,11.656C8.376,11.552 8.184,11.424 8.016,11.264C7.848,11.104 7.712,10.904 7.616,10.664C7.512,10.424 7.464,10.128 7.464,9.776C7.464,9.496 7.52,9.224 7.632,8.96C7.744,8.696 7.904,8.456 8.12,8.256C8.336,8.056 8.6,7.888 8.912,7.76C9.224,7.632 9.584,7.576 9.984,7.576C10.44,7.576 10.856,7.648 11.24,7.792C11.624,7.936 11.952,8.128 12.216,8.384L11.872,9.056Z" style="fill:white;fill-rule:nonzero;"/>
    <path d="M16.464,15.344L16.128,15.344C16.056,15.344 15.992,15.336 15.952,15.312C15.904,15.288 15.88,15.24 15.864,15.168L15.776,14.768C15.664,14.872 15.552,14.96 15.448,15.04C15.336,15.12 15.224,15.192 15.112,15.248C15,15.304 14.864,15.344 14.728,15.376C14.592,15.408 14.44,15.416 14.28,15.416C14.112,15.416 13.952,15.392 13.808,15.344C13.664,15.296 13.536,15.224 13.424,15.136C13.312,15.048 13.232,14.92 13.168,14.784C13.104,14.64 13.072,14.472 13.072,14.272C13.072,14.104 13.12,13.936 13.216,13.784C13.312,13.624 13.464,13.488 13.672,13.368C13.88,13.248 14.152,13.144 14.488,13.064C14.824,12.984 15.24,12.944 15.728,12.944L15.728,12.608C15.728,12.272 15.656,12.016 15.512,11.848C15.368,11.672 15.16,11.592 14.88,11.592C14.696,11.592 14.544,11.616 14.416,11.664C14.288,11.712 14.184,11.76 14.088,11.824C14,11.88 13.92,11.936 13.848,11.984C13.776,12.032 13.712,12.056 13.648,12.056C13.6,12.056 13.552,12.04 13.512,12.016C13.472,11.992 13.44,11.952 13.424,11.92L13.288,11.68C13.528,11.448 13.784,11.28 14.056,11.168C14.328,11.056 14.632,11 14.968,11C15.208,11 15.424,11.04 15.608,11.12C15.792,11.2 15.952,11.312 16.08,11.448C16.208,11.592 16.304,11.76 16.368,11.96C16.432,12.16 16.464,12.384 16.464,12.624L16.464,15.344ZM14.496,14.88C14.632,14.88 14.752,14.864 14.864,14.84C14.976,14.816 15.08,14.776 15.176,14.728C15.272,14.68 15.368,14.616 15.456,14.544C15.544,14.472 15.632,14.392 15.72,14.304L15.72,13.416C15.368,13.416 15.072,13.44 14.832,13.48C14.592,13.52 14.392,13.584 14.24,13.656C14.088,13.728 13.976,13.808 13.904,13.904C13.832,14 13.8,14.112 13.8,14.232C13.8,14.344 13.816,14.44 13.856,14.528C13.896,14.616 13.944,14.68 14.008,14.728C14.072,14.784 14.144,14.816 14.232,14.84C14.304,14.864 14.4,14.88 14.496,14.88Z" style="fill:white;fill-rule:nonzero;"/>
</svg>
