<svg width="24" height="24" viewBox="0 0 24 24" xmlns="http://www.w3.org/2000/svg" xml:space="preserve" xmlns:serif="http://www.serif.com/"
     style="fill-rule:evenodd;clip-rule:evenodd;stroke-linejoin:round;stroke-miterlimit:2;">
    <g id="MEG-logo-2019-RVB-sans-baseline-" serif:id="MEG-logo-2019-RVB(sans-baseline)" transform="matrix(0.09023,0,0,0.0918924,0.694798,5.44573)">
        <g id="Group" transform="matrix(1,0,0,1,61,42)">
            <path id="Path" d="M73.21,1.1L73.21,66.97L59.94,66.97L59.94,29.09C59.94,28.22 59.96,27.27 60.01,26.24C60.06,25.22 60.14,24.18 60.26,23.12L43.03,56.98C42.5,58.03 41.77,58.83 40.87,59.37C39.96,59.91 38.93,60.18 37.78,60.18L35.73,60.18C34.57,60.18 33.54,59.91 32.64,59.37C31.73,58.83 31.01,58.03 30.48,56.98L13.24,23.03C13.33,24.12 13.4,25.18 13.46,26.22C13.52,27.26 13.55,28.22 13.55,29.09L13.55,66.97L0.28,66.97L0.28,1.11L11.77,1.11C12.42,1.11 12.99,1.12 13.48,1.15C13.97,1.18 14.41,1.27 14.79,1.42C15.18,1.57 15.53,1.8 15.84,2.12C16.15,2.44 16.46,2.88 16.75,3.45L33.45,36.85C34.04,38 34.62,39.19 35.16,40.42C35.71,41.65 36.24,42.92 36.74,44.22C37.25,42.89 37.77,41.6 38.32,40.33C38.87,39.06 39.45,37.86 40.08,36.71L56.73,3.44C57.03,2.87 57.33,2.42 57.64,2.11C57.95,1.79 58.3,1.56 58.69,1.41C59.07,1.26 59.51,1.17 60,1.14C60.49,1.11 61.06,1.1 61.71,1.1L73.21,1.1Z" style="fill:rgb(27,74,153);fill-rule:nonzero;"/>
            <path id="Path1" serif:id="Path" d="M98.48,12.86L98.48,28.23L119.18,28.23L119.18,39.53L98.48,39.53L98.48,55.22L125.51,55.22L125.51,66.97L83.11,66.97L83.11,1.11L125.51,1.11L125.51,12.86L98.48,12.86Z" style="fill:rgb(27,74,153);fill-rule:nonzero;"/>
            <path id="Path2" serif:id="Path" d="M165.17,32.84L188.61,32.84L188.61,60.64C185.23,63.11 181.64,64.9 177.83,66.02C174.02,67.14 170.03,67.69 165.87,67.69C160.45,67.69 155.51,66.84 151.06,65.14C146.61,63.44 142.81,61.09 139.65,58.09C136.49,55.09 134.05,51.54 132.33,47.42C130.61,43.31 129.75,38.84 129.75,34.02C129.75,29.11 130.56,24.6 132.19,20.48C133.82,16.37 136.15,12.82 139.17,9.84C142.2,6.86 145.86,4.54 150.15,2.88C154.45,1.22 159.24,0.39 164.55,0.39C167.29,0.39 169.87,0.62 172.28,1.07C174.69,1.52 176.91,2.14 178.95,2.92C180.99,3.7 182.85,4.64 184.53,5.72C186.22,6.81 187.72,7.98 189.05,9.25L184.62,15.98C183.93,17.04 183.03,17.68 181.93,17.92C180.83,18.16 179.65,17.89 178.38,17.11C177.17,16.39 176.04,15.76 174.97,15.23C173.9,14.7 172.81,14.27 171.69,13.94C170.58,13.61 169.4,13.37 168.16,13.22C166.93,13.07 165.54,12.99 164,12.99C161.14,12.99 158.56,13.49 156.27,14.5C153.98,15.51 152.03,16.93 150.41,18.77C148.8,20.61 147.55,22.81 146.68,25.39C145.8,27.97 145.37,30.84 145.37,34C145.37,37.5 145.85,40.6 146.82,43.31C147.79,46.02 149.15,48.31 150.91,50.18C152.67,52.05 154.78,53.47 157.24,54.45C159.7,55.43 162.42,55.92 165.4,55.92C167.24,55.92 168.91,55.74 170.39,55.38C171.88,55.02 173.34,54.54 174.75,53.93L174.75,43.94L168.24,43.94C167.27,43.94 166.52,43.68 165.98,43.17C165.44,42.66 165.17,42.01 165.17,41.23L165.17,32.84Z" style="fill:rgb(27,74,153);fill-rule:nonzero;"/>
        </g>
        <path id="Path3" serif:id="Path" d="M14.62,80.3C12.27,45.66 39.21,15.63 74.78,13.22C84.43,12.57 93.71,14.03 102.18,17.17C101.24,17.02 117.95,21.32 125.65,26.54C111.67,9.55 89.98,-0.69 66.36,0.91C27.46,3.56 -1.93,37.22 0.7,76.1C3.33,114.99 37,144.38 75.88,141.74C85.89,141.06 95.26,138.31 103.63,133.96C97.31,136.53 90.47,138.17 83.27,138.65C47.71,141.06 16.97,114.94 14.62,80.3Z" style="fill:rgb(0,186,255);fill-rule:nonzero;"/>
        <path id="Path4" serif:id="Path" d="M96.56,134.15C64.08,136.35 35.96,111.8 33.76,79.32C31.56,46.84 56.11,18.72 88.59,16.52C93.23,16.21 97.78,16.45 102.18,17.18C93.71,14.04 84.43,12.58 74.78,13.23C39.21,15.64 12.28,45.67 14.62,80.31C16.97,114.95 47.7,141.07 83.27,138.66C91.79,138.08 99.8,135.91 107.05,132.48C103.67,133.33 100.16,133.91 96.56,134.15Z" style="fill:url(#_Linear1);fill-rule:nonzero;"/>
    </g>
    <defs>
        <linearGradient id="_Linear1" x1="0" y1="0" x2="1" y2="0" gradientUnits="userSpaceOnUse" gradientTransform="matrix(5.33218e-15,-87.0811,87.0811,5.33218e-15,60.7654,121.584)"><stop offset="0" style="stop-color:rgb(0,151,246);stop-opacity:1"/><stop offset="1" style="stop-color:rgb(27,74,153);stop-opacity:1"/></linearGradient>
    </defs>
</svg>
