<svg width="24" height="24" id="Calque_1" xmlns="http://www.w3.org/2000/svg" x="0px" y="0px"
     viewBox="0 0 30 30" enable-background="new 0 0 30 30" xml:space="preserve">
<g>

		<radialGradient id="SVGID_1_3" cx="-2.5487" cy="-3.2573" r="32.6789" gradientTransform="matrix(0.8011 0.4256 -0.3216 0.6052 1.7308 1.8306)" gradientUnits="userSpaceOnUse">
		<stop  offset="0" style="stop-color:#F9B122"/>
		<stop  offset="0.3531" style="stop-color:#F7AF21"/>
		<stop  offset="0.5909" style="stop-color:#EFA61E"/>
		<stop  offset="0.7949" style="stop-color:#E39718"/>
		<stop  offset="0.9787" style="stop-color:#D18110"/>
		<stop  offset="1" style="stop-color:#CE7E0F"/>
	</radialGradient>
	<path fill="url(#SVGID_1_3)" d="M29.231,0H0.769C0.344,0,0,0.344,0,0.769v22.312c6.977,0.933,19.011,0.429,30-4.03V0.769
		C30,0.344,29.656,0,29.231,0z"/>
	<path fill="#CE7E0F" d="M0,26.855v2.376C0,29.656,0.344,30,0.769,30H30v-9.764C24.69,23.767,11.666,27.041,0,26.855z"/>
	<g>
		<path fill="#FFFFFF" d="M13.708,9.514c-0.059,0.096-0.121,0.165-0.186,0.214c-0.065,0.045-0.148,0.069-0.248,0.069
			c-0.09,0-0.186-0.028-0.289-0.086c-0.103-0.055-0.22-0.121-0.351-0.189c-0.131-0.069-0.282-0.134-0.448-0.189
			c-0.169-0.059-0.362-0.086-0.575-0.086c-0.372,0-0.648,0.079-0.83,0.238c-0.179,0.158-0.272,0.372-0.272,0.641
			c0,0.172,0.055,0.314,0.165,0.427c0.11,0.114,0.251,0.21,0.431,0.293c0.176,0.083,0.379,0.158,0.61,0.227
			c0.227,0.069,0.462,0.145,0.699,0.227s0.472,0.183,0.699,0.296c0.227,0.114,0.431,0.258,0.61,0.434
			c0.176,0.176,0.32,0.389,0.431,0.641c0.107,0.251,0.162,0.555,0.162,0.91c0,0.396-0.065,0.765-0.203,1.106
			c-0.138,0.345-0.334,0.644-0.596,0.899c-0.258,0.258-0.579,0.458-0.961,0.603c-0.379,0.148-0.813,0.22-1.295,0.22
			c-0.265,0-0.537-0.028-0.813-0.083c-0.272-0.052-0.541-0.131-0.799-0.231c-0.255-0.1-0.5-0.217-0.723-0.355
			c-0.227-0.134-0.424-0.286-0.593-0.455l0.586-0.927c0.041-0.069,0.103-0.127,0.183-0.169c0.076-0.045,0.162-0.065,0.251-0.065
			c0.117,0,0.234,0.038,0.351,0.114c0.121,0.072,0.255,0.155,0.407,0.245c0.148,0.09,0.324,0.172,0.517,0.245
			c0.196,0.076,0.427,0.114,0.692,0.114c0.358,0,0.637-0.079,0.837-0.238c0.2-0.158,0.3-0.41,0.3-0.754
			c0-0.196-0.055-0.362-0.165-0.486s-0.251-0.227-0.431-0.31c-0.176-0.083-0.379-0.155-0.606-0.217
			c-0.227-0.062-0.458-0.131-0.696-0.207c-0.238-0.076-0.472-0.169-0.696-0.282c-0.227-0.11-0.431-0.258-0.606-0.438
			c-0.179-0.183-0.324-0.41-0.431-0.679c-0.11-0.272-0.165-0.606-0.165-1.006c0-0.32,0.065-0.634,0.193-0.937
			C8.981,8.98,9.167,8.711,9.418,8.47c0.251-0.234,0.558-0.427,0.92-0.568c0.362-0.141,0.779-0.214,1.247-0.214
			c0.262,0,0.517,0.021,0.765,0.062c0.248,0.038,0.482,0.1,0.706,0.183c0.22,0.076,0.431,0.172,0.624,0.286
			c0.193,0.11,0.365,0.238,0.517,0.376L13.708,9.514z"/>
		<path fill="#FFFFFF" d="M19.68,11.681c-0.055,0.069-0.107,0.121-0.157,0.158c-0.052,0.041-0.124,0.059-0.217,0.059
			c-0.09,0-0.172-0.021-0.245-0.062c-0.072-0.045-0.152-0.093-0.241-0.145c-0.09-0.052-0.196-0.1-0.317-0.145
			c-0.121-0.041-0.272-0.062-0.451-0.062c-0.224,0-0.413,0.038-0.575,0.121c-0.162,0.083-0.296,0.2-0.403,0.351
			c-0.103,0.152-0.183,0.341-0.234,0.562c-0.052,0.22-0.076,0.469-0.076,0.744c0,0.582,0.114,1.03,0.338,1.344
			c0.224,0.31,0.534,0.469,0.927,0.469c0.214,0,0.379-0.028,0.503-0.079c0.121-0.055,0.227-0.114,0.314-0.176
			c0.086-0.065,0.162-0.124,0.234-0.179s0.165-0.083,0.276-0.083c0.141,0,0.25,0.052,0.326,0.158l0.527,0.651
			c-0.189,0.214-0.386,0.389-0.593,0.524c-0.205,0.134-0.419,0.238-0.632,0.317c-0.217,0.076-0.438,0.127-0.655,0.155
			c-0.217,0.031-0.431,0.045-0.637,0.045c-0.372,0-0.727-0.069-1.065-0.21s-0.634-0.345-0.889-0.613
			c-0.258-0.265-0.462-0.596-0.61-0.985c-0.152-0.389-0.227-0.837-0.227-1.337c0-0.438,0.065-0.844,0.196-1.226
			c0.131-0.379,0.324-0.71,0.582-0.989c0.255-0.279,0.572-0.5,0.947-0.658c0.376-0.162,0.813-0.241,1.309-0.241
			c0.475,0,0.896,0.076,1.254,0.227c0.358,0.152,0.68,0.376,0.97,0.668L19.68,11.681z"/>
	</g>
</g>
</svg>
