<svg width="24" height="24" viewBox="0 0 24 24" fill="none" xmlns="http://www.w3.org/2000/svg">
    <path d="M15.8889 5H6.55556C5.69222 5 5 5.7 5 6.55556V17.4444C5 18.3 5.69222 19 6.55556 19H17.4444C18.3 19 19 18.3 19 17.4444V8.11111L15.8889 5ZM17.4444 17.4444H6.55556V6.55556H15.2433L17.4444 8.75667V17.4444ZM12 12C10.7089 12 9.66667 13.0422 9.66667 14.3333C9.66667 15.6244 10.7089 16.6667 12 16.6667C13.2911 16.6667 14.3333 15.6244 14.3333 14.3333C14.3333 13.0422 13.2911 12 12 12ZM7.33333 8.88889C7.33333 8.45933 7.68156 8.11111 8.11111 8.11111H13.5556C13.9851 8.11111 14.3333 8.45933 14.3333 8.88889C14.3333 9.31844 13.9851 9.66667 13.5556 9.66667H8.11111C7.68156 9.66667 7.33333 9.31844 7.33333 8.88889Z"
          fill="currentColor"/>
</svg>
