<svg width="24" height="24" viewBox="0 0 24 24" fill="none" xmlns="http://www.w3.org/2000/svg">
    <path d="M16.7194 9.27931C16.5417 9.10041 16.3012 9 16.0506 9C15.8 9 15.5596 9.10041 15.3818 9.27931L11.9763 12.6796L8.61816 9.27931C8.44042 9.10041 8.19999 9 7.94938 9C7.69877 9 7.45834 9.10041 7.2806 9.27931C7.19169 9.36861 7.12112 9.47484 7.07296 9.59189C7.0248 9.70894 7 9.83448 7 9.96129C7 10.0881 7.0248 10.2136 7.07296 10.3307C7.12112 10.4477 7.19169 10.554 7.2806 10.6433L11.3028 14.7159C11.3909 14.8059 11.4959 14.8774 11.6115 14.9261C11.7271 14.9749 11.8511 15 11.9763 15C12.1015 15 12.2255 14.9749 12.3411 14.9261C12.4567 14.8774 12.5616 14.8059 12.6498 14.7159L16.7194 10.6433C16.8083 10.554 16.8789 10.4477 16.927 10.3307C16.9752 10.2136 17 10.0881 17 9.96129C17 9.83448 16.9752 9.70894 16.927 9.59189C16.8789 9.47484 16.8083 9.36861 16.7194 9.27931Z"
          fill="currentColor"/>
</svg>
