<svg width="24" height="24" viewBox="0 0 24 24" fill="none" xmlns="http://www.w3.org/2000/svg">
    <path d="M19.456 10.04L17.944 9.536L18.656 8.112C18.7282 7.96295 18.7523 7.79517 18.7251 7.63182C18.6979 7.46847 18.6206 7.31759 18.504 7.2L16.8 5.496C16.6818 5.37767 16.5295 5.29937 16.3644 5.2721C16.1994 5.24484 16.03 5.26998 15.88 5.344L14.456 6.056L13.952 4.544C13.8988 4.3864 13.7977 4.2493 13.663 4.1518C13.5282 4.0543 13.3663 4.00124 13.2 4H10.8C10.6323 3.99957 10.4687 4.05186 10.3323 4.14948C10.1959 4.24709 10.0937 4.38511 10.04 4.544L9.536 6.056L8.112 5.344C7.96295 5.27183 7.79517 5.24769 7.63182 5.27491C7.46847 5.30214 7.31759 5.37939 7.2 5.496L5.496 7.2C5.37767 7.31821 5.29937 7.47054 5.2721 7.63557C5.24484 7.80059 5.26998 7.97001 5.344 8.12L6.056 9.544L4.544 10.048C4.3864 10.1012 4.2493 10.2023 4.1518 10.337C4.0543 10.4718 4.00124 10.6337 4 10.8V13.2C3.99957 13.3677 4.05186 13.5313 4.14948 13.6677C4.24709 13.8041 4.38511 13.9063 4.544 13.96L6.056 14.464L5.344 15.888C5.27183 16.0371 5.24769 16.2048 5.27491 16.3682C5.30214 16.5315 5.37939 16.6824 5.496 16.8L7.2 18.504C7.31821 18.6223 7.47054 18.7006 7.63557 18.7279C7.80059 18.7552 7.97001 18.73 8.12 18.656L9.544 17.944L10.048 19.456C10.1017 19.6149 10.2039 19.7529 10.3403 19.8505C10.4767 19.9481 10.6403 20.0004 10.808 20H13.208C13.3757 20.0004 13.5393 19.9481 13.6757 19.8505C13.8121 19.7529 13.9143 19.6149 13.968 19.456L14.472 17.944L15.896 18.656C16.0441 18.7264 16.2102 18.7495 16.3719 18.7223C16.5336 18.6951 16.6831 18.6189 16.8 18.504L18.504 16.8C18.6223 16.6818 18.7006 16.5295 18.7279 16.3644C18.7552 16.1994 18.73 16.03 18.656 15.88L17.944 14.456L19.456 13.952C19.6136 13.8988 19.7507 13.7977 19.8482 13.663C19.9457 13.5282 19.9988 13.3663 20 13.2V10.8C20.0004 10.6323 19.9481 10.4687 19.8505 10.3323C19.7529 10.1959 19.6149 10.0937 19.456 10.04ZM18.4 12.624L17.44 12.944C17.2192 13.0156 17.0167 13.1344 16.8464 13.2921C16.6762 13.4498 16.5423 13.6426 16.454 13.8573C16.3657 14.0719 16.3251 14.3032 16.3352 14.535C16.3452 14.7669 16.4055 14.9938 16.512 15.2L16.968 16.112L16.088 16.992L15.2 16.512C14.9948 16.4098 14.7701 16.3528 14.541 16.345C14.312 16.3372 14.0839 16.3787 13.8723 16.4667C13.6606 16.5547 13.4703 16.6871 13.3143 16.8551C13.1583 17.023 13.0402 17.2225 12.968 17.44L12.648 18.4H11.376L11.056 17.44C10.9844 17.2192 10.8656 17.0167 10.7079 16.8464C10.5502 16.6762 10.3574 16.5423 10.1427 16.454C9.92811 16.3657 9.69684 16.3251 9.46498 16.3352C9.23312 16.3452 9.00621 16.4055 8.8 16.512L7.888 16.968L7.008 16.088L7.488 15.2C7.59448 14.9938 7.65482 14.7669 7.66484 14.535C7.67486 14.3032 7.63432 14.0719 7.54603 13.8573C7.45775 13.6426 7.32382 13.4498 7.15356 13.2921C6.98329 13.1344 6.78076 13.0156 6.56 12.944L5.6 12.624V11.376L6.56 11.056C6.78076 10.9844 6.98329 10.8656 7.15356 10.7079C7.32382 10.5502 7.45775 10.3574 7.54603 10.1427C7.63432 9.92811 7.67486 9.69684 7.66484 9.46498C7.65482 9.23312 7.59448 9.00621 7.488 8.8L7.032 7.912L7.912 7.032L8.8 7.488C9.00621 7.59448 9.23312 7.65482 9.46498 7.66484C9.69684 7.67486 9.92811 7.63432 10.1427 7.54603C10.3574 7.45775 10.5502 7.32382 10.7079 7.15356C10.8656 6.98329 10.9844 6.78076 11.056 6.56L11.376 5.6H12.624L12.944 6.56C13.0156 6.78076 13.1344 6.98329 13.2921 7.15356C13.4498 7.32382 13.6426 7.45775 13.8573 7.54603C14.0719 7.63432 14.3032 7.67486 14.535 7.66484C14.7669 7.65482 14.9938 7.59448 15.2 7.488L16.112 7.032L16.992 7.912L16.512 8.8C16.4098 9.00516 16.3528 9.22988 16.345 9.45895C16.3372 9.68803 16.3787 9.9161 16.4667 10.1277C16.5547 10.3394 16.6871 10.5297 16.8551 10.6857C17.023 10.8417 17.2225 10.9598 17.44 11.032L18.4 11.352V12.624ZM12 8.8C11.3671 8.8 10.7484 8.98768 10.2222 9.3393C9.69594 9.69092 9.28579 10.1907 9.04359 10.7754C8.80139 11.3601 8.73802 12.0035 8.86149 12.6243C8.98496 13.245 9.28973 13.8152 9.73726 14.2627C10.1848 14.7103 10.755 15.015 11.3757 15.1385C11.9965 15.262 12.6399 15.1986 13.2246 14.9564C13.8093 14.7142 14.3091 14.3041 14.6607 13.7778C15.0123 13.2516 15.2 12.6329 15.2 12C15.2 11.1513 14.8629 10.3374 14.2627 9.73726C13.6626 9.13714 12.8487 8.8 12 8.8ZM12 13.6C11.6835 13.6 11.3742 13.5062 11.1111 13.3304C10.848 13.1545 10.6429 12.9047 10.5218 12.6123C10.4007 12.3199 10.369 11.9982 10.4307 11.6879C10.4925 11.3775 10.6449 11.0924 10.8686 10.8686C11.0924 10.6449 11.3775 10.4925 11.6879 10.4307C11.9982 10.369 12.3199 10.4007 12.6123 10.5218C12.9047 10.6429 13.1545 10.848 13.3304 11.1111C13.5062 11.3742 13.6 11.6835 13.6 12C13.6 12.4243 13.4314 12.8313 13.1314 13.1314C12.8313 13.4314 12.4243 13.6 12 13.6Z"
          fill="currentColor"/>
</svg>
