<svg width="24" height="24" viewBox="0 0 24 24" fill="none" xmlns="http://www.w3.org/2000/svg">
    <path d="M14.3219 18.7982L17.7481 15.9977C17.828 15.9324 17.8913 15.8549 17.9345 15.7697C17.9778 15.6844 18 15.593 18 15.5006C18 15.3142 17.9094 15.1354 17.7481 15.0035C17.5868 14.8717 17.3681 14.7976 17.14 14.7976C16.9119 14.7976 16.6931 14.8717 16.5318 15.0035L14.5703 16.6138L14.5703 8.49937C14.5703 8.31368 14.4801 8.1356 14.3195 8.0043C14.1588 7.873 13.941 7.79924 13.7138 7.79924C13.4866 7.79924 13.2688 7.873 13.1081 8.0043C12.9475 8.1356 12.8573 8.31368 12.8573 8.49937L12.8573 18.3011C12.8581 18.4394 12.909 18.5743 13.0035 18.6889C13.098 18.8035 13.2319 18.8927 13.3883 18.9453C13.5443 18.9989 13.7162 19.0135 13.8824 18.9874C14.0485 18.9612 14.2015 18.8954 14.3219 18.7982ZM11.1442 15.5006L11.1442 5.69886C11.1433 5.56063 11.0925 5.42571 10.998 5.31108C10.9035 5.19646 10.7696 5.10726 10.6131 5.05474C10.4572 5.00112 10.2852 4.98648 10.1191 5.01264C9.95292 5.03881 9.79996 5.10462 9.67951 5.20177L6.25336 8.00227C6.17308 8.06736 6.10936 8.1448 6.06587 8.23011C6.02239 8.31543 6 8.40694 6 8.49936C6 8.59179 6.02239 8.6833 6.06587 8.76862C6.10936 8.85393 6.17308 8.93137 6.25336 8.99646C6.33299 9.06208 6.42772 9.11416 6.5321 9.14971C6.63648 9.18525 6.74843 9.20355 6.8615 9.20355C6.97458 9.20355 7.08653 9.18525 7.19091 9.14971C7.29529 9.11416 7.39002 9.06208 7.46965 8.99646L9.43112 7.38616L9.43112 15.5006C9.43112 15.6863 9.52136 15.8644 9.68199 15.9957C9.84262 16.127 10.0605 16.2008 10.2877 16.2008C10.5148 16.2008 10.7327 16.127 10.8933 15.9957C11.0539 15.8644 11.1442 15.6863 11.1442 15.5006Z"
          fill="currentColor"/>
</svg>
