<svg width="24" height="24" viewBox="0 0 24 24" fill="none" xmlns="http://www.w3.org/2000/svg">
    <path d="M12 4C10.4178 4 8.87103 4.46919 7.55544 5.34824C6.23985 6.22729 5.21447 7.47672 4.60897 8.93853C4.00347 10.4003 3.84504 12.0089 4.15372 13.5607C4.4624 15.1126 5.22433 16.538 6.34315 17.6569C7.46197 18.7757 8.88743 19.5376 10.4393 19.8463C11.9911 20.155 13.5997 19.9965 15.0615 19.391C16.5233 18.7855 17.7727 17.7602 18.6518 16.4446C19.5308 15.129 20 13.5822 20 12C20 10.9494 19.7931 9.90914 19.391 8.93853C18.989 7.96793 18.3997 7.08601 17.6569 6.34315C16.914 5.60028 16.0321 5.011 15.0615 4.60896C14.0909 4.20693 13.0506 4 12 4ZM12 18.4C10.3026 18.4 8.67475 17.7257 7.47452 16.5255C6.27429 15.3252 5.6 13.6974 5.6 12C5.59824 10.5787 6.07442 9.19804 6.952 8.08L15.92 17.048C14.802 17.9256 13.4213 18.4018 12 18.4ZM17.048 15.92L8.08 6.952C9.19804 6.07441 10.5787 5.59823 12 5.6C13.6974 5.6 15.3253 6.27428 16.5255 7.47452C17.7257 8.67475 18.4 10.3026 18.4 12C18.4018 13.4213 17.9256 14.802 17.048 15.92Z"
          fill="currentColor"/>
</svg>
