<svg xmlns="http://www.w3.org/2000/svg" width="24" height="24" fill="currentColor" viewBox="0 0 24 24">
  <path d="M4.727 4.81h4.146a.912.912 0 0 1 .863.615l.491 1.484a.906.906 0 0 0 .864.615h6.364a.91.91 0 0 1 .909.905c0 .24.095.47.266.64a.911.911 0 0 0 1.552-.64c0-.72-.287-1.41-.799-1.92a2.734 2.734 0 0 0-1.928-.795h-5.71l-.29-.904a2.715 2.715 0 0 0-1.002-1.315A2.736 2.736 0 0 0 8.873 3H4.727c-.723 0-1.417.286-1.928.795A2.708 2.708 0 0 0 2 5.715v11.761c0 .72.287 1.41.799 1.92a2.734 2.734 0 0 0 1.928.794h5.455a.911.911 0 0 0 .909-.904c0-.24-.096-.47-.266-.64a.911.911 0 0 0-.643-.265H4.727a.912.912 0 0 1-.643-.265.903.903 0 0 1-.266-.64V5.714c0-.24.096-.47.266-.64a.911.911 0 0 1 .643-.264Zm15.455 10.115v-1.068c0-.72-.287-1.41-.799-1.92a2.733 2.733 0 0 0-3.857 0 2.708 2.708 0 0 0-.799 1.92v1.068a2.72 2.72 0 0 0-1.315.989 2.706 2.706 0 0 0-.503 1.562v1.81c0 .72.287 1.41.799 1.919a2.734 2.734 0 0 0 1.928.795h3.637c.723 0 1.417-.286 1.928-.795.512-.509.799-1.2.799-1.92v-1.809a2.706 2.706 0 0 0-.503-1.562 2.725 2.725 0 0 0-1.315-.99Zm-3.636-1.068c0-.24.095-.47.266-.64a.911.911 0 0 1 1.552.64v.905h-1.819v-.905Zm3.636 5.429a.903.903 0 0 1-.91.904h-3.636a.903.903 0 0 1-.91-.905v-1.809a.903.903 0 0 1 .91-.905h3.637a.903.903 0 0 1 .91.905v1.81Z"/>
</svg>
