<svg width="24" height="24" viewBox="0 0 24 24" fill="none" xmlns="http://www.w3.org/2000/svg">
    <path d="M19 9.246C18.9909 9.16332 18.9733 9.08187 18.9475 9.003V8.922C18.9054 8.82946 18.8493 8.7444 18.7812 8.67L13.5312 3.27C13.4589 3.19999 13.3762 3.14227 13.2863 3.099C13.2601 3.09518 13.2336 3.09518 13.2075 3.099C13.1186 3.04657 13.0204 3.01291 12.9188 3H7.625C6.92881 3 6.26113 3.28446 5.76884 3.79081C5.27656 4.29716 5 4.98392 5 5.7V18.3C5 19.0161 5.27656 19.7028 5.76884 20.2092C6.26113 20.7155 6.92881 21 7.625 21H16.375C17.0712 21 17.7389 20.7155 18.2312 20.2092C18.7234 19.7028 19 19.0161 19 18.3V9.3C19 9.3 19 9.3 19 9.246ZM13.75 6.069L16.0163 8.4H14.625C14.3929 8.4 14.1704 8.30518 14.0063 8.1364C13.8422 7.96761 13.75 7.73869 13.75 7.5V6.069ZM17.25 18.3C17.25 18.5387 17.1578 18.7676 16.9937 18.9364C16.8296 19.1052 16.6071 19.2 16.375 19.2H7.625C7.39294 19.2 7.17038 19.1052 7.00628 18.9364C6.84219 18.7676 6.75 18.5387 6.75 18.3V5.7C6.75 5.46131 6.84219 5.23239 7.00628 5.0636C7.17038 4.89482 7.39294 4.8 7.625 4.8H12V7.5C12 8.21608 12.2766 8.90284 12.7688 9.40919C13.2611 9.91554 13.9288 10.2 14.625 10.2H17.25V18.3ZM14.0037 12.261L11.125 15.231L9.99625 14.061C9.83148 13.8915 9.60801 13.7963 9.375 13.7963C9.14199 13.7963 8.91852 13.8915 8.75375 14.061C8.58898 14.2305 8.49642 14.4603 8.49642 14.7C8.49642 14.9397 8.58898 15.1695 8.75375 15.339L10.5037 17.139C10.5851 17.2234 10.6819 17.2903 10.7885 17.336C10.8951 17.3817 11.0095 17.4052 11.125 17.4052C11.2405 17.4052 11.3549 17.3817 11.4615 17.336C11.5681 17.2903 11.6649 17.2234 11.7463 17.139L15.2463 13.539C15.411 13.3695 15.5036 13.1397 15.5036 12.9C15.5036 12.6603 15.411 12.4305 15.2463 12.261C15.0815 12.0915 14.858 11.9963 14.625 11.9963C14.392 11.9963 14.1685 12.0915 14.0037 12.261Z"
          fill="currentColor"/>
</svg>
