<svg xmlns="http://www.w3.org/2000/svg" width="24" height="24" fill="currentColor" viewBox="0 0 24 24">
  <path d="M3.71 17.147a.993.993 0 0 0-.33-.227.929.929 0 0 0-.76 0 .993.993 0 0 0-.33.227 1.098 1.098 0 0 0-.21.358 1.167 1.167 0 0 0-.06.625c.037.21.131.403.27.556.097.095.209.172.33.227a.879.879 0 0 0 .76 0c.121-.055.233-.132.33-.227a1.157 1.157 0 0 0 .21-1.181 1.098 1.098 0 0 0-.21-.358ZM7 8.167h14c.265 0 .52-.115.707-.318.188-.203.293-.478.293-.766 0-.287-.105-.563-.293-.766A.963.963 0 0 0 21 6H7a.963.963 0 0 0-.707.317A1.13 1.13 0 0 0 6 7.083c0 .288.106.563.293.766A.963.963 0 0 0 7 8.167ZM3.71 11.73a.978.978 0 0 0-.513-.293.93.93 0 0 0-.577.065 1.143 1.143 0 0 0-.33.228 1.098 1.098 0 0 0-.21.357 1.091 1.091 0 0 0 0 .824c.05.13.122.252.21.357.097.096.209.173.33.227a.879.879 0 0 0 .76 0c.121-.054.233-.131.33-.227a1.23 1.23 0 0 0 .21-.357 1.09 1.09 0 0 0 0-.824 1.098 1.098 0 0 0-.21-.357ZM21 11.417H7a.962.962 0 0 0-.707.317A1.13 1.13 0 0 0 6 12.5c0 .287.106.563.293.766a.962.962 0 0 0 .707.317h14c.265 0 .52-.114.707-.317.188-.203.293-.479.293-.766a1.13 1.13 0 0 0-.293-.766.962.962 0 0 0-.707-.317ZM3.71 6.314a.994.994 0 0 0-.33-.227.93.93 0 0 0-.577-.065.977.977 0 0 0-.513.292c-.088.105-.16.226-.21.358a1.091 1.091 0 0 0 0 .823c.05.131.122.252.21.357.097.096.209.173.33.228a.929.929 0 0 0 .577.065.977.977 0 0 0 .513-.293 1.23 1.23 0 0 0 .21-.357 1.091 1.091 0 0 0 0-.823 1.264 1.264 0 0 0-.21-.358ZM21 16.834H7a.963.963 0 0 0-.707.316 1.13 1.13 0 0 0-.293.766c0 .288.106.563.293.767A.963.963 0 0 0 7 19h14c.265 0 .52-.114.707-.317.188-.204.293-.48.293-.767a1.13 1.13 0 0 0-.293-.766.963.963 0 0 0-.707-.317Z"/>
</svg>
