<svg width="24" height="24" viewBox="0 0 24 24" fill="none" xmlns="http://www.w3.org/2000/svg">
    <path d="M10.4444 16C10.6507 16 10.8486 15.921 10.9944 15.7803C11.1403 15.6397 11.2222 15.4489 11.2222 15.25V10.75C11.2222 10.5511 11.1403 10.3603 10.9944 10.2197C10.8486 10.079 10.6507 10 10.4444 10C10.2382 10 10.0403 10.079 9.89447 10.2197C9.74861 10.3603 9.66667 10.5511 9.66667 10.75V15.25C9.66667 15.4489 9.74861 15.6397 9.89447 15.7803C10.0403 15.921 10.2382 16 10.4444 16ZM18.2222 7H15.1111V6.25C15.1111 5.65326 14.8653 5.08097 14.4277 4.65901C13.9901 4.23705 13.3966 4 12.7778 4H11.2222C10.6034 4 10.0099 4.23705 9.57231 4.65901C9.13472 5.08097 8.88889 5.65326 8.88889 6.25V7H5.77778C5.5715 7 5.37367 7.07902 5.22781 7.21967C5.08194 7.36032 5 7.55109 5 7.75C5 7.94891 5.08194 8.13968 5.22781 8.28033C5.37367 8.42098 5.5715 8.5 5.77778 8.5H6.55556V16.75C6.55556 17.3467 6.80139 17.919 7.23897 18.341C7.67656 18.7629 8.27005 19 8.88889 19H15.1111C15.7299 19 16.3234 18.7629 16.761 18.341C17.1986 17.919 17.4444 17.3467 17.4444 16.75V8.5H18.2222C18.4285 8.5 18.6263 8.42098 18.7722 8.28033C18.9181 8.13968 19 7.94891 19 7.75C19 7.55109 18.9181 7.36032 18.7722 7.21967C18.6263 7.07902 18.4285 7 18.2222 7ZM10.4444 6.25C10.4444 6.05109 10.5264 5.86032 10.6723 5.71967C10.8181 5.57902 11.0159 5.5 11.2222 5.5H12.7778C12.9841 5.5 13.1819 5.57902 13.3277 5.71967C13.4736 5.86032 13.5556 6.05109 13.5556 6.25V7H10.4444V6.25ZM15.8889 16.75C15.8889 16.9489 15.8069 17.1397 15.6611 17.2803C15.5152 17.421 15.3174 17.5 15.1111 17.5H8.88889C8.68261 17.5 8.48478 17.421 8.33892 17.2803C8.19306 17.1397 8.11111 16.9489 8.11111 16.75V8.5H15.8889V16.75ZM13.5556 16C13.7618 16 13.9597 15.921 14.1055 15.7803C14.2514 15.6397 14.3333 15.4489 14.3333 15.25V10.75C14.3333 10.5511 14.2514 10.3603 14.1055 10.2197C13.9597 10.079 13.7618 10 13.5556 10C13.3493 10 13.1514 10.079 13.0056 10.2197C12.8597 10.3603 12.7778 10.5511 12.7778 10.75V15.25C12.7778 15.4489 12.8597 15.6397 13.0056 15.7803C13.1514 15.921 13.3493 16 13.5556 16Z"
          fill="currentColor"/>
</svg>
