<svg xmlns="http://www.w3.org/2000/svg" width="24" height="24" fill="currentColor" viewBox="0 0 24 24">
  <path d="M11.1 12.91a.893.893 0 0 0-.832.56.918.918 0 0 0 .196.991.898.898 0 0 0 .98.197.915.915 0 0 0 .292-1.483.895.895 0 0 0-.636-.266Zm-3.6 0a.894.894 0 0 0-.831.56.918.918 0 0 0 .195.991.898.898 0 0 0 .98.197.902.902 0 0 0 .556-.84.914.914 0 0 0-.264-.643.895.895 0 0 0-.636-.266ZM21 4.726c0-.723-.285-1.417-.79-1.928A2.686 2.686 0 0 0 18.3 2H5.7c-.716 0-1.403.287-1.91.799A2.741 2.741 0 0 0 3 4.727v3.637c.004.672.254 1.32.702 1.818A2.743 2.743 0 0 0 3 12v3.636c0 .724.284 1.417.79 1.929a2.686 2.686 0 0 0 1.91.799h5.4v1.818H3.9a.895.895 0 0 0-.636.266.914.914 0 0 0 0 1.286c.168.17.397.266.636.266h16.2a.895.895 0 0 0 .636-.266.914.914 0 0 0 0-1.286.895.895 0 0 0-.636-.266h-7.2v-1.818h5.4c.716 0 1.403-.288 1.91-.8.505-.51.79-1.204.79-1.928V12a2.743 2.743 0 0 0-.702-1.818A2.743 2.743 0 0 0 21 8.364V4.727Zm-1.8 10.91a.914.914 0 0 1-.264.642.895.895 0 0 1-.636.267H5.7a.895.895 0 0 1-.636-.267.914.914 0 0 1-.264-.643V12c0-.241.095-.472.264-.643a.895.895 0 0 1 .636-.266h12.6a.909.909 0 0 1 .9.909v3.636Zm0-7.273a.914.914 0 0 1-.264.642.895.895 0 0 1-.636.267H5.7a.895.895 0 0 1-.636-.267.914.914 0 0 1-.264-.642V4.727c0-.24.095-.472.264-.643a.895.895 0 0 1 .636-.266h12.6a.909.909 0 0 1 .9.909v3.637Zm-8.1-2.728a.894.894 0 0 0-.832.562.918.918 0 0 0 .196.99.897.897 0 0 0 .98.197.916.916 0 0 0 .292-1.483.895.895 0 0 0-.636-.266Zm-3.6 0a.894.894 0 0 0-.831.562.918.918 0 0 0 .195.99.897.897 0 0 0 .98.197.902.902 0 0 0 .556-.84.914.914 0 0 0-.264-.642.895.895 0 0 0-.636-.267Z"/>
</svg>
