<svg width="24" height="24" viewBox="0 0 24 24" fill="none" xmlns="http://www.w3.org/2000/svg">
  <path fill="currentColor"
        d="M 5.9492188 0 A 2.55 2.55 0 0 0 3.4003906 2.5507812 L 3.4003906 5.0996094 L 0.70703125 5.0996094 C 0.31603125 5.0996094 0 5.4185938 0 5.8085938 L 0 12.892578 A 0.708 0.708 0 0 0 0.70703125 13.599609 L 3.4003906 13.599609 L 3.4003906 14.449219 A 2.55 2.55 0 0 0 5.9492188 17 L 14.449219 17 A 2.55 2.55 0 0 0 17 14.449219 L 17 5.8984375 C 16.991 5.8194375 16.973219 5.7439219 16.949219 5.6699219 L 16.949219 5.59375 A 0.9 0.9 0 0 0 16.787109 5.3554688 L 11.6875 0.25585938 A 0.91 0.91 0 0 0 11.449219 0.09375 L 11.373047 0.09375 A 0.748 0.748 0 0 0 11.09375 0 L 5.9492188 0 z M 5.9492188 1.6992188 L 10.199219 1.6992188 L 10.199219 4.25 A 2.55 2.55 0 0 0 12.75 6.8007812 L 15.300781 6.8007812 L 15.300781 14.449219 A 0.85 0.85 0 0 1 14.449219 15.300781 L 5.9492188 15.300781 A 0.85 0.85 0 0 1 5.0996094 14.449219 L 5.0996094 13.599609 L 7.7929688 13.599609 A 0.708 0.708 0 0 0 8.5 12.892578 L 8.5 5.8085938 A 0.708 0.708 0 0 0 7.7929688 5.0996094 L 5.0996094 5.0996094 L 5.0996094 2.5507812 A 0.85 0.85 0 0 1 5.9492188 1.6992188 z M 11.900391 2.8984375 L 14.101562 5.0996094 L 12.75 5.0996094 A 0.85 0.85 0 0 1 11.900391 4.25 L 11.900391 2.8984375 z M 1.4570312 6.8007812 A 0.47 0.47 0 0 1 1.9101562 7.1503906 L 2.6347656 9.9101562 A 2.336 2.336 0 0 1 2.6757812 10.134766 A 3.537 3.537 0 0 0 2.7167969 10.359375 L 2.7363281 10.574219 L 2.7773438 10.574219 A 1.605 1.605 0 0 1 2.7988281 10.359375 A 5.397 5.397 0 0 0 2.8398438 10.15625 C 2.8538436 10.08125 2.870625 9.9981564 2.890625 9.9101562 L 3.5957031 7.2890625 A 0.661 0.661 0 0 1 4.8730469 7.296875 L 5.5429688 9.9101562 A 2.336 2.336 0 0 1 5.5839844 10.134766 A 3.537 3.537 0 0 0 5.625 10.359375 L 5.65625 10.574219 L 5.6953125 10.574219 C 5.6953125 10.526219 5.7037969 10.454375 5.7167969 10.359375 C 5.7507969 10.148375 5.7788281 9.9981564 5.7988281 9.9101562 L 6.5214844 7.1503906 A 0.47 0.47 0 0 1 7.4296875 7.3867188 L 6.3847656 11.404297 A 0.663 0.663 0 0 1 5.1035156 11.410156 L 4.3691406 8.6875 C 4.3351406 8.5785 4.3043438 8.4282813 4.2773438 8.2382812 L 4.2363281 7.9726562 L 4.1953125 7.9726562 L 4.1542969 8.2382812 C 4.1402969 8.3542814 4.1105 8.5035 4.0625 8.6875 L 3.328125 11.410156 A 0.663 0.663 0 0 1 2.046875 11.404297 L 1.0039062 7.3867188 A 0.47 0.47 0 0 1 1.4570312 6.8007812 z " />
</svg>
