<svg width="24" height="24" viewBox="0 0 24 24" fill="none" xmlns="http://www.w3.org/2000/svg">
    <path d="M19.2 9.85688C19.3051 9.85691 19.4091 9.83476 19.5062 9.79169C19.6033 9.74863 19.6915 9.68549 19.7657 9.60589C19.84 9.52629 19.899 9.43179 19.9392 9.32778C19.9794 9.22377 20 9.11229 20 8.99972V6.42823C20.0001 6.24838 19.9473 6.07307 19.8491 5.92717C19.751 5.78128 19.6124 5.67221 19.4531 5.61544L12.2531 3.04395C12.0888 2.98535 11.9112 2.98535 11.7469 3.04395L4.54687 5.61544C4.38759 5.67221 4.24905 5.78128 4.15088 5.92717C4.05272 6.07307 3.99993 6.24838 4 6.42823V8.99972C3.99997 9.11229 4.02065 9.22377 4.06084 9.32778C4.10103 9.43179 4.15996 9.52629 4.23425 9.60589C4.30855 9.68549 4.39675 9.74863 4.49382 9.79169C4.59089 9.83476 4.69493 9.85691 4.8 9.85688H5.6V16.015C5.13339 16.1911 4.72909 16.5176 4.44261 16.9498C4.15614 17.3819 4.00152 17.8985 4 18.4285V20.1428C3.99997 20.2554 4.02065 20.3669 4.06084 20.4709C4.10103 20.5749 4.15996 20.6694 4.23425 20.749C4.30855 20.8286 4.39675 20.8917 4.49382 20.9348C4.59089 20.9779 4.69493 21 4.8 21H19.2C19.3051 21 19.4091 20.9779 19.5062 20.9348C19.6033 20.8917 19.6915 20.8286 19.7657 20.749C19.84 20.6694 19.899 20.5749 19.9392 20.4709C19.9794 20.3669 20 20.2554 20 20.1428V18.4285C19.9985 17.8985 19.8439 17.3819 19.5574 16.9498C19.2709 16.5176 18.8666 16.1911 18.4 16.015V9.85688H19.2ZM18.4 19.2857H5.6V18.4285C5.60021 18.2012 5.68457 17.9834 5.83455 17.8227C5.98453 17.662 6.18789 17.5716 6.4 17.5713H17.6C17.8121 17.5716 18.0155 17.662 18.1655 17.8227C18.3154 17.9834 18.3998 18.2012 18.4 18.4285V19.2857ZM7.2 15.857V9.85688H8.8V15.857H7.2ZM10.4 15.857V9.85688H13.6V15.857H10.4ZM15.2 15.857V9.85688H16.8V15.857H15.2ZM5.6 8.14256V7.04599L12 4.75993L18.4 7.04599V8.14256H5.6Z"
          fill="currentColor"/>
</svg>
