<svg xmlns="http://www.w3.org/2000/svg" width="24" height="24" fill="currentColor" viewBox="0 0 24 24">
  <path d="M11.125 5.077a2.07 2.07 0 0 1-2.063 2.077A2.07 2.07 0 0 1 7 5.077 2.07 2.07 0 0 1 9.063 3a2.07 2.07 0 0 1 2.062 2.077Zm0 6.923a2.07 2.07 0 0 1-2.063 2.077A2.07 2.07 0 0 1 7 12a2.07 2.07 0 0 1 2.063-2.077A2.07 2.07 0 0 1 11.125 12Zm0 6.923A2.07 2.07 0 0 1 9.062 21 2.07 2.07 0 0 1 7 18.923a2.07 2.07 0 0 1 2.063-2.077 2.07 2.07 0 0 1 2.062 2.077ZM18 5.077a2.07 2.07 0 0 1-2.063 2.077 2.07 2.07 0 0 1-2.062-2.077A2.07 2.07 0 0 1 15.938 3 2.07 2.07 0 0 1 18 5.077ZM18 12a2.07 2.07 0 0 1-2.063 2.077A2.07 2.07 0 0 1 13.876 12a2.07 2.07 0 0 1 2.063-2.077A2.07 2.07 0 0 1 18.001 12Zm0 6.923A2.07 2.07 0 0 1 15.937 21a2.07 2.07 0 0 1-2.062-2.077 2.07 2.07 0 0 1 2.063-2.077A2.07 2.07 0 0 1 18 18.923Z"/>
</svg>
