<svg width="24" height="24" viewBox="0 0 24 24" fill="none" xmlns="http://www.w3.org/2000/svg">
    <path d="M19.3263 4.15031C18.7536 4.05264 18.1737 4.00236 17.5926 4C15.6099 3.99839 13.6686 4.56134 12 5.62173C10.3271 4.57526 8.38612 4.02613 6.40742 4.03956C5.82631 4.04192 5.2464 4.09219 4.67372 4.18986C4.48613 4.22189 4.31626 4.31917 4.19469 4.46421C4.07311 4.60924 4.00783 4.79249 4.0106 4.98095V14.474C4.00889 14.5902 4.03307 14.7054 4.08143 14.8113C4.12978 14.9173 4.20112 15.0113 4.29037 15.0869C4.37962 15.1624 4.48458 15.2175 4.59779 15.2483C4.71099 15.2791 4.82967 15.2848 4.94536 15.2651C6.09026 15.0688 7.26325 15.1013 8.39524 15.3608C9.52723 15.6203 10.5953 16.1015 11.5366 16.776L11.6325 16.8314H11.7204C11.809 16.868 11.904 16.8868 12 16.8868C12.096 16.8868 12.191 16.868 12.2796 16.8314H12.3675L12.4634 16.776C13.3981 16.0864 14.4631 15.5897 15.5953 15.3152C16.7276 15.0407 17.9039 14.994 19.0546 15.178C19.1703 15.1978 19.289 15.1921 19.4022 15.1613C19.5154 15.1305 19.6204 15.0754 19.7096 14.9998C19.7989 14.9243 19.8702 14.8302 19.9186 14.7243C19.9669 14.6184 19.9911 14.5032 19.9894 14.3869V4.89393C19.9811 4.71368 19.9108 4.54167 19.7902 4.40641C19.6696 4.27116 19.5059 4.1808 19.3263 4.15031ZM11.2011 14.6638C9.72293 13.8939 8.07762 13.492 6.40742 13.493C6.14377 13.493 5.88012 13.493 5.60848 13.493V5.58217C5.87457 5.56699 6.14133 5.56699 6.40742 5.58217C8.11187 5.58031 9.77912 6.07557 11.2011 7.00613V14.6638ZM18.3915 13.5247C18.1199 13.5247 17.8562 13.5247 17.5926 13.5247C15.9224 13.5236 14.2771 13.9255 12.7989 14.6955V7.00613C14.2209 6.07557 15.8881 5.58031 17.5926 5.58217C17.8587 5.56699 18.1254 5.56699 18.3915 5.58217V13.5247ZM19.3263 16.8077C18.7536 16.71 18.1737 16.6597 17.5926 16.6574C15.6099 16.6558 13.6686 17.2187 12 18.2791C10.3314 17.2187 8.3901 16.6558 6.40742 16.6574C5.82631 16.6597 5.2464 16.71 4.67372 16.8077C4.56972 16.824 4.47001 16.8605 4.38032 16.9152C4.29063 16.9698 4.21273 17.0415 4.15111 17.126C4.08948 17.2106 4.04534 17.3063 4.02123 17.4078C3.99712 17.5093 3.9935 17.6145 4.0106 17.7174C4.0512 17.9228 4.17238 18.104 4.34759 18.2211C4.52279 18.3383 4.73775 18.3819 4.94536 18.3424C6.09026 18.1461 7.26325 18.1787 8.39524 18.4382C9.52723 18.6977 10.5953 19.1788 11.5366 19.8533C11.6719 19.9487 11.8339 20 12 20C12.1661 20 12.3281 19.9487 12.4634 19.8533C13.4047 19.1788 14.4728 18.6977 15.6048 18.4382C16.7368 18.1787 17.9097 18.1461 19.0546 18.3424C19.2623 18.3819 19.4772 18.3383 19.6524 18.2211C19.8276 18.104 19.9488 17.9228 19.9894 17.7174C20.0065 17.6145 20.0029 17.5093 19.9788 17.4078C19.9547 17.3063 19.9105 17.2106 19.8489 17.126C19.7873 17.0415 19.7094 16.9698 19.6197 16.9152C19.53 16.8605 19.4303 16.824 19.3263 16.8077Z"
          fill="currentColor"/>
</svg>
