<svg width="24" height="24" viewBox="0 0 24 24" fill="none" xmlns="http://www.w3.org/2000/svg">
    <path d="M19.2727 5H4.72727C4.53439 5 4.3494 5.07375 4.21301 5.20503C4.07662 5.3363 4 5.51435 4 5.7V8.5C4.00127 8.93326 4.14173 9.35554 4.40214 9.70895C4.66254 10.0624 5.03015 10.3296 5.45455 10.474V18.3C5.45455 18.4857 5.53117 18.6637 5.66756 18.795C5.80395 18.9263 5.98893 19 6.18182 19H17.8182C18.0111 19 18.1961 18.9263 18.3324 18.795C18.4688 18.6637 18.5455 18.4857 18.5455 18.3V10.474C18.9699 10.3296 19.3375 10.0624 19.5979 9.70895C19.8583 9.35554 19.9987 8.93326 20 8.5V5.7C20 5.51435 19.9234 5.3363 19.787 5.20503C19.6506 5.07375 19.4656 5 19.2727 5ZM14.1818 6.4H15.6364V8.5C15.6364 8.68565 15.5597 8.8637 15.4234 8.99497C15.287 9.12625 15.102 9.2 14.9091 9.2C14.7162 9.2 14.5312 9.12625 14.3948 8.99497C14.2584 8.8637 14.1818 8.68565 14.1818 8.5V6.4ZM11.2727 6.4H12.7273V8.5C12.7273 8.68565 12.6507 8.8637 12.5143 8.99497C12.3779 9.12625 12.1929 9.2 12 9.2C11.8071 9.2 11.6221 9.12625 11.4857 8.99497C11.3494 8.8637 11.2727 8.68565 11.2727 8.5V6.4ZM8.36364 6.4H9.81818V8.5C9.81818 8.68565 9.74156 8.8637 9.60517 8.99497C9.46878 9.12625 9.28379 9.2 9.09091 9.2C8.89802 9.2 8.71304 9.12625 8.57665 8.99497C8.44026 8.8637 8.36364 8.68565 8.36364 8.5V6.4ZM6.18182 9.2C5.98893 9.2 5.80395 9.12625 5.66756 8.99497C5.53117 8.8637 5.45455 8.68565 5.45455 8.5V6.4H6.90909V8.5C6.90909 8.68565 6.83247 8.8637 6.69608 8.99497C6.55969 9.12625 6.3747 9.2 6.18182 9.2ZM13.4545 17.6H10.5455V14.8C10.5455 14.4287 10.6987 14.0726 10.9715 13.8101C11.2443 13.5475 11.6142 13.4 12 13.4C12.3858 13.4 12.7557 13.5475 13.0285 13.8101C13.3013 14.0726 13.4545 14.4287 13.4545 14.8V17.6ZM17.0909 17.6H14.9091V14.8C14.9091 14.0574 14.6026 13.3452 14.057 12.8201C13.5115 12.295 12.7715 12 12 12C11.2285 12 10.4885 12.295 9.94296 12.8201C9.3974 13.3452 9.09091 14.0574 9.09091 14.8V17.6H6.90909V10.474C7.17641 10.3785 7.42301 10.2361 7.63636 10.054C8.03638 10.3984 8.55423 10.5888 9.09091 10.5888C9.62759 10.5888 10.1454 10.3984 10.5455 10.054C10.9455 10.3984 11.4633 10.5888 12 10.5888C12.5367 10.5888 13.0545 10.3984 13.4545 10.054C13.8546 10.3984 14.3724 10.5888 14.9091 10.5888C15.4458 10.5888 15.9636 10.3984 16.3636 10.054C16.577 10.2361 16.8236 10.3785 17.0909 10.474V17.6ZM18.5455 8.5C18.5455 8.68565 18.4688 8.8637 18.3324 8.99497C18.1961 9.12625 18.0111 9.2 17.8182 9.2C17.6253 9.2 17.4403 9.12625 17.3039 8.99497C17.1675 8.8637 17.0909 8.68565 17.0909 8.5V6.4H18.5455V8.5Z"
          fill="currentColor"/>
</svg>
