<svg width="24" height="24" viewBox="0 0 24 24" fill="none" xmlns="http://www.w3.org/2000/svg">
    <path d="M12.474 12.8021L10.6336 14.6346C10.5586 14.709 10.499 14.7975 10.4584 14.895C10.4178 14.9925 10.3969 15.0971 10.3969 15.2027C10.3969 15.3083 10.4178 15.4129 10.4584 15.5104C10.499 15.608 10.5586 15.6965 10.6336 15.7708C10.7079 15.8458 10.7964 15.9054 10.894 15.946C10.9915 15.9866 11.0961 16.0075 11.2017 16.0075C11.3073 16.0075 11.4119 15.9866 11.5094 15.946C11.6069 15.9054 11.6954 15.8458 11.7698 15.7708L14.9706 12.5701C15.0434 12.494 15.1005 12.4043 15.1386 12.306C15.2186 12.1112 15.2186 11.8927 15.1386 11.6979C15.1005 11.5997 15.0434 11.5099 14.9706 11.4338L11.7698 8.23307C11.6952 8.15846 11.6066 8.09928 11.5092 8.0589C11.4117 8.01853 11.3072 7.99774 11.2017 7.99774C11.0962 7.99774 10.9917 8.01853 10.8942 8.0589C10.7967 8.09928 10.7082 8.15846 10.6336 8.23307C10.5589 8.30768 10.4998 8.39625 10.4594 8.49373C10.419 8.59122 10.3982 8.69569 10.3982 8.80121C10.3982 8.90672 10.419 9.0112 10.4594 9.10868C10.4998 9.20616 10.5589 9.29473 10.6336 9.36934L12.474 11.2018H4.80019C4.58796 11.2018 4.38443 11.2861 4.23437 11.4361C4.08431 11.5862 4 11.7897 4 12.002C4 12.2142 4.08431 12.4177 4.23437 12.5678C4.38443 12.7178 4.58796 12.8021 4.80019 12.8021H12.474ZM12.0019 4.00008C10.5064 3.9934 9.03898 4.40595 7.76606 5.19091C6.49314 5.97588 5.46567 7.10186 4.80019 8.44112C4.70469 8.63212 4.68897 8.85324 4.7565 9.05582C4.82403 9.25841 4.96927 9.42587 5.16027 9.52138C5.35127 9.61688 5.57239 9.63259 5.77497 9.56506C5.97756 9.49753 6.14503 9.35229 6.24053 9.16129C6.7464 8.13971 7.51589 7.27174 8.46949 6.64709C9.42309 6.02244 10.5262 5.66376 11.6648 5.60813C12.8034 5.5525 13.9362 5.80192 14.9462 6.33063C15.9561 6.85935 16.8066 7.64816 17.4096 8.61556C18.0127 9.58296 18.3465 10.6938 18.3765 11.8334C18.4065 12.973 18.1317 14.0999 17.5804 15.0977C17.0291 16.0955 16.2214 16.928 15.2407 17.5092C14.26 18.0903 13.1418 18.3991 12.0019 18.4035C10.8087 18.4086 9.63825 18.0773 8.62484 17.4474C7.61143 16.8176 6.79614 15.9148 6.27253 14.8426C6.17703 14.6516 6.00957 14.5064 5.80698 14.4389C5.6044 14.3713 5.38328 14.387 5.19228 14.4825C5.00128 14.578 4.85604 14.7455 4.78851 14.9481C4.72098 15.1507 4.73669 15.3718 4.8322 15.5628C5.46661 16.8395 6.43059 17.9235 7.62443 18.7028C8.81827 19.482 10.1986 19.9281 11.6227 19.995C13.0468 20.0619 14.4628 19.7471 15.7245 19.0832C16.9861 18.4193 18.0474 17.4304 18.7987 16.2188C19.55 15.0072 19.964 13.6168 19.9978 12.1916C20.0315 10.7664 19.6839 9.35797 18.9909 8.11211C18.2979 6.86625 17.2846 5.82816 16.0558 5.10522C14.8271 4.38229 13.4275 4.00075 12.0019 4.00008Z"
          fill="currentColor"/>
</svg>
