<svg xmlns="http://www.w3.org/2000/svg" width="24" height="24" fill="none" viewBox="0 0 24 24">
  <path fill="currentColor" d="M12 2a10 10 0 1 0 0 20 10 10 0 0 0 0-20Zm0 18.182a8.181 8.181 0 1 1 0-16.363 8.181 8.181 0 0 1 0 16.363Zm.536-12.118a3.036 3.036 0 0 1 2.382 1.254.909.909 0 0 0 1.622-.434.909.909 0 0 0-.185-.675 4.835 4.835 0 0 0-3.819-1.964 5.064 5.064 0 0 0-4.663 3.482H6.545a.91.91 0 1 0 0 1.819h.91v.908h-.91a.91.91 0 0 0 0 1.819h1.328a5.064 5.064 0 0 0 4.663 3.482 4.835 4.835 0 0 0 3.819-1.964.909.909 0 1 0-1.437-1.064 3.037 3.037 0 0 1-2.382 1.255 3.11 3.11 0 0 1-2.654-1.71H12a.91.91 0 0 0 0-1.818H9.318A3.844 3.844 0 0 1 9.273 12c.006-.152.021-.304.045-.454H12a.909.909 0 0 0 0-1.819H9.882a3.11 3.11 0 0 1 2.654-1.663Z"/>
</svg>
