<svg width="24" height="24" viewBox="0 0 24 24" fill="none" xmlns="http://www.w3.org/2000/svg">
    <path d="M17.6 6.36844H12.576L12.32 5.57896C12.154 5.11572 11.8462 4.71489 11.4391 4.43199C11.032 4.14908 10.5459 3.99812 10.048 4.00002H6.4C5.76348 4.00002 5.15303 4.24955 4.70294 4.69371C4.25286 5.13788 4 5.74029 4 6.36844V16.6316C4 17.2597 4.25286 17.8621 4.70294 18.3063C5.15303 18.7505 5.76348 19 6.4 19H17.6C18.2365 19 18.847 18.7505 19.2971 18.3063C19.7471 17.8621 20 17.2597 20 16.6316V8.73685C20 8.10871 19.7471 7.50629 19.2971 7.06213C18.847 6.61797 18.2365 6.36844 17.6 6.36844ZM18.4 16.6316C18.4 16.841 18.3157 17.0418 18.1657 17.1898C18.0157 17.3379 17.8122 17.4211 17.6 17.4211H6.4C6.18783 17.4211 5.98434 17.3379 5.83431 17.1898C5.68429 17.0418 5.6 16.841 5.6 16.6316V6.36844C5.6 6.15905 5.68429 5.95825 5.83431 5.81019C5.98434 5.66214 6.18783 5.57896 6.4 5.57896H10.048C10.2157 5.57854 10.3793 5.63014 10.5157 5.72647C10.6521 5.8228 10.7543 5.959 10.808 6.1158L11.24 7.41054C11.2937 7.56735 11.3959 7.70354 11.5323 7.79987C11.6687 7.89621 11.8323 7.94781 12 7.94738H17.6C17.8122 7.94738 18.0157 8.03056 18.1657 8.17861C18.3157 8.32667 18.4 8.52747 18.4 8.73685V16.6316Z"
          fill="currentColor"/>
</svg>
