<svg width="24" height="24" viewBox="0 0 24 24" fill="none" xmlns="http://www.w3.org/2000/svg">
    <path d="M14.248 12.224C14.7544 11.6802 15.0397 10.967 15.048 10.224C15.048 9.42199 14.7294 8.65282 14.1623 8.08571C13.5952 7.5186 12.826 7.2 12.024 7.2C11.222 7.2 10.4528 7.5186 9.88571 8.08571C9.3186 8.65282 9 9.42199 9 10.224C9.00835 10.967 9.29362 11.6802 9.8 12.224C9.09492 12.5751 8.48818 13.0959 8.03433 13.7397C7.58049 14.3835 7.29378 15.1299 7.2 15.912C7.17666 16.1242 7.23856 16.3369 7.37209 16.5035C7.50561 16.67 7.69983 16.7767 7.912 16.8C8.12417 16.8233 8.33693 16.7614 8.50346 16.6279C8.66999 16.4944 8.77666 16.3002 8.8 16.088C8.89547 15.3129 9.27108 14.5995 9.85607 14.0821C10.4411 13.5648 11.1951 13.2792 11.976 13.2792C12.7569 13.2792 13.5109 13.5648 14.0959 14.0821C14.6809 14.5995 15.0565 15.3129 15.152 16.088C15.1742 16.2931 15.2749 16.4817 15.4329 16.6144C15.5909 16.7471 15.7941 16.8136 16 16.8H16.088C16.2977 16.7759 16.4894 16.6698 16.6212 16.505C16.7531 16.3402 16.8145 16.1299 16.792 15.92C16.7052 15.1421 16.4275 14.3976 15.9837 13.7528C15.5399 13.108 14.9437 12.5829 14.248 12.224ZM12 11.648C11.7184 11.648 11.443 11.5645 11.2089 11.408C10.9747 11.2515 10.7922 11.0291 10.6844 10.7689C10.5766 10.5087 10.5484 10.2224 10.6034 9.94619C10.6583 9.66996 10.7939 9.41623 10.9931 9.21708C11.1922 9.01793 11.446 8.88231 11.7222 8.82736C11.9984 8.77242 12.2847 8.80062 12.5449 8.9084C12.8051 9.01617 13.0275 9.19869 13.184 9.43287C13.3405 9.66704 13.424 9.94236 13.424 10.224C13.424 10.6017 13.274 10.9639 13.0069 11.2309C12.7399 11.498 12.3777 11.648 12 11.648ZM17.6 4H6.4C5.76348 4 5.15303 4.25286 4.70294 4.70294C4.25286 5.15303 4 5.76348 4 6.4V17.6C4 18.2365 4.25286 18.847 4.70294 19.2971C5.15303 19.7471 5.76348 20 6.4 20H17.6C18.2365 20 18.847 19.7471 19.2971 19.2971C19.7471 18.847 20 18.2365 20 17.6V6.4C20 5.76348 19.7471 5.15303 19.2971 4.70294C18.847 4.25286 18.2365 4 17.6 4ZM18.4 17.6C18.4 17.8122 18.3157 18.0157 18.1657 18.1657C18.0157 18.3157 17.8122 18.4 17.6 18.4H6.4C6.18783 18.4 5.98434 18.3157 5.83431 18.1657C5.68429 18.0157 5.6 17.8122 5.6 17.6V6.4C5.6 6.18783 5.68429 5.98434 5.83431 5.83431C5.98434 5.68429 6.18783 5.6 6.4 5.6H17.6C17.8122 5.6 18.0157 5.68429 18.1657 5.83431C18.3157 5.98434 18.4 6.18783 18.4 6.4V17.6Z"
          fill="currentColor"/>
</svg>
