<svg width="24" height="24" viewBox="0 0 24 24" fill="none" xmlns="http://www.w3.org/2000/svg">
    <path d="M8.71269 9.99638L11.0008 7.98391L11.0008 18.125C11.0008 18.3571 11.1061 18.5796 11.2935 18.7437C11.4809 18.9078 11.735 19 12 19C12.265 19 12.5191 18.9078 12.7065 18.7437C12.8939 18.5796 12.9992 18.3571 12.9992 18.125L12.9992 7.98391L15.2873 9.99638C15.4755 10.1611 15.7306 10.2537 15.9967 10.2537C16.2628 10.2537 16.518 10.1611 16.7061 9.99638C16.8943 9.83162 17 9.60815 17 9.37514C17 9.14213 16.8943 8.91866 16.7061 8.7539L12.7094 5.25395C12.6144 5.17429 12.5023 5.11185 12.3797 5.0702C12.2601 5.02391 12.1308 5 12 5C11.8692 5 11.7399 5.02391 11.6203 5.0702C11.4977 5.11185 11.3856 5.17429 11.2906 5.25395L7.29385 8.7539C7.1057 8.91866 7 9.14213 7 9.37514C7 9.60815 7.1057 9.83162 7.29385 9.99638C7.38701 10.078 7.49761 10.1427 7.61934 10.1868C7.74106 10.231 7.87152 10.2537 8.00327 10.2537C8.26935 10.2537 8.52454 10.1611 8.71269 9.99638Z"
          fill="currentColor"/>
</svg>
