<svg width="24" height="24" viewBox="0 0 24 24" fill="none" xmlns="http://www.w3.org/2000/svg">
    <path d="M10.5523 15.955L9.30373 17.1671C8.97633 17.4942 8.53227 17.6779 8.06924 17.6779C7.60622 17.6779 7.16216 17.4942 6.83475 17.1671C6.50735 16.84 6.32341 16.3964 6.32341 15.9338C6.32341 15.4713 6.50735 15.0277 6.83475 14.7006L10.0374 11.4941C10.3517 11.1791 10.7753 10.9968 11.2204 10.985C11.6655 10.9732 12.0981 11.1327 12.4288 11.4307L12.5134 11.5012C12.6472 11.632 12.8275 11.7044 13.0147 11.7024C13.2019 11.7004 13.3806 11.6242 13.5116 11.4906C13.6425 11.357 13.715 11.1768 13.713 10.9898C13.711 10.8028 13.6348 10.6242 13.501 10.4934C13.4612 10.442 13.4188 10.3926 13.374 10.3454C12.7718 9.82204 11.993 9.54687 11.1954 9.57566C10.3977 9.60445 9.64081 9.93504 9.078 10.5005L5.83305 13.7069C5.28167 14.3065 4.98346 15.0957 5.00071 15.9097C5.01796 16.7237 5.34933 17.4996 5.92563 18.0753C6.50192 18.651 7.27858 18.9821 8.0934 18.9993C8.90822 19.0165 9.69821 18.7186 10.2984 18.1678L11.5188 16.9768C11.6393 16.8455 11.7055 16.6734 11.7041 16.4953C11.7028 16.3172 11.634 16.1461 11.5115 16.0166C11.389 15.8872 11.222 15.8088 11.0441 15.7974C10.8661 15.7859 10.6904 15.8422 10.5523 15.955ZM18.0933 5.9198C17.4999 5.33067 16.6972 5 15.8606 5C15.024 5 14.2214 5.33067 13.628 5.9198L12.4076 7.11078C12.2871 7.2421 12.2209 7.41414 12.2222 7.59228C12.2235 7.77043 12.2924 7.94145 12.4148 8.07094C12.5373 8.20043 12.7043 8.27878 12.8823 8.29023C13.0603 8.30167 13.2359 8.24535 13.374 8.13261L14.5944 6.9205C14.9218 6.59342 15.3659 6.40967 15.8289 6.40967C16.2919 6.40967 16.736 6.59342 17.0634 6.9205C17.3908 7.24758 17.5747 7.6912 17.5747 8.15376C17.5747 8.61632 17.3908 9.05993 17.0634 9.38701L13.8608 12.5935C13.5464 12.9085 13.1229 13.0908 12.6778 13.1026C12.2326 13.1144 11.8 12.9548 11.4694 12.6569L11.3847 12.5864C11.251 12.4556 11.0706 12.3832 10.8835 12.3852C10.6963 12.3872 10.5175 12.4634 10.3866 12.597C10.2556 12.7306 10.1831 12.9108 10.1851 13.0978C10.1871 13.2848 10.2634 13.4633 10.3971 13.5942C10.4484 13.6465 10.5025 13.6959 10.5594 13.7422C11.1623 14.264 11.9408 14.5381 12.7379 14.5093C13.5351 14.4806 14.2918 14.151 14.8554 13.5871L18.0651 10.3807C18.6586 9.79157 18.9946 8.99183 18.9999 8.15605C19.0052 7.32026 18.6793 6.51634 18.0933 5.9198Z"
          fill="currentColor"/>
</svg>
