<svg xmlns="http://www.w3.org/2000/svg" width="24" height="24" fill="currentColor" viewBox="0 0 24 24">
  <path d="m15.945 14.933-2.746 2.444V5.062c0-.281-.126-.552-.351-.75A1.28 1.28 0 0 0 12 4c-.318 0-.623.112-.848.311-.225.2-.351.47-.351.751v12.315l-2.746-2.444a1.287 1.287 0 0 0-.851-.313c-.32 0-.626.113-.851.313-.226.2-.353.471-.353.754 0 .283.127.555.353.755l4.796 4.25c.114.096.248.172.395.223a1.252 1.252 0 0 0 .912 0c.147-.05.281-.127.395-.223l4.796-4.25c.226-.2.353-.472.353-.755 0-.283-.127-.554-.353-.754a1.223 1.223 0 0 0-.39-.231 1.34 1.34 0 0 0-.46-.082c-.32 0-.626.113-.852.313Z"/>
</svg>
