<svg xmlns="http://www.w3.org/2000/svg" width="24" height="24" fill="currentColor" viewBox="0 0 24 24">
  <path d="M3 7.333h18c.265 0 .52-.123.707-.341.188-.22.293-.516.293-.825 0-.31-.105-.606-.293-.825A.934.934 0 0 0 21 5H3a.934.934 0 0 0-.707.342A1.272 1.272 0 0 0 2 6.167c0 .31.105.606.293.825A.934.934 0 0 0 3 7.333Zm18 9.334H3a.934.934 0 0 0-.707.341 1.272 1.272 0 0 0-.293.825c0 .31.105.607.293.825A.934.934 0 0 0 3 19h18c.265 0 .52-.123.707-.342a1.27 1.27 0 0 0 .293-.825c0-.31-.105-.606-.293-.825a.934.934 0 0 0-.707-.341Zm0-5.834H3a.934.934 0 0 0-.707.342A1.272 1.272 0 0 0 2 12c0 .31.105.606.293.825a.934.934 0 0 0 .707.342h18c.265 0 .52-.123.707-.342.188-.219.293-.516.293-.825 0-.31-.105-.606-.293-.825a.934.934 0 0 0-.707-.342Z"/>
</svg>
