<svg xmlns="http://www.w3.org/2000/svg" width="24" height="24" fill="currentColor" viewBox="0 0 24 24">
    <path fill-rule="evenodd" d="M6.447 3.69a9.993 9.993 0 0 1 12.63 1.24 9.99 9.99 0 0 1 1.24 12.63 9.975 9.975 0 0 1-4.49 3.68c-1.83.76-3.84.95-5.78.57a10.03 10.03 0 0 1-5.12-2.74 10.03 10.03 0 0 1-2.74-5.12 9.95 9.95 0 0 1 .57-5.78 10.04 10.04 0 0 1 3.68-4.49l.01.01Zm1.01 15.12a8.182 8.182 0 0 0 10.34-1.02 8.182 8.182 0 0 0 1.02-10.34 8.177 8.177 0 0 0-3.67-3.01c-1.5-.62-3.14-.78-4.73-.47a8.186 8.186 0 0 0-6.43 6.43c-.32 1.59-.15 3.23.47 4.73.62 1.5 1.67 2.77 3.01 3.67l-.01.01Zm.7-10.06a.371.371 0 0 0-.42-.09.41.41 0 0 0-.24.37v5.94c0 .22.17.4.39.4h8.23a.4.4 0 0 0 .39-.4V9.03c0-.16-.09-.31-.24-.37a.368.368 0 0 0-.42.09l-1.78 1.87-1.78-1.87a.375.375 0 0 0-.55 0l-1.78 1.87-1.78-1.87h-.02Z" clip-rule="evenodd"/>
</svg>
