<svg xmlns="http://www.w3.org/2000/svg" width="24" height="24" fill="currentColor" viewBox="0 0 24 24">
  <path d="M6.09 8.364h.455v.454a.91.91 0 1 0 1.819 0v-.454h.454a.91.91 0 1 0 0-1.819h-.454v-.454a.91.91 0 1 0-1.819 0v.454h-.454a.91.91 0 1 0 0 1.819Zm-.563 10.109a.91.91 0 0 0 1.282 0l.646-.646.645.646a.91.91 0 0 0 1.282 0 .909.909 0 0 0 0-1.282l-.646-.645.646-.646A.909.909 0 0 0 8.1 14.618l-.645.646-.646-.646A.908.908 0 0 0 5.527 15.9l.646.646-.646.645a.91.91 0 0 0 0 1.282ZM19.273 2H4.727A2.727 2.727 0 0 0 2 4.727v14.546A2.727 2.727 0 0 0 4.727 22h14.546A2.727 2.727 0 0 0 22 19.273V4.727A2.727 2.727 0 0 0 19.273 2ZM11.09 20.182H4.727a.91.91 0 0 1-.909-.91V12.91h7.273v7.273Zm0-9.091H3.818V4.727a.91.91 0 0 1 .91-.909h6.363v7.273Zm9.09 8.182a.91.91 0 0 1-.908.909h-6.364v-7.273h7.273v6.364Zm0-8.182h-7.27V3.818h6.364a.91.91 0 0 1 .909.91v6.363Zm-5 5h2.728a.909.909 0 0 0 0-1.818h-2.727a.909.909 0 0 0 0 1.818Zm2.728-9.546h-2.727a.91.91 0 0 0 0 1.819h2.727a.91.91 0 0 0 0-1.819Zm-2.727 12.273h2.727a.909.909 0 0 0 0-1.818h-2.727a.909.909 0 0 0 0 1.818Z"/>
</svg>
