<svg width="24" height="24" viewBox="0 0 24 24" fill="none" xmlns="http://www.w3.org/2000/svg">
    <path d="M12 12.8C11.7717 12.7972 11.548 12.869 11.3591 13.0058C11.1702 13.1427 11.0251 13.338 10.9434 13.5654C10.8617 13.7929 10.8473 14.0416 10.9021 14.278C10.9569 14.5145 11.0783 14.7274 11.25 14.888V16C11.25 16.2122 11.329 16.4157 11.4697 16.5657C11.6103 16.7157 11.8011 16.8 12 16.8C12.1989 16.8 12.3897 16.7157 12.5303 16.5657C12.671 16.4157 12.75 16.2122 12.75 16V14.888C12.9217 14.7274 13.0431 14.5145 13.0979 14.278C13.1527 14.0416 13.1383 13.7929 13.0566 13.5654C12.9749 13.338 12.8298 13.1427 12.6409 13.0058C12.452 12.869 12.2283 12.7972 12 12.8ZM15.75 9.6V8C15.75 6.93913 15.3549 5.92172 14.6517 5.17157C13.9484 4.42143 12.9946 4 12 4C11.0054 4 10.0516 4.42143 9.34835 5.17157C8.64509 5.92172 8.25 6.93913 8.25 8V9.6C7.65326 9.6 7.08097 9.85286 6.65901 10.3029C6.23705 10.753 6 11.3635 6 12V17.6C6 18.2365 6.23705 18.847 6.65901 19.2971C7.08097 19.7471 7.65326 20 8.25 20H15.75C16.3467 20 16.919 19.7471 17.341 19.2971C17.7629 18.847 18 18.2365 18 17.6V12C18 11.3635 17.7629 10.753 17.341 10.3029C16.919 9.85286 16.3467 9.6 15.75 9.6ZM9.75 8C9.75 7.36348 9.98705 6.75303 10.409 6.30294C10.831 5.85286 11.4033 5.6 12 5.6C12.5967 5.6 13.169 5.85286 13.591 6.30294C14.0129 6.75303 14.25 7.36348 14.25 8V9.6H9.75V8ZM16.5 17.6C16.5 17.8122 16.421 18.0157 16.2803 18.1657C16.1397 18.3157 15.9489 18.4 15.75 18.4H8.25C8.05109 18.4 7.86032 18.3157 7.71967 18.1657C7.57902 18.0157 7.5 17.8122 7.5 17.6V12C7.5 11.7878 7.57902 11.5843 7.71967 11.4343C7.86032 11.2843 8.05109 11.2 8.25 11.2H15.75C15.9489 11.2 16.1397 11.2843 16.2803 11.4343C16.421 11.5843 16.5 11.7878 16.5 12V17.6Z"
          fill="currentColor"/>
</svg>
