<svg xmlns="http://www.w3.org/2000/svg" width="24" height="24" fill="currentColor" viewBox="0 0 24 24">
  <path d="M11.997 19.995H5a1 1 0 0 1-1-1V5a1 1 0 0 1 1-1h4.999v3a3 3 0 0 0 2.999 2.999h2.999v1a1 1 0 0 0 2 0v-2.06a1.32 1.32 0 0 0-.06-.27v-.09a1.07 1.07 0 0 0-.19-.28L11.746 2.3a1.072 1.072 0 0 0-.28-.19.32.32 0 0 0-.09 0 .88.88 0 0 0-.33-.11H5a3 3 0 0 0-3 3v13.995a3 3 0 0 0 3 3h6.997a1 1 0 1 0 0-2Zm0-14.586 2.59 2.59h-1.59a1 1 0 0 1-1-1v-1.59ZM7 7.999a1 1 0 0 0 0 1.999h1a1 1 0 0 0 0-2H7Zm14.705 12.286-1.17-1.16a3.439 3.439 0 0 0-.54-4.129 3.489 3.489 0 0 0-5.998 2.49 3.46 3.46 0 0 0 5.129 3.049l1.16 1.17a.999.999 0 0 0 1.42 0 1 1 0 0 0 0-1.42Zm-3.169-1.75a1.54 1.54 0 0 1-2.11 0 1.5 1.5 0 0 1 .01-2.11 1.48 1.48 0 0 1 1-.43 1.47 1.47 0 0 1 1.1 2.54Zm-5.538-6.538H6.999a1 1 0 1 0 0 2h5.998a1 1 0 1 0 0-2Zm-2 5.998a1 1 0 0 0 0-2H7a1 1 0 0 0 0 2h3.998Z"/>
</svg>
