<svg xmlns="http://www.w3.org/2000/svg" width="24" height="24" fill="currentColor" viewBox="0 0 24 24">
  <path d="M17.007 9H7.021a.998.998 0 0 0-.998 1 1 1 0 0 0 .998 1h9.986a.998.998 0 0 0 .999-1 1 1 0 0 0-.999-1Zm-3.994 4H7.02a.998.998 0 0 0-.998 1 1 1 0 0 0 .998 1h5.992a.998.998 0 0 0 .998-1 1.001 1.001 0 0 0-.998-1Zm-.999-11a9.974 9.974 0 0 0-7.061 2.929 10.006 10.006 0 0 0-2.925 7.07 9.898 9.898 0 0 0 2.257 6.33l-1.997 2a1 1 0 0 0-.21 1.09 1 1 0 0 0 .949.58h8.987a9.979 9.979 0 0 0 7.061-2.929 10.007 10.007 0 0 0 0-14.141A9.979 9.979 0 0 0 12.015 2Zm0 18h-6.58l.928-.93a1 1 0 0 0 0-1.41A8.004 8.004 0 0 1 9.684 4.345a7.979 7.979 0 0 1 5.376.26 7.993 7.993 0 0 1 3.99 3.618 8.01 8.01 0 0 1-1.97 9.956A7.982 7.982 0 0 1 12.015 20Z"/>
</svg>
