<svg width="24" height="24" viewBox="0 0 24 24" fill="none" xmlns="http://www.w3.org/2000/svg">
<path d="M14.932 9.06803C14.8585 8.99396 14.7711 8.93516 14.6748 8.89504C14.5785 8.85492 14.4752 8.83426 14.3709 8.83426C14.2665 8.83426 14.1632 8.85492 14.0669 8.89504C13.9706 8.93516 13.8832 8.99396 13.8098 9.06803L12 10.8857L10.1902 9.06803C10.0414 8.91921 9.83959 8.83561 9.62913 8.83561C9.41868 8.83561 9.21684 8.91921 9.06803 9.06803C8.91921 9.21684 8.83561 9.41868 8.83561 9.62913C8.83561 9.83959 8.91921 10.0414 9.06803 10.1902L10.8857 12L9.06803 13.8098C8.99396 13.8832 8.93516 13.9706 8.89504 14.0669C8.85492 14.1632 8.83426 14.2665 8.83426 14.3709C8.83426 14.4752 8.85492 14.5785 8.89504 14.6748C8.93516 14.7711 8.99396 14.8585 9.06803 14.932C9.1415 15.006 9.2289 15.0648 9.32521 15.105C9.42151 15.1451 9.52481 15.1657 9.62913 15.1657C9.73346 15.1657 9.83676 15.1451 9.93306 15.105C10.0294 15.0648 10.1168 15.006 10.1902 14.932L12 13.1143L13.8098 14.932C13.8832 15.006 13.9706 15.0648 14.0669 15.105C14.1632 15.1451 14.2665 15.1657 14.3709 15.1657C14.4752 15.1657 14.5785 15.1451 14.6748 15.105C14.7711 15.0648 14.8585 15.006 14.932 14.932C15.006 14.8585 15.0648 14.7711 15.105 14.6748C15.1451 14.5785 15.1657 14.4752 15.1657 14.3709C15.1657 14.2665 15.1451 14.1632 15.105 14.0669C15.0648 13.9706 15.006 13.8832 14.932 13.8098L13.1143 12L14.932 10.1902C15.006 10.1168 15.0648 10.0294 15.105 9.93306C15.1451 9.83676 15.1657 9.73346 15.1657 9.62913C15.1657 9.52481 15.1451 9.42151 15.105 9.32521C15.0648 9.2289 15.006 9.1415 14.932 9.06803ZM17.5873 6.41266C16.8583 5.65785 15.9863 5.05579 15.0221 4.64161C14.0579 4.22743 13.0209 4.00942 11.9716 4.0003C10.9222 3.99118 9.88157 4.19114 8.91033 4.5885C7.9391 4.98586 7.05673 5.57268 6.3147 6.3147C5.57268 7.05673 4.98586 7.9391 4.5885 8.91033C4.19114 9.88157 3.99118 10.9222 4.0003 11.9716C4.00942 13.0209 4.22743 14.0579 4.64161 15.0221C5.05579 15.9863 5.65785 16.8583 6.41266 17.5873C7.14167 18.3421 8.01372 18.9442 8.9779 19.3584C9.94208 19.7726 10.9791 19.9906 12.0284 19.9997C13.0778 20.0088 14.1184 19.8089 15.0897 19.4115C16.0609 19.0141 16.9433 18.4273 17.6853 17.6853C18.4273 16.9433 19.0141 16.0609 19.4115 15.0897C19.8089 14.1184 20.0088 13.0778 19.9997 12.0284C19.9906 10.9791 19.7726 9.94208 19.3584 8.9779C18.9442 8.01372 18.3421 7.14167 17.5873 6.41266ZM16.473 16.473C15.4394 17.5078 14.0789 18.1523 12.6234 18.2965C11.1679 18.4407 9.70738 18.0758 8.49074 17.2639C7.2741 16.4521 6.37659 15.2435 5.95111 13.8441C5.52563 12.4447 5.59851 10.9411 6.15733 9.58945C6.71615 8.23777 7.72634 7.12166 9.01578 6.43128C10.3052 5.74089 11.7942 5.51894 13.2289 5.80325C14.6636 6.08755 15.9554 6.86051 16.8842 7.99044C17.8129 9.12037 18.3212 10.5374 18.3223 12C18.3251 12.8308 18.1631 13.654 17.8457 14.4217C17.5283 15.1895 17.0617 15.8868 16.473 16.473Z" fill="currentColor"/>
</svg>
