<svg xmlns="http://www.w3.org/2000/svg" width="24" height="24" fill="currentColor" viewBox="0 0 24 24">
  <path d="M12.315 12.233a5.194 5.194 0 0 0 1.257-1.774c.294-.68.446-1.418.446-2.165 0-1.404-.528-2.75-1.467-3.743C11.612 3.558 10.34 3 9.011 3c-1.328 0-2.602.558-3.54 1.55a5.452 5.452 0 0 0-1.467 3.744c0 .747.152 1.486.446 2.165a5.2 5.2 0 0 0 1.256 1.774 8.157 8.157 0 0 0-3.425 3.122A8.827 8.827 0 0 0 1 19.94c0 .281.105.55.293.749.188.198.443.31.708.31.266 0 .52-.112.708-.31a1.09 1.09 0 0 0 .294-.749c0-1.685.633-3.3 1.76-4.492 1.126-1.191 2.654-1.86 4.248-1.86 1.593 0 3.122.669 4.248 1.86 1.127 1.191 1.76 2.807 1.76 4.492 0 .281.105.55.293.749.188.198.443.31.708.31a.98.98 0 0 0 .709-.31 1.09 1.09 0 0 0 .293-.749 8.827 8.827 0 0 0-1.281-4.586 8.158 8.158 0 0 0-3.426-3.122Zm-3.304-.762a2.89 2.89 0 0 1-1.67-.536A3.146 3.146 0 0 1 6.236 9.51a3.346 3.346 0 0 1-.17-1.836 3.237 3.237 0 0 1 .822-1.626c.42-.444.955-.747 1.538-.87a2.853 2.853 0 0 1 1.736.181 3.05 3.05 0 0 1 1.348 1.17c.33.523.506 1.137.506 1.765 0 .843-.317 1.65-.88 2.246a2.924 2.924 0 0 1-2.124.93Zm9.753.338a5.43 5.43 0 0 0 1.206-2.714 5.57 5.57 0 0 0-.383-2.971 5.223 5.223 0 0 0-1.848-2.275A4.812 4.812 0 0 0 15.02 3a.975.975 0 0 0-.708.31 1.09 1.09 0 0 0-.293.749c0 .28.105.55.293.749.188.198.443.31.708.31.797 0 1.56.334 2.124.93a3.27 3.27 0 0 1 .88 2.246 3.317 3.317 0 0 1-.404 1.584c-.264.48-.642.88-1.098 1.159a1.03 1.03 0 0 0-.36.375 1.104 1.104 0 0 0-.027 1.03c.079.16.195.296.337.394l.39.276.13.074a7.156 7.156 0 0 1 2.936 2.76 7.732 7.732 0 0 1 1.07 3.995c0 .281.106.55.293.749.188.198.443.31.709.31.265 0 .52-.112.708-.31a1.09 1.09 0 0 0 .292-.75 9.964 9.964 0 0 0-1.118-4.648 9.33 9.33 0 0 0-3.118-3.484Z"/>
</svg>
