<svg xmlns="http://www.w3.org/2000/svg" width="24" height="24" fill="currentColor" viewBox="0 0 24 24">
  <path d="M18.244 4.552a.876.876 0 0 0-.877-.877H6.536c-.31 0-.605.233-.717.566-.126.35-.056.75.169 1.016L11.68 12l-5.692 6.743a1.048 1.048 0 0 0-.169 1.016c.127.35.408.566.717.566h10.831a.876.876 0 0 0 .877-.877v-.095a.876.876 0 0 0-.877-.876H8.42l4.92-5.828a1.049 1.049 0 0 0 0-1.315L8.42 5.507h8.948a.876.876 0 0 0 .877-.877v-.078Z"/>
  <path fill-rule="evenodd" d="M6.536 3.5h10.831c.581 0 1.052.47 1.052 1.052v.078c0 .581-.47 1.052-1.052 1.052h-8.57l4.675 5.539c.365.432.365 1.11 0 1.541l-4.675 5.54h8.57c.581 0 1.052.47 1.052 1.051v.095c0 .581-.47 1.052-1.052 1.052H6.536c-.398 0-.736-.277-.882-.682a1.223 1.223 0 0 1 .2-1.188L11.45 12 5.854 5.37a1.223 1.223 0 0 1-.2-1.186c.132-.39.485-.684.882-.684Zm-.717.741c.112-.333.408-.566.717-.566h10.831c.484 0 .877.393.877.877v.078a.876.876 0 0 1-.877.877H8.42l4.92 5.827c.309.366.309.95 0 1.315l-4.92 5.828h8.948c.484 0 .877.392.877.876v.095a.876.876 0 0 1-.877.877H6.536c-.31 0-.59-.217-.717-.566a1.05 1.05 0 0 1 .169-1.016L11.68 12 5.988 5.257a1.048 1.048 0 0 1-.169-1.016Z" clip-rule="evenodd"/>
  <path fill-rule="evenodd" d="M17.367 18.301c.581 0 1.052.471 1.052 1.052v.095c0 .581-.47 1.052-1.052 1.052H6.536c-.398 0-.736-.277-.882-.682a1.223 1.223 0 0 1 .2-1.188L11.45 12 5.854 5.37a1.223 1.223 0 0 1-.2-1.186c.132-.39.485-.684.882-.684h10.831c.581 0 1.052.47 1.052 1.052v.078c0 .581-.47 1.052-1.052 1.052h-8.57l4.675 5.539c.365.432.365 1.11 0 1.541l-4.675 5.54h8.57Zm-8.14-.2h8.14c.692 0 1.252.56 1.252 1.252v.095c0 .692-.56 1.252-1.252 1.252H6.536c-.5 0-.901-.348-1.07-.814-.17-.47-.08-1.012.235-1.385L11.189 12 5.7 5.5a1.423 1.423 0 0 1-.236-1.383c.155-.455.574-.817 1.07-.817h10.832c.692 0 1.252.56 1.252 1.252v.078c0 .692-.56 1.252-1.252 1.252h-8.14l4.398 5.21a1.423 1.423 0 0 1 0 1.8l-4.398 5.21Z" clip-rule="evenodd"/>
</svg>
