<svg width="24" height="24" viewBox="0 0 24 24" fill="none" xmlns="http://www.w3.org/2000/svg">
    <path d="M8.66078 8.3074C8.48266 8.11438 8.2391 8.00384 7.98366 8.0001C7.72822 7.99636 7.48184 8.09973 7.29871 8.28747C7.11558 8.4752 7.0107 8.73193 7.00716 9.00117C7.00361 9.27041 7.10168 9.53011 7.27979 9.72313L9.49315 12.0062L7.27979 14.2894C7.19113 14.382 7.12077 14.4923 7.07274 14.6138C7.02472 14.7353 7 14.8656 7 14.9972C7 15.1288 7.02472 15.2592 7.07274 15.3806C7.12077 15.5021 7.19113 15.6124 7.27979 15.7051C7.36772 15.7985 7.47234 15.8727 7.5876 15.9233C7.70287 15.9739 7.8265 16 7.95137 16C8.07623 16 8.19986 15.9739 8.31513 15.9233C8.43039 15.8727 8.53501 15.7985 8.62294 15.7051L11.4606 12.7141C11.5492 12.6214 11.6196 12.5112 11.6676 12.3897C11.7156 12.2682 11.7404 12.1379 11.7404 12.0062C11.7404 11.8746 11.7156 11.7443 11.6676 11.6228C11.6196 11.5013 11.5492 11.3911 11.4606 11.2984L8.66078 8.3074ZM16.7008 11.2984L13.8631 8.3074C13.685 8.11967 13.4434 8.0142 13.1915 8.0142C12.9397 8.0142 12.6981 8.11967 12.52 8.3074C12.3419 8.49514 12.2418 8.74977 12.2418 9.01527C12.2418 9.28077 12.3419 9.5354 12.52 9.72313L14.6955 12.0062L12.52 14.2894C12.4313 14.382 12.3609 14.4923 12.3129 14.6138C12.2649 14.7353 12.2402 14.8656 12.2402 14.9972C12.2402 15.1288 12.2649 15.2592 12.3129 15.3806C12.3609 15.5021 12.4313 15.6124 12.52 15.7051C12.6079 15.7985 12.7125 15.8727 12.8278 15.9233C12.943 15.9739 13.0667 16 13.1915 16C13.3164 16 13.44 15.9739 13.5553 15.9233C13.6706 15.8727 13.7752 15.7985 13.8631 15.7051L16.7008 12.7141C16.7919 12.6241 16.8653 12.5159 16.9166 12.3959C16.9679 12.2758 16.9961 12.1462 16.9996 12.0146C17.0031 11.8829 16.9819 11.7519 16.9371 11.6289C16.8923 11.506 16.8248 11.3937 16.7386 11.2984H16.7008Z"
          fill="currentColor"/>
</svg>
