<svg xmlns="http://www.w3.org/2000/svg" width="24" height="24" fill="currentColor" viewBox="0 0 24 24">
  <path d="M21 18h-1v-1a1 1 0 0 0-2 0v1h-1a1 1 0 0 0 0 2h1v1a1 1 0 0 0 2 0v-1h1a1 1 0 0 0 0-2Zm-7 2H7a1 1 0 0 1-1-1V5a1 1 0 0 1 1-1h5v3a3 3 0 0 0 3 3h3v3a1 1 0 0 0 2 0V8.94a1.307 1.307 0 0 0-.06-.27v-.09a1.07 1.07 0 0 0-.19-.28l-6-6a1.071 1.071 0 0 0-.28-.19.29.29 0 0 0-.1 0 1.099 1.099 0 0 0-.31-.11H7a3 3 0 0 0-3 3v14a3 3 0 0 0 3 3h7a1 1 0 0 0 0-2Zm0-14.59L16.59 8H15a1 1 0 0 1-1-1V5.41ZM9 8a1 1 0 0 0 0 2h1a1 1 0 1 0 0-2H9Zm5 8H9a1 1 0 0 0 0 2h5a1 1 0 0 0 0-2Zm1-4H9a1 1 0 0 0 0 2h6a1 1 0 0 0 0-2Z"/>
</svg>
