<svg width="24" height="24" viewBox="0 0 24 24" fill="none" xmlns="http://www.w3.org/2000/svg">
    <path d="M16.7417 13.3567L12.6628 9.28412C12.5744 9.19409 12.4692 9.12264 12.3534 9.07387C12.2375 9.02511 12.1132 9 11.9877 9C11.8622 9 11.7379 9.02511 11.622 9.07387C11.5062 9.12264 11.401 9.19409 11.3126 9.28412L7.28124 13.3567C7.19213 13.446 7.12139 13.5523 7.07312 13.6693C7.02485 13.7864 7 13.9119 7 14.0387C7 14.1655 7.02485 14.2911 7.07312 14.4081C7.12139 14.5252 7.19213 14.6314 7.28124 14.7207C7.45939 14.8996 7.70037 15 7.95156 15C8.20274 15 8.44373 14.8996 8.62187 14.7207L11.9877 11.3204L15.3535 14.7207C15.5306 14.8981 15.7696 14.9982 16.0191 14.9992C16.1442 15 16.2683 14.9757 16.3841 14.9279C16.4999 14.8801 16.6053 14.8097 16.6941 14.7207C16.7864 14.6346 16.8609 14.5309 16.9133 14.4156C16.9657 14.3002 16.995 14.1756 16.9994 14.0487C17.0038 13.9219 16.9833 13.7955 16.9391 13.6767C16.8949 13.5579 16.8278 13.4492 16.7417 13.3567Z"
          fill="currentColor"/>
</svg>
