<svg xmlns="http://www.w3.org/2000/svg" width="24" height="24" fill="currentColor" viewBox="0 0 24 24">
  <path d="M21 7.716a.9.9 0 0 0-.261-.64l-3.816-3.815A.9.9 0 0 0 16.284 3a.9.9 0 0 0-.639.261l-2.547 2.547-9.837 9.836a.9.9 0 0 0-.261.639v3.816a.9.9 0 0 0 .9.9h3.816a.902.902 0 0 0 .684-.261l9.783-9.837L20.739 8.4a1.07 1.07 0 0 0 .198-.297.897.897 0 0 0 0-.216.631.631 0 0 0 0-.126L21 7.716ZM7.347 19.199H4.8v-2.547l8.937-8.936 2.547 2.546L7.347 19.2ZM17.553 8.994l-2.547-2.547 1.278-1.27 2.538 2.539-1.269 1.278Z"/>
</svg>
