<svg xmlns="http://www.w3.org/2000/svg" width="24" height="24" fill="currentColor" viewBox="0 0 24 24">
  <path d="M19.15 5H5.85a2.98 2.98 0 0 0-2.015.769A2.524 2.524 0 0 0 3 7.625v8.75c0 .696.3 1.364.835 1.856A2.98 2.98 0 0 0 5.85 19h13.3a2.98 2.98 0 0 0 2.015-.769c.535-.492.835-1.16.835-1.856v-8.75c0-.696-.3-1.364-.835-1.856A2.979 2.979 0 0 0 19.15 5ZM5.85 6.75h13.3c.252 0 .494.092.672.256a.842.842 0 0 1 .278.619l-7.6 4.27-7.6-4.27c0-.232.1-.455.278-.619a.993.993 0 0 1 .672-.256Zm14.25 9.625c0 .232-.1.455-.278.619a.993.993 0 0 1-.672.256H5.85a.993.993 0 0 1-.672-.256.841.841 0 0 1-.278-.619V9.62l7.106 3.999a1.014 1.014 0 0 0 .95 0L20.1 9.62v6.755Z"/>
</svg>
