<svg width="24" height="24" viewBox="0 0 24 24" fill="none" xmlns="http://www.w3.org/2000/svg">
    <path d="M12.42 5.3074C12.0263 4.69541 11.1316 4.69541 10.7379 5.3074L7.93866 9.65899C7.51056 10.3245 7.98838 11.2 8.77968 11.2H14.3782C15.1695 11.2 15.6473 10.3245 15.2192 9.65899L12.42 5.3074ZM11.5789 7.072L13.2042 9.6H9.94526L11.5789 7.072ZM16.2105 12.8C14.1137 12.8 12.4211 14.408 12.4211 16.4C12.4211 18.392 14.1137 20 16.2105 20C18.3074 20 20 18.392 20 16.4C20 14.408 18.3074 12.8 16.2105 12.8ZM16.2105 18.4C15.0484 18.4 14.1053 17.504 14.1053 16.4C14.1053 15.296 15.0484 14.4 16.2105 14.4C17.3726 14.4 18.3158 15.296 18.3158 16.4C18.3158 17.504 17.3726 18.4 16.2105 18.4ZM4 18.6C4 19.1523 4.44772 19.6 5 19.6H9.73684C10.2891 19.6 10.7368 19.1523 10.7368 18.6V14.2C10.7368 13.6477 10.2891 13.2 9.73684 13.2H5C4.44771 13.2 4 13.6477 4 14.2V18.6ZM5.68421 14.8H9.05263V18H5.68421V14.8Z"
          fill="currentColor"/>
</svg>
