<svg width="24" height="24" viewBox="0 0 24 24" fill="none" xmlns="http://www.w3.org/2000/svg">
    <path d="M19.936 7.51642C19.8549 7.31289 19.6996 7.15116 19.5041 7.06663C19.408 7.02395 19.3047 7.00132 19.2002 7H15.2014C14.9893 7 14.7859 7.08776 14.6359 7.24396C14.4859 7.40016 14.4016 7.61202 14.4016 7.83293C14.4016 8.05384 14.4859 8.2657 14.6359 8.4219C14.7859 8.57811 14.9893 8.66586 15.2014 8.66586H17.2728L12.8021 13.3219L10.1708 10.5733C10.0965 10.4952 10.008 10.4332 9.91059 10.391C9.81313 10.3487 9.70859 10.3269 9.60301 10.3269C9.49744 10.3269 9.3929 10.3487 9.29544 10.391C9.19798 10.4332 9.10953 10.4952 9.03518 10.5733L4.23657 15.5709C4.16161 15.6483 4.10211 15.7404 4.06151 15.8419C4.0209 15.9434 4 16.0523 4 16.1622C4 16.2722 4.0209 16.3811 4.06151 16.4826C4.10211 16.5841 4.16161 16.6762 4.23657 16.7536C4.31092 16.8317 4.39937 16.8937 4.49683 16.9359C4.59429 16.9782 4.69883 17 4.80441 17C4.90998 17 5.01452 16.9782 5.11198 16.9359C5.20944 16.8937 5.29789 16.8317 5.37224 16.7536L9.60301 12.3391L12.2343 15.0878C12.3086 15.1658 12.3971 15.2278 12.4945 15.2701C12.592 15.3124 12.6965 15.3341 12.8021 15.3341C12.9077 15.3341 13.0122 15.3124 13.1097 15.2701C13.2071 15.2278 13.2956 15.1658 13.3699 15.0878L18.4005 9.84029V11.9976C18.4005 12.2185 18.4847 12.4304 18.6347 12.5866C18.7847 12.7428 18.9881 12.8305 19.2002 12.8305C19.4123 12.8305 19.6158 12.7428 19.7658 12.5866C19.9157 12.4304 20 12.2185 20 11.9976V7.83293C19.9987 7.72409 19.977 7.61655 19.936 7.51642Z"
          fill="currentColor"/>
</svg>
