<svg width="24" height="24" viewBox="0 0 24 24" fill="none" xmlns="http://www.w3.org/2000/svg">
  <path fill="currentColor"
        d="M 8.9492188 3 C 8.2729287 3 7.6246944 3.2678738 7.1464844 3.7460938 C 6.6682744 4.2243137 6.4003906 4.8744812 6.4003906 5.5507812 L 6.4003906 8.0996094 L 3.7089844 8.0996094 C 3.3177844 8.0996094 3 8.4173938 3 8.8085938 L 3 15.892578 C 3 16.283778 3.3177844 16.599609 3.7089844 16.599609 L 6.4003906 16.599609 L 6.4003906 17.449219 C 6.4003906 18.125519 6.6682744 18.775706 7.1464844 19.253906 C 7.6246944 19.732106 8.2729288 20 8.9492188 20 L 17.449219 20 C 18.125419 20 18.775706 19.732106 19.253906 19.253906 C 19.732106 18.775706 20 18.125519 20 17.449219 L 20 8.9492188 L 20 8.8984375 C 19.9911 8.8203475 19.974319 8.7444119 19.949219 8.6699219 L 19.949219 8.59375 C 19.908319 8.50635 19.853209 8.4257388 19.787109 8.3554688 L 14.6875 3.2558594 C 14.6173 3.1897394 14.536619 3.13462 14.449219 3.09375 L 14.373047 3.09375 C 14.286747 3.04423 14.190597 3.01219 14.091797 3 L 8.9492188 3 z M 8.9492188 4.6992188 L 13.199219 4.6992188 L 13.199219 7.25 C 13.199219 7.9263 13.469066 8.5745144 13.947266 9.0527344 C 14.425466 9.5309544 15.0737 9.8007812 15.75 9.8007812 L 18.300781 9.8007812 L 18.300781 17.449219 C 18.300781 17.674619 18.210181 17.891381 18.050781 18.050781 C 17.891381 18.210181 17.674619 18.300781 17.449219 18.300781 L 8.9492188 18.300781 C 8.7237887 18.300781 8.5090194 18.210181 8.3496094 18.050781 C 8.1902094 17.891381 8.0996094 17.674619 8.0996094 17.449219 L 8.0996094 16.599609 L 10.791016 16.599609 C 11.182216 16.599609 11.5 16.283778 11.5 15.892578 L 11.5 8.8085938 C 11.5 8.4173938 11.182216 8.0996094 10.791016 8.0996094 L 8.0996094 8.0996094 L 8.0996094 5.5507812 C 8.0996094 5.3253512 8.1902094 5.1086288 8.3496094 4.9492188 C 8.5090194 4.7898088 8.7237887 4.6992187 8.9492188 4.6992188 z M 14.900391 5.8984375 L 17.101562 8.0996094 L 15.75 8.0996094 C 15.5246 8.0996094 15.307836 8.0109725 15.148438 7.8515625 C 14.989038 7.6921525 14.900391 7.47543 14.900391 7.25 L 14.900391 5.8984375 z M 5.640625 9.8007812 C 5.786435 9.8007812 5.9229725 9.8697013 6.0078125 9.9882812 L 7.046875 11.439453 C 7.108075 11.541453 7.1495219 11.611491 7.1699219 11.650391 L 7.2304688 11.767578 L 7.2714844 11.767578 L 7.3320312 11.650391 C 7.3728313 11.558091 7.4142781 11.488053 7.4550781 11.439453 L 8.4921875 9.9882812 C 8.5770275 9.8697013 8.713565 9.8007812 8.859375 9.8007812 C 9.229115 9.8007812 9.4426994 10.218978 9.2246094 10.517578 L 7.9140625 12.314453 L 9.2753906 14.181641 C 9.4933406 14.480341 9.2799464 14.900391 8.9101562 14.900391 C 8.7642164 14.900391 8.6278387 14.829637 8.5429688 14.710938 L 7.4550781 13.1875 C 7.4210781 13.1486 7.3796313 13.078564 7.3320312 12.976562 L 7.2714844 12.859375 L 7.2304688 12.859375 L 7.1699219 12.976562 C 7.1359219 13.054263 7.094475 13.1243 7.046875 13.1875 L 5.9570312 14.710938 C 5.8721613 14.829637 5.7357838 14.900391 5.5898438 14.900391 C 5.2200437 14.900391 5.0066594 14.480341 5.2246094 14.181641 L 6.5878906 12.314453 L 5.2773438 10.517578 C 5.0592537 10.218978 5.270885 9.8007812 5.640625 9.8007812 z " />
</svg>
