<svg width="24" height="24" viewBox="0 0 24 24" fill="none" xmlns="http://www.w3.org/2000/svg">
    <path d="M15.6931 5.04C12.3885 3.28 8.32135 3.84 5.69465 6.24V4.8C5.69465 4.32 5.35572 4 4.84732 4C4.33893 4 4 4.32 4 4.8V8.4C4 8.88 4.33893 9.2 4.84732 9.2H8.66028C9.16868 9.2 9.50761 8.88 9.50761 8.4C9.50761 7.92 9.16868 7.6 8.66028 7.6H6.6267C7.81296 6.32 9.59234 5.6 11.5412 5.6C15.2694 5.6 18.3198 8.48 18.3198 12C18.3198 15.52 15.2694 18.4 11.5412 18.4C11.0328 18.4 10.6939 18.72 10.6939 19.2C10.6939 19.68 11.0328 20 11.5412 20C14.5916 20 17.3877 18.48 18.9129 16C21.2007 12.16 19.7602 7.28 15.6931 5.04ZM11.4565 8.8C10.9481 8.8 10.6091 9.12 10.6091 9.6V12C10.6091 12.48 10.9481 12.8 11.4565 12.8H13.1511C13.6595 12.8 13.9984 12.48 13.9984 12C13.9984 11.52 13.6595 11.2 13.1511 11.2H12.3038V9.6C12.3038 9.12 11.9648 8.8 11.4565 8.8Z"
          fill="currentColor"/>
</svg>
