<svg width="41" height="40" viewBox="0 0 41 40" fill="none" xmlns="http://www.w3.org/2000/svg">
<path d="M13.5817 30.811C13.5571 30.811 13.5303 30.8066 13.5035 30.8001C10.8137 30.0002 7.90057 27.1319 7.26834 24.6625C7.2326 24.523 7.31972 24.3835 7.46047 24.3487C7.60345 24.3138 7.74642 24.3988 7.78217 24.5361C8.36525 26.8137 11.1667 29.5621 13.6577 30.3053C13.7984 30.3467 13.8766 30.4906 13.8342 30.6279C13.8006 30.7391 13.6956 30.811 13.5817 30.811Z" fill="#975500"/>
<path d="M14.864 34.0644C14.8439 34.0644 14.8238 34.0622 14.8037 34.0578C12.5786 33.5522 9.99161 31.9306 7.70843 29.6072C5.5727 27.4364 4.18984 25.1261 4.10048 23.5786C4.09154 23.4369 4.20324 23.3127 4.35069 23.3062C4.4959 23.2974 4.62324 23.4064 4.62994 23.5503C4.71037 24.9582 6.06866 27.1945 8.09045 29.2498C10.3044 31.5034 12.7953 33.0705 14.9243 33.5543C15.0673 33.587 15.1567 33.7265 15.1232 33.866C15.0941 33.9837 14.9847 34.0644 14.864 34.0644Z" fill="#975500"/>
<path d="M26.2687 11.417C26.1503 11.417 26.0431 11.3407 26.0118 11.2252C25.6387 9.84338 23.9431 7.86 22.3994 7.47205C22.2587 7.43717 22.1715 7.2955 22.2095 7.15601C22.2475 7.01652 22.3905 6.9337 22.5334 6.97075C24.2715 7.40884 26.1079 9.54697 26.5257 11.0944C26.5636 11.2318 26.4787 11.3734 26.3358 11.4105C26.3134 11.4148 26.2911 11.417 26.2687 11.417Z" fill="#975500"/>
<path d="M29.6131 11.8773C29.4947 11.8773 29.3874 11.7988 29.3562 11.6833C28.362 7.86475 24.6446 4.88532 22.5223 4.5148C22.3771 4.48864 22.2832 4.35569 22.3078 4.21402C22.3346 4.07235 22.4709 3.98081 22.6161 4.00479C24.9283 4.41018 28.8066 7.48115 29.87 11.5547C29.9057 11.6942 29.8208 11.8337 29.6779 11.8686C29.6555 11.8751 29.6354 11.8773 29.6131 11.8773Z" fill="#975500"/>
<path d="M23.0115 18.6618C23.4382 19.1217 23.8225 19.7254 23.6594 19.8845C23.4963 20.0437 22.9959 19.756 22.6139 19.3811C22.2319 19.0084 21.3181 22.9751 21.2288 23.1757C21.1618 23.326 20.0984 24.5161 19.5421 25.6473C19.3567 26.0243 19.3835 27.162 19.3142 27.2296C19.035 27.502 18.6798 27.4737 17.9135 26.8133C17.1472 26.1529 16.7496 30.087 17.6633 30.7081C19.2249 31.7718 22.348 35.9979 26.4743 35.9979C31.2484 35.9979 35.6695 31.1397 35.6695 27.574C35.6695 24.0082 34.5972 22.6569 34.6687 19.6688C34.7268 17.1383 36.6145 15.9309 36.6145 14.6667C36.6145 13.6031 34.9949 13.3438 34.4632 13.3438C33.5204 13.3438 31.1032 14.5229 31.1032 17.6265C31.1032 18.834 30.7502 19.926 29.4835 19.926C28.2168 19.926 26.8027 18.2303 25.947 16.9073" fill="url(#paint0_linear_9110_11174)"/>
<path d="M36.6123 14.667C36.6123 14.0894 36.132 13.7494 35.6092 13.5576C36.237 15.5868 33.0535 15.6739 33.0535 22.5875C33.0535 29.501 28.9272 31.5127 27.2182 31.8592C25.5092 32.2036 22.4977 32.3038 20.2056 29.5598C19.5019 28.7163 18.5479 27.8009 17.4868 26.9356C17.0377 27.6658 16.9417 30.218 17.6632 30.7084C19.2248 31.772 22.348 35.9982 26.4743 35.9982C31.2484 35.9982 35.6695 31.14 35.6695 27.5742C35.6695 24.0085 34.5972 22.6572 34.6687 19.669C34.7268 17.1386 36.6123 15.9311 36.6123 14.667Z" fill="url(#paint1_linear_9110_11174)"/>
<path d="M17.9135 26.8133C17.1472 26.1529 15.3354 24.2698 14.1559 23.3479C12.9763 22.4281 11.9464 22.439 11.2382 23.4547C10.53 24.4703 12.5943 26.2532 13.0656 26.7131C13.7872 27.4171 16.7496 30.087 17.6633 30.7103" fill="url(#paint2_linear_9110_11174)"/>
<path d="M21.2288 23.176C21.1394 23.3765 20.5385 23.516 19.3433 22.2475C18.4295 21.2776 15.9833 18.49 14.5401 17.2259C13.0969 15.9617 11.9754 15.443 11.0327 16.1056C10.0899 16.7682 10.6261 18.1456 11.6805 19.2964C12.9852 20.7197 14.4865 22.1712 15.923 23.5661C17.0467 24.6559 19.5912 26.9597 19.312 27.2321" fill="url(#paint3_linear_9110_11174)"/>
<path d="M15.9252 23.5638C16.9864 24.5925 19.3097 26.7002 19.3343 27.1644C19.6694 26.6544 19.0573 25.1374 18.4094 24.6056C14.6652 21.5303 11.0483 16.5718 10.5881 16.72C10.3915 17.4415 10.8897 18.431 11.6805 19.2963C12.9852 20.7173 14.4865 22.1711 15.9252 23.5638Z" fill="url(#paint4_linear_9110_11174)"/>
<path d="M25.9448 16.9092C25.0892 15.5863 21.5818 11.3318 20.7284 10.1243C19.8727 8.91687 18.7244 8.91687 17.9291 9.46394C17.1338 10.011 16.897 11.103 18.6887 13.4242C19.8191 14.8888 20.7574 16.2358 23.0138 18.6638L25.6365 18.4851L25.9448 16.9092Z" fill="url(#paint5_linear_9110_11174)"/>
<path d="M22.6139 19.3806C22.2318 19.0079 18.8428 15.0891 18.0766 14.2478C16.6401 12.6742 14.8193 9.30243 12.6479 10.8041C11.5063 11.5931 12.1251 12.7374 12.449 13.1973C12.773 13.6572 16.9863 18.402 17.3996 18.803C17.8129 19.2063 21.3181 22.9725 21.231 23.173" fill="url(#paint6_linear_9110_11174)"/>
<path d="M23.0115 18.6621C23.4226 19.1046 23.7912 19.6778 23.675 19.8631C25.0423 18.7907 22.1514 15.6391 20.5139 13.7473C19.2472 12.2826 18.9009 10.4191 17.9939 9.4209C17.9716 9.43398 17.9515 9.44923 17.9291 9.46231C17.1338 10.0094 16.897 11.1013 18.6887 13.4225C19.8169 14.8872 20.7574 16.2363 23.0115 18.6621Z" fill="url(#paint7_linear_9110_11174)"/>
<path d="M17.3974 18.8054C17.8107 19.2086 21.3159 22.9749 21.2288 23.1754C22.3123 21.7521 18.1123 17.5696 16.0793 15.4554C14.3167 13.6225 14.0151 12.0183 12.2949 11.1182C11.656 11.8723 12.1631 12.7964 12.4468 13.1996C12.7707 13.6595 16.9864 18.4044 17.3974 18.8054Z" fill="url(#paint8_linear_9110_11174)"/>
<path d="M21.1505 23.2606C21.0277 23.3347 20.7752 23.3412 20.3843 23.1211C20.6747 23.3499 20.9428 23.4371 21.1505 23.2606Z" fill="url(#paint9_linear_9110_11174)"/>
<path d="M34.7111 13.7753C35.6115 13.6184 35.7701 13.7186 35.6092 13.5573C35.1714 13.3982 34.7022 13.3438 34.4609 13.3438C33.5182 13.3438 31.101 14.5229 31.101 17.6265C31.101 18.834 30.748 19.926 29.4791 19.926C28.9786 19.926 28.4581 19.6622 27.9554 19.2612C30.1805 21.6652 31.9253 19.4007 32.1912 17.8489C32.457 16.297 32.0705 14.2374 34.7111 13.7753Z" fill="url(#paint10_radial_9110_11174)"/>
<path d="M17.6566 9.69727C17.107 10.3054 17.1249 11.3951 18.6865 13.4221C19.8169 14.8867 20.7552 16.2337 23.0115 18.6617C23.4382 19.1216 23.8225 19.7253 23.6594 19.8844C24.037 17.3692 20.3665 14.8955 19.1735 12.9993C18.2285 11.4954 18.0408 10.6083 17.6566 9.69727Z" fill="url(#paint11_linear_9110_11174)"/>
<path d="M17.3974 18.8052C17.8107 19.2084 21.3159 22.9746 21.2288 23.1751C22.0018 22.6368 21.4745 21.7977 20.2793 20.6316C17.8286 18.2407 14.4172 15.028 13.0455 12.382C12.916 12.1314 12.6747 11.9461 12.391 11.9113C11.6515 11.8175 12.2011 12.8485 12.449 13.1994C12.7707 13.6593 16.9864 18.4041 17.3974 18.8052Z" fill="url(#paint12_linear_9110_11174)"/>
<path d="M11.6805 19.2957C12.9852 20.719 14.4865 22.1705 15.9229 23.5654C17.0467 24.6552 19.5912 26.959 19.312 27.2314C20.8892 25.9368 13.5638 21.2573 10.5859 16.7217C10.3915 17.4387 10.8897 18.4304 11.6805 19.2957Z" fill="url(#paint13_linear_9110_11174)"/>
<path d="M18.9903 27.4887C19.14 27.4321 19.2181 27.3645 19.2427 27.2904C18.9724 27.4931 18.6172 27.4212 17.9135 26.8131C17.1472 26.1527 15.3354 24.2695 14.1558 23.3476C13.6375 22.9444 13.1483 22.7199 12.7015 22.6807C13.3404 23.0708 13.0433 23.2103 14.4641 24.2739C15.2282 24.8449 18.0162 27.8614 18.9903 27.4887Z" fill="url(#paint14_linear_9110_11174)"/>
<path d="M17.1338 20.5888C18.1682 21.8181 20.1877 23.8473 21.0947 23.2871C20.8445 23.3699 20.2748 23.2348 19.3455 22.2475C18.4318 21.2776 15.9855 18.4899 14.5423 17.2258C13.3739 16.2014 12.4155 15.6674 11.5934 15.8527C13.9861 16.6199 16.1531 19.4271 17.1338 20.5888Z" fill="url(#paint15_linear_9110_11174)"/>
<path d="M18.2531 15.2988C19.904 17.0511 22.3547 20.5275 23.5969 19.9194C23.3936 19.9804 22.9557 19.7167 22.6139 19.381C22.2319 19.0083 18.8428 15.0895 18.0766 14.2482C17.0802 13.1585 15.9029 11.2056 14.549 10.6084C15.914 11.6589 16.9149 13.8799 18.2531 15.2988Z" fill="url(#paint16_linear_9110_11174)"/>
<path d="M27.9555 19.2633C27.9577 19.2633 27.9577 19.2633 27.9555 19.2633C27.1847 18.6487 26.4609 17.7093 25.9426 16.9094C25.0892 15.5864 21.5818 11.3319 20.7284 10.1245C20.467 9.75614 20.181 9.50113 19.8839 9.33984C20.2816 9.89781 20.5072 10.6933 21.4075 11.6785C22.8507 13.2587 24.7385 16.1051 25.3863 17.0837C26.032 18.058 27.0775 20.1198 27.9555 19.2633Z" fill="url(#paint17_linear_9110_11174)"/>
<path d="M32.6826 33.2956C32.1465 32.0227 31.3623 31.2468 30.2297 31.9748C27.14 33.9603 23.5857 33.289 19.1288 29.7756C15.1544 26.6392 13.0991 24.3987 11.1645 23.5879C10.6998 24.6188 12.6121 26.2731 13.0634 26.7134C13.785 27.4173 16.7473 30.0873 17.661 30.7106C19.2226 31.7742 22.3458 36.0004 26.472 36.0004C28.7798 35.9982 31.0004 34.867 32.6826 33.2956Z" fill="url(#paint18_linear_9110_11174)"/>
<path d="M34.6665 19.6688C34.7245 17.1383 36.6123 15.9309 36.6123 14.6667C36.6123 14.294 36.4135 14.0216 36.132 13.8232C36.476 14.8084 35.6561 15.6824 34.4319 17.1688C33.1049 18.7795 32.8122 21.2794 33.7237 23.7816C34.6374 26.2837 33.4869 29.7339 31.6304 30.8258C29.7739 31.9178 27.3076 36.7193 20.2458 31.2944C20.2436 31.2923 20.2436 31.2923 20.2413 31.2901C19.8102 30.8999 19.3835 30.5534 18.9523 30.2918C15.9699 28.4894 14.2698 26.8678 12.9852 25.5056C12.7328 25.2375 12.0536 24.2109 11.2449 24.5488C11.6493 25.4424 12.7372 26.3948 13.0634 26.713C13.785 27.417 16.7473 30.087 17.661 30.7103C17.7794 30.791 17.909 30.8912 18.0453 31.0067C18.081 31.0372 18.1168 31.0678 18.1525 31.0983C18.1615 31.107 18.1726 31.1157 18.1816 31.1222C18.2039 31.1419 18.2285 31.1637 18.2508 31.1833C18.2553 31.1876 18.262 31.192 18.2665 31.1985C19.1936 32.0202 20.4692 33.3803 22.033 34.4417C22.033 34.4417 22.0353 34.4417 22.0353 34.4439C22.1715 34.5376 22.3123 34.6291 22.453 34.7163C22.4553 34.7185 22.4575 34.7185 22.4597 34.7207C22.6005 34.8078 22.7434 34.8929 22.8864 34.9735C22.8887 34.9735 22.8887 34.9757 22.8909 34.9757C23.9722 35.5816 25.1718 36.0001 26.4676 36.0001C31.2417 36.0001 35.6628 31.1419 35.6628 27.5761C35.6628 24.0104 34.5972 22.6591 34.6665 19.6688Z" fill="url(#paint19_radial_9110_11174)"/>
<defs>
<linearGradient id="paint0_linear_9110_11174" x1="33.3486" y1="36.9203" x2="29.5762" y2="27.861" gradientUnits="userSpaceOnUse">
<stop offset="0.00132565" stop-color="#FFCB4B"/>
<stop offset="1" stop-color="#FFD748"/>
</linearGradient>
<linearGradient id="paint1_linear_9110_11174" x1="34.1315" y1="30.6666" x2="26.1185" y2="20.8692" gradientUnits="userSpaceOnUse">
<stop offset="0.00132565" stop-color="#FFCB4B"/>
<stop offset="1" stop-color="#FFD748"/>
</linearGradient>
<linearGradient id="paint2_linear_9110_11174" x1="12.0767" y1="24.2732" x2="16.854" y2="27.879" gradientUnits="userSpaceOnUse">
<stop offset="0.00132565" stop-color="#FFCB4B"/>
<stop offset="1" stop-color="#FFD748"/>
</linearGradient>
<linearGradient id="paint3_linear_9110_11174" x1="10.3062" y1="15.028" x2="18.6175" y2="23.9443" gradientUnits="userSpaceOnUse">
<stop offset="0.00132565" stop-color="#FFCB4B"/>
<stop offset="1" stop-color="#FFD748"/>
</linearGradient>
<linearGradient id="paint4_linear_9110_11174" x1="16.8554" y1="20.2008" x2="14.1008" y2="22.8606" gradientUnits="userSpaceOnUse">
<stop stop-color="#FFBC47" stop-opacity="0"/>
<stop offset="1" stop-color="#FFA754"/>
</linearGradient>
<linearGradient id="paint5_linear_9110_11174" x1="19.5209" y1="10.9175" x2="24.2994" y2="18.6144" gradientUnits="userSpaceOnUse">
<stop offset="0.00132565" stop-color="#FFCB4B"/>
<stop offset="1" stop-color="#FFD748"/>
</linearGradient>
<linearGradient id="paint6_linear_9110_11174" x1="14.4104" y1="12.1781" x2="20.9165" y2="21.1868" gradientUnits="userSpaceOnUse">
<stop offset="0.00132565" stop-color="#FFCB4B"/>
<stop offset="1" stop-color="#FFD748"/>
</linearGradient>
<linearGradient id="paint7_linear_9110_11174" x1="22.4012" y1="13.2474" x2="18.252" y2="17.0868" gradientUnits="userSpaceOnUse">
<stop stop-color="#FFBC47" stop-opacity="0"/>
<stop offset="1" stop-color="#FFA754"/>
</linearGradient>
<linearGradient id="paint8_linear_9110_11174" x1="18.4978" y1="15.9095" x2="12.7641" y2="20.206" gradientUnits="userSpaceOnUse">
<stop stop-color="#FFBC47" stop-opacity="0"/>
<stop offset="1" stop-color="#FFA754"/>
</linearGradient>
<linearGradient id="paint9_linear_9110_11174" x1="22.8443" y1="21.7103" x2="17.1106" y2="26.0067" gradientUnits="userSpaceOnUse">
<stop stop-color="#FFBC47" stop-opacity="0"/>
<stop offset="1" stop-color="#FFA754"/>
</linearGradient>
<radialGradient id="paint10_radial_9110_11174" cx="0" cy="0" r="1" gradientUnits="userSpaceOnUse" gradientTransform="translate(30.5006 14.9542) scale(7.00489 6.83404)">
<stop stop-color="#FFBC47" stop-opacity="0"/>
<stop offset="1" stop-color="#FFA754"/>
</radialGradient>
<linearGradient id="paint11_linear_9110_11174" x1="23.1778" y1="12.513" x2="19.636" y2="15.8777" gradientUnits="userSpaceOnUse">
<stop offset="0.3118" stop-color="#FFBC47" stop-opacity="0"/>
<stop offset="1" stop-color="#FF8900"/>
</linearGradient>
<linearGradient id="paint12_linear_9110_11174" x1="20.4022" y1="14.289" x2="15.7341" y2="18.6011" gradientUnits="userSpaceOnUse">
<stop offset="0.3118" stop-color="#FFBC47" stop-opacity="0"/>
<stop offset="1" stop-color="#FF8900"/>
</linearGradient>
<linearGradient id="paint13_linear_9110_11174" x1="18.7888" y1="18.8292" x2="13.0159" y2="23.7997" gradientUnits="userSpaceOnUse">
<stop offset="0.3118" stop-color="#FFBC47" stop-opacity="0"/>
<stop offset="1" stop-color="#FF8900"/>
</linearGradient>
<linearGradient id="paint14_linear_9110_11174" x1="12.3578" y1="22.338" x2="19.074" y2="27.9342" gradientUnits="userSpaceOnUse">
<stop stop-color="#FFBC47" stop-opacity="0"/>
<stop offset="1" stop-color="#FFBC47"/>
</linearGradient>
<linearGradient id="paint15_linear_9110_11174" x1="13.6692" y1="15.6033" x2="18.8352" y2="23.6555" gradientUnits="userSpaceOnUse">
<stop stop-color="#FFBC47" stop-opacity="0"/>
<stop offset="1" stop-color="#FFBC47"/>
</linearGradient>
<linearGradient id="paint16_linear_9110_11174" x1="17.8587" y1="16.1698" x2="19.3341" y2="15.0134" gradientUnits="userSpaceOnUse">
<stop stop-color="#FFBC47" stop-opacity="0"/>
<stop offset="1" stop-color="#FFA754"/>
</linearGradient>
<linearGradient id="paint17_linear_9110_11174" x1="25.2752" y1="20.5996" x2="23.3639" y2="11.2656" gradientUnits="userSpaceOnUse">
<stop stop-color="#FFBC47" stop-opacity="0"/>
<stop offset="1" stop-color="#FFBC47"/>
</linearGradient>
<linearGradient id="paint18_linear_9110_11174" x1="20.7007" y1="29.5401" x2="17.763" y2="32.3077" gradientUnits="userSpaceOnUse">
<stop offset="0.3118" stop-color="#FFBC47" stop-opacity="0"/>
<stop offset="1" stop-color="#FF8900"/>
</linearGradient>
<radialGradient id="paint19_radial_9110_11174" cx="0" cy="0" r="1" gradientUnits="userSpaceOnUse" gradientTransform="translate(22.6915 20.632) rotate(47.436) scale(20.0309 18.2255)">
<stop offset="0.6134" stop-color="#FFBC47" stop-opacity="0"/>
<stop offset="1" stop-color="#FF8900"/>
</radialGradient>
</defs>
</svg>
