<svg width="24" height="24" viewBox="0 0 24 24" fill="none" xmlns="http://www.w3.org/2000/svg">
    <path d="M8 15.2C7.84177 15.2 7.6871 15.2469 7.55554 15.3348C7.42398 15.4227 7.32145 15.5477 7.2609 15.6939C7.20035 15.84 7.1845 16.0009 7.21537 16.1561C7.24624 16.3113 7.32243 16.4538 7.43431 16.5657C7.5462 16.6776 7.68874 16.7538 7.84393 16.7846C7.99911 16.8155 8.15997 16.7997 8.30615 16.7391C8.45233 16.6786 8.57727 16.576 8.66518 16.4445C8.75308 16.3129 8.8 16.1582 8.8 16C8.8 15.7878 8.71571 15.5843 8.56569 15.4343C8.41566 15.2843 8.21217 15.2 8 15.2ZM17.648 12L18.632 11.016C19.0814 10.566 19.3339 9.956 19.3339 9.32C19.3339 8.684 19.0814 8.074 18.632 7.624L16.368 5.368C15.918 4.91856 15.308 4.66611 14.672 4.66611C14.036 4.66611 13.426 4.91856 12.976 5.368L12 6.352C11.9874 5.72384 11.729 5.12565 11.2803 4.68589C10.8316 4.24613 10.2283 3.99987 9.6 4H6.4C5.76348 4 5.15303 4.25286 4.70294 4.70294C4.25286 5.15303 4 5.76348 4 6.4V17.6C4 18.2365 4.25286 18.847 4.70294 19.2971C5.15303 19.7471 5.76348 20 6.4 20H17.6C18.2365 20 18.847 19.7471 19.2971 19.2971C19.7471 18.847 20 18.2365 20 17.6V14.4C20.0001 13.7717 19.7539 13.1684 19.3141 12.7197C18.8744 12.271 18.2762 12.0126 17.648 12ZM10.4 17.6C10.4 17.8122 10.3157 18.0157 10.1657 18.1657C10.0157 18.3157 9.81217 18.4 9.6 18.4H6.4C6.18783 18.4 5.98434 18.3157 5.83431 18.1657C5.68429 18.0157 5.6 17.8122 5.6 17.6V6.4C5.6 6.18783 5.68429 5.98434 5.83431 5.83431C5.98434 5.68429 6.18783 5.6 6.4 5.6H9.6C9.81217 5.6 10.0157 5.68429 10.1657 5.83431C10.3157 5.98434 10.4 6.18783 10.4 6.4V17.6ZM12 8.608L14.112 6.496C14.2619 6.347 14.4647 6.26337 14.676 6.26337C14.8873 6.26337 15.0901 6.347 15.24 6.496L17.504 8.8C17.653 8.94989 17.7366 9.15265 17.7366 9.364C17.7366 9.57535 17.653 9.77811 17.504 9.928L15.2 12.232L12 15.392V8.608ZM18.4 17.6C18.4 17.8122 18.3157 18.0157 18.1657 18.1657C18.0157 18.3157 17.8122 18.4 17.6 18.4H11.856C11.9381 18.1629 11.9839 17.9148 11.992 17.664L16.056 13.6H17.6C17.8122 13.6 18.0157 13.6843 18.1657 13.8343C18.3157 13.9843 18.4 14.1878 18.4 14.4V17.6Z"
          fill="currentColor"/>
</svg>
