<svg width="24" height="24" viewBox="0 0 24 24" fill="none" xmlns="http://www.w3.org/2000/svg">
    <path d="M16.0056 9.59975H8.01689C7.80501 9.59975 7.60182 9.68403 7.452 9.83406C7.30218 9.98408 7.21801 10.1876 7.21801 10.3997C7.21801 10.6119 7.30218 10.8154 7.452 10.9654C7.60182 11.1154 7.80501 11.1997 8.01689 11.1997H16.0056C16.2175 11.1997 16.4207 11.1154 16.5705 10.9654C16.7203 10.8154 16.8045 10.6119 16.8045 10.3997C16.8045 10.1876 16.7203 9.98408 16.5705 9.83406C16.4207 9.68403 16.2175 9.59975 16.0056 9.59975ZM12.8101 12.7996H8.01689C7.80501 12.7996 7.60182 12.8839 7.452 13.0339C7.30218 13.1839 7.21801 13.3874 7.21801 13.5996C7.21801 13.8117 7.30218 14.0152 7.452 14.1652C7.60182 14.3153 7.80501 14.3995 8.01689 14.3995H12.8101C13.022 14.3995 13.2252 14.3153 13.375 14.1652C13.5248 14.0152 13.609 13.8117 13.609 13.5996C13.609 13.3874 13.5248 13.1839 13.375 13.0339C13.2252 12.8839 13.022 12.7996 12.8101 12.7996ZM12.0113 4C10.9622 4 9.92334 4.20692 8.9541 4.60894C7.98486 5.01096 7.10419 5.60021 6.36237 6.34304C4.86419 7.84327 4.02252 9.87801 4.02252 11.9996C4.01553 13.8469 4.65426 15.6383 5.82797 17.0634L4.23022 18.6634C4.11937 18.7758 4.04428 18.9187 4.01443 19.0739C3.98457 19.2291 4.00128 19.3896 4.06246 19.5353C4.12881 19.6792 4.23638 19.8002 4.3715 19.8828C4.50663 19.9654 4.66322 20.006 4.82139 19.9993H12.0113C14.13 19.9993 16.162 19.1565 17.6602 17.6562C19.1583 16.156 20 14.1213 20 11.9996C20 9.87801 19.1583 7.84327 17.6602 6.34304C16.162 4.84282 14.13 4 12.0113 4ZM12.0113 18.3994H6.74668L7.48963 17.6554C7.63842 17.5055 7.72194 17.3028 7.72194 17.0914C7.72194 16.8801 7.63842 16.6773 7.48963 16.5274C6.44357 15.4811 5.79216 14.104 5.64638 12.6307C5.5006 11.1573 5.86947 9.67895 6.69014 8.44742C7.51081 7.21589 8.73251 6.30738 10.1471 5.8767C11.5617 5.44601 13.0816 5.51978 14.448 6.08544C15.8144 6.6511 16.9426 7.67366 17.6405 8.97889C18.3384 10.2841 18.5627 11.7913 18.2753 13.2436C17.9879 14.6959 17.2066 16.0035 16.0644 16.9436C14.9222 17.8837 13.4898 18.3982 12.0113 18.3994Z"
          fill="currentColor"/>
</svg>
