<svg width="24" height="24" viewBox="0 0 24 24" fill="none" xmlns="http://www.w3.org/2000/svg">
    <path d="M12.6213 11.361C12.538 11.2791 12.4399 11.2148 12.3325 11.172C12.1195 11.082 11.8805 11.082 11.6675 11.172C11.5601 11.2148 11.462 11.2791 11.3787 11.361L9.62875 13.161C9.46398 13.3305 9.37142 13.5603 9.37142 13.8C9.37142 14.0397 9.46398 14.2695 9.62875 14.439C9.79352 14.6085 10.017 14.7037 10.25 14.7037C10.483 14.7037 10.7065 14.6085 10.8713 14.439L11.125 14.169V16.5C11.125 16.7387 11.2172 16.9676 11.3813 17.1364C11.5454 17.3052 11.7679 17.4 12 17.4C12.2321 17.4 12.4546 17.3052 12.6187 17.1364C12.7828 16.9676 12.875 16.7387 12.875 16.5V14.169L13.1287 14.439C13.2101 14.5234 13.3069 14.5903 13.4135 14.636C13.5201 14.6817 13.6345 14.7052 13.75 14.7052C13.8655 14.7052 13.9799 14.6817 14.0865 14.636C14.1931 14.5903 14.2899 14.5234 14.3713 14.439C14.4533 14.3553 14.5184 14.2558 14.5628 14.1461C14.6072 14.0364 14.6301 13.9188 14.6301 13.8C14.6301 13.6812 14.6072 13.5636 14.5628 13.4539C14.5184 13.3442 14.4533 13.2447 14.3713 13.161L12.6213 11.361ZM19 9.246C18.9909 9.16332 18.9733 9.08187 18.9475 9.003V8.922C18.9054 8.82946 18.8493 8.7444 18.7812 8.67L13.5312 3.27C13.4589 3.19999 13.3762 3.14227 13.2863 3.099H13.1987C13.1137 3.0522 13.0222 3.01883 12.9275 3H7.625C6.92881 3 6.26113 3.28446 5.76884 3.79081C5.27656 4.29716 5 4.98392 5 5.7V18.3C5 19.0161 5.27656 19.7028 5.76884 20.2092C6.26113 20.7155 6.92881 21 7.625 21H16.375C17.0712 21 17.7389 20.7155 18.2312 20.2092C18.7234 19.7028 19 19.0161 19 18.3V9.3C19 9.3 19 9.3 19 9.246ZM13.75 6.069L16.0163 8.4H14.625C14.3929 8.4 14.1704 8.30518 14.0063 8.1364C13.8422 7.96761 13.75 7.73869 13.75 7.5V6.069ZM17.25 18.3C17.25 18.5387 17.1578 18.7676 16.9937 18.9364C16.8296 19.1052 16.6071 19.2 16.375 19.2H7.625C7.39294 19.2 7.17038 19.1052 7.00628 18.9364C6.84219 18.7676 6.75 18.5387 6.75 18.3V5.7C6.75 5.46131 6.84219 5.23239 7.00628 5.0636C7.17038 4.89482 7.39294 4.8 7.625 4.8H12V7.5C12 8.21608 12.2766 8.90284 12.7688 9.40919C13.2611 9.91554 13.9288 10.2 14.625 10.2H17.25V18.3Z"
          fill="currentColor"/>
</svg>
