<svg width="24" height="24" viewBox="0 0 24 24" fill="none" xmlns="http://www.w3.org/2000/svg">
    <path d="M19.1111 8.11422L13.7778 3.64857C13.2889 3.2309 12.656 3 12 3C11.3441 3 10.7112 3.2309 10.2223 3.64857L4.88897 8.11422C4.60663 8.3554 4.38133 8.65125 4.22806 8.98209C4.07479 9.31293 3.99707 9.67116 4.00008 10.0329V17.453C4.00008 18.1285 4.28103 18.7764 4.78113 19.254C5.28122 19.7317 5.95949 20 6.66673 20H17.3333C18.0406 20 18.7188 19.7317 19.2189 19.254C19.719 18.7764 20 18.1285 20 17.453V10.0244C20.0017 9.6641 19.9234 9.3075 19.7702 8.97822C19.6169 8.64893 19.3923 8.35445 19.1111 8.11422ZM13.7778 18.302H10.2223V14.0571C10.2223 13.8319 10.3159 13.616 10.4826 13.4568C10.6493 13.2976 10.8754 13.2081 11.1111 13.2081H12.8889C13.1247 13.2081 13.3507 13.2976 13.5174 13.4568C13.6841 13.616 13.7778 13.8319 13.7778 14.0571V18.302ZM18.2222 17.453C18.2222 17.6782 18.1286 17.8942 17.9619 18.0534C17.7952 18.2126 17.5691 18.302 17.3333 18.302H15.5556V14.0571C15.5556 13.3816 15.2746 12.7338 14.7745 12.2561C14.2744 11.7785 13.5961 11.5102 12.8889 11.5102H11.1111C10.4039 11.5102 9.72563 11.7785 9.22554 12.2561C8.72545 12.7338 8.4445 13.3816 8.4445 14.0571V18.302H6.66673C6.43099 18.302 6.2049 18.2126 6.0382 18.0534C5.8715 17.8942 5.77785 17.6782 5.77785 17.453V10.0244C5.77801 9.90389 5.80504 9.78477 5.85715 9.67498C5.90926 9.56519 5.98525 9.46726 6.08007 9.3877L11.4134 4.93053C11.5756 4.79442 11.7841 4.71936 12 4.71936C12.2159 4.71936 12.4245 4.79442 12.5867 4.93053L17.92 9.3877C18.0148 9.46726 18.0908 9.56519 18.1429 9.67498C18.195 9.78477 18.222 9.90389 18.2222 10.0244V17.453Z"
          fill="currentColor"/>
</svg>
