<svg xmlns="http://www.w3.org/2000/svg" width="24" height="24" fill="currentColor" viewBox="0 0 24 24">
  <path d="M10.122 8.322a.548.548 0 0 1-.116-.569A3.5 3.5 0 0 0 10.2 6.6C10.2 4.611 8.589 3 6.6 3A3.599 3.599 0 0 0 3 6.6c0 1.989 1.611 3.6 3.6 3.6a3.5 3.5 0 0 0 1.153-.194.548.548 0 0 1 .57.116l1.523 1.524a.5.5 0 0 1 0 .708l-1.524 1.524a.547.547 0 0 1-.569.116A3.5 3.5 0 0 0 6.6 13.8 3.599 3.599 0 0 0 3 17.4C3 19.389 4.611 21 6.6 21s3.6-1.611 3.6-3.6a3.5 3.5 0 0 0-.194-1.153.548.548 0 0 1 .116-.57l1.524-1.523a.5.5 0 0 1 .708 0l5.8 5.8a.5.5 0 0 0 .353.146H20.5a.5.5 0 0 0 .5-.5v-.193a.5.5 0 0 0-.146-.353L10.122 8.322ZM6.6 8.4a1.8 1.8 0 1 1-.001-3.599A1.8 1.8 0 0 1 6.6 8.4Zm0 10.8a1.8 1.8 0 1 1-.001-3.599A1.8 1.8 0 0 1 6.6 19.2Zm5.4-6.75a.446.446 0 0 1-.45-.45c0-.252.198-.45.45-.45s.45.198.45.45-.198.45-.45.45Zm6.507-8.55a.5.5 0 0 0-.353.146l-4.9 4.9a.5.5 0 0 0 0 .708l1.092 1.092a.5.5 0 0 0 .708 0l5.8-5.8A.5.5 0 0 0 21 4.593V4.4a.5.5 0 0 0-.5-.5h-1.993Z"/>
</svg>
