<svg width="24" height="24" viewBox="0 0 24 24" fill="none" xmlns="http://www.w3.org/2000/svg">
    <path d="M19.2 10.7647H18.4V9.94118C18.4 9.72276 18.3157 9.5133 18.1657 9.35885C18.0157 9.20441 17.8122 9.11765 17.6 9.11765C17.3878 9.11765 17.1843 9.20441 17.0343 9.35885C16.8843 9.5133 16.8 9.72276 16.8 9.94118V10.7647H16C15.7878 10.7647 15.5843 10.8515 15.4343 11.0059C15.2843 11.1604 15.2 11.3698 15.2 11.5882C15.2 11.8066 15.2843 12.0161 15.4343 12.1706C15.5843 12.325 15.7878 12.4118 16 12.4118H16.8V13.2353C16.8 13.4537 16.8843 13.6632 17.0343 13.8176C17.1843 13.9721 17.3878 14.0588 17.6 14.0588C17.8122 14.0588 18.0157 13.9721 18.1657 13.8176C18.3157 13.6632 18.4 13.4537 18.4 13.2353V12.4118H19.2C19.4122 12.4118 19.6157 12.325 19.7657 12.1706C19.9157 12.0161 20 11.8066 20 11.5882C20 11.3698 19.9157 11.1604 19.7657 11.0059C19.6157 10.8515 19.4122 10.7647 19.2 10.7647ZM13.04 12.1812C13.4669 11.8008 13.8092 11.3304 14.0439 10.8018C14.2786 10.2732 14.4 9.69882 14.4 9.11765C14.4 8.02558 13.9786 6.97824 13.2284 6.20603C12.4783 5.43382 11.4609 5 10.4 5C9.33913 5 8.32172 5.43382 7.57157 6.20603C6.82143 6.97824 6.4 8.02558 6.4 9.11765C6.39999 9.69882 6.52144 10.2732 6.7561 10.8018C6.99076 11.3304 7.33314 11.8008 7.76 12.1812C6.64011 12.7032 5.68997 13.5462 5.02318 14.6094C4.3564 15.6726 4.00118 16.911 4 18.1765C4 18.3949 4.08429 18.6044 4.23431 18.7588C4.38434 18.9132 4.58783 19 4.8 19C5.01217 19 5.21566 18.9132 5.36569 18.7588C5.51571 18.6044 5.6 18.3949 5.6 18.1765C5.6 16.866 6.10571 15.6092 7.00589 14.6825C7.90606 13.7559 9.12696 13.2353 10.4 13.2353C11.673 13.2353 12.8939 13.7559 13.7941 14.6825C14.6943 15.6092 15.2 16.866 15.2 18.1765C15.2 18.3949 15.2843 18.6044 15.4343 18.7588C15.5843 18.9132 15.7878 19 16 19C16.2122 19 16.4157 18.9132 16.5657 18.7588C16.7157 18.6044 16.8 18.3949 16.8 18.1765C16.7988 16.911 16.4436 15.6726 15.7768 14.6094C15.11 13.5462 14.1599 12.7032 13.04 12.1812ZM10.4 11.5882C9.92532 11.5882 9.46131 11.4433 9.06663 11.1719C8.67195 10.9004 8.36434 10.5145 8.18269 10.0631C8.00104 9.61166 7.95351 9.11491 8.04612 8.63566C8.13872 8.15641 8.3673 7.7162 8.70294 7.37068C9.03859 7.02516 9.46623 6.78986 9.93178 6.69453C10.3973 6.5992 10.8799 6.64813 11.3184 6.83512C11.757 7.02211 12.1318 7.33878 12.3955 7.74506C12.6592 8.15135 12.8 8.62901 12.8 9.11765C12.8 9.77289 12.5471 10.4013 12.0971 10.8646C11.647 11.3279 11.0365 11.5882 10.4 11.5882Z"
          fill="currentColor"/>
</svg>
