<svg width="24" height="24" viewBox="0 0 24 24" fill="none" xmlns="http://www.w3.org/2000/svg">
    <path d="M17.4453 12.468L12.4088 17.5092C11.7486 18.0956 10.8891 18.4077 10.0061 18.3817C9.12317 18.3558 8.28352 17.9937 7.65892 17.3695C7.03431 16.7453 6.67196 15.9062 6.64596 15.0238C6.61997 14.1415 6.93231 13.2826 7.51909 12.6227L14.0387 6.10749C14.428 5.73799 14.9444 5.53197 15.4812 5.53197C16.0181 5.53197 16.5345 5.73799 16.9237 6.10749C17.3029 6.49155 17.5156 7.00942 17.5156 7.54899C17.5156 8.08856 17.3029 8.60642 16.9237 8.99049L11.3005 14.6018C11.2448 14.6617 11.1779 14.71 11.1036 14.7441C11.0292 14.7781 10.9489 14.7972 10.8672 14.8002C10.7854 14.8032 10.7039 14.7901 10.6272 14.7617C10.5506 14.7332 10.4803 14.6899 10.4203 14.6343C10.3604 14.5787 10.312 14.5119 10.278 14.4376C10.2439 14.3633 10.2248 14.283 10.2218 14.2013C10.2187 14.1196 10.2318 14.0382 10.2603 13.9615C10.2888 13.8849 10.3321 13.8147 10.3877 13.7548L14.5685 9.58501C14.7219 9.43165 14.8081 9.22366 14.8081 9.00678C14.8081 8.7899 14.7219 8.5819 14.5685 8.42855C14.415 8.27519 14.2069 8.18904 13.9899 8.18904C13.7728 8.18904 13.5647 8.27519 13.4112 8.42855L9.2305 12.6146C9.02131 12.822 8.85527 13.0688 8.74196 13.3407C8.62866 13.6125 8.57032 13.9041 8.57032 14.1986C8.57032 14.4931 8.62866 14.7847 8.74196 15.0566C8.85527 15.3285 9.02131 15.5752 9.2305 15.7827C9.65784 16.1894 10.2254 16.4163 10.8156 16.4163C11.4058 16.4163 11.9733 16.1894 12.4007 15.7827L18.0157 10.1632C18.6635 9.46851 19.0162 8.54963 18.9994 7.60018C18.9827 6.65074 18.5978 5.74487 17.9259 5.07341C17.254 4.40194 16.3475 4.01732 15.3974 4.00057C14.4473 3.98382 13.5278 4.33625 12.8326 4.9836L6.31296 11.4989C5.43378 12.4719 4.96423 13.7465 5.00213 15.057C5.04003 16.3675 5.58246 17.6128 6.5164 18.5335C7.45035 19.4542 8.70378 19.9793 10.0155 19.9994C11.3273 20.0195 12.5962 19.5329 13.5579 18.6412L18.6025 13.6082C18.6785 13.5322 18.7388 13.4421 18.7799 13.3429C18.821 13.2437 18.8422 13.1373 18.8422 13.03C18.8422 12.9226 18.821 12.8162 18.7799 12.717C18.7388 12.6178 18.6785 12.5277 18.6025 12.4517C18.5265 12.3758 18.4363 12.3156 18.337 12.2745C18.2378 12.2334 18.1313 12.2122 18.0239 12.2122C17.9164 12.2122 17.81 12.2334 17.7107 12.2745C17.6115 12.3156 17.5213 12.3758 17.4453 12.4517V12.468Z"
          fill="currentColor"/>
</svg>
