<svg xmlns="http://www.w3.org/2000/svg" width="24" height="24" fill="currentColor" viewBox="0 0 24 24">
  <path d="m21.704 16.71-2.419-2.42a1.001 1.001 0 0 0-1.42 0l-3.578 3.58a.997.997 0 0 0-.29.71V21a1 1 0 0 0 1 1h2.419a1.002 1.002 0 0 0 .71-.29l3.578-3.58a1 1 0 0 0 0-1.42ZM16.996 20h-1v-1l2.58-2.58.999 1-2.58 2.58Zm-5.998 0H6.999a1 1 0 0 1-1-1V5a1 1 0 0 1 1-1h4.998v3a3 3 0 0 0 3 3h2.998v1a1 1 0 1 0 2 0V8.94a1.314 1.314 0 0 0-.06-.27v-.09a1.07 1.07 0 0 0-.19-.28l-5.998-6a1.072 1.072 0 0 0-.28-.19.32.32 0 0 0-.09 0l-.32-.11H7a2.999 2.999 0 0 0-3 3v14a3 3 0 0 0 2.999 3h3.999a1 1 0 0 0 0-2Zm2.999-14.59L16.586 8h-1.59a1 1 0 0 1-1-1V5.41ZM8.998 14h5.998a1 1 0 0 0 0-2H8.998a1 1 0 1 0 0 2Zm0-4h1a1 1 0 1 0 0-2h-1a1 1 0 0 0 0 2Zm2 6h-2a1 1 0 1 0 0 2h2a1 1 0 0 0 0-2Z"/>
</svg>
