<svg xmlns="http://www.w3.org/2000/svg" width="24" height="24" fill="currentColor" viewBox="0 0 24 24">
  <path d="M21.158 2.188A13.209 13.209 0 0 0 18.99 2 13.017 13.017 0 0 0 12 4.027 13.018 13.018 0 0 0 5.01 2.05c-.727.003-1.452.066-2.168.188a1 1 0 0 0-.599.343.983.983 0 0 0-.23.646v11.866a.98.98 0 0 0 .35.767 1.002 1.002 0 0 0 .819.222 10.994 10.994 0 0 1 4.312.12c1.415.324 2.75.926 3.927 1.769l.12.07h.11a.918.918 0 0 0 .699 0h.11l.12-.07a10.933 10.933 0 0 1 3.914-1.826 10.991 10.991 0 0 1 4.324-.171 1.007 1.007 0 0 0 .819-.223.989.989 0 0 0 .35-.766V3.117a.983.983 0 0 0-.25-.609 1 1 0 0 0-.58-.32ZM11 15.33a12.955 12.955 0 0 0-5.992-1.464H4.01V3.978c.332-.02.666-.02.998 0 2.13-.003 4.215.616 5.992 1.78v9.572Zm8.988-1.424h-.998a12.957 12.957 0 0 0-5.992 1.463V5.758a10.923 10.923 0 0 1 5.992-1.78c.332-.02.666-.02.998 0v9.928Zm1.169 4.104a13.213 13.213 0 0 0-2.167-.188A13.017 13.017 0 0 0 12 19.849a13.017 13.017 0 0 0-6.99-2.027c-.727.003-1.452.066-2.168.188a1.004 1.004 0 0 0-.653.397.984.984 0 0 0-.176.74.99.99 0 0 0 .421.63c.22.146.488.2.748.151a10.99 10.99 0 0 1 4.312.12c1.415.324 2.75.926 3.927 1.769a1.006 1.006 0 0 0 1.158 0 10.937 10.937 0 0 1 3.927-1.77 10.99 10.99 0 0 1 4.312-.119 1 1 0 0 0 .747-.152.988.988 0 0 0 .422-.63.98.98 0 0 0-.462-1.002 1.004 1.004 0 0 0-.367-.134Z"/>
</svg>
