<svg width="24" height="24" viewBox="0 0 24 24" fill="none" xmlns="http://www.w3.org/2000/svg">
<path d="M15.1111 18.4H8.88889C8.27005 18.4 7.67656 18.1471 7.23897 17.6971C6.80139 17.247 6.55556 16.6365 6.55556 16V8C6.55556 7.78783 6.47361 7.58434 6.32775 7.43431C6.18189 7.28429 5.98406 7.2 5.77778 7.2C5.5715 7.2 5.37367 7.28429 5.22781 7.43431C5.08194 7.58434 5 7.78783 5 8V16C5 17.0609 5.40972 18.0783 6.13903 18.8284C6.86834 19.5786 7.85749 20 8.88889 20H15.1111C15.3174 20 15.5152 19.9157 15.6611 19.7657C15.8069 19.6157 15.8889 19.4122 15.8889 19.2C15.8889 18.9878 15.8069 18.7843 15.6611 18.6343C15.5152 18.4843 15.3174 18.4 15.1111 18.4ZM10.4444 12.8C10.4444 13.0122 10.5264 13.2157 10.6723 13.3657C10.8181 13.5157 11.0159 13.6 11.2222 13.6H15.1111C15.3174 13.6 15.5152 13.5157 15.6611 13.3657C15.8069 13.2157 15.8889 13.0122 15.8889 12.8C15.8889 12.5878 15.8069 12.3843 15.6611 12.2343C15.5152 12.0843 15.3174 12 15.1111 12H11.2222C11.0159 12 10.8181 12.0843 10.6723 12.2343C10.5264 12.3843 10.4444 12.5878 10.4444 12.8ZM19 9.552C18.9919 9.47851 18.9763 9.4061 18.9533 9.336V9.264C18.9159 9.18174 18.8661 9.10613 18.8056 9.04L14.1389 4.24C14.0746 4.17777 14.0011 4.12646 13.9211 4.088C13.8979 4.08461 13.8743 4.08461 13.8511 4.088C13.7721 4.04139 13.6848 4.01148 13.5944 4H10.4444C9.82561 4 9.23211 4.25286 8.79453 4.70294C8.35694 5.15303 8.11111 5.76348 8.11111 6.4V14.4C8.11111 15.0365 8.35694 15.647 8.79453 16.0971C9.23211 16.5471 9.82561 16.8 10.4444 16.8H16.6667C17.2855 16.8 17.879 16.5471 18.3166 16.0971C18.7542 15.647 19 15.0365 19 14.4V9.6C19 9.6 19 9.6 19 9.552ZM14.3333 6.728L16.3478 8.8H15.1111C14.9048 8.8 14.707 8.71571 14.5611 8.56569C14.4153 8.41566 14.3333 8.21217 14.3333 8V6.728ZM17.4444 14.4C17.4444 14.6122 17.3625 14.8157 17.2166 14.9657C17.0708 15.1157 16.8729 15.2 16.6667 15.2H10.4444C10.2382 15.2 10.0403 15.1157 9.89447 14.9657C9.74861 14.8157 9.66667 14.6122 9.66667 14.4V6.4C9.66667 6.18783 9.74861 5.98434 9.89447 5.83431C10.0403 5.68429 10.2382 5.6 10.4444 5.6H12.7778V8C12.7799 8.27291 12.8272 8.54346 12.9178 8.8H11.2222C11.0159 8.8 10.8181 8.88429 10.6723 9.03431C10.5264 9.18434 10.4444 9.38783 10.4444 9.6C10.4444 9.81217 10.5264 10.0157 10.6723 10.1657C10.8181 10.3157 11.0159 10.4 11.2222 10.4H17.4444V14.4Z" fill="black" fill-opacity="0.87"/>
</svg>
