<svg xmlns="http://www.w3.org/2000/svg" width="24" height="24" fill="currentColor" viewBox="0 0 24 24">
  <path d="M19 20.182h-1v-1.516a4.178 4.178 0 0 0-.3-1.525.827.827 0 0 0-.035-.077A4.408 4.408 0 0 0 17 15.94l-1.4-1.697a2.584 2.584 0 0 1-.6-1.638v-.918c.002-.722.318-1.415.878-1.928l.658-.597c.763-.698 1.254-1.605 1.396-2.58 0-.013.008-.024.008-.037l-.003-.012c.035-.194.056-.389.063-.585v-2.13h1c.265 0 .52-.096.707-.266A.87.87 0 0 0 20 2.909a.87.87 0 0 0-.293-.643A1.053 1.053 0 0 0 19 2H5c-.265 0-.52.096-.707.266A.87.87 0 0 0 4 2.91a.87.87 0 0 0 .293.643c.187.17.442.266.707.266h1v2.13c.007.196.028.391.063.585l-.003.012c0 .013.008.024.008.036.142.976.633 1.883 1.396 2.58l.658.598c.56.513.876 1.206.878 1.928v.918a2.587 2.587 0 0 1-.6 1.637L7 15.94a4.414 4.414 0 0 0-.665 1.125.834.834 0 0 0-.035.076 4.181 4.181 0 0 0-.3 1.525v1.516H5c-.265 0-.52.096-.707.266a.87.87 0 0 0-.293.643.87.87 0 0 0 .293.643c.187.17.442.266.707.266h14c.265 0 .52-.096.707-.266A.87.87 0 0 0 20 21.09a.87.87 0 0 0-.293-.643 1.053 1.053 0 0 0-.707-.266ZM8 5.636V3.818h8v1.818H8Zm.878 2.24a2.769 2.769 0 0 1-.376-.421h6.996c-.11.151-.236.293-.376.421l-.658.598c-.78.705-1.28 1.625-1.421 2.617h-2.085c-.142-.992-.642-1.912-1.422-2.617l-.658-.598Zm1.123 7.457a4.335 4.335 0 0 0 .988-2.424h2.022c.067.878.41 1.719.989 2.424l1 1.213H9l1-1.213ZM16 20.182H8v-1.516c.003-.1.012-.202.027-.302h7.946c.015.1.024.201.027.302v1.516Z"/>
</svg>
