<svg width="24" height="24" viewBox="0 0 24 24" fill="none" xmlns="http://www.w3.org/2000/svg">
  <path fill="currentColor"
        d="M 9.5 5 C 8.67157 5 8 5.67157 8 6.5 C 8 7.32843 8.67157 8 9.5 8 C 10.3284 8 11 7.32843 11 6.5 C 11 5.67157 10.3284 5 9.5 5 z M 14.5 5 C 13.6716 5 13 5.67157 13 6.5 C 13 7.32843 13.6716 8 14.5 8 C 15.3284 8 16 7.32843 16 6.5 C 16 5.67157 15.3284 5 14.5 5 z M 9.5 10 C 8.67157 10 8 10.6716 8 11.5 C 8 12.3284 8.67157 13 9.5 13 C 10.3284 13 11 12.3284 11 11.5 C 11 10.6716 10.3284 10 9.5 10 z M 14.5 10 C 13.6716 10 13 10.6716 13 11.5 C 13 12.3284 13.6716 13 14.5 13 C 15.3284 13 16 12.3284 16 11.5 C 16 10.6716 15.3284 10 14.5 10 z M 9.5 15 C 8.67157 15 8 15.6716 8 16.5 C 8 17.3284 8.67157 18 9.5 18 C 10.3284 18 11 17.3284 11 16.5 C 11 15.6716 10.3284 15 9.5 15 z M 14.5 15 C 13.6716 15 13 15.6716 13 16.5 C 13 17.3284 13.6716 18 14.5 18 C 15.3284 18 16 17.3284 16 16.5 C 16 15.6716 15.3284 15 14.5 15 z "/>
</svg>
