<svg width="24" height="24" viewBox="0 0 24 24" fill="none" xmlns="http://www.w3.org/2000/svg">
<path d="M17.7996 8.68393C17.2492 7.45442 16.2992 6.43426 15.0953 5.77978C13.8914 5.12531 12.4999 4.87262 11.1342 5.06044C9.76839 5.24827 8.50364 5.86624 7.53372 6.81966C6.56379 7.77309 5.94221 9.00937 5.76421 10.3391C4.90532 10.539 4.15188 11.0386 3.64697 11.743C3.14205 12.4474 2.92083 13.3075 3.02531 14.16C3.12979 15.0126 3.5527 15.7981 4.21372 16.3674C4.87474 16.9368 5.72784 17.2504 6.61101 17.2485C6.84993 17.2485 7.07907 17.1563 7.24801 16.9921C7.41696 16.8278 7.51187 16.6051 7.51187 16.3728C7.51187 16.1406 7.41696 15.9178 7.24801 15.7536C7.07907 15.5894 6.84993 15.4971 6.61101 15.4971C6.13317 15.4971 5.6749 15.3126 5.33701 14.9841C4.99913 14.6556 4.80931 14.2102 4.80931 13.7456C4.80931 13.2811 4.99913 12.8356 5.33701 12.5072C5.6749 12.1787 6.13317 11.9942 6.61101 11.9942C6.84993 11.9942 7.07907 11.9019 7.24801 11.7377C7.41696 11.5735 7.51187 11.3507 7.51187 11.1185C7.51417 10.0827 7.89409 9.0813 8.58413 8.29212C9.27416 7.50294 10.2296 6.9771 11.2808 6.80801C12.332 6.63893 13.4108 6.83755 14.3255 7.3686C15.2403 7.89964 15.9318 8.72872 16.2772 9.70853C16.3287 9.85902 16.4212 9.99308 16.545 10.0964C16.6687 10.1998 16.819 10.2685 16.9798 10.2953C17.5799 10.4055 18.1238 10.71 18.523 11.1592C18.9222 11.6084 19.1532 12.1758 19.1783 12.7689C19.2034 13.362 19.0211 13.9459 18.6611 14.4254C18.3011 14.9049 17.7847 15.2518 17.196 15.4095C16.9643 15.4676 16.7658 15.6128 16.6441 15.8131C16.5225 16.0135 16.4877 16.2526 16.5474 16.4779C16.6072 16.7032 16.7565 16.8962 16.9626 17.0144C17.1687 17.1327 17.4147 17.1665 17.6465 17.1084C18.5945 16.8649 19.4349 16.3273 20.04 15.5772C20.6452 14.8271 20.982 13.9056 20.9993 12.9525C21.0166 11.9994 20.7135 11.0668 20.136 10.2964C19.5585 9.52603 18.7382 8.95987 17.7996 8.68393ZM12.6557 10.4967C12.5701 10.417 12.469 10.3545 12.3585 10.3128C12.1391 10.2252 11.8931 10.2252 11.6738 10.3128C11.5632 10.3545 11.4622 10.417 11.3765 10.4967L8.67397 13.1239C8.50433 13.2888 8.40903 13.5124 8.40903 13.7456C8.40903 13.9788 8.50433 14.2025 8.67397 14.3674C8.8436 14.5323 9.07367 14.6249 9.31357 14.6249C9.55347 14.6249 9.78355 14.5323 9.95318 14.3674L11.1153 13.229V18.1243C11.1153 18.3565 11.2102 18.5793 11.3791 18.7435C11.5481 18.9077 11.7772 19 12.0161 19C12.2551 19 12.4842 18.9077 12.6531 18.7435C12.8221 18.5793 12.917 18.3565 12.917 18.1243V13.229L14.0791 14.3674C14.1628 14.4495 14.2625 14.5146 14.3722 14.5591C14.482 14.6036 14.5998 14.6264 14.7187 14.6264C14.8376 14.6264 14.9554 14.6036 15.0651 14.5591C15.1749 14.5146 15.2746 14.4495 15.3583 14.3674C15.4427 14.286 15.5098 14.1891 15.5555 14.0824C15.6012 13.9757 15.6248 13.8612 15.6248 13.7456C15.6248 13.63 15.6012 13.5156 15.5555 13.4089C15.5098 13.3021 15.4427 13.2053 15.3583 13.1239L12.6557 10.4967Z" fill="currentColor"/>
</svg>
