<svg xmlns="http://www.w3.org/2000/svg" width="24" height="24" fill="currentColor" viewBox="0 0 24 24">
  <path d="m12.592 13-2.3 2.29a1.001 1.001 0 0 0 .325 1.639 1 1 0 0 0 1.095-.219l4.001-4a.999.999 0 0 0 .21-.33 1 1 0 0 0 0-.76.999.999 0 0 0-.21-.33l-4-4a1.005 1.005 0 0 0-1.421 1.42l2.3 2.29H3a1 1 0 1 0 0 2h9.592Zm-.59-11A10.004 10.004 0 0 0 3 7.55a1.006 1.006 0 1 0 1.8.9 8 8 0 0 1 10.883-3.537A8 8 0 0 1 12.003 20a7.933 7.933 0 0 1-7.162-4.45 1.006 1.006 0 0 0-1.8.9A10.002 10.002 0 1 0 17.07 3.381a10.004 10.004 0 0 0-5.068-1.38Z"/>
</svg>
