<svg width="24" height="24" viewBox="0 0 24 24" fill="none" xmlns="http://www.w3.org/2000/svg">
    <path d="M11.5254 4C9.35287 4.00585 7.26567 4.79913 5.69492 6.216V4.8C5.69492 4.58783 5.60563 4.38434 5.4467 4.23431C5.28777 4.08429 5.07222 4 4.84746 4C4.6227 4 4.40714 4.08429 4.24821 4.23431C4.08929 4.38434 4 4.58783 4 4.8V8.4C4 8.61217 4.08929 8.81566 4.24821 8.96569C4.40714 9.11571 4.6227 9.2 4.84746 9.2H8.66102C8.88578 9.2 9.10133 9.11571 9.26026 8.96569C9.41919 8.81566 9.50847 8.61217 9.50847 8.4C9.50847 8.18783 9.41919 7.98434 9.26026 7.83431C9.10133 7.68429 8.88578 7.6 8.66102 7.6H6.62712C7.39975 6.82961 8.36314 6.25261 9.43062 5.92091C10.4981 5.58921 11.6362 5.51322 12.7425 5.69976C13.8488 5.88631 14.8886 6.32954 15.7685 6.98959C16.6483 7.64964 17.3405 8.50581 17.7828 9.48106C18.2251 10.4563 18.4037 11.5201 18.3024 12.5767C18.2012 13.6332 17.8233 14.6495 17.2028 15.534C16.5822 16.4185 15.7385 17.1434 14.7475 17.6437C13.7565 18.144 12.6492 18.4039 11.5254 18.4C11.3007 18.4 11.0851 18.4843 10.9262 18.6343C10.7673 18.7843 10.678 18.9878 10.678 19.2C10.678 19.4122 10.7673 19.6157 10.9262 19.7657C11.0851 19.9157 11.3007 20 11.5254 20C13.773 20 15.9286 19.1571 17.5179 17.6569C19.1071 16.1566 20 14.1217 20 12C20 9.87827 19.1071 7.84344 17.5179 6.34315C15.9286 4.84285 13.773 4 11.5254 4Z"
          fill="currentColor"/>
</svg>
