<svg xmlns="http://www.w3.org/2000/svg" width="24" height="24" fill="currentColor" viewBox="0 0 24 24">
  <path d="m9.932 17.65-1.784 1.732a2.495 2.495 0 0 1-4.257-1.762c0-.661.262-1.295.73-1.762l4.575-4.58a2.48 2.48 0 0 1 3.417-.091l.12.1a1.01 1.01 0 0 0 1.411-1.44 2.77 2.77 0 0 0-.181-.21 4.497 4.497 0 0 0-6.137.22L3.19 14.44A4.507 4.507 0 0 0 6.42 22a4.517 4.517 0 0 0 3.15-1.188l1.742-1.701a1.006 1.006 0 0 0-1.38-1.46ZM20.705 3.314a4.527 4.527 0 0 0-6.38 0l-1.743 1.701a1.006 1.006 0 0 0 1.38 1.46l1.744-1.731a2.495 2.495 0 0 1 4.258 1.761 2.49 2.49 0 0 1-.73 1.762l-4.576 4.58a2.48 2.48 0 0 1-3.416.091l-.121-.1a1.009 1.009 0 0 0-1.41 1.44c.072.074.15.145.231.21a4.508 4.508 0 0 0 6.137-.22l4.585-4.581a4.518 4.518 0 0 0 .04-6.373Z"/>
</svg>
