<svg xmlns="http://www.w3.org/2000/svg" width="24" height="24" fill="currentColor" viewBox="0 0 24 24">
  <path d="M18.444 8.21a7.006 7.006 0 0 0-13.373 1.892 4.004 4.004 0 0 0 .941 7.896 1 1 0 1 0 0-2.001 2.002 2.002 0 1 1 0-4.004 1.001 1.001 0 0 0 1.001-1 5.004 5.004 0 0 1 9.74-1.612 1 1 0 0 0 .78.67 3.003 3.003 0 0 1 .24 5.846 1.003 1.003 0 0 0 .5 1.941 5.005 5.005 0 0 0 .171-9.628Zm-5.715 2.072a1 1 0 0 0-.33-.21 1 1 0 0 0-.761 0 1 1 0 0 0-.33.21l-3.004 3.002a1.005 1.005 0 1 0 1.422 1.422l1.291-1.301v5.594a1 1 0 1 0 2.002 0v-5.594l1.291 1.3a1.002 1.002 0 0 0 1.64-.325 1 1 0 0 0-.219-1.096l-3.002-3.002Z"/>
</svg>
