<svg width="24" height="24" viewBox="0 0 24 24" fill="none" xmlns="http://www.w3.org/2000/svg">
    <path d="M11.3204 11.979L14.7207 8.61905C14.8996 8.44121 15 8.20065 15 7.9499C15 7.69915 14.8996 7.45859 14.7207 7.28075C14.6314 7.19179 14.5252 7.12118 14.4081 7.073C14.2911 7.02481 14.1655 7 14.0387 7C13.9119 7 13.7864 7.02481 13.6693 7.073C13.5523 7.12118 13.446 7.19179 13.3567 7.28075L9.28412 11.3051C9.19409 11.3934 9.12264 11.4983 9.07387 11.614C9.02511 11.7297 9 11.8537 9 11.979C9 12.1043 9.02511 12.2284 9.07387 12.344C9.12264 12.4597 9.19409 12.5647 9.28412 12.6529L13.3567 16.7247C13.4465 16.8127 13.5529 16.8823 13.67 16.9295C13.787 16.9768 13.9123 17.0007 14.0387 17C14.1651 17.0007 14.2904 16.9768 14.4075 16.9295C14.5245 16.8823 14.6309 16.8127 14.7207 16.7247C14.8996 16.5469 15 16.3063 15 16.0556C15 15.8048 14.8996 15.5643 14.7207 15.3864L11.3204 11.979Z"
          fill="currentColor"/>
</svg>
