<svg xmlns="http://www.w3.org/2000/svg" width="24" height="24" fill="currentColor" viewBox="0 0 24 24">
  <path d="M10.425 5.458c-.298.053-.563.22-.736.465a1.107 1.107 0 0 0 .286 1.562c.25.17.557.236.855.183a7.066 7.066 0 0 1 1.124-.1c1.79 0 3.505.7 4.77 1.943a6.572 6.572 0 0 1 1.976 4.687c-.003.37-.037.74-.101 1.105a1.09 1.09 0 0 0 .18.823c.17.24.427.405.72.459h.202c.266.004.525-.084.73-.25a1.1 1.1 0 0 0 .394-.656c.104-.502.16-1.013.169-1.525a8.744 8.744 0 0 0-1.912-5.425l1.023-.994a1.1 1.1 0 0 0 0-1.57 1.14 1.14 0 0 0-1.596 0l-1.012 1.006a9.096 9.096 0 0 0-5.498-1.856 8.519 8.519 0 0 0-1.574.143ZM9.75 4.21h4.498c.298 0 .584-.117.795-.324a1.096 1.096 0 0 0 0-1.562A1.135 1.135 0 0 0 14.248 2H9.75c-.298 0-.584.116-.795.324a1.095 1.095 0 0 0 0 1.562c.211.207.497.324.795.324Zm3.924 10.033v-.177l1.507-1.47a1.106 1.106 0 0 0 .33-.784 1.091 1.091 0 0 0-.33-.785 1.132 1.132 0 0 0-.798-.325 1.147 1.147 0 0 0-.799.325l-1.495 1.47h-.18L4.927 5.635a1.139 1.139 0 0 0-1.596 0 1.1 1.1 0 0 0 0 1.57l.54.53L4.892 8.74a8.735 8.735 0 0 0-1.851 5.965 8.772 8.772 0 0 0 2.616 5.681 9.066 9.066 0 0 0 5.78 2.571 9.104 9.104 0 0 0 6.07-1.82l1.563 1.536a1.127 1.127 0 0 0 .798.327 1.142 1.142 0 0 0 .798-.327A1.104 1.104 0 0 0 21 21.89a1.089 1.089 0 0 0-.333-.785l-6.993-6.861ZM12 20.783a6.835 6.835 0 0 1-3.523-.964 6.678 6.678 0 0 1-2.494-2.63 6.533 6.533 0 0 1 .52-6.902l3.822 3.746v.088a1.634 1.634 0 0 0 .478 1.19 1.687 1.687 0 0 0 1.197.5h.09l3.811 3.757A6.827 6.827 0 0 1 12 20.784Z"/>
</svg>
