<svg width="24" height="24" viewBox="0 0 24 24" fill="none" xmlns="http://www.w3.org/2000/svg">
    <path d="M15.2 11.2C15.6418 11.2 16 11.5582 16 12C16 12.4418 15.6418 12.8 15.2 12.8L8.8 12.8C8.35817 12.8 8 12.4418 8 12C8 11.5582 8.35817 11.2 8.8 11.2L15.2 11.2ZM20 12C20 7.584 16.416 4 12 4C7.584 4 4 7.584 4 12C4 16.416 7.584 20 12 20C16.416 20 20 16.416 20 12ZM5.6 12C5.6 8.472 8.472 5.6 12 5.6C15.528 5.6 18.4 8.472 18.4 12C18.4 15.528 15.528 18.4 12 18.4C8.472 18.4 5.6 15.528 5.6 12Z"
          fill="currentColor"/>
</svg>
