<svg xmlns="http://www.w3.org/2000/svg" width="24" height="24" fill="currentColor" viewBox="0 0 24 24">
  <path d="M21.916 6.671A1.067 1.067 0 0 0 20.95 6h-5.248a1.03 1.03 0 0 0-.742.317 1.1 1.1 0 0 0-.308.766c0 .287.11.562.308.765.196.204.463.318.742.318h2.719l-5.868 6.053-3.454-3.574a1.023 1.023 0 0 0-1.49 0L1.31 17.142a1.085 1.085 0 0 0-.311.769 1.112 1.112 0 0 0 .31.769 1.047 1.047 0 0 0 .746.32 1.021 1.021 0 0 0 .745-.32l5.553-5.74 3.454 3.574a1.047 1.047 0 0 0 .745.32 1.021 1.021 0 0 0 .745-.32L19.9 9.692v2.805c0 .287.11.563.307.765.197.204.464.318.742.318.279 0 .546-.114.743-.318a1.1 1.1 0 0 0 .307-.765V7.083a1.113 1.113 0 0 0-.084-.412Z"/>
</svg>
