<svg width="24" height="24" viewBox="0 0 24 24" fill="none" xmlns="http://www.w3.org/2000/svg">
    <path d="M3 12.4211V16.6316C3 16.8549 3.0862 17.0691 3.23964 17.227C3.39308 17.385 3.60119 17.4737 3.81818 17.4737H4.63636C4.63636 18.1437 4.89497 18.7863 5.35528 19.2601C5.8156 19.7338 6.43992 20 7.09091 20C7.7419 20 8.36622 19.7338 8.82654 19.2601C9.28685 18.7863 9.54545 18.1437 9.54545 17.4737H14.4545C14.4545 18.1437 14.7131 18.7863 15.1735 19.2601C15.6338 19.7338 16.2581 20 16.9091 20C17.5601 20 18.1844 19.7338 18.6447 19.2601C19.105 18.7863 19.3636 18.1437 19.3636 17.4737H20.1818C20.3988 17.4737 20.6069 17.385 20.7604 17.227C20.9138 17.0691 21 16.8549 21 16.6316V6.52632C21 5.8563 20.7414 5.21372 20.2811 4.73994C19.8208 4.26616 19.1964 4 18.5455 4H11.1818C10.5308 4 9.90651 4.26616 9.44619 4.73994C8.98588 5.21372 8.72727 5.8563 8.72727 6.52632V8.21053H7.09091C6.70985 8.21053 6.33403 8.30184 5.9932 8.47724C5.65238 8.65263 5.35591 8.90729 5.12727 9.22105L3.16364 11.9158C3.13971 11.9524 3.12046 11.992 3.10636 12.0337L3.05727 12.1263C3.02116 12.2202 3.00176 12.3201 3 12.4211ZM16.0909 17.4737C16.0909 17.3071 16.1389 17.1443 16.2288 17.0058C16.3187 16.8674 16.4465 16.7594 16.596 16.6957C16.7455 16.6319 16.91 16.6153 17.0687 16.6478C17.2274 16.6803 17.3732 16.7605 17.4876 16.8782C17.6021 16.996 17.68 17.146 17.7116 17.3094C17.7431 17.4727 17.7269 17.6421 17.665 17.7959C17.6031 17.9498 17.4982 18.0813 17.3636 18.1739C17.2291 18.2664 17.0709 18.3158 16.9091 18.3158C16.6921 18.3158 16.484 18.2271 16.3305 18.0691C16.1771 17.9112 16.0909 17.697 16.0909 17.4737ZM10.3636 6.52632C10.3636 6.30298 10.4498 6.08878 10.6033 5.93086C10.7567 5.77293 10.9648 5.68421 11.1818 5.68421H18.5455C18.7625 5.68421 18.9706 5.77293 19.124 5.93086C19.2774 6.08878 19.3636 6.30298 19.3636 6.52632V15.7895H18.7255C18.4954 15.529 18.215 15.3208 17.9022 15.1784C17.5894 15.036 17.2511 14.9624 16.9091 14.9624C16.5671 14.9624 16.2288 15.036 15.916 15.1784C15.6032 15.3208 15.3228 15.529 15.0927 15.7895H10.3636V6.52632ZM8.72727 11.5789H5.45455L6.43636 10.2316C6.51257 10.127 6.6114 10.0421 6.72501 9.98364C6.83862 9.92517 6.96389 9.89474 7.09091 9.89474H8.72727V11.5789ZM6.27273 17.4737C6.27273 17.3071 6.32071 17.1443 6.41062 17.0058C6.50052 16.8674 6.6283 16.7594 6.7778 16.6957C6.92731 16.6319 7.09182 16.6153 7.25053 16.6478C7.40924 16.6803 7.55503 16.7605 7.66945 16.8782C7.78388 16.996 7.8618 17.146 7.89337 17.3094C7.92494 17.4727 7.90874 17.6421 7.84681 17.7959C7.78488 17.9498 7.68002 18.0813 7.54547 18.1739C7.41092 18.2664 7.25273 18.3158 7.09091 18.3158C6.87391 18.3158 6.66581 18.2271 6.51237 18.0691C6.35893 17.9112 6.27273 17.697 6.27273 17.4737ZM4.63636 13.2632H8.72727V15.6042C8.24441 15.16 7.61056 14.9303 6.96384 14.965C6.31711 14.9997 5.70992 15.296 5.27455 15.7895H4.63636V13.2632Z"
          fill="currentColor"/>
</svg>
