<svg xmlns="http://www.w3.org/2000/svg" width="24" height="24" fill="currentColor" viewBox="0 0 24 24">
  <path fill-rule="evenodd" d="M3 5.7A2.7 2.7 0 0 1 5.7 3h9.154a2.7 2.7 0 0 1 1.91.79l3.445 3.446A2.7 2.7 0 0 1 21 9.146V18.3a2.7 2.7 0 0 1-2.7 2.7H5.7A2.7 2.7 0 0 1 3 18.3V5.7Zm2.7-.9a.9.9 0 0 0-.9.9v12.6a.9.9 0 0 0 .9.9h12.6a.9.9 0 0 0 .9-.9V9.146a.9.9 0 0 0-.264-.637l-3.445-3.445a.9.9 0 0 0-.637-.264H5.7Z" clip-rule="evenodd"/>
  <path fill-rule="evenodd" d="M7.5 3a.9.9 0 0 1 .9.9v3.6h5.4V3.9a.9.9 0 1 1 1.8 0v4.5a.9.9 0 0 1-.9.9H7.5a.9.9 0 0 1-.9-.9V3.9a.9.9 0 0 1 .9-.9Z" clip-rule="evenodd"/>
  <path d="M14.7 14.25a3.15 3.15 0 1 1-6.3 0 3.15 3.15 0 0 1 6.3 0Z"/>
</svg>
