<svg width="24" height="24" viewBox="0 0 24 24" fill="none" xmlns="http://www.w3.org/2000/svg">
    <path d="M18.328 14.808H14.704C14.4918 14.808 14.2883 14.8923 14.1383 15.0423C13.9883 15.1923 13.904 15.3958 13.904 15.608C13.904 15.8202 13.9883 16.0237 14.1383 16.1737C14.2883 16.3237 14.4918 16.408 14.704 16.408H16.624C15.7416 17.3302 14.6035 17.9675 13.3561 18.2379C12.1087 18.5084 10.809 18.3997 9.62382 17.9258C8.43868 17.4519 7.4223 16.6345 6.70527 15.5785C5.98825 14.5226 5.60334 13.2764 5.6 12C5.6 11.7878 5.51571 11.5843 5.36569 11.4343C5.21566 11.2843 5.01217 11.2 4.8 11.2C4.58783 11.2 4.38434 11.2843 4.23431 11.4343C4.08429 11.5843 4 11.7878 4 12C4.00423 13.5622 4.46578 15.0891 5.32768 16.392C6.18959 17.695 7.41413 18.7171 8.85019 19.3322C10.2863 19.9473 11.871 20.1284 13.4088 19.8533C14.9466 19.5782 16.3703 18.8588 17.504 17.784V19.2C17.504 19.4122 17.5883 19.6157 17.7383 19.7657C17.8883 19.9157 18.0918 20 18.304 20C18.5162 20 18.7197 19.9157 18.8697 19.7657C19.0197 19.6157 19.104 19.4122 19.104 19.2V15.6C19.102 15.3933 19.0201 15.1954 18.8755 15.0478C18.7308 14.9001 18.5346 14.8142 18.328 14.808ZM12 4C9.94911 4.00585 7.97879 4.79913 6.496 6.216V4.8C6.496 4.58783 6.41171 4.38434 6.26169 4.23431C6.11166 4.08429 5.90817 4 5.696 4C5.48383 4 5.28034 4.08429 5.13031 4.23431C4.98029 4.38434 4.896 4.58783 4.896 4.8V8.4C4.896 8.61217 4.98029 8.81566 5.13031 8.96569C5.28034 9.11571 5.48383 9.2 5.696 9.2H9.296C9.50817 9.2 9.71166 9.11571 9.86169 8.96569C10.0117 8.81566 10.096 8.61217 10.096 8.4C10.096 8.18783 10.0117 7.98434 9.86169 7.83431C9.71166 7.68429 9.50817 7.6 9.296 7.6H7.376C8.25797 6.6783 9.39527 6.0412 10.6419 5.77049C11.8886 5.49977 13.1877 5.6078 14.3725 6.08069C15.5573 6.55358 16.5738 7.36977 17.2914 8.42448C18.009 9.4792 18.3951 10.7243 18.4 12C18.4 12.2122 18.4843 12.4157 18.6343 12.5657C18.7843 12.7157 18.9878 12.8 19.2 12.8C19.4122 12.8 19.6157 12.7157 19.7657 12.5657C19.9157 12.4157 20 12.2122 20 12C20 10.9494 19.7931 9.90914 19.391 8.93853C18.989 7.96793 18.3997 7.08601 17.6569 6.34315C16.914 5.60028 16.0321 5.011 15.0615 4.60896C14.0909 4.20693 13.0506 4 12 4Z"
          fill="currentColor"/>
</svg>
