<svg width="24" height="24" viewBox="0 0 24 24" fill="none" xmlns="http://www.w3.org/2000/svg">
  <path fill="currentColor"
        d="M 12 3 C 11.1134 3 10.394362 3.3170388 9.8515625 3.8554688 C 9.3260725 4.3767388 9.0076231 5.0635731 8.8144531 5.7519531 C 8.6677531 6.2747231 8.584255 6.8287469 8.546875 7.3730469 L 6.75 7.3730469 C 5.7835 7.3730469 5 8.1815644 5 9.1777344 L 5 18.197266 C 5 19.193466 5.7835 20 6.75 20 L 17.25 20 C 18.2165 20 19 19.193466 19 18.197266 L 19 9.1777344 C 19 8.1815644 18.2165 7.3730469 17.25 7.3730469 L 15.453125 7.3730469 C 15.415825 6.8287569 15.332247 6.2747231 15.185547 5.7519531 C 14.992347 5.0635831 14.673937 4.3767388 14.148438 3.8554688 C 13.605638 3.3170387 12.8865 3 12 3 z M 12 4.5332031 C 12.5134 4.5332031 12.859787 4.7055375 13.117188 4.9609375 C 13.391987 5.2334875 13.608213 5.6448444 13.757812 6.1777344 C 13.863213 6.5536544 13.927336 6.9614369 13.960938 7.3730469 L 10.039062 7.3730469 C 10.072763 6.9614369 10.136687 6.5536444 10.242188 6.1777344 C 10.391686 5.6448444 10.608014 5.2334875 10.882812 4.9609375 C 11.140313 4.7055375 11.4865 4.5332031 12 4.5332031 z M 6.75 8.90625 L 8.5507812 8.90625 C 8.5717612 9.21039 8.603165 9.4951336 8.640625 9.7460938 C 8.703085 10.164574 9.0823013 10.451119 9.4882812 10.386719 C 9.8942712 10.322319 10.171775 9.9301687 10.109375 9.5117188 C 10.081575 9.3258088 10.058316 9.12169 10.041016 8.90625 L 13.958984 8.90625 C 13.941684 9.12169 13.918425 9.3258086 13.890625 9.5117188 C 13.828225 9.9301588 14.105719 10.322319 14.511719 10.386719 C 14.917719 10.451119 15.296975 10.164564 15.359375 9.7460938 C 15.396875 9.4951237 15.430172 9.21039 15.451172 8.90625 L 17.25 8.90625 C 17.395 8.90625 17.511719 9.0283044 17.511719 9.1777344 L 17.511719 18.197266 C 17.511719 18.346666 17.395 18.466797 17.25 18.466797 L 6.75 18.466797 C 6.60503 18.466797 6.4882813 18.346666 6.4882812 18.197266 L 6.4882812 9.1777344 C 6.4882813 9.0283044 6.60503 8.90625 6.75 8.90625 z " />
</svg>
