<svg width="24" height="24" viewBox="0 0 24 24" fill="none" xmlns="http://www.w3.org/2000/svg">
    <path d="M13.4545 9.81818H10.5455C10.3526 9.81818 10.1676 9.89481 10.0312 10.0312C9.89481 10.1676 9.81818 10.3526 9.81818 10.5455V19.2727C9.81818 19.4656 9.89481 19.6506 10.0312 19.787C10.1676 19.9234 10.3526 20 10.5455 20H13.4545C13.6474 20 13.8324 19.9234 13.9688 19.787C14.1052 19.6506 14.1818 19.4656 14.1818 19.2727V10.5455C14.1818 10.3526 14.1052 10.1676 13.9688 10.0312C13.8324 9.89481 13.6474 9.81818 13.4545 9.81818ZM12.7273 18.5455H11.2727V11.2727H12.7273V18.5455ZM19.2727 4H16.3636C16.1708 4 15.9858 4.07662 15.8494 4.21301C15.713 4.3494 15.6364 4.53439 15.6364 4.72727V19.2727C15.6364 19.4656 15.713 19.6506 15.8494 19.787C15.9858 19.9234 16.1708 20 16.3636 20H19.2727C19.4656 20 19.6506 19.9234 19.787 19.787C19.9234 19.6506 20 19.4656 20 19.2727V4.72727C20 4.53439 19.9234 4.3494 19.787 4.21301C19.6506 4.07662 19.4656 4 19.2727 4ZM18.5455 18.5455H17.0909V5.45455H18.5455V18.5455ZM7.63636 14.1818H4.72727C4.53439 14.1818 4.3494 14.2584 4.21301 14.3948C4.07662 14.5312 4 14.7162 4 14.9091V19.2727C4 19.4656 4.07662 19.6506 4.21301 19.787C4.3494 19.9234 4.53439 20 4.72727 20H7.63636C7.82925 20 8.01423 19.9234 8.15062 19.787C8.28701 19.6506 8.36364 19.4656 8.36364 19.2727V14.9091C8.36364 14.7162 8.28701 14.5312 8.15062 14.3948C8.01423 14.2584 7.82925 14.1818 7.63636 14.1818ZM6.90909 18.5455H5.45455V15.6364H6.90909V18.5455Z"
          fill="currentColor"/>
</svg>
