<svg xmlns="http://www.w3.org/2000/svg" width="24" height="24" fill="currentColor" viewBox="0 0 24 24">
  <path d="M18 13.207V10.02a6.023 6.023 0 0 0-1.42-3.88A5.996 5.996 0 0 0 13 4.096V3.002A1.004 1.004 0 0 0 12 2a.999.999 0 0 0-1 1.002v1.093a5.997 5.997 0 0 0-3.58 2.046A6.024 6.024 0 0 0 6 10.02v3.188a3 3 0 0 0-2 2.826v2.005a1.004 1.004 0 0 0 1 1.003h3.14c.23.85.733 1.6 1.43 2.134a3.994 3.994 0 0 0 6.29-2.134H19a.999.999 0 0 0 1-1.003v-2.005a3.012 3.012 0 0 0-2-2.826ZM8 10.02c0-1.064.421-2.084 1.172-2.836a3.995 3.995 0 0 1 5.656 0A4.015 4.015 0 0 1 16 10.02v3.007H8V10.02Zm4 10.024a1.996 1.996 0 0 1-1.72-1.002h3.44A2.003 2.003 0 0 1 12 20.044Zm6-3.007H6v-1.003a1.004 1.004 0 0 1 1-1.002h10a.999.999 0 0 1 1 1.002v1.003Z"/>
</svg>
