<svg width="24" height="24" viewBox="0 0 24 24" fill="none" xmlns="http://www.w3.org/2000/svg">
    <path d="M15.2873 14.0036L12.9992 16.0161V5.87499C12.9992 5.64293 12.8939 5.42037 12.7065 5.25628C12.5191 5.09219 12.265 5 12 5C11.735 5 11.4809 5.09219 11.2935 5.25628C11.1061 5.42037 11.0008 5.64293 11.0008 5.87499V16.0161L8.71269 14.0036C8.52454 13.8389 8.26935 13.7463 8.00327 13.7463C7.73719 13.7463 7.482 13.8389 7.29385 14.0036C7.1057 14.1684 7 14.3918 7 14.6249C7 14.8579 7.1057 15.0813 7.29385 15.2461L11.2906 18.746C11.3856 18.8257 11.4977 18.8882 11.6203 18.9298C11.7399 18.9761 11.8692 19 12 19C12.1308 19 12.2601 18.9761 12.3797 18.9298C12.5023 18.8882 12.6144 18.8257 12.7094 18.746L16.7061 15.2461C16.8943 15.0813 17 14.8579 17 14.6249C17 14.3918 16.8943 14.1684 16.7061 14.0036C16.613 13.922 16.5024 13.8573 16.3807 13.8132C16.2589 13.769 16.1285 13.7463 15.9967 13.7463C15.7306 13.7463 15.4755 13.8389 15.2873 14.0036Z"
          fill="currentColor"/>
</svg>
