<svg width="24" height="24" viewBox="0 0 24 24" fill="none" xmlns="http://www.w3.org/2000/svg">
    <path d="M10.348 8.948C10.509 8.598 10.6 8.213 10.6 7.8C10.6 6.253 9.347 5 7.8 5C6.253 5 5 6.253 5 7.8C5 9.347 6.253 10.6 7.8 10.6C8.213 10.6 8.598 10.509 8.948 10.348L10.6 12L8.948 13.652C8.598 13.491 8.213 13.4 7.8 13.4C6.253 13.4 5 14.653 5 16.2C5 17.747 6.253 19 7.8 19C9.347 19 10.6 17.747 10.6 16.2C10.6 15.787 10.509 15.402 10.348 15.052L12 13.4L16.6071 18.0071C16.7946 18.1946 17.049 18.3 17.3142 18.3H18.505C18.7784 18.3 19 18.0784 19 17.805C19 17.6737 18.9479 17.5479 18.855 17.455L10.348 8.948ZM7.8 9.2C7.03 9.2 6.4 8.577 6.4 7.8C6.4 7.023 7.03 6.4 7.8 6.4C8.57 6.4 9.2 7.023 9.2 7.8C9.2 8.577 8.57 9.2 7.8 9.2ZM7.8 17.6C7.03 17.6 6.4 16.977 6.4 16.2C6.4 15.423 7.03 14.8 7.8 14.8C8.57 14.8 9.2 15.423 9.2 16.2C9.2 16.977 8.57 17.6 7.8 17.6ZM12 12.35C11.804 12.35 11.65 12.196 11.65 12C11.65 11.804 11.804 11.65 12 11.65C12.196 11.65 12.35 11.804 12.35 12C12.35 12.196 12.196 12.35 12 12.35ZM17.3142 5.7C17.049 5.7 16.7946 5.80536 16.6071 5.99289L13.4 9.2C13.0134 9.5866 13.0134 10.2134 13.4 10.6C13.7866 10.9866 14.4134 10.9866 14.8 10.6L18.855 6.54497C18.9479 6.45215 19 6.32625 19 6.19497C19 5.92161 18.7784 5.7 18.505 5.7H17.3142Z"
          fill="currentColor"/>
</svg>
