<svg xmlns="http://www.w3.org/2000/svg" width="24" height="24" fill="currentColor" viewBox="0 0 24 24">
  <path d="M19 6.991h-1.28l-.32-.997A3.006 3.006 0 0 0 14.56 4H9.44A3.006 3.006 0 0 0 6.6 6.044l-.32.997H5c-.796 0-1.559.315-2.121.876A2.987 2.987 0 0 0 2 10.032v7.977c0 .793.316 1.554.879 2.115a3.004 3.004 0 0 0 2.12.876h14c.796 0 1.56-.315 2.122-.876A2.987 2.987 0 0 0 22 18.009v-7.977a2.984 2.984 0 0 0-.861-2.147 3 3 0 0 0-2.14-.894Zm1 10.968a.995.995 0 0 1-1 .997H5a1.001 1.001 0 0 1-1-.997V9.982a.996.996 0 0 1 1-.997h2a1.002 1.002 0 0 0 1-.678l.54-1.635a.997.997 0 0 1 .95-.678h5.12a1.002 1.002 0 0 1 .95.678l.54 1.635a.997.997 0 0 0 .9.678h2a1.001 1.001 0 0 1 1 .997v7.977Zm-8-8.974a4 4 0 0 0-2.222.673 3.99 3.99 0 0 0-1.701 4.094 3.985 3.985 0 0 0 1.094 2.042 4.003 4.003 0 0 0 4.36.864 3.998 3.998 0 0 0 1.795-1.469 3.98 3.98 0 0 0-.498-5.036A4.006 4.006 0 0 0 12 8.986Zm0 5.983a2.004 2.004 0 0 1-1.848-1.231 1.988 1.988 0 0 1 .434-2.173A2.002 2.002 0 0 1 14 12.974c0 .528-.211 1.036-.586 1.41a2.003 2.003 0 0 1-1.414.584Z"/>
</svg>
