<svg width="24" height="24" viewBox="0 0 24 24" fill="none" xmlns="http://www.w3.org/2000/svg">
    <path d="M4 16.1667C4 16.6269 4.3731 17 4.83333 17H19.1667C19.6269 17 20 16.6269 20 16.1667C20 15.7064 19.6269 15.3333 19.1667 15.3333H4.83333C4.3731 15.3333 4 15.7064 4 16.1667ZM4 12C4 12.4602 4.3731 12.8333 4.83333 12.8333H19.1667C19.6269 12.8333 20 12.4602 20 12C20 11.5398 19.6269 11.1667 19.1667 11.1667H4.83333C4.3731 11.1667 4 11.5398 4 12ZM4.83333 7C4.3731 7 4 7.3731 4 7.83333C4 8.29357 4.3731 8.66667 4.83333 8.66667H19.1667C19.6269 8.66667 20 8.29357 20 7.83333C20 7.3731 19.6269 7 19.1667 7H4.83333Z"
          fill="currentColor"/>
</svg>
