<svg xmlns="http://www.w3.org/2000/svg" width="24" height="24" fill="currentColor" viewBox="0 0 24 24">
  <path d="M11.257 7.406a1.326 1.326 0 0 0-.432-.3 1.288 1.288 0 0 0-1.452.3l-3.98 4.12a1.355 1.355 0 0 0-.291.446 1.414 1.414 0 0 0 .29 1.503l3.98 4.119c.124.129.271.23.433.3a1.288 1.288 0 0 0 1.452-.3 1.414 1.414 0 0 0 0-1.95L8.205 12.5l3.052-3.144a1.414 1.414 0 0 0 0-1.95Zm4.246 5.094 3.105-3.144c.25-.259.39-.61.39-.975 0-.366-.14-.716-.39-.975a1.31 1.31 0 0 0-.942-.404 1.31 1.31 0 0 0-.942.404l-3.981 4.12a1.369 1.369 0 0 0-.29.446 1.413 1.413 0 0 0 .29 1.503l3.98 4.119c.124.129.27.23.432.3a1.288 1.288 0 0 0 1.453-.3 1.416 1.416 0 0 0 0-1.95L15.503 12.5Z"/>
</svg>
