<svg xmlns="http://www.w3.org/2000/svg" width="24" height="24" fill="currentColor" viewBox="0 0 24 24">
  <path d="M7.325 7.423A1.327 1.327 0 0 0 6.377 7a1.324 1.324 0 0 0-.959.395 1.42 1.42 0 0 0-.408.982c-.005.37.132.727.382.992l3.098 3.14-3.098 3.139a1.412 1.412 0 0 0 0 1.947 1.285 1.285 0 0 0 1.88 0l3.973-4.113c.124-.127.222-.28.29-.446a1.413 1.413 0 0 0-.29-1.5l-3.92-4.113Zm11.256 4.112-3.973-4.112a1.307 1.307 0 0 0-.94-.403c-.352 0-.69.145-.94.403s-.39.608-.39.973.14.715.39.973l3.046 3.14-3.046 3.139a1.372 1.372 0 0 0-.29.446 1.413 1.413 0 0 0 .29 1.5 1.285 1.285 0 0 0 1.88 0l3.973-4.112c.128-.124.23-.273.302-.438a1.413 1.413 0 0 0-.249-1.509h-.053Z"/>
</svg>
