<svg xmlns="http://www.w3.org/2000/svg" width="24" height="24" fill="currentColor" viewBox="0 0 24 24">
  <path d="M15.665 8.335a.988.988 0 0 0-1.403 0L12 10.607 9.738 8.335a.992.992 0 0 0-1.403 1.403L10.607 12l-2.272 2.262a.987.987 0 0 0 0 1.403.988.988 0 0 0 1.403 0L12 13.393l2.262 2.272a.988.988 0 0 0 1.403 0 .989.989 0 0 0 0-1.403L13.393 12l2.272-2.262a.988.988 0 0 0 0-1.403Zm3.32-3.32a9.878 9.878 0 1 0-13.97 13.97 9.878 9.878 0 1 0 13.97-13.97ZM17.59 17.592A7.903 7.903 0 1 1 19.903 12a7.854 7.854 0 0 1-2.312 5.591Z"/>
</svg>
