<svg xmlns="http://www.w3.org/2000/svg" width="24" height="24" fill="currentColor" viewBox="0 0 24 24">
  <path d="M21.94 8.67v-.09a1.07 1.07 0 0 0-.192-.28l-6.042-6a1.077 1.077 0 0 0-.281-.19h-.09a.9.9 0 0 0-.333-.11H8.91a3.03 3.03 0 0 0-2.136.879 2.99 2.99 0 0 0-.885 2.12v3.658H3.148C2.513 8.657 2 9.168 2 9.797v7.178c0 .63.514 1.14 1.148 1.14h2.74V19c0 .795.32 1.56.886 2.121A3.031 3.031 0 0 0 8.91 22h10.07c.8 0 1.57-.316 2.135-.879a2.99 2.99 0 0 0 .885-2.12V8.938a1.322 1.322 0 0 0-.06-.27v.002Zm-5.981-3.26L18.567 8h-1.601c-.267 0-.523-.105-.712-.293A.997.997 0 0 1 15.959 7V5.41ZM5.942 16.248a.578.578 0 0 1-.485.263H5.45a.572.572 0 0 1-.48-.889l1.417-2.117-1.364-2.053a.572.572 0 0 1 .481-.888h.002c.196 0 .38.1.485.265l1.103 1.717L8.18 10.83a.578.578 0 0 1 .488-.267h.008c.459 0 .734.507.481.888l-1.364 2.053 1.412 2.119a.572.572 0 0 1-.48.888c-.197 0-.38-.1-.486-.265l-1.145-1.784-1.152 1.786v-.001ZM19.986 19c0 .265-.106.52-.295.707a1.011 1.011 0 0 1-.712.293H8.91c-.266 0-.522-.106-.711-.293A.997.997 0 0 1 7.902 19v-.885h3.108c.634 0 1.148-.511 1.148-1.14V9.798c0-.63-.514-1.14-1.148-1.14H7.902V5.001A1.01 1.01 0 0 1 8.91 4h5.034v3c0 .796.319 1.56.885 2.121a3.03 3.03 0 0 0 2.136.88h3.02v9h.002Z"/>
</svg>
