<svg width="24" height="24" viewBox="0 0 24 24" fill="none" xmlns="http://www.w3.org/2000/svg">
    <path d="M17.25 18.5455H16.5V17.3331C16.4977 16.9169 16.4217 16.5042 16.2753 16.1129C16.2671 16.0916 16.2585 16.0718 16.2484 16.0514C16.1269 15.7303 15.9591 15.4275 15.75 15.152L14.7001 13.794C14.4088 13.4157 14.2509 12.9565 14.25 12.4844V11.75C14.2517 11.1717 14.4884 10.6175 14.9088 10.2074L15.4017 9.72937C15.9744 9.171 16.3423 8.4458 16.449 7.66509C16.4494 7.65497 16.455 7.64654 16.455 7.63633L16.4528 7.62634C16.4789 7.47149 16.4947 7.31517 16.5 7.15835V5.45455H17.25C17.4489 5.45455 17.6397 5.37792 17.7803 5.24153C17.921 5.10514 18 4.92016 18 4.72727C18 4.53439 17.921 4.3494 17.7803 4.21301C17.6397 4.07662 17.4489 4 17.25 4H6.75001C6.55109 4 6.36033 4.07662 6.21968 4.21301C6.07903 4.3494 6.00001 4.53439 6.00001 4.72727C6.00001 4.92016 6.07903 5.10514 6.21968 5.24153C6.36033 5.37792 6.55109 5.45455 6.75001 5.45455H7.50001V7.15835C7.50533 7.31517 7.52108 7.47149 7.54716 7.62634L7.54504 7.63636C7.54504 7.64655 7.55062 7.65501 7.55104 7.66513C7.65766 8.44583 8.02556 9.17103 8.59827 9.7294L9.09119 10.2074C9.51156 10.6175 9.74827 11.1717 9.75 11.75V12.4844C9.74902 12.9564 9.59134 13.4156 9.30029 13.794L8.24963 15.152C8.04056 15.4276 7.87281 15.7305 7.75135 16.0517C7.74138 16.0719 7.73281 16.0915 7.72471 16.1126C7.57836 16.504 7.50235 16.9168 7.5 17.3331V18.5455H6.75C6.55109 18.5455 6.36032 18.6221 6.21967 18.7585C6.07902 18.8949 6 19.0798 6 19.2727C6 19.4656 6.07902 19.6506 6.21967 19.787C6.36032 19.9234 6.55109 20 6.75 20H17.25C17.4489 20 17.6397 19.9234 17.7803 19.787C17.921 19.6506 18 19.4656 18 19.2727C18 19.0798 17.921 18.8949 17.7803 18.7585C17.6397 18.6221 17.4489 18.5455 17.25 18.5455ZM9 6.90909V5.45455H15V6.90909H9ZM9.65881 8.701C9.55313 8.59804 9.45843 8.48502 9.37614 8.36364H14.6238C14.5416 8.48502 14.4469 8.59804 14.3412 8.701L13.8483 9.17898C13.2632 9.74295 12.8881 10.4795 12.7819 11.2727H11.2181C11.1119 10.4794 10.7368 9.74289 10.1517 9.17891L9.65881 8.701ZM10.5004 14.6662C10.9343 14.1023 11.1917 13.4292 11.2416 12.7273H12.7584C12.8083 13.4293 13.0658 14.1024 13.5 14.6662L14.2501 15.6364H9.74972L10.5004 14.6662ZM15 18.5455H9V17.3331C9.00209 17.2521 9.0089 17.1712 9.02041 17.0909H14.9796C14.9911 17.1712 14.9979 17.2521 15 17.3331V18.5455Z"
          fill="currentColor"/>
</svg>
