<svg width="24" height="24" viewBox="0 0 24 24" fill="none" xmlns="http://www.w3.org/2000/svg">
    <path d="M9.36934 8.56515L11.2018 6.72469V14.3986C11.2018 14.6108 11.2861 14.8144 11.4362 14.9644C11.5862 15.1145 11.7898 15.1988 12.002 15.1988C12.2142 15.1988 12.4178 15.1145 12.5678 14.9644C12.7179 14.8144 12.8022 14.6108 12.8022 14.3986V6.72469L14.6347 8.56515C14.709 8.64015 14.7975 8.69968 14.8951 8.74031C14.9926 8.78093 15.0972 8.80185 15.2028 8.80185C15.3084 8.80185 15.413 8.78093 15.5105 8.74031C15.608 8.69968 15.6965 8.64015 15.7709 8.56515C15.8459 8.49076 15.9055 8.40226 15.9461 8.30475C15.9867 8.20723 16.0076 8.10264 16.0076 7.99701C16.0076 7.89137 15.9867 7.78678 15.9461 7.68927C15.9055 7.59176 15.8459 7.50325 15.7709 7.42887L12.5701 4.22807C12.494 4.15522 12.4043 4.09811 12.3061 4.06003C12.1113 3.97999 11.8927 3.97999 11.6979 4.06003C11.5997 4.09811 11.51 4.15522 11.4339 4.22807L8.23305 7.42887C8.15845 7.50348 8.09926 7.59205 8.05888 7.68953C8.01851 7.78701 7.99772 7.89149 7.99772 7.99701C7.99772 8.10252 8.01851 8.207 8.05888 8.30448C8.09926 8.40197 8.15845 8.49054 8.23305 8.56515C8.30766 8.63976 8.39624 8.69894 8.49372 8.73932C8.5912 8.7797 8.69568 8.80048 8.8012 8.80048C8.90671 8.80048 9.01119 8.7797 9.10867 8.73932C9.20615 8.69894 9.29473 8.63976 9.36934 8.56515ZM19.2038 11.998C18.9916 11.998 18.788 12.0823 18.638 12.2324C18.4879 12.3824 18.4036 12.586 18.4036 12.7982V17.5994C18.4036 17.8116 18.3193 18.0152 18.1692 18.1652C18.0191 18.3153 17.8156 18.3996 17.6034 18.3996H6.4006C6.18837 18.3996 5.98484 18.3153 5.83477 18.1652C5.68471 18.0152 5.6004 17.8116 5.6004 17.5994V12.7982C5.6004 12.586 5.51609 12.3824 5.36603 12.2324C5.21596 12.0823 5.01243 11.998 4.8002 11.998C4.58797 11.998 4.38444 12.0823 4.23437 12.2324C4.08431 12.3824 4 12.586 4 12.7982V17.5994C4 18.2361 4.25292 18.8467 4.70312 19.2969C5.15332 19.7471 5.76392 20 6.4006 20H17.6034C18.2401 20 18.8507 19.7471 19.3009 19.2969C19.7511 18.8467 20.004 18.2361 20.004 17.5994V12.7982C20.004 12.586 19.9197 12.3824 19.7696 12.2324C19.6195 12.0823 19.416 11.998 19.2038 11.998Z"
          fill="currentColor"/>
</svg>
