<svg width="24" height="24" viewBox="0 0 24 24" fill="none" xmlns="http://www.w3.org/2000/svg">
    <path d="M14.7159 11.3257L10.6433 7.28209C10.554 7.19271 10.4477 7.12176 10.3307 7.07334C10.2136 7.02493 10.0881 7 9.96129 7C9.83448 7 9.70894 7.02493 9.59189 7.07334C9.47484 7.12176 9.36861 7.19271 9.27931 7.28209C9.10041 7.46078 9 7.70248 9 7.95443C9 8.20638 9.10041 8.44809 9.27931 8.62677L12.6796 12.0028L9.27931 15.3787C9.10041 15.5574 9 15.7991 9 16.0511C9 16.303 9.10041 16.5447 9.27931 16.7234C9.36906 16.8118 9.47551 16.8817 9.59253 16.9292C9.70956 16.9767 9.83487 17.0007 9.96129 17C10.0877 17.0007 10.213 16.9767 10.33 16.9292C10.4471 16.8817 10.5535 16.8118 10.6433 16.7234L14.7159 12.6799C14.8059 12.5912 14.8774 12.4857 14.9261 12.3695C14.9749 12.2533 15 12.1287 15 12.0028C15 11.8769 14.9749 11.7522 14.9261 11.636C14.8774 11.5198 14.8059 11.4143 14.7159 11.3257Z"
          fill="currentColor"/>
</svg>
