<svg width="24" height="24" viewBox="0 0 24 24" fill="none" xmlns="http://www.w3.org/2000/svg">
    <path d="M 9.4492188 3.5 C 8.7729214 3.5 8.1247042 3.7678625 7.6464844 4.2460938 C 7.1682645 4.7243136 6.9003906 5.3744801 6.9003906 6.0507812 L 6.9003906 10.5 L 4.5839844 10.5 C 3.9856738 10.5 3.5 10.788157 3.5 11.142578 L 3.5 17.558594 C 3.5 17.913 3.9856738 18.199219 4.5839844 18.199219 L 6.9121094 18.199219 C 6.9696716 18.783719 7.2275502 19.335006 7.6464844 19.753906 C 8.1247042 20.232107 8.7729214 20.5 9.4492188 20.5 L 17.949219 20.5 C 18.62552 20.5 19.275709 20.232122 19.753906 19.753906 C 20.232107 19.275709 20.5 18.62552 20.5 17.949219 L 20.5 9.4492188 L 20.5 9.3984375 C 20.490929 9.3203525 20.474126 9.2444164 20.449219 9.1699219 L 20.449219 9.09375 C 20.408324 9.0063673 20.353213 8.9257302 20.287109 8.8554688 L 15.1875 3.7558594 C 15.117201 3.6897554 15.036601 3.6346067 14.949219 3.59375 L 14.873047 3.59375 C 14.786647 3.5442382 14.690594 3.5122079 14.591797 3.5 L 9.4492188 3.5 z M 9.4492188 5.1992188 L 13.699219 5.1992188 L 13.699219 7.75 C 13.699219 8.4263011 13.96908 9.0745108 14.447266 9.5527344 C 14.925467 10.030966 15.573699 10.300781 16.25 10.300781 L 18.800781 10.300781 L 18.800781 17.949219 C 18.800781 18.174607 18.710202 18.391399 18.550781 18.550781 C 18.391383 18.710164 18.17463 18.800781 17.949219 18.800781 L 9.4492188 18.800781 C 9.2237888 18.800781 9.0090298 18.710202 8.8496094 18.550781 C 8.7506991 18.451871 8.6771218 18.33052 8.6367188 18.199219 L 15.416016 18.199219 C 16.014315 18.199219 16.5 17.913 16.5 17.558594 L 16.5 11.142578 C 16.5 10.788157 16.014315 10.5 15.416016 10.5 L 8.5996094 10.5 L 8.5996094 6.0507812 C 8.5996094 5.8253514 8.6901889 5.6086391 8.8496094 5.4492188 C 9.0090185 5.2897983 9.2237699 5.1992188 9.4492188 5.1992188 z M 15.400391 6.3984375 L 17.601562 8.5996094 L 16.25 8.5996094 C 16.024589 8.5996094 15.807838 8.510983 15.648438 8.3515625 C 15.488941 8.192142 15.400391 7.9754299 15.400391 7.75 L 15.400391 6.3984375 z M 5.1855469 12.539062 L 6.8574219 12.539062 C 6.8959353 12.539062 6.9475424 12.541055 7.0117188 12.544922 C 7.0777091 12.546725 7.136174 12.553051 7.1875 12.5625 C 7.423985 12.599161 7.6172474 12.677782 7.7675781 12.796875 C 7.9197419 12.916081 8.032007 13.064688 8.1035156 13.246094 C 8.1750243 13.42581 8.2109375 13.627808 8.2109375 13.849609 C 8.2109375 14.071392 8.1748853 14.273578 8.1015625 14.455078 C 8.0300538 14.634795 7.9177888 14.783126 7.765625 14.902344 C 7.6153132 15.021437 7.4221595 15.10002 7.1875 15.136719 C 7.136174 15.1439 7.0777469 15.148564 7.0117188 15.152344 C 6.9457282 15.15604 6.8941211 15.158203 6.8574219 15.158203 L 5.9335938 15.158203 L 5.9335938 16.5 L 5.1855469 16.5 L 5.1855469 12.539062 z M 8.7636719 12.539062 L 10.044922 12.539062 C 10.076292 12.539062 10.139156 12.541071 10.236328 12.542969 C 10.3335 12.544768 10.427777 12.551539 10.517578 12.5625 C 10.83657 12.601013 11.106225 12.711224 11.328125 12.894531 C 11.549908 13.077914 11.718486 13.311351 11.833984 13.59375 C 11.949487 13.876043 12.007812 14.18403 12.007812 14.519531 C 12.007812 14.85504 11.949487 15.164867 11.833984 15.447266 C 11.718482 15.729559 11.549942 15.96113 11.328125 16.144531 C 11.106229 16.327838 10.836578 16.440002 10.517578 16.478516 C 10.427777 16.489476 10.3335 16.496157 10.236328 16.498047 C 10.139156 16.499948 10.076065 16.5 10.044922 16.5 L 8.7636719 16.5 L 8.7636719 12.539062 z M 12.667969 12.539062 L 15.087891 12.539062 L 15.087891 13.287109 L 13.416016 13.287109 L 13.416016 14.146484 L 14.757812 14.146484 L 14.757812 14.894531 L 13.416016 14.894531 L 13.416016 16.5 L 12.667969 16.5 L 12.667969 12.539062 z M 5.9335938 13.238281 L 5.9335938 14.458984 L 6.8242188 14.458984 C 6.8627319 14.458984 6.9053262 14.456995 6.9511719 14.453125 C 6.9970175 14.449425 7.0396116 14.442601 7.078125 14.431641 C 7.1789628 14.40405 7.255517 14.359136 7.3105469 14.294922 C 7.365539 14.228931 7.4036832 14.155051 7.4238281 14.076172 C 7.4457494 13.995555 7.4570312 13.921118 7.4570312 13.849609 C 7.4570312 13.778101 7.4457494 13.70185 7.4238281 13.623047 C 7.4037966 13.542354 7.365539 13.470426 7.3105469 13.40625 C 7.2555547 13.340335 7.1789628 13.29314 7.078125 13.265625 C 7.0396116 13.254664 6.9970175 13.24792 6.9511719 13.244141 C 6.9053262 13.24044 6.8627319 13.238281 6.8242188 13.238281 L 5.9335938 13.238281 z M 9.5214844 13.244141 L 9.5214844 15.796875 L 10.044922 15.796875 C 10.094434 15.796875 10.159782 15.794772 10.244141 15.792969 C 10.328462 15.789269 10.404852 15.780429 10.472656 15.767578 C 10.645041 15.732806 10.786331 15.651891 10.894531 15.525391 C 11.004516 15.39889 11.085317 15.248109 11.136719 15.070312 C 11.189821 14.892526 11.216797 14.708322 11.216797 14.519531 C 11.216797 14.321522 11.187729 14.134828 11.132812 13.957031 C 11.079712 13.779129 10.998656 13.628754 10.888672 13.505859 C 10.77865 13.383063 10.639538 13.30448 10.472656 13.271484 C 10.404814 13.256744 10.330415 13.247984 10.246094 13.246094 C 10.161772 13.244295 10.094434 13.244141 10.044922 13.244141 L 9.5214844 13.244141 z "
          fill="currentColor" />
</svg>
