<svg width="24" height="24" viewBox="0 0 24 24" fill="none" xmlns="http://www.w3.org/2000/svg">
  <path fill="currentColor"
        d="M 7.7148438 4 C 6.7680637 4 6 4.8315719 6 5.8574219 L 6 19.070312 C 6 19.793812 6.7295413 20.239734 7.3007812 19.865234 L 12 16.783203 L 16.699219 19.865234 C 17.270519 20.239734 18 19.793813 18 19.070312 L 18 5.8574219 C 18 4.8315719 17.231956 4 16.285156 4 L 7.7148438 4 z M 7.7148438 5.578125 L 16.285156 5.578125 C 16.427156 5.578125 16.542969 5.7035419 16.542969 5.8574219 L 16.542969 17.587891 C 16.542969 17.732591 16.397403 17.820994 16.283203 17.746094 L 12 14.9375 L 7.7167969 17.746094 C 7.6025469 17.820994 7.4570312 17.732591 7.4570312 17.587891 L 7.4570312 5.8574219 C 7.4570312 5.7035419 7.5728237 5.578125 7.7148438 5.578125 z " />
</svg>
