<svg width="24" height="24" viewBox="0 0 24 24" fill="none" xmlns="http://www.w3.org/2000/svg">
    <path d="M18.9668 10.112C18.8511 8.95031 18.4259 7.83727 17.7325 6.88133C17.0391 5.92539 16.1011 5.15911 15.0099 4.65712C13.9187 4.15513 12.7114 3.93454 11.5057 4.01682C10.2999 4.0991 9.13682 4.48145 8.12958 5.12665C7.26425 5.68533 6.53781 6.42213 6.00245 7.28412C5.46709 8.1461 5.13609 9.11187 5.03324 10.112C4.93235 11.1057 5.0618 12.1085 5.41219 13.0478C5.76258 13.9872 6.32514 14.8394 7.05904 15.5427L11.4236 19.7648C11.5001 19.8393 11.5912 19.8985 11.6915 19.9389C11.7919 19.9792 11.8995 20 12.0082 20C12.1169 20 12.2246 19.9792 12.3249 19.9389C12.4253 19.8985 12.5164 19.8393 12.5929 19.7648L16.941 15.5427C17.6749 14.8394 18.2374 13.9872 18.5878 13.0478C18.9382 12.1085 19.0676 11.1057 18.9668 10.112ZM15.7881 14.4216L12 18.0792L8.21193 14.4216C7.65367 13.8825 7.22604 13.2308 6.95978 12.5131C6.69352 11.7955 6.59523 11.0298 6.672 10.2711C6.74926 9.50068 7.00285 8.7565 7.41443 8.09232C7.82602 7.42814 8.38532 6.86057 9.05189 6.43064C9.92557 5.87027 10.9511 5.57135 12 5.57135C13.0489 5.57135 14.0744 5.87027 14.9481 6.43064C15.6127 6.85891 16.1707 7.42397 16.5822 8.08524C16.9937 8.74651 17.2484 9.48756 17.328 10.2552C17.4073 11.0164 17.3102 11.7852 17.0439 12.5058C16.7776 13.2264 16.3486 13.8808 15.7881 14.4216ZM12 7.22576C11.2671 7.22576 10.5506 7.43561 9.94121 7.82877C9.33181 8.22193 8.85684 8.78074 8.57636 9.43455C8.29588 10.0883 8.2225 10.8078 8.36548 11.5018C8.50847 12.1959 8.86141 12.8335 9.37966 13.3339C9.89791 13.8343 10.5582 14.175 11.277 14.3131C11.9959 14.4512 12.741 14.3803 13.4181 14.1095C14.0953 13.8387 14.674 13.3801 15.0812 12.7917C15.4884 12.2032 15.7057 11.5115 15.7057 10.8038C15.7035 9.85549 15.3124 8.94662 14.6179 8.27607C13.9235 7.60551 12.9822 7.22786 12 7.22576ZM12 12.7916C11.5928 12.7916 11.1948 12.675 10.8562 12.4566C10.5177 12.2382 10.2538 11.9277 10.098 11.5645C9.94216 11.2013 9.90139 10.8016 9.98082 10.416C10.0603 10.0304 10.2563 9.67621 10.5443 9.39822C10.8322 9.12022 11.199 8.9309 11.5984 8.8542C11.9977 8.7775 12.4117 8.81686 12.7878 8.96731C13.164 9.11777 13.4856 9.37255 13.7118 9.69944C13.938 10.0263 14.0587 10.4107 14.0587 10.8038C14.0587 11.331 13.8418 11.8366 13.4557 12.2094C13.0697 12.5822 12.546 12.7916 12 12.7916Z"
          fill="currentColor"/>
</svg>
