<svg xmlns="http://www.w3.org/2000/svg" width="24" height="24" fill="currentColor" viewBox="0 0 24 24">
  <path d="M4.663 12.84a.424.424 0 0 0-.22-.13.595.595 0 0 0-.12-.021 1.658 1.658 0 0 0-.12-.006H3.36v1.155h.842c.037 0 .076-.002.12-.005a.605.605 0 0 0 .12-.021.429.429 0 0 0 .221-.131.52.52 0 0 0 .108-.206.837.837 0 0 0 .03-.214c0-.067-.01-.14-.03-.215a.525.525 0 0 0-.108-.205Zm3.38.095a.694.694 0 0 0-.393-.22 1.153 1.153 0 0 0-.216-.024l-.19-.002h-.493v2.413h.494l.19-.004c.08-.003.151-.01.215-.023a.693.693 0 0 0 .4-.229c.103-.12.179-.263.228-.43.05-.169.075-.342.075-.52 0-.188-.026-.366-.077-.534a1.116 1.116 0 0 0-.233-.426Z"/>
  <path d="M22.26 8.973v-.091a1.086 1.086 0 0 0-.194-.284l-6.09-6.09a1.086 1.086 0 0 0-.284-.194H15.6a.903.903 0 0 0-.336-.112h-6.14A3.043 3.043 0 0 0 6.08 5.247V8.96H2.037c-.64 0-1.157.519-1.157 1.157v7.286c0 .639.518 1.156 1.157 1.156H6.08v.899a3.043 3.043 0 0 0 3.045 3.045h10.15a3.043 3.043 0 0 0 3.045-3.045V9.246a1.346 1.346 0 0 0-.06-.275v.002Zm-6.03-3.309 2.63 2.629h-1.614a1.016 1.016 0 0 1-1.016-1.015V5.664ZM5.411 13.831c-.069.17-.174.313-.317.425a1.158 1.158 0 0 1-.547.22 3.266 3.266 0 0 1-.312.022h-.874v1.27h-.707v-3.745h1.581c.037 0 .086.002.147.004.062.003.117.008.165.017.223.034.407.108.55.22.143.114.248.255.316.426.067.17.101.36.101.57 0 .21-.034.4-.102.57v.001Zm2.016 1.933-.182.002H6.033v-3.744h1.212l.182.003c.092.001.18.008.265.018.301.036.557.142.767.315.21.173.369.393.478.66.11.267.164.559.164.876 0 .316-.054.61-.164.876a1.65 1.65 0 0 1-.478.66c-.21.173-.466.278-.767.314-.085.01-.174.017-.265.018v.002Zm12.863 3.694a1.016 1.016 0 0 1-1.015 1.015H9.125a1.016 1.016 0 0 1-1.016-1.015v-.899h4.413c.64 0 1.157-.518 1.157-1.157v-7.285c0-.64-.518-1.157-1.157-1.157H8.11V5.248a1.016 1.016 0 0 1 1.016-1.015H14.2v3.045a3.043 3.043 0 0 0 3.045 3.044h3.044v9.136h.001Zm-8.588-5.917v.707h-1.27v1.518h-.707v-3.744h2.289v.708h-1.581v.81H11.7Z"/>
</svg>
