<svg width="24" height="24" viewBox="0 0 24 24" fill="none" xmlns="http://www.w3.org/2000/svg">
    <path d="M18.4151 8.944V4.8C18.4151 4.58783 18.3306 4.38434 18.1802 4.23431C18.0298 4.08429 17.8259 4 17.6132 4C17.4005 4 17.1966 4.08429 17.0462 4.23431C16.8958 4.38434 16.8113 4.58783 16.8113 4.8V8.944C16.3469 9.11216 15.9456 9.4189 15.6621 9.82253C15.3785 10.2262 15.2264 10.7071 15.2264 11.2C15.2264 11.6929 15.3785 12.1738 15.6621 12.5775C15.9456 12.9811 16.3469 13.2878 16.8113 13.456V19.2C16.8113 19.4122 16.8958 19.6157 17.0462 19.7657C17.1966 19.9157 17.4005 20 17.6132 20C17.8259 20 18.0298 19.9157 18.1802 19.7657C18.3306 19.6157 18.4151 19.4122 18.4151 19.2V13.456C18.8795 13.2878 19.2808 12.9811 19.5643 12.5775C19.8479 12.1738 20 11.6929 20 11.2C20 10.7071 19.8479 10.2262 19.5643 9.82253C19.2808 9.4189 18.8795 9.11216 18.4151 8.944ZM17.6132 12C17.4546 12 17.2996 11.9531 17.1677 11.8652C17.0358 11.7773 16.9331 11.6523 16.8724 11.5061C16.8117 11.36 16.7958 11.1991 16.8267 11.0439C16.8577 10.8887 16.934 10.7462 17.0462 10.6343C17.1583 10.5224 17.3012 10.4462 17.4568 10.4154C17.6123 10.3845 17.7735 10.4003 17.9201 10.4609C18.0666 10.5214 18.1918 10.624 18.2799 10.7555C18.3681 10.8871 18.4151 11.0418 18.4151 11.2C18.4151 11.4122 18.3306 11.6157 18.1802 11.7657C18.0298 11.9157 17.8259 12 17.6132 12ZM12.8019 13.744V4.8C12.8019 4.58783 12.7174 4.38434 12.567 4.23431C12.4166 4.08429 12.2127 4 12 4C11.7873 4 11.5834 4.08429 11.433 4.23431C11.2826 4.38434 11.1981 4.58783 11.1981 4.8V13.744C10.7337 13.9122 10.3324 14.2189 10.0489 14.6225C9.76532 15.0262 9.6132 15.5071 9.6132 16C9.6132 16.4929 9.76532 16.9738 10.0489 17.3775C10.3324 17.7811 10.7337 18.0878 11.1981 18.256V19.2C11.1981 19.4122 11.2826 19.6157 11.433 19.7657C11.5834 19.9157 11.7873 20 12 20C12.2127 20 12.4166 19.9157 12.567 19.7657C12.7174 19.6157 12.8019 19.4122 12.8019 19.2V18.256C13.2663 18.0878 13.6676 17.7811 13.9511 17.3775C14.2347 16.9738 14.3868 16.4929 14.3868 16C14.3868 15.5071 14.2347 15.0262 13.9511 14.6225C13.6676 14.2189 13.2663 13.9122 12.8019 13.744ZM12 16.8C11.8414 16.8 11.6864 16.7531 11.5545 16.6652C11.4226 16.5773 11.3198 16.4523 11.2592 16.3061C11.1985 16.16 11.1826 15.9991 11.2135 15.8439C11.2445 15.6887 11.3208 15.5462 11.433 15.4343C11.5451 15.3224 11.688 15.2462 11.8436 15.2154C11.9991 15.1845 12.1603 15.2003 12.3069 15.2609C12.4534 15.3214 12.5786 15.424 12.6667 15.5555C12.7549 15.6871 12.8019 15.8418 12.8019 16C12.8019 16.2122 12.7174 16.4157 12.567 16.5657C12.4166 16.7157 12.2127 16.8 12 16.8ZM7.18868 7.344V4.8C7.18868 4.58783 7.1042 4.38434 6.95381 4.23431C6.80343 4.08429 6.59947 4 6.3868 4C6.17412 4 5.97016 4.08429 5.81978 4.23431C5.66939 4.38434 5.58491 4.58783 5.58491 4.8V7.344C5.1205 7.51216 4.71924 7.8189 4.43568 8.22253C4.15212 8.62616 4 9.1071 4 9.6C4 10.0929 4.15212 10.5738 4.43568 10.9775C4.71924 11.3811 5.1205 11.6878 5.58491 11.856V19.2C5.58491 19.4122 5.66939 19.6157 5.81978 19.7657C5.97016 19.9157 6.17412 20 6.3868 20C6.59947 20 6.80343 19.9157 6.95381 19.7657C7.1042 19.6157 7.18868 19.4122 7.18868 19.2V11.856C7.6531 11.6878 8.05435 11.3811 8.33791 10.9775C8.62147 10.5738 8.77359 10.0929 8.77359 9.6C8.77359 9.1071 8.62147 8.62616 8.33791 8.22253C8.05435 7.8189 7.6531 7.51216 7.18868 7.344ZM6.3868 10.4C6.2282 10.4 6.07316 10.3531 5.94129 10.2652C5.80942 10.1773 5.70664 10.0523 5.64595 9.90615C5.58526 9.75997 5.56938 9.59911 5.60032 9.44393C5.63126 9.28874 5.70763 9.1462 5.81978 9.03431C5.93192 8.92243 6.07481 8.84624 6.23036 8.81537C6.38591 8.7845 6.54714 8.80035 6.69366 8.8609C6.84019 8.92145 6.96543 9.02398 7.05354 9.15554C7.14165 9.2871 7.18868 9.44177 7.18868 9.6C7.18868 9.81217 7.1042 10.0157 6.95381 10.1657C6.80343 10.3157 6.59947 10.4 6.3868 10.4Z"
          fill="currentColor"/>
</svg>
