<svg xmlns="http://www.w3.org/2000/svg" width="24" height="24" fill="currentColor" viewBox="0 0 24 24">
  <path d="M21.624 2.975a.908.908 0 0 0-.647-.647 10.216 10.216 0 0 0-10.368 3.29L9.597 6.819l-2.365-.57A2.522 2.522 0 0 0 4.157 7.48L2.16 11.022a.908.908 0 0 0 .6 1.334l2.79.598c-.236.72-.405 1.46-.504 2.21a.908.908 0 0 0 .259.76l2.814 2.814A.906.906 0 0 0 8.84 19a11.047 11.047 0 0 0 2.262-.444l.585 2.726a.91.91 0 0 0 1.334.601l3.545-2a2.756 2.756 0 0 0 1.249-3l-.608-2.504 1.124-1.033a10.173 10.173 0 0 0 3.293-10.37ZM4.347 10.84 5.76 8.333a.75.75 0 0 1 .972-.34l1.559.377-.59.701c-.56.67-1.044 1.4-1.443 2.177l-1.91-.409Zm11.322 7.465-2.465 1.39-.39-1.82c.79-.394 1.527-.888 2.19-1.47l.676-.62.366 1.51a.945.945 0 0 1-.377 1.01Zm1.466-6.324-3.345 3.075a8.874 8.874 0 0 1-4.695 2.092l-2.182-2.183a9.925 9.925 0 0 1 2.18-4.727l1.523-1.81a.88.88 0 0 0 .071-.083l1.303-1.547a8.423 8.423 0 0 1 7.998-2.833 8.37 8.37 0 0 1-2.853 8.016Zm-.838-5.596a1.362 1.362 0 1 0 0 2.724 1.362 1.362 0 0 0 0-2.724Z"/>
</svg>
