<svg xmlns="http://www.w3.org/2000/svg" width="24" height="24" fill="currentColor" viewBox="0 0 24 24">
  <path d="M19.875 20H4.125a1.2 1.2 0 0 0-.795.293A.947.947 0 0 0 3 21c0 .265.119.52.33.707a1.2 1.2 0 0 0 .795.293h15.75a1.2 1.2 0 0 0 .796-.293A.947.947 0 0 0 21 21a.947.947 0 0 0-.33-.707 1.2 1.2 0 0 0-.795-.293Zm-8.674-2.29c.107.091.233.162.371.21a1.172 1.172 0 0 0 .856 0c.138-.048.264-.119.37-.21l4.5-4a.95.95 0 0 0 .332-.71.95.95 0 0 0-.331-.71 1.205 1.205 0 0 0-.799-.294c-.3 0-.587.106-.799.294l-2.576 2.3V3a.947.947 0 0 0-.33-.707A1.2 1.2 0 0 0 12 2a1.2 1.2 0 0 0-.796.293.947.947 0 0 0-.329.707v11.59l-2.576-2.3a1.15 1.15 0 0 0-.367-.218 1.255 1.255 0 0 0-.864 0 1.15 1.15 0 0 0-.367.218 1.004 1.004 0 0 0-.245.326.908.908 0 0 0 0 .768c.057.122.14.233.245.326l4.5 4Z"/>
</svg>
