<svg width="24" height="24" viewBox="0 0 24 24" fill="none" xmlns="http://www.w3.org/2000/svg">
    <path d="M11.2 15.2C11.2 14.7582 11.5582 14.4 12 14.4C12.4418 14.4 12.8 14.7582 12.8 15.2C12.8 15.6418 12.4418 16 12 16C11.5582 16 11.2 15.6418 11.2 15.2ZM11.2 8.8C11.2 8.35817 11.5582 8 12 8C12.4418 8 12.8 8.35817 12.8 8.8V12C12.8 12.4418 12.4418 12.8 12 12.8C11.5582 12.8 11.2 12.4418 11.2 12V8.8ZM11.992 4C7.576 4 4 7.584 4 12C4 16.416 7.576 20 11.992 20C16.416 20 20 16.416 20 12C20 7.584 16.416 4 11.992 4ZM12 18.4C8.464 18.4 5.6 15.536 5.6 12C5.6 8.464 8.464 5.6 12 5.6C15.536 5.6 18.4 8.464 18.4 12C18.4 15.536 15.536 18.4 12 18.4Z"
          fill="currentColor"/>
</svg>
