<svg width="24" height="24" viewBox="0 0 24 24" fill="none" xmlns="http://www.w3.org/2000/svg">
<path d="M16.0218 10.6047L16.8389 9.76649C17.4845 9.05852 17.8277 8.12269 17.8114 7.16246C17.795 6.19408 17.411 5.27453 16.7491 4.59097C16.079 3.90741 15.1801 3.51681 14.2403 3.50053C13.3005 3.48426 12.3853 3.84231 11.6989 4.50146L5.22679 11.1255C4.3524 12.1183 3.88661 13.4121 3.92747 14.7467C3.96832 16.0813 4.49949 17.3426 5.43108 18.2866C6.3545 19.2224 7.60479 19.7595 8.90411 19.7758C9.83569 19.792 10.7509 19.5316 11.5436 19.0596C12.4507 19.9466 13.6928 20.5 15.0657 20.5C17.8359 20.5 20.075 18.2622 20.075 15.5116C20.075 13.0785 18.3344 11.0604 16.0218 10.6128V10.6047ZM8.89593 18.132C8.02155 18.1075 7.18802 17.7332 6.56696 17.0985C5.94591 16.4637 5.58635 15.6093 5.56183 14.7142C5.53731 13.819 5.84784 12.9402 6.42804 12.2729L12.9001 5.64886C13.2842 5.27453 13.799 5.06295 14.3302 5.06295C14.8614 5.06295 15.3762 5.27453 15.7603 5.64886C16.1362 6.03947 16.3486 6.56841 16.3486 7.11363C16.3486 7.65885 16.1362 8.1878 15.7603 8.5784L13.6765 10.7105C11.9849 11.1987 10.661 12.5414 10.2198 14.2503L10.1871 14.291C10.1299 14.348 10.0645 14.4049 9.99096 14.4375C9.91741 14.47 9.83569 14.4944 9.75398 14.4944C9.67226 14.4944 9.59054 14.4863 9.51699 14.4538C9.44345 14.4212 9.3699 14.3805 9.3127 14.3236C9.25549 14.2666 9.20646 14.2015 9.17378 14.1201C9.14109 14.0469 9.12474 13.9655 9.11657 13.876C9.1084 13.7865 9.12474 13.7132 9.15743 13.6319C9.18195 13.5505 9.23098 13.4854 9.28001 13.4203L13.4313 9.18058C13.5866 9.02597 13.6683 8.81439 13.6683 8.59468C13.6683 8.37496 13.5866 8.16338 13.4313 8.00877C13.276 7.85415 13.0717 7.76464 12.8593 7.76464C12.6468 7.76464 12.4343 7.85415 12.2872 8.00877L8.13595 12.2647C7.93166 12.4763 7.76005 12.7286 7.65382 13.0053C7.53941 13.2819 7.48221 13.5749 7.48221 13.876C7.48221 14.1771 7.53941 14.47 7.65382 14.7467C7.76822 15.0234 7.93166 15.2757 8.13595 15.4872C8.56089 15.9023 9.12474 16.1301 9.70494 16.1301C9.83569 16.1301 9.96644 16.1138 10.0972 16.0894C10.1626 16.6672 10.3342 17.2205 10.5875 17.7169C10.0727 17.9936 9.50065 18.1401 8.90411 18.1238L8.89593 18.132ZM18.0565 14.885L15.5233 17.5949C15.4416 17.6844 15.3435 17.7414 15.2454 17.7902C14.9676 17.9285 14.6162 17.9041 14.3547 17.6925L12.4425 16.1057C12.0993 15.8209 12.0503 15.3082 12.3363 14.9664C12.6223 14.6246 13.1371 14.5758 13.4803 14.8606L14.8123 15.9673L16.8553 13.7865C17.1576 13.461 17.6806 13.4366 18.0075 13.7458C18.3344 14.0469 18.3589 14.5677 18.0484 14.8932L18.0565 14.885Z" fill="currentColor"/>
</svg>
