<svg xmlns="http://www.w3.org/2000/svg" width="24" height="24" fill="currentColor" viewBox="0 0 24 24">
  <path d="M16.616 3.3c-4.13-2.2-9.214-1.5-12.498 1.5V3c0-.6-.423-1-1.059-1C2.424 2 2 2.4 2 3v4.5c0 .6.424 1 1.06 1h4.765c.636 0 1.06-.4 1.06-1s-.424-1-1.06-1H5.283C6.766 4.9 8.99 4 11.427 4c4.66 0 8.473 3.6 8.473 8s-3.813 8-8.473 8c-.636 0-1.06.4-1.06 1s.424 1 1.06 1c3.812 0 7.308-1.9 9.214-5 2.86-4.8 1.06-10.9-4.025-13.7ZM11.321 8c-.636 0-1.06.4-1.06 1v3c0 .6.424 1 1.06 1h2.118c.635 0 1.059-.4 1.059-1s-.424-1-1.06-1H12.38V9c0-.6-.424-1-1.06-1Z"/>
</svg>
