<svg width="24" height="24" viewBox="0 0 24 24" fill="none" xmlns="http://www.w3.org/2000/svg">
    <path d="M17.7251 8.23151C17.6457 8.15815 17.5513 8.09993 17.4472 8.06019C17.3432 8.02046 17.2316 8 17.1189 8C17.0062 8 16.8946 8.02046 16.7905 8.06019C16.6865 8.09993 16.592 8.15815 16.5126 8.23151L10.1514 14.0701L7.47882 11.6126C7.3964 11.5396 7.29911 11.4822 7.1925 11.4437C7.08589 11.4052 6.97205 11.3863 6.85748 11.3881C6.74291 11.39 6.62985 11.4124 6.52476 11.4543C6.41967 11.4962 6.3246 11.5566 6.24499 11.6322C6.16538 11.7077 6.10278 11.7969 6.06077 11.8946C6.01875 11.9923 5.99815 12.0967 6.00013 12.2017C6.00211 12.3067 6.02664 12.4103 6.07232 12.5066C6.11799 12.603 6.18392 12.6901 6.26634 12.7631L9.54515 15.7685C9.62453 15.8418 9.71897 15.9001 9.82302 15.9398C9.92707 15.9795 10.0387 16 10.1514 16C10.2641 16 10.3757 15.9795 10.4798 15.9398C10.5838 15.9001 10.6783 15.8418 10.7576 15.7685L17.7251 9.38201C17.8118 9.30872 17.881 9.21977 17.9283 9.12077C17.9756 9.02176 18 8.91485 18 8.80676C18 8.69867 17.9756 8.59176 17.9283 8.49275C17.881 8.39375 17.8118 8.3048 17.7251 8.23151Z"
          fill="currentColor"/>
</svg>
