<svg width="24" height="24" viewBox="0 0 24 24" fill="none" xmlns="http://www.w3.org/2000/svg">
    <path d="M13.2632 10.2857C13.2632 9.81233 12.8794 9.42857 12.406 9.42857H4.85714C4.38376 9.42857 4 9.81233 4 10.2857C4 10.7591 4.38376 11.1429 4.85714 11.1429H12.406C12.8794 11.1429 13.2632 10.7591 13.2632 10.2857ZM13.2632 6.85714C13.2632 6.38376 12.8794 6 12.406 6H4.85714C4.38376 6 4 6.38376 4 6.85714C4 7.33053 4.38376 7.71429 4.85714 7.71429H12.406C12.8794 7.71429 13.2632 7.33053 13.2632 6.85714ZM16.6316 12.8571V10.2707C16.6316 9.80559 16.2546 9.42857 15.7895 9.42857C15.3244 9.42857 14.9474 9.80559 14.9474 10.2707V12.8571H12.4361C11.9627 12.8571 11.5789 13.2409 11.5789 13.7143C11.5789 14.1877 11.9627 14.5714 12.4361 14.5714H14.9474V17.1579C14.9474 17.623 15.3244 18 15.7895 18C16.2546 18 16.6316 17.623 16.6316 17.1579V14.5714H19.1429C19.6162 14.5714 20 14.1877 20 13.7143C20 13.2409 19.6162 12.8571 19.1429 12.8571H16.6316ZM4 13.7143C4 14.1877 4.38376 14.5714 4.85714 14.5714H9.03759C9.51098 14.5714 9.89474 14.1877 9.89474 13.7143C9.89474 13.2409 9.51098 12.8571 9.03759 12.8571H4.85714C4.38376 12.8571 4 13.2409 4 13.7143Z"
          fill="currentColor"/>
</svg>
