<svg width="24" height="24" viewBox="0 0 24 24" fill="none" xmlns="http://www.w3.org/2000/svg">
    <path d="M5.36817 15.5748C5.29209 15.499 5.20237 15.4395 5.10417 15.3998C4.90941 15.3165 4.69095 15.3165 4.49618 15.3998C4.39798 15.4395 4.30827 15.499 4.23218 15.5748C4.15935 15.6541 4.10226 15.7475 4.06419 15.8498C4.00292 16.0016 3.98618 16.1688 4.01608 16.3305C4.04598 16.4922 4.12118 16.641 4.23218 16.7581C4.30994 16.8318 4.39923 16.8909 4.49618 16.9331C4.59194 16.9772 4.69548 17 4.80018 17C4.90487 17 5.00841 16.9772 5.10417 16.9331C5.20112 16.8909 5.29041 16.8318 5.36817 16.7581C5.47918 16.641 5.55437 16.4922 5.58427 16.3305C5.61417 16.1688 5.59743 16.0016 5.53617 15.8498C5.49809 15.7475 5.441 15.6541 5.36817 15.5748ZM8.00014 8.66663H19.2C19.4122 8.66663 19.6157 8.57884 19.7657 8.42256C19.9157 8.26628 20 8.05433 20 7.83332C20 7.61231 19.9157 7.40035 19.7657 7.24407C19.6157 7.0878 19.4122 7 19.2 7H8.00014C7.78797 7 7.58449 7.0878 7.43446 7.24407C7.28443 7.40035 7.20015 7.61231 7.20015 7.83332C7.20015 8.05433 7.28443 8.26628 7.43446 8.42256C7.58449 8.57884 7.78797 8.66663 8.00014 8.66663ZM5.36817 11.4082C5.25567 11.2926 5.11282 11.2143 4.95763 11.1831C4.80244 11.152 4.64187 11.1694 4.49618 11.2333C4.39923 11.2755 4.30994 11.3346 4.23218 11.4082C4.15935 11.4875 4.10226 11.581 4.06419 11.6832C4.02186 11.783 4 11.8908 4 11.9999C4 12.109 4.02186 12.2168 4.06419 12.3166C4.1047 12.4175 4.16152 12.5106 4.23218 12.5916C4.30994 12.6652 4.39923 12.7244 4.49618 12.7666C4.59194 12.8106 4.69548 12.8334 4.80018 12.8334C4.90487 12.8334 5.00841 12.8106 5.10417 12.7666C5.20112 12.7244 5.29041 12.6652 5.36817 12.5916C5.43883 12.5106 5.49566 12.4175 5.53617 12.3166C5.57849 12.2168 5.60035 12.109 5.60035 11.9999C5.60035 11.8908 5.57849 11.783 5.53617 11.6832C5.49809 11.581 5.441 11.4875 5.36817 11.4082ZM19.2 11.1666H8.00014C7.78797 11.1666 7.58449 11.2544 7.43446 11.4107C7.28443 11.5669 7.20015 11.7789 7.20015 11.9999C7.20015 12.2209 7.28443 12.4329 7.43446 12.5891C7.58449 12.7454 7.78797 12.8332 8.00014 12.8332H19.2C19.4122 12.8332 19.6157 12.7454 19.7657 12.5891C19.9157 12.4329 20 12.2209 20 11.9999C20 11.7789 19.9157 11.5669 19.7657 11.4107C19.6157 11.2544 19.4122 11.1666 19.2 11.1666ZM5.36817 7.24166C5.29209 7.1658 5.20237 7.10633 5.10417 7.06667C4.95849 7.00285 4.79792 6.98542 4.64273 7.01656C4.48754 7.0477 4.34468 7.12603 4.23218 7.24166C4.16152 7.32266 4.1047 7.41567 4.06419 7.51666C4.02186 7.6164 4 7.72426 4 7.83332C4 7.94237 4.02186 8.05023 4.06419 8.14998C4.1047 8.25096 4.16152 8.34397 4.23218 8.42497C4.30994 8.49858 4.39923 8.55777 4.49618 8.59997C4.64187 8.66378 4.80244 8.68122 4.95763 8.65007C5.11282 8.61893 5.25567 8.5406 5.36817 8.42497C5.43883 8.34397 5.49566 8.25096 5.53617 8.14998C5.57849 8.05023 5.60035 7.94237 5.60035 7.83332C5.60035 7.72426 5.57849 7.6164 5.53617 7.51666C5.49566 7.41567 5.43883 7.32266 5.36817 7.24166ZM19.2 15.3332H8.00014C7.78797 15.3332 7.58449 15.421 7.43446 15.5772C7.28443 15.7335 7.20015 15.9455 7.20015 16.1665C7.20015 16.3875 7.28443 16.5995 7.43446 16.7557C7.58449 16.912 7.78797 16.9998 8.00014 16.9998H19.2C19.4122 16.9998 19.6157 16.912 19.7657 16.7557C19.9157 16.5995 20 16.3875 20 16.1665C20 15.9455 19.9157 15.7335 19.7657 15.5772C19.6157 15.421 19.4122 15.3332 19.2 15.3332Z"
          fill="currentColor"/>
</svg>
