<svg xmlns="http://www.w3.org/2000/svg" width="24" height="24" fill="none" viewBox="0 0 24 24">
  <path fill="currentColor" d="M16.483 10.95v-.01l.91-.936a4.222 4.222 0 0 0 1.084-2.91 4.244 4.244 0 0 0-1.184-2.875 4.006 4.006 0 0 0-2.796-1.218 3.99 3.99 0 0 0-2.833 1.118l-7.213 7.404a5.86 5.86 0 0 0-1.448 4.047 5.878 5.878 0 0 0 1.675 3.957A5.541 5.541 0 0 0 8.55 21.19a5.57 5.57 0 0 0 2.942-.8A5.593 5.593 0 0 0 15.417 22a5.577 5.577 0 0 0 1.066-11.05Zm-6.467 4.066-.037.045a.663.663 0 0 1-.747.182.67.67 0 0 1-.382-.372.856.856 0 0 1-.063-.274.553.553 0 0 1 .045-.273.763.763 0 0 1 .136-.236l4.627-4.739a.922.922 0 0 0 .265-.654.919.919 0 0 0-.902-.928.89.89 0 0 0-.638.273l-4.626 4.757c-.228.236-.42.518-.538.827-.127.31-.19.637-.19.974 0 .336.063.663.19.973.128.31.31.591.538.828a2.5 2.5 0 0 0 1.748.718c.146 0 .292-.018.437-.045a5.36 5.36 0 0 0 .547 1.819 3.718 3.718 0 0 1-1.877.455l-.009.009A3.785 3.785 0 0 1 5.945 18.2a4.012 4.012 0 0 1-.155-5.393l7.213-7.404a2.287 2.287 0 0 1 1.594-.654c.592 0 1.166.236 1.594.654a2.372 2.372 0 0 1 0 3.274l-2.323 2.383a5.578 5.578 0 0 0-3.853 3.957v-.002Zm8.03 2.767a.84.84 0 0 1-1.187 1.186l-1.38-1.378-1.378 1.377a.84.84 0 0 1-1.187-1.185l1.379-1.377-1.38-1.377a.84.84 0 0 1 1.187-1.186l1.38 1.377 1.379-1.377a.84.84 0 0 1 1.187 1.186l-1.379 1.377 1.38 1.377Z"/>
</svg>
