<svg xmlns="http://www.w3.org/2000/svg" width="24" height="24" fill="currentColor" viewBox="0 0 24 24">
  <path d="M7 14.667h3a.97.97 0 0 0 .707-.313A1.1 1.1 0 0 0 11 13.6a1.1 1.1 0 0 0-.293-.754.97.97 0 0 0-.707-.313H7a.97.97 0 0 0-.707.313A1.1 1.1 0 0 0 6 13.6c0 .283.105.554.293.754a.97.97 0 0 0 .707.313ZM19 4H5c-.796 0-1.559.337-2.121.937A3.311 3.311 0 0 0 2 7.2v9.6c0 .849.316 1.663.879 2.263.562.6 1.325.937 2.121.937h14c.796 0 1.559-.337 2.121-.937A3.31 3.31 0 0 0 22 16.8V7.2a3.31 3.31 0 0 0-.879-2.263A2.908 2.908 0 0 0 19 4Zm1 12.8a1.1 1.1 0 0 1-.293.754.97.97 0 0 1-.707.313H5a.97.97 0 0 1-.707-.313A1.104 1.104 0 0 1 4 16.8v-6.4h16v6.4Zm0-8.533H4V7.2a1.1 1.1 0 0 1 .293-.754A.97.97 0 0 1 5 6.133h14a.97.97 0 0 1 .707.313c.188.2.293.471.293.754v1.067Z"/>
</svg>
