<svg xmlns="http://www.w3.org/2000/svg" width="24" height="24" fill="currentColor" viewBox="0 0 24 24">
  <path d="M20.588 6.347a1.313 1.313 0 0 0-.417-.257 1.383 1.383 0 0 0-.985 0c-.156.06-.298.147-.417.257l-9.542 8.758-4.009-3.686a1.326 1.326 0 0 0-.43-.253 1.415 1.415 0 0 0-1 .015 1.32 1.32 0 0 0-.42.267 1.19 1.19 0 0 0-.277.394 1.111 1.111 0 0 0 .017.918c.069.145.168.275.292.385l4.918 4.508c.119.11.26.197.417.257a1.382 1.382 0 0 0 .985 0c.156-.06.297-.147.416-.257l10.452-9.58c.13-.11.233-.243.304-.392a1.09 1.09 0 0 0 0-.942 1.182 1.182 0 0 0-.304-.392Z"/>
</svg>
