<svg xmlns="http://www.w3.org/2000/svg" width="24" height="24" fill="currentColor" viewBox="0 0 24 24">
  <path d="M20.96 9.64a8.417 8.417 0 0 0-1.5-4.038 8.486 8.486 0 0 0-3.305-2.78 8.544 8.544 0 0 0-8.355.586 8.53 8.53 0 0 0-2.583 2.697A8.473 8.473 0 0 0 4.04 9.64a8.36 8.36 0 0 0 .46 3.67 8.402 8.402 0 0 0 2 3.118l5.3 5.278a1.001 1.001 0 0 0 1.42 0l5.28-5.278a8.402 8.402 0 0 0 2-3.118 8.36 8.36 0 0 0 .46-3.67Zm-3.86 5.387-4.6 4.572-4.6-4.572a6.445 6.445 0 0 1-1.52-2.386 6.414 6.414 0 0 1-.35-2.802 6.503 6.503 0 0 1 .902-2.724A6.55 6.55 0 0 1 8.92 5.038a6.498 6.498 0 0 1 9.144 2.069c.5.826.81 1.752.906 2.712a6.413 6.413 0 0 1-.345 2.813 6.445 6.445 0 0 1-1.525 2.395Zm-4.6-8.995c-.89 0-1.76.263-2.5.754a4.479 4.479 0 0 0-1.657 2.007 4.447 4.447 0 0 0 .975 4.874 4.526 4.526 0 0 0 4.904.97 4.495 4.495 0 0 0 2.02-1.647c.494-.736.758-1.6.758-2.485a4.469 4.469 0 0 0-1.321-3.16A4.524 4.524 0 0 0 12.5 6.032Zm0 6.957a2.51 2.51 0 0 1-1.389-.418 2.471 2.471 0 0 1-.379-3.823 2.505 2.505 0 0 1 2.725-.539 2.5 2.5 0 0 1 1.122.915 2.474 2.474 0 0 1-.311 3.138 2.508 2.508 0 0 1-1.768.727Z"/>
</svg>
