<svg width="24" height="24" viewBox="0 0 24 24" fill="none" xmlns="http://www.w3.org/2000/svg">
    <path d="M12.8 8.8C12.8 8.35817 12.4418 8 12 8C11.5582 8 11.2 8.35817 11.2 8.8V11.2H8.8C8.35817 11.2 8 11.5582 8 12C8 12.4418 8.35817 12.8 8.8 12.8H11.2V15.2C11.2 15.6418 11.5582 16 12 16C12.4418 16 12.8 15.6418 12.8 15.2V12.8H15.2C15.6418 12.8 16 12.4418 16 12C16 11.5582 15.6418 11.2 15.2 11.2H12.8V8.8ZM12 4C7.584 4 4 7.584 4 12C4 16.416 7.584 20 12 20C16.416 20 20 16.416 20 12C20 7.584 16.416 4 12 4ZM12 18.4C8.472 18.4 5.6 15.528 5.6 12C5.6 8.472 8.472 5.6 12 5.6C15.528 5.6 18.4 8.472 18.4 12C18.4 15.528 15.528 18.4 12 18.4Z"
          fill="currentColor"/>
</svg>
