<svg width="24" height="24" viewBox="0 0 24 24" fill="none" xmlns="http://www.w3.org/2000/svg">
    <path d="M8 10.4C7.84177 10.4 7.6871 10.4469 7.55554 10.5348C7.42398 10.6227 7.32145 10.7477 7.2609 10.8939C7.20035 11.04 7.1845 11.2009 7.21537 11.3561C7.24624 11.5113 7.32243 11.6538 7.43431 11.7657C7.5462 11.8776 7.68874 11.9538 7.84393 11.9846C7.99911 12.0155 8.15997 11.9997 8.30615 11.9391C8.45233 11.8786 8.57727 11.776 8.66518 11.6445C8.75308 11.5129 8.8 11.3582 8.8 11.2C8.8 10.9878 8.71571 10.7843 8.56569 10.6343C8.41566 10.4843 8.21217 10.4 8 10.4ZM17.6 7.2H16.8V4.8C16.8 4.58783 16.7157 4.38434 16.5657 4.23431C16.4157 4.08429 16.2122 4 16 4H8C7.78783 4 7.58434 4.08429 7.43431 4.23431C7.28429 4.38434 7.2 4.58783 7.2 4.8V7.2H6.4C5.76348 7.2 5.15303 7.45286 4.70294 7.90294C4.25286 8.35303 4 8.96348 4 9.6V14.4C4 15.0365 4.25286 15.647 4.70294 16.0971C5.15303 16.5471 5.76348 16.8 6.4 16.8H7.2V19.2C7.2 19.4122 7.28429 19.6157 7.43431 19.7657C7.58434 19.9157 7.78783 20 8 20H16C16.2122 20 16.4157 19.9157 16.5657 19.7657C16.7157 19.6157 16.8 19.4122 16.8 19.2V16.8H17.6C18.2365 16.8 18.847 16.5471 19.2971 16.0971C19.7471 15.647 20 15.0365 20 14.4V9.6C20 8.96348 19.7471 8.35303 19.2971 7.90294C18.847 7.45286 18.2365 7.2 17.6 7.2ZM8.8 5.6H15.2V7.2H8.8V5.6ZM15.2 18.4H8.8V15.2H15.2V18.4ZM18.4 14.4C18.4 14.6122 18.3157 14.8157 18.1657 14.9657C18.0157 15.1157 17.8122 15.2 17.6 15.2H16.8V14.4C16.8 14.1878 16.7157 13.9843 16.5657 13.8343C16.4157 13.6843 16.2122 13.6 16 13.6H8C7.78783 13.6 7.58434 13.6843 7.43431 13.8343C7.28429 13.9843 7.2 14.1878 7.2 14.4V15.2H6.4C6.18783 15.2 5.98434 15.1157 5.83431 14.9657C5.68429 14.8157 5.6 14.6122 5.6 14.4V9.6C5.6 9.38783 5.68429 9.18434 5.83431 9.03431C5.98434 8.88429 6.18783 8.8 6.4 8.8H17.6C17.8122 8.8 18.0157 8.88429 18.1657 9.03431C18.3157 9.18434 18.4 9.38783 18.4 9.6V14.4Z"
          fill="currentColor"/>
</svg>
