<svg xmlns="http://www.w3.org/2000/svg" width="24" height="24" fill="none" viewBox="0 0 24 24">
  <path fill="currentColor" d="M21.979 13.234a.73.73 0 0 0-.053-.218.99.99 0 0 0-.084-.185.941.941 0 0 0-.105-.175l-.169-.142-.094-.098-15.495-9.27a1.024 1.024 0 0 0-.802-.108c-.27.076-.5.26-.64.511a1.13 1.13 0 0 0-.104.83c.073.281.25.52.493.664l12.095 7.232H3.053c-.28 0-.547.114-.745.319a1.111 1.111 0 0 0-.308.771v4.363c0 .868.333 1.7.925 2.314A3.103 3.103 0 0 0 5.158 21h13.684c.838 0 1.64-.345 2.233-.958A3.333 3.333 0 0 0 22 17.728v-4.363s-.021-.087-.021-.13Zm-2.105 4.494c0 .29-.111.567-.309.771-.197.205-.465.32-.744.32H5.158a1.03 1.03 0 0 1-.744-.32 1.111 1.111 0 0 1-.309-.771v-3.272h15.79l-.021 3.272Zm-3.158 0c.208 0 .412-.064.585-.184s.308-.29.387-.49a1.127 1.127 0 0 0-.228-1.188 1.041 1.041 0 0 0-.539-.298 1.019 1.019 0 0 0-.608.062 1.062 1.062 0 0 0-.472.401 1.119 1.119 0 0 0 .138 1.385 1.02 1.02 0 0 0 .758.312h-.021Z"/>
</svg>
