<svg width="24" height="24" viewBox="0 0 24 24" fill="none" xmlns="http://www.w3.org/2000/svg">
    <path d="M18.2819 14.7922H14.6926C14.4811 14.7922 14.2782 14.8761 14.1286 15.0255C13.979 15.175 13.895 15.3777 13.895 15.589C13.895 15.8003 13.979 16.003 14.1286 16.1524C14.2782 16.3018 14.4811 16.3858 14.6926 16.3858H16.6069C16.0133 17.0122 15.2987 17.5117 14.5063 17.8541C13.7138 18.1965 12.8601 18.3747 11.9967 18.3778C11.1421 18.377 10.2961 18.2064 9.50814 17.8758L8.3197 19.0631C9.45263 19.6616 10.7151 19.9734 11.9967 19.9715C14.0415 19.9656 16.0059 19.1755 17.4843 17.7643V19.1747C17.4843 19.386 17.5683 19.5887 17.7179 19.7381C17.8675 19.8875 18.0703 19.9715 18.2819 19.9715C18.4934 19.9715 18.6963 19.8875 18.8459 19.7381C18.9954 19.5887 19.0795 19.386 19.0795 19.1747V15.589C19.0795 15.3777 18.9954 15.175 18.8459 15.0255C18.6963 14.8761 18.4934 14.7922 18.2819 14.7922ZM17.0296 8.0989L18.1702 6.95945L19.7654 5.36582C19.8398 5.29152 19.8988 5.20332 19.939 5.10625C19.9793 5.00918 20 4.90514 20 4.80008C20 4.69501 19.9793 4.59097 19.939 4.4939C19.8988 4.39683 19.8398 4.30863 19.7654 4.23434C19.6911 4.16004 19.6028 4.10111 19.5056 4.0609C19.4084 4.02069 19.3043 4 19.1991 4C19.094 4 18.9898 4.02069 18.8926 4.0609C18.7955 4.10111 18.7072 4.16004 18.6328 4.23434L17.0376 5.82797C15.6177 4.6619 13.8348 4.02778 11.9967 4.03513C9.95192 4.04096 7.98749 4.83108 6.50912 6.24232V4.83195C6.50912 4.62062 6.42509 4.41795 6.27551 4.26852C6.12593 4.11908 5.92305 4.03513 5.71151 4.03513C5.49997 4.03513 5.2971 4.11908 5.14752 4.26852C4.99794 4.41795 4.9139 4.62062 4.9139 4.83195V8.41763C4.9139 8.62896 4.99794 8.83163 5.14752 8.98106C5.2971 9.13049 5.49997 9.21444 5.71151 9.21444H9.30077C9.51231 9.21444 9.71518 9.13049 9.86476 8.98106C10.0143 8.83163 10.0984 8.62896 10.0984 8.41763C10.0984 8.2063 10.0143 8.00362 9.86476 7.85419C9.71518 7.70476 9.51231 7.62081 9.30077 7.62081H7.3865C8.46826 6.47113 9.94145 5.76737 11.5164 5.64793C13.0913 5.52849 14.6539 6.00202 15.897 6.97539L6.96376 15.8997C6.09103 14.788 5.61644 13.4161 5.6158 12.0033C5.6158 11.792 5.53177 11.5893 5.38219 11.4399C5.2326 11.2904 5.02973 11.2065 4.81819 11.2065C4.60665 11.2065 4.40377 11.2904 4.25419 11.4399C4.10461 11.5893 4.02058 11.792 4.02058 12.0033C4.01771 13.8415 4.65818 15.6229 5.83116 17.0392L4.23593 18.6328C4.16117 18.7069 4.10184 18.795 4.06134 18.8921C4.02085 18.9892 4 19.0934 4 19.1986C4 19.3038 4.02085 19.4079 4.06134 19.505C4.10184 19.6021 4.16117 19.6902 4.23593 19.7643C4.31008 19.839 4.3983 19.8983 4.49549 19.9387C4.59269 19.9792 4.69694 20 4.80224 20C4.90753 20 5.01178 19.9792 5.10898 19.9387C5.20618 19.8983 5.29439 19.839 5.36854 19.7643L6.96376 18.1707L8.10435 17.0312L17.0296 8.0989ZM17.8751 9.51723C18.2059 10.3044 18.3767 11.1495 18.3776 12.0033C18.3776 12.2146 18.4616 12.4173 18.6112 12.5667C18.7608 12.7162 18.9637 12.8001 19.1752 12.8001C19.3867 12.8001 19.5896 12.7162 19.7392 12.5667C19.8888 12.4173 19.9728 12.2146 19.9728 12.0033C19.9748 10.723 19.6626 9.46178 19.0635 8.32998L17.8751 9.51723Z"
          fill="currentColor"/>
</svg>
