<svg width="24" height="24" viewBox="0 0 24 24" fill="none" xmlns="http://www.w3.org/2000/svg">
    <path d="M18.125 18.4H5.875C5.64294 18.4 5.42038 18.4843 5.25628 18.6343C5.09219 18.7843 5 18.9878 5 19.2C5 19.4122 5.09219 19.6157 5.25628 19.7657C5.42038 19.9157 5.64294 20 5.875 20H18.125C18.3571 20 18.5796 19.9157 18.7437 19.7657C18.9078 19.6157 19 19.4122 19 19.2C19 18.9878 18.9078 18.7843 18.7437 18.6343C18.5796 18.4843 18.3571 18.4 18.125 18.4ZM11.3787 16.568C11.462 16.6408 11.5601 16.6979 11.6675 16.736C11.7722 16.7783 11.8855 16.8002 12 16.8002C12.1145 16.8002 12.2278 16.7783 12.3325 16.736C12.4399 16.6979 12.538 16.6408 12.6213 16.568L16.1212 13.368C16.286 13.2174 16.3786 13.013 16.3786 12.8C16.3786 12.587 16.286 12.3826 16.1212 12.232C15.9565 12.0814 15.733 11.9967 15.5 11.9967C15.267 11.9967 15.0435 12.0814 14.8787 12.232L12.875 14.072V4.8C12.875 4.58783 12.7828 4.38434 12.6187 4.23431C12.4546 4.08429 12.2321 4 12 4C11.7679 4 11.5454 4.08429 11.3813 4.23431C11.2172 4.38434 11.125 4.58783 11.125 4.8V14.072L9.12125 12.232C9.03967 12.1574 8.94281 12.0982 8.83622 12.0579C8.72962 12.0175 8.61538 11.9967 8.5 11.9967C8.38462 11.9967 8.27038 12.0175 8.16378 12.0579C8.05719 12.0982 7.96033 12.1574 7.87875 12.232C7.79717 12.3066 7.73245 12.3951 7.6883 12.4926C7.64415 12.5901 7.62142 12.6945 7.62142 12.8C7.62142 12.9055 7.64415 13.0099 7.6883 13.1074C7.73245 13.2049 7.79717 13.2934 7.87875 13.368L11.3787 16.568Z"
          fill="currentColor"/>
</svg>
