<svg xmlns="http://www.w3.org/2000/svg" width="24" height="24" fill="currentColor" viewBox="0 0 24 24">
  <path d="m20 8.017-6-5.254a3.002 3.002 0 0 0-4 0L4 8.017a2.997 2.997 0 0 0-1 2.257v8.73A2.995 2.995 0 0 0 6 22h12a3.002 3.002 0 0 0 3-2.996v-8.74a2.994 2.994 0 0 0-1-2.247Zm-6 11.985h-4v-4.994a.998.998 0 0 1 1-.998h2a1 1 0 0 1 1 .998v4.994Zm5-.998a.998.998 0 0 1-1 .998h-2v-4.994a2.995 2.995 0 0 0-3-2.996h-2a3.001 3.001 0 0 0-3 2.996v4.994H6a1 1 0 0 1-1-.998v-8.74a.998.998 0 0 1 .34-.75l6-5.243a1 1 0 0 1 1.32 0l6 5.244a1 1 0 0 1 .34.749v8.74Z"/>
</svg>
