<svg width="24" height="24" viewBox="0 0 24 24" fill="none" xmlns="http://www.w3.org/2000/svg">
    <path d="M8.8 13.6C8.8 13.8122 8.88429 14.0157 9.03431 14.1657C9.18434 14.3157 9.38783 14.4 9.6 14.4L14.4 14.4C14.6122 14.4 14.8157 14.3157 14.9657 14.1657C15.1157 14.0157 15.2 13.8122 15.2 13.6C15.2 13.3878 15.1157 13.1843 14.9657 13.0343C14.8157 12.8843 14.6122 12.8 14.4 12.8L9.6 12.8C9.38783 12.8 9.18434 12.8843 9.03431 13.0343C8.88429 13.1843 8.8 13.3878 8.8 13.6ZM4 12C4 13.5822 4.46919 15.129 5.34824 16.4446C6.22729 17.7602 7.47672 18.7855 8.93853 19.391C10.4003 19.9965 12.0089 20.155 13.5607 19.8463C15.1126 19.5376 16.538 18.7757 17.6569 17.6569C18.7757 16.538 19.5376 15.1126 19.8463 13.5607C20.155 12.0089 19.9965 10.4003 19.391 8.93853C18.7855 7.47672 17.7602 6.2273 16.4446 5.34824C15.129 4.46919 13.5822 4 12 4C10.9494 4 9.90914 4.20693 8.93853 4.60896C7.96793 5.011 7.08601 5.60028 6.34315 6.34315C5.60028 7.08601 5.011 7.96793 4.60896 8.93853C4.20693 9.90913 4 10.9494 4 12ZM18.4 12C18.4 13.2658 18.0246 14.5032 17.3214 15.5556C16.6182 16.6081 15.6186 17.4284 14.4492 17.9128C13.2797 18.3972 11.9929 18.524 10.7514 18.277C9.50994 18.0301 8.36957 17.4205 7.47452 16.5255C6.57946 15.6304 5.96992 14.4901 5.72297 13.2486C5.47603 12.0071 5.60277 10.7203 6.08717 9.55082C6.57157 8.38138 7.39188 7.38184 8.44435 6.67859C9.49682 5.97535 10.7342 5.6 12 5.6C13.6974 5.6 15.3252 6.27428 16.5255 7.47452C17.7257 8.67475 18.4 10.3026 18.4 12ZM8.8 10.4C8.8 10.6122 8.88429 10.8157 9.03431 10.9657C9.18434 11.1157 9.38783 11.2 9.6 11.2L14.4 11.2C14.6122 11.2 14.8157 11.1157 14.9657 10.9657C15.1157 10.8157 15.2 10.6122 15.2 10.4C15.2 10.1878 15.1157 9.98434 14.9657 9.83431C14.8157 9.68428 14.6122 9.6 14.4 9.6L9.6 9.6C9.38783 9.6 9.18434 9.68428 9.03431 9.83431C8.88429 9.98434 8.8 10.1878 8.8 10.4Z"
          fill="currentColor"/>
</svg>
