<svg xmlns="http://www.w3.org/2000/svg" width="24" height="24" fill="currentColor" viewBox="0 0 24 24">
  <path d="M17.333 2H6.667c-.708 0-1.386.287-1.886.799A2.759 2.759 0 0 0 4 4.727v14.546c0 .723.28 1.417.781 1.928.5.512 1.178.799 1.886.799h10.666c.708 0 1.386-.287 1.886-.799A2.76 2.76 0 0 0 20 19.273V4.727a2.76 2.76 0 0 0-.781-1.928A2.637 2.637 0 0 0 17.333 2Zm.89 17.273a.92.92 0 0 1-.261.643.88.88 0 0 1-.629.266H6.667a.88.88 0 0 1-.629-.266.92.92 0 0 1-.26-.643V4.727a.92.92 0 0 1 .26-.643.879.879 0 0 1 .629-.266h10.666c.236 0 .462.096.629.266a.92.92 0 0 1 .26.643v14.546Z"/>
  <path d="M8.923 4.813a.31.31 0 0 1 .308-.313h5.538c.17 0 .308.14.308.313a.31.31 0 0 1-.308.312H9.231a.31.31 0 0 1-.308-.313ZM13.333 17c0 .69-.597 1.25-1.333 1.25s-1.333-.56-1.333-1.25.597-1.25 1.333-1.25 1.333.56 1.333 1.25Z"/>
</svg>
