<svg width="24" height="24" viewBox="0 0 24 24" fill="none" xmlns="http://www.w3.org/2000/svg">
    <path d="M11.432 14.632C11.3976 14.67 11.3655 14.7101 11.336 14.752C11.3057 14.7966 11.2815 14.845 11.264 14.896C11.2409 14.9413 11.2248 14.9899 11.216 15.04C11.2121 15.0933 11.2121 15.1467 11.216 15.2C11.2133 15.3049 11.2352 15.4091 11.28 15.504C11.3159 15.6033 11.3733 15.6934 11.4479 15.7681C11.5226 15.8427 11.6127 15.9001 11.712 15.936C11.8078 15.9783 11.9113 16.0002 12.016 16.0002C12.1207 16.0002 12.2242 15.9783 12.32 15.936C12.4193 15.9001 12.5094 15.8427 12.5841 15.7681C12.6587 15.6934 12.7161 15.6033 12.752 15.504C12.7875 15.4067 12.8038 15.3035 12.8 15.2C12.8006 15.0947 12.7804 14.9903 12.7406 14.8929C12.7008 14.7954 12.6421 14.7068 12.568 14.632C12.4936 14.557 12.4052 14.4975 12.3077 14.4569C12.2102 14.4163 12.1056 14.3954 12 14.3954C11.8944 14.3954 11.7898 14.4163 11.6923 14.4569C11.5949 14.4975 11.5064 14.557 11.432 14.632ZM12 4C10.4178 4 8.87103 4.46919 7.55544 5.34824C6.23985 6.22729 5.21447 7.47672 4.60897 8.93853C4.00347 10.4003 3.84504 12.0089 4.15372 13.5607C4.4624 15.1126 5.22433 16.538 6.34315 17.6569C7.46197 18.7757 8.88743 19.5376 10.4393 19.8463C11.9911 20.155 13.5997 19.9965 15.0615 19.391C16.5233 18.7855 17.7727 17.7602 18.6518 16.4446C19.5308 15.129 20 13.5822 20 12C20 10.9494 19.7931 9.90914 19.391 8.93853C18.989 7.96793 18.3997 7.08601 17.6569 6.34315C16.914 5.60028 16.0321 5.011 15.0615 4.60896C14.0909 4.20693 13.0506 4 12 4ZM12 18.4C10.7342 18.4 9.49683 18.0246 8.44435 17.3214C7.39188 16.6182 6.57158 15.6186 6.08717 14.4492C5.60277 13.2797 5.47603 11.9929 5.72298 10.7514C5.96992 9.50994 6.57946 8.36957 7.47452 7.47452C8.36958 6.57946 9.50995 5.96992 10.7514 5.72297C11.9929 5.47603 13.2797 5.60277 14.4492 6.08717C15.6186 6.57157 16.6182 7.39188 17.3214 8.44435C18.0246 9.49682 18.4 10.7342 18.4 12C18.4 13.6974 17.7257 15.3252 16.5255 16.5255C15.3253 17.7257 13.6974 18.4 12 18.4ZM12 8C11.5785 7.99973 11.1643 8.1105 10.7991 8.32115C10.434 8.53181 10.1308 8.83493 9.92 9.2C9.86212 9.29105 9.82325 9.39288 9.80574 9.49934C9.78823 9.6058 9.79244 9.71471 9.81811 9.81951C9.84377 9.92431 9.89038 10.0228 9.95511 10.1091C10.0198 10.1955 10.1014 10.2678 10.1948 10.3218C10.2882 10.3758 10.3916 10.4103 10.4987 10.4233C10.6058 10.4364 10.7144 10.4276 10.818 10.3975C10.9217 10.3674 11.0181 10.3167 11.1016 10.2484C11.1852 10.1801 11.254 10.0956 11.304 10C11.3745 9.87792 11.476 9.77662 11.5982 9.70638C11.7204 9.63614 11.859 9.59944 12 9.6C12.2122 9.6 12.4157 9.68428 12.5657 9.83431C12.7157 9.98434 12.8 10.1878 12.8 10.4C12.8 10.6122 12.7157 10.8157 12.5657 10.9657C12.4157 11.1157 12.2122 11.2 12 11.2C11.7878 11.2 11.5843 11.2843 11.4343 11.4343C11.2843 11.5843 11.2 11.7878 11.2 12V12.8C11.2 13.0122 11.2843 13.2157 11.4343 13.3657C11.5843 13.5157 11.7878 13.6 12 13.6C12.2122 13.6 12.4157 13.5157 12.5657 13.3657C12.7157 13.2157 12.8 13.0122 12.8 12.8V12.656C13.3291 12.464 13.7739 12.0922 14.0566 11.6055C14.3393 11.1188 14.442 10.5482 14.3467 9.99351C14.2514 9.43879 13.9642 8.93521 13.5352 8.57081C13.1062 8.20641 12.5628 8.00437 12 8Z"
          fill="currentColor"/>
</svg>
