<svg xmlns="http://www.w3.org/2000/svg" width="24" height="24" fill="currentColor" viewBox="0 0 24 24">
  <path d="m14.576 8.226 2.587 2.975H4.125c-.298 0-.585.137-.796.38-.21.244-.329.575-.329.919 0 .345.119.675.33.918.21.244.497.38.795.38h13.038l-2.587 2.975c-.212.245-.33.577-.33.923 0 .346.118.677.33.922.212.245.5.382.799.382.3 0 .587-.137.799-.382l4.5-5.196c.102-.123.182-.269.236-.428a1.382 1.382 0 0 0 0-.988 1.338 1.338 0 0 0-.236-.428l-4.5-5.196a1.059 1.059 0 0 0-.8-.382c-.299 0-.586.137-.798.382a1.334 1.334 0 0 0-.245.423 1.483 1.483 0 0 0-.086.5c0 .345.12.677.331.921Z"/>
</svg>
