<svg width="24" height="24" viewBox="0 0 24 24" fill="none" xmlns="http://www.w3.org/2000/svg">
    <path d="M12 16.9091C12.1582 16.9091 12.3129 16.8638 12.4445 16.7789C12.576 16.694 12.6786 16.5733 12.7391 16.4321C12.7997 16.2909 12.8155 16.1355 12.7846 15.9856C12.7538 15.8357 12.6776 15.698 12.5657 15.59C12.4538 15.4819 12.3113 15.4083 12.1561 15.3785C12.0009 15.3487 11.84 15.364 11.6939 15.4225C11.5477 15.4809 11.4227 15.58 11.3348 15.7071C11.2469 15.8341 11.2 15.9835 11.2 16.1364C11.2 16.3413 11.2843 16.5379 11.4343 16.6828C11.5843 16.8277 11.7878 16.9091 12 16.9091ZM16 16.9091C16.1582 16.9091 16.3129 16.8638 16.4445 16.7789C16.576 16.694 16.6786 16.5733 16.7391 16.4321C16.7997 16.2909 16.8155 16.1355 16.7846 15.9856C16.7538 15.8357 16.6776 15.698 16.5657 15.59C16.4538 15.4819 16.3113 15.4083 16.1561 15.3785C16.0009 15.3487 15.84 15.364 15.6939 15.4225C15.5477 15.4809 15.4227 15.58 15.3348 15.7071C15.2469 15.8341 15.2 15.9835 15.2 16.1364C15.2 16.3413 15.2843 16.5379 15.4343 16.6828C15.5843 16.8277 15.7878 16.9091 16 16.9091ZM16 13.8182C16.1582 13.8182 16.3129 13.7729 16.4445 13.688C16.576 13.603 16.6786 13.4824 16.7391 13.3412C16.7997 13.2 16.8155 13.0446 16.7846 12.8947C16.7538 12.7448 16.6776 12.6071 16.5657 12.4991C16.4538 12.391 16.3113 12.3174 16.1561 12.2876C16.0009 12.2578 15.84 12.2731 15.6939 12.3315C15.5477 12.39 15.4227 12.4891 15.3348 12.6161C15.2469 12.7432 15.2 12.8926 15.2 13.0455C15.2 13.2504 15.2843 13.4469 15.4343 13.5919C15.5843 13.7368 15.7878 13.8182 16 13.8182ZM12 13.8182C12.1582 13.8182 12.3129 13.7729 12.4445 13.688C12.576 13.603 12.6786 13.4824 12.7391 13.3412C12.7997 13.2 12.8155 13.0446 12.7846 12.8947C12.7538 12.7448 12.6776 12.6071 12.5657 12.4991C12.4538 12.391 12.3113 12.3174 12.1561 12.2876C12.0009 12.2578 11.84 12.2731 11.6939 12.3315C11.5477 12.39 11.4227 12.4891 11.3348 12.6161C11.2469 12.7432 11.2 12.8926 11.2 13.0455C11.2 13.2504 11.2843 13.4469 11.4343 13.5919C11.5843 13.7368 11.7878 13.8182 12 13.8182ZM17.6 4.54545H16.8V3.77273C16.8 3.56779 16.7157 3.37124 16.5657 3.22633C16.4157 3.08141 16.2122 3 16 3C15.7878 3 15.5843 3.08141 15.4343 3.22633C15.2843 3.37124 15.2 3.56779 15.2 3.77273V4.54545H8.8V3.77273C8.8 3.56779 8.71571 3.37124 8.56569 3.22633C8.41566 3.08141 8.21217 3 8 3C7.78783 3 7.58434 3.08141 7.43431 3.22633C7.28429 3.37124 7.2 3.56779 7.2 3.77273V4.54545H6.4C5.76348 4.54545 5.15303 4.78969 4.70294 5.22443C4.25286 5.65918 4 6.24882 4 6.86364V17.6818C4 18.2966 4.25286 18.8863 4.70294 19.321C5.15303 19.7558 5.76348 20 6.4 20H17.6C18.2365 20 18.847 19.7558 19.2971 19.321C19.7471 18.8863 20 18.2966 20 17.6818V6.86364C20 6.24882 19.7471 5.65918 19.2971 5.22443C18.847 4.78969 18.2365 4.54545 17.6 4.54545ZM18.4 17.6818C18.4 17.8868 18.3157 18.0833 18.1657 18.2282C18.0157 18.3731 17.8122 18.4545 17.6 18.4545H6.4C6.18783 18.4545 5.98434 18.3731 5.83431 18.2282C5.68429 18.0833 5.6 17.8868 5.6 17.6818V10.7273H18.4V17.6818ZM18.4 9.18182H5.6V6.86364C5.6 6.6587 5.68429 6.46215 5.83431 6.31724C5.98434 6.17232 6.18783 6.09091 6.4 6.09091H7.2V6.86364C7.2 7.06858 7.28429 7.26512 7.43431 7.41004C7.58434 7.55495 7.78783 7.63636 8 7.63636C8.21217 7.63636 8.41566 7.55495 8.56569 7.41004C8.71571 7.26512 8.8 7.06858 8.8 6.86364V6.09091H15.2V6.86364C15.2 7.06858 15.2843 7.26512 15.4343 7.41004C15.5843 7.55495 15.7878 7.63636 16 7.63636C16.2122 7.63636 16.4157 7.55495 16.5657 7.41004C16.7157 7.26512 16.8 7.06858 16.8 6.86364V6.09091H17.6C17.8122 6.09091 18.0157 6.17232 18.1657 6.31724C18.3157 6.46215 18.4 6.6587 18.4 6.86364V9.18182ZM8 13.8182C8.15823 13.8182 8.3129 13.7729 8.44446 13.688C8.57602 13.603 8.67855 13.4824 8.7391 13.3412C8.79965 13.2 8.8155 13.0446 8.78463 12.8947C8.75376 12.7448 8.67757 12.6071 8.56569 12.4991C8.4538 12.391 8.31126 12.3174 8.15607 12.2876C8.00089 12.2578 7.84003 12.2731 7.69385 12.3315C7.54767 12.39 7.42273 12.4891 7.33482 12.6161C7.24692 12.7432 7.2 12.8926 7.2 13.0455C7.2 13.2504 7.28429 13.4469 7.43431 13.5919C7.58434 13.7368 7.78783 13.8182 8 13.8182ZM8 16.9091C8.15823 16.9091 8.3129 16.8638 8.44446 16.7789C8.57602 16.694 8.67855 16.5733 8.7391 16.4321C8.79965 16.2909 8.8155 16.1355 8.78463 15.9856C8.75376 15.8357 8.67757 15.698 8.56569 15.59C8.4538 15.4819 8.31126 15.4083 8.15607 15.3785C8.00089 15.3487 7.84003 15.364 7.69385 15.4225C7.54767 15.4809 7.42273 15.58 7.33482 15.7071C7.24692 15.8341 7.2 15.9835 7.2 16.1364C7.2 16.3413 7.28429 16.5379 7.43431 16.6828C7.58434 16.8277 7.78783 16.9091 8 16.9091Z"
          fill="currentColor"/>
</svg>
