<svg width="24" height="24" viewBox="0 0 24 24" fill="none" xmlns="http://www.w3.org/2000/svg">
    <path d="M17.5997 7.46336H16.5757L16.3197 6.64224C16.1538 6.16044 15.846 5.74354 15.4389 5.4493C15.0318 5.15506 14.5457 4.99805 14.0478 5.00002H9.95188C9.44913 5.00098 8.95936 5.16398 8.55172 5.466C8.14407 5.76803 7.83913 6.19383 7.67992 6.6833L7.42393 7.50441H6.39995C5.76344 7.50441 5.15301 7.76394 4.70293 8.22591C4.25285 8.68788 4 9.31444 4 9.96775V16.5367C4 17.19 4.25285 17.8165 4.70293 18.2785C5.15301 18.7405 5.76344 19 6.39995 19H17.5997C18.2362 19 18.8467 18.7405 19.2967 18.2785C19.7468 17.8165 19.9997 17.19 19.9997 16.5367V9.96775C20.005 9.64083 19.9468 9.31608 19.8286 9.01246C19.7104 8.70884 19.5344 8.43242 19.311 8.19931C19.0877 7.9662 18.8213 7.78107 18.5275 7.65472C18.2337 7.52836 17.9183 7.46331 17.5997 7.46336ZM18.3997 16.4956C18.3997 16.7134 18.3154 16.9222 18.1654 17.0762C18.0154 17.2302 17.8119 17.3167 17.5997 17.3167H6.39995C6.18778 17.3167 5.9843 17.2302 5.83428 17.0762C5.68425 16.9222 5.59997 16.7134 5.59997 16.4956V9.9267C5.59997 9.70893 5.68425 9.50007 5.83428 9.34608C5.9843 9.19209 6.18778 9.10558 6.39995 9.10558H7.99992C8.17437 9.11493 8.347 9.06541 8.49145 8.96459C8.63591 8.86377 8.74424 8.71718 8.7999 8.54723L9.23189 7.2006C9.28556 7.03751 9.38781 6.89586 9.52418 6.79566C9.66056 6.69547 9.82416 6.6418 9.99188 6.64224H14.0878C14.2555 6.6418 14.4191 6.69547 14.5555 6.79566C14.6919 6.89586 14.7941 7.03751 14.8478 7.2006L15.2798 8.54723C15.3311 8.70385 15.4273 8.84093 15.5557 8.94055C15.6842 9.04017 15.8389 9.09769 15.9998 9.10558H17.5997C17.8119 9.10558 18.0154 9.19209 18.1654 9.34608C18.3154 9.50007 18.3997 9.70893 18.3997 9.9267V16.4956ZM11.9998 9.10558C11.3669 9.10558 10.7483 9.29821 10.222 9.65912C9.69582 10.02 9.28568 10.533 9.04348 11.1331C8.80129 11.7333 8.73792 12.3937 8.86139 13.0308C8.98486 13.6679 9.28962 14.2532 9.73714 14.7125C10.1847 15.1718 10.7548 15.4846 11.3756 15.6114C11.9963 15.7381 12.6397 15.6731 13.2244 15.4245C13.8091 15.1759 14.3089 14.7549 14.6605 14.2148C15.0121 13.6747 15.1998 13.0396 15.1998 12.39C15.1998 11.5189 14.8626 10.6835 14.2625 10.0676C13.6624 9.45162 12.8485 9.10558 11.9998 9.10558ZM11.9998 14.0323C11.6834 14.0323 11.3741 13.9359 11.1109 13.7555C10.8478 13.575 10.6428 13.3186 10.5217 13.0185C10.4006 12.7184 10.3689 12.3882 10.4306 12.0697C10.4923 11.7511 10.6447 11.4585 10.8685 11.2288C11.0922 10.9991 11.3773 10.8427 11.6877 10.7794C11.9981 10.716 12.3198 10.7485 12.6121 10.8728C12.9045 10.9971 13.1544 11.2076 13.3302 11.4777C13.506 11.7477 13.5998 12.0652 13.5998 12.39C13.5998 12.8256 13.4312 13.2433 13.1312 13.5513C12.8311 13.8592 12.4242 14.0323 11.9998 14.0323Z"
          fill="currentColor"/>
</svg>
