<svg width="24" height="24" viewBox="0 0 24 24" fill="none" xmlns="http://www.w3.org/2000/svg">
    <path d="M14.0036 8.71269L16.0161 11.0008L5.87499 11.0008C5.64293 11.0008 5.42037 11.1061 5.25628 11.2935C5.09219 11.4809 5 11.735 5 12C5 12.265 5.09219 12.5191 5.25628 12.7065C5.42037 12.8939 5.64293 12.9992 5.87499 12.9992L16.0161 12.9992L14.0036 15.2873C13.8389 15.4755 13.7463 15.7306 13.7463 15.9967C13.7463 16.2628 13.8389 16.518 14.0036 16.7061C14.1684 16.8943 14.3918 17 14.6249 17C14.8579 17 15.0813 16.8943 15.2461 16.7061L18.746 12.7094C18.8257 12.6144 18.8882 12.5023 18.9298 12.3797C18.9761 12.2601 19 12.1308 19 12C19 11.8692 18.9761 11.7399 18.9298 11.6203C18.8882 11.4977 18.8257 11.3856 18.746 11.2906L15.2461 7.29385C15.0813 7.1057 14.8579 7 14.6249 7C14.3918 7 14.1684 7.1057 14.0036 7.29385C13.922 7.38701 13.8573 7.49761 13.8132 7.61934C13.769 7.74106 13.7463 7.87152 13.7463 8.00327C13.7463 8.26935 13.8389 8.52454 14.0036 8.71269Z"
          fill="currentColor"/>
</svg>
