<svg xmlns="http://www.w3.org/2000/svg" width="24" height="24" fill="currentColor" viewBox="0 0 24 24">
  <path d="M11.407 2c-2.716.007-5.325.999-7.288 2.77V3a.972.972 0 0 0-.31-.707A1.092 1.092 0 0 0 3.058 2c-.28 0-.55.105-.749.293A.972.972 0 0 0 2 3v4.5c0 .265.112.52.31.707.199.188.468.293.75.293h4.766c.281 0 .55-.105.75-.293a.972.972 0 0 0 .31-.707.972.972 0 0 0-.31-.707 1.092 1.092 0 0 0-.75-.293H5.284a8.553 8.553 0 0 1 3.504-2.099 8.955 8.955 0 0 1 4.14-.276 8.72 8.72 0 0 1 3.783 1.612 8.07 8.07 0 0 1 2.518 3.114 7.6 7.6 0 0 1 .65 3.87 7.715 7.715 0 0 1-1.376 3.696 8.318 8.318 0 0 1-3.069 2.638 8.879 8.879 0 0 1-4.027.945c-.281 0-.55.105-.75.293a.973.973 0 0 0-.31.707c0 .265.112.52.31.707.2.188.469.293.75.293 2.81 0 5.504-1.054 7.49-2.929C20.884 17.196 22 14.652 22 12s-1.116-5.196-3.103-7.071C16.911 3.054 14.217 2 11.407 2Z"/>
</svg>
