<svg width="24" height="24" viewBox="0 0 24 24" fill="none" xmlns="http://www.w3.org/2000/svg">
    <path d="M8.40059 7.20043C8.16322 7.20043 7.93118 7.27082 7.73382 7.4027C7.53645 7.53457 7.38263 7.72201 7.29179 7.94131C7.20095 8.16061 7.17719 8.40192 7.22349 8.63473C7.2698 8.86754 7.38411 9.08138 7.55195 9.24923C7.7198 9.41707 7.93364 9.53138 8.16645 9.57769C8.39926 9.624 8.64057 9.60023 8.85987 9.50939C9.07917 9.41855 9.26661 9.26473 9.39849 9.06736C9.53036 8.87 9.60075 8.63796 9.60075 8.40059C9.60075 8.08229 9.4743 7.77702 9.24923 7.55195C9.02416 7.32688 8.71889 7.20043 8.40059 7.20043V7.20043ZM19.298 10.9689L12.5691 4.23204C12.4944 4.15789 12.4057 4.09922 12.3082 4.0594C12.2107 4.01959 12.1064 3.9994 12.0011 4.00001H4.80012C4.58792 4.00001 4.38441 4.08431 4.23436 4.23436C4.08431 4.38441 4.00001 4.58792 4.00001 4.80012V12.0011C3.9994 12.1064 4.01959 12.2107 4.0594 12.3082C4.09922 12.4057 4.15789 12.4944 4.23204 12.5691L10.9689 19.298C11.419 19.7475 12.0291 20 12.6651 20C13.3012 20 13.9113 19.7475 14.3614 19.298L19.298 14.4014C19.7475 13.9513 20 13.3412 20 12.7052C20 12.0691 19.7475 11.459 19.298 11.0089V10.9689ZM18.1699 13.2252L13.2252 18.1619C13.0753 18.3109 12.8725 18.3945 12.6611 18.3945C12.4498 18.3945 12.247 18.3109 12.0971 18.1619L5.60022 11.673V5.60022H11.673L18.1699 12.0971C18.244 12.1718 18.3027 12.2605 18.3425 12.358C18.3823 12.4555 18.4025 12.5599 18.4019 12.6651C18.401 12.875 18.3177 13.0762 18.1699 13.2252V13.2252Z"
          fill="currentColor"/>
</svg>
