<svg width="24" height="24" viewBox="0 0 24 24" fill="none" xmlns="http://www.w3.org/2000/svg">
    <path d="M12 12.7996C11.7717 12.7968 11.548 12.8686 11.3591 13.0055C11.1702 13.1423 11.0251 13.3376 10.9434 13.5651C10.8617 13.7926 10.8473 14.0413 10.9021 14.2777C10.9569 14.5142 11.0783 14.7271 11.25 14.8877V15.9998C11.25 16.212 11.329 16.4155 11.4697 16.5655C11.6103 16.7155 11.8011 16.7998 12 16.7998C12.1989 16.7998 12.3897 16.7155 12.5303 16.5655C12.671 16.4155 12.75 16.212 12.75 15.9998V14.8877C12.9217 14.7271 13.0431 14.5142 13.0979 14.2777C13.1527 14.0413 13.1383 13.7926 13.0566 13.5651C12.9749 13.3376 12.8298 13.1423 12.6409 13.0055C12.452 12.8686 12.2283 12.7968 12 12.7996ZM15.75 9.59945H9.75V7.99937C9.74891 7.52429 9.88001 7.05956 10.1267 6.66402C10.3734 6.26848 10.7246 5.95993 11.1358 5.77746C11.547 5.59498 11.9997 5.54678 12.4366 5.63896C12.8735 5.73114 13.2749 5.95955 13.59 6.29528C13.872 6.60255 14.0736 6.98317 14.175 7.39933C14.1996 7.50125 14.2428 7.59699 14.3021 7.68109C14.3614 7.76519 14.4357 7.83601 14.5207 7.8895C14.6056 7.94299 14.6996 7.9781 14.7973 7.99283C14.895 8.00757 14.9945 8.00163 15.09 7.97536C15.1855 7.9491 15.2753 7.90302 15.3541 7.83975C15.433 7.77649 15.4994 7.69727 15.5495 7.60664C15.5996 7.516 15.6326 7.41572 15.6464 7.31152C15.6602 7.20731 15.6546 7.10122 15.63 6.99931C15.4591 6.30712 15.1203 5.67519 14.6475 5.16722C14.1226 4.60908 13.4545 4.22936 12.7275 4.07599C12.0004 3.92263 11.2471 4.00251 10.5626 4.30554C9.87809 4.60856 9.2931 5.12116 8.88151 5.77859C8.46991 6.43602 8.25016 7.2088 8.25 7.99937V9.59945C7.65326 9.59945 7.08097 9.85232 6.65901 10.3024C6.23705 10.7525 6 11.363 6 11.9996V17.5999C6 18.2364 6.23705 18.8469 6.65901 19.297C7.08097 19.7471 7.65326 20 8.25 20H15.75C16.3467 20 16.919 19.7471 17.341 19.297C17.7629 18.8469 18 18.2364 18 17.5999V11.9996C18 11.363 17.7629 10.7525 17.341 10.3024C16.919 9.85232 16.3467 9.59945 15.75 9.59945ZM16.5 17.5999C16.5 17.8121 16.421 18.0156 16.2803 18.1656C16.1397 18.3156 15.9489 18.3999 15.75 18.3999H8.25C8.05109 18.3999 7.86032 18.3156 7.71967 18.1656C7.57902 18.0156 7.5 17.8121 7.5 17.5999V11.9996C7.5 11.7874 7.57902 11.5839 7.71967 11.4339C7.86032 11.2838 8.05109 11.1995 8.25 11.1995H15.75C15.9489 11.1995 16.1397 11.2838 16.2803 11.4339C16.421 11.5839 16.5 11.7874 16.5 11.9996V17.5999Z"
          fill="currentColor"/>
</svg>
