<svg xmlns="http://www.w3.org/2000/svg" width="24" height="24" fill="currentColor" viewBox="0 0 24 24">
  <path d="m8.055 9.067 2.746-2.444v12.314c0 .282.126.553.351.752.225.2.53.311.848.311.318 0 .623-.112.848-.311.225-.2.351-.47.351-.752V6.623l2.746 2.444c.226.2.532.313.851.313.32 0 .626-.113.851-.313.226-.2.353-.471.353-.754a1.01 1.01 0 0 0-.353-.755l-4.796-4.25a1.228 1.228 0 0 0-.395-.223 1.252 1.252 0 0 0-.912 0c-.147.05-.281.127-.395.223l-4.796 4.25A1.01 1.01 0 0 0 6 8.313c0 .283.127.554.353.754.111.1.244.178.39.231.146.054.303.082.46.082.32 0 .626-.113.852-.313Z"/>
</svg>
