<svg xmlns="http://www.w3.org/2000/svg" width="24" height="24" fill="currentColor" viewBox="0 0 24 24">
  <path d="M4.767 10.586a.994.994 0 0 0 .738-.2 1.008 1.008 0 0 0-.48-1.796L3.28 8.15a.984.984 0 0 0-1.07.34 1 1 0 0 0 .555 1.587l1.743.469c.083.028.17.041.258.04ZM8.59 5.007a.985.985 0 0 0 .99.739.806.806 0 0 0 .258 0 .992.992 0 0 0 .595-.466c.13-.228.165-.498.098-.752l-.465-1.756a1.002 1.002 0 0 0-.456-.63.986.986 0 0 0-1.376.373 1.003 1.003 0 0 0-.08.775l.436 1.717Zm4.784 9.98a.991.991 0 0 0-.718-.31.984.984 0 0 0-.718.31L8.47 18.54a2.18 2.18 0 0 1-3.03 0 2.147 2.147 0 0 1-.634-1.527 2.16 2.16 0 0 1 .633-1.527l3.526-3.493a.998.998 0 0 0 .278-1.122.999.999 0 0 0-.56-.565.984.984 0 0 0-1.114.28l-3.556 3.483a4.18 4.18 0 0 0-1.215 2.954 4.205 4.205 0 0 0 1.215 2.954A4.144 4.144 0 0 0 6.946 21.2a4.118 4.118 0 0 0 2.932-1.223l3.496-3.523a.996.996 0 0 0 .32-.734 1.004 1.004 0 0 0-.32-.733ZM5.183 6.594a.987.987 0 0 0 1.684-.704 1 1 0 0 0-.288-.703L5.301 3.899a.986.986 0 0 0-1.344.053 1.002 1.002 0 0 0-.052 1.354l1.278 1.288Zm15.927 7.315-1.743-.47a.985.985 0 0 0-1.103.328.998.998 0 0 0-.199.774 1.002 1.002 0 0 0 .43.673.988.988 0 0 0 .377.152l1.743.47h.257a.993.993 0 0 0 .738-.202 1.008 1.008 0 0 0-.48-1.795l-.02.07Zm-5.824 5.07a1 1 0 0 0-.466-.604.986.986 0 0 0-1.348.37c-.13.228-.165.499-.098.753l.466 1.756a.985.985 0 0 0 .99.738c.086.01.172.01.258 0a.987.987 0 0 0 .605-.466 1.003 1.003 0 0 0 .098-.76l-.505-1.787Zm3.407-1.567a.986.986 0 0 0-1.344.052 1.002 1.002 0 0 0-.052 1.355l1.277 1.288a.987.987 0 0 0 1.397 0 1.002 1.002 0 0 0 0-1.408l-1.278-1.287Zm2.358-10.409a4.174 4.174 0 0 0-.666-2.341A4.128 4.128 0 0 0 18.531 3.1a4.092 4.092 0 0 0-4.533.909l-3.496 3.553a1.02 1.02 0 0 0-.216 1.112 1.02 1.02 0 0 0 .55.55 1.006 1.006 0 0 0 1.102-.225l3.467-3.553a2.18 2.18 0 0 1 3.03 0 2.145 2.145 0 0 1 .634 1.527 2.159 2.159 0 0 1-.633 1.527l-3.527 3.493a1.002 1.002 0 0 0 0 1.407.987.987 0 0 0 1.397 0l3.556-3.483a4.198 4.198 0 0 0 1.189-2.914Z"/>
</svg>
