<svg width="24" height="24" viewBox="0 0 24 24" fill="none" xmlns="http://www.w3.org/2000/svg">
    <path d="M19.7753 18.6487L16.8091 15.7047C17.9605 14.2682 18.5181 12.445 18.3672 10.6098C18.2164 8.77456 17.3685 7.06695 15.998 5.83804C14.6275 4.60913 12.8385 3.95233 10.9989 4.0027C9.15928 4.05307 7.40887 4.80677 6.10758 6.10883C4.80629 7.4109 4.05303 9.16235 4.0027 11.0031C3.95236 12.8438 4.60876 14.6338 5.83694 16.0051C7.06512 17.3765 8.77172 18.2248 10.6058 18.3758C12.4399 18.5267 14.2621 17.9688 15.6978 16.8167L18.64 19.7607C18.7143 19.8357 18.8028 19.8952 18.9002 19.9358C18.9976 19.9765 19.1021 19.9974 19.2077 19.9974C19.3132 19.9974 19.4177 19.9765 19.5152 19.9358C19.6126 19.8952 19.701 19.8357 19.7753 19.7607C19.9194 19.6116 20 19.4122 20 19.2047C20 18.9973 19.9194 18.7979 19.7753 18.6487ZM11.2124 16.8167C10.1055 16.8167 9.02346 16.4883 8.10309 15.873C7.18272 15.2576 6.46538 14.383 6.04178 13.3597C5.61818 12.3365 5.50735 11.2105 5.7233 10.1242C5.93925 9.03792 6.47228 8.0401 7.25499 7.25692C8.0377 6.47375 9.03493 5.9404 10.1206 5.72432C11.2062 5.50825 12.3315 5.61914 13.3542 6.043C14.3768 6.46685 15.2509 7.18461 15.8659 8.10553C16.4809 9.02644 16.8091 10.1091 16.8091 11.2167C16.8091 12.7019 16.2195 14.1263 15.1699 15.1765C14.1203 16.2267 12.6968 16.8167 11.2124 16.8167Z"
          fill="currentColor"/>
</svg>
