<svg width="24" height="24" viewBox="0 0 24 24" fill="none" xmlns="http://www.w3.org/2000/svg">
<path d="M14.176 9.432L10.744 12.872L9.424 11.552C9.35228 11.4683 9.26403 11.4002 9.16478 11.3522C9.06553 11.3042 8.95742 11.2772 8.84725 11.273C8.73707 11.2687 8.6272 11.2873 8.52454 11.3275C8.42188 11.3677 8.32865 11.4287 8.25068 11.5067C8.17272 11.5846 8.11171 11.6779 8.07149 11.7805C8.03127 11.8832 8.01271 11.9931 8.01696 12.1032C8.02122 12.2134 8.0482 12.3215 8.09622 12.4208C8.14424 12.52 8.21226 12.6083 8.296 12.68L10.176 14.568C10.2508 14.6421 10.3394 14.7008 10.4369 14.7406C10.5343 14.7804 10.6387 14.8006 10.744 14.8C10.9539 14.7991 11.155 14.7158 11.304 14.568L15.304 10.568C15.379 10.4936 15.4385 10.4051 15.4791 10.3077C15.5197 10.2102 15.5406 10.1056 15.5406 10C15.5406 9.89439 15.5197 9.78982 15.4791 9.69234C15.4385 9.59485 15.379 9.50637 15.304 9.432C15.1541 9.283 14.9514 9.19937 14.74 9.19937C14.5287 9.19937 14.3259 9.283 14.176 9.432ZM12 4C10.4178 4 8.87103 4.46919 7.55544 5.34824C6.23985 6.22729 5.21447 7.47672 4.60897 8.93853C4.00347 10.4003 3.84504 12.0089 4.15372 13.5607C4.4624 15.1126 5.22433 16.538 6.34315 17.6569C7.46197 18.7757 8.88743 19.5376 10.4393 19.8463C11.9911 20.155 13.5997 19.9965 15.0615 19.391C16.5233 18.7855 17.7727 17.7602 18.6518 16.4446C19.5308 15.129 20 13.5822 20 12C20 10.9494 19.7931 9.90914 19.391 8.93853C18.989 7.96793 18.3997 7.08601 17.6569 6.34315C16.914 5.60028 16.0321 5.011 15.0615 4.60896C14.0909 4.20693 13.0506 4 12 4ZM12 18.4C10.7342 18.4 9.49683 18.0246 8.44435 17.3214C7.39188 16.6182 6.57158 15.6186 6.08717 14.4492C5.60277 13.2797 5.47603 11.9929 5.72298 10.7514C5.96992 9.50994 6.57946 8.36957 7.47452 7.47452C8.36958 6.57946 9.50995 5.96992 10.7514 5.72297C11.9929 5.47603 13.2797 5.60277 14.4492 6.08717C15.6186 6.57157 16.6182 7.39188 17.3214 8.44435C18.0246 9.49682 18.4 10.7342 18.4 12C18.4 13.6974 17.7257 15.3252 16.5255 16.5255C15.3253 17.7257 13.6974 18.4 12 18.4Z" fill="currentColor"/>
</svg>
