<svg width="24" height="24" viewBox="0 0 24 24" fill="none" xmlns="http://www.w3.org/2000/svg">
    <path d="M4.4003 9.5358L11.6 13.6166C11.7216 13.6855 11.8596 13.7218 12 13.7218C12.1404 13.7218 12.2784 13.6855 12.4 13.6166L19.5997 9.5358C19.7206 9.46732 19.8211 9.369 19.8913 9.2506C19.9615 9.1322 19.9988 8.99784 19.9997 8.86089C20.0002 8.7226 19.9635 8.58663 19.8933 8.46673C19.8231 8.34684 19.7218 8.24728 19.5997 8.17813L12.4 4.10514C12.2784 4.03626 12.1404 4 12 4C11.8596 4 11.7216 4.03626 11.6 4.10514L4.4003 8.17813C4.27822 8.24728 4.17694 8.34684 4.1067 8.46673C4.03646 8.58663 3.99976 8.7226 4.00032 8.86089C4.00116 8.99784 4.03852 9.1322 4.10869 9.2506C4.17886 9.369 4.2794 9.46732 4.4003 9.5358ZM12 5.72178L17.5998 8.86089L12 12L6.40022 8.86089L12 5.72178ZM18.7997 11.3486L12 15.1391L5.20027 11.3172C5.10897 11.2654 5.0081 11.2317 4.90348 11.2182C4.79886 11.2047 4.69256 11.2117 4.59069 11.2387C4.48882 11.2657 4.3934 11.3122 4.30993 11.3755C4.22646 11.4388 4.15658 11.5177 4.10431 11.6076C4.00002 11.7878 3.97261 12.0012 4.02806 12.2011C4.08351 12.4011 4.21732 12.5714 4.4003 12.6749L11.6 16.7557C11.7216 16.8246 11.8596 16.8609 12 16.8609C12.1404 16.8609 12.2784 16.8246 12.4 16.7557L19.5997 12.6749C19.7827 12.5714 19.9165 12.4011 19.9719 12.2011C20.0274 12.0012 20 11.7878 19.8957 11.6076C19.8434 11.5177 19.7735 11.4388 19.6901 11.3755C19.6066 11.3122 19.5112 11.2657 19.4093 11.2387C19.3074 11.2117 19.2011 11.2047 19.0965 11.2182C18.9919 11.2317 18.891 11.2654 18.7997 11.3172V11.3486ZM18.7997 14.4877L12 18.2782L5.20027 14.4564C5.10897 14.4045 5.0081 14.3708 4.90348 14.3573C4.79886 14.3438 4.69256 14.3508 4.59069 14.3778C4.48882 14.4048 4.3934 14.4513 4.30993 14.5146C4.22646 14.5779 4.15658 14.6568 4.10431 14.7467C4.00002 14.9269 3.97261 15.1403 4.02806 15.3402C4.08351 15.5402 4.21732 15.7105 4.4003 15.814L11.6 19.8949C11.7216 19.9637 11.8596 20 12 20C12.1404 20 12.2784 19.9637 12.4 19.8949L19.5997 15.814C19.7827 15.7105 19.9165 15.5402 19.9719 15.3402C20.0274 15.1403 20 14.9269 19.8957 14.7467C19.8434 14.6568 19.7735 14.5779 19.6901 14.5146C19.6066 14.4513 19.5112 14.4048 19.4093 14.3778C19.3074 14.3508 19.2011 14.3438 19.0965 14.3573C18.9919 14.3708 18.891 14.4045 18.7997 14.4564V14.4877Z"
          fill="currentColor"/>
</svg>
