<svg xmlns="http://www.w3.org/2000/svg" width="24" height="24" fill="currentColor" viewBox="0 0 24 24">
  <path d="M2.65 6h11.7c.172 0 .338-.105.46-.293A1.32 1.32 0 0 0 15 5c0-.265-.069-.52-.19-.707-.122-.188-.288-.293-.46-.293H2.65c-.172 0-.338.105-.46.293A1.32 1.32 0 0 0 2 5c0 .265.068.52.19.707.122.188.288.293.46.293Zm7.7 8h-7.7c-.172 0-.338.105-.46.293A1.32 1.32 0 0 0 2 15c0 .265.068.52.19.707.122.188.288.293.46.293h7.7c.172 0 .338-.105.46-.293A1.32 1.32 0 0 0 11 15c0-.265-.069-.52-.19-.707-.122-.188-.288-.293-.46-.293Zm4-5H2.65c-.172 0-.338.105-.46.293A1.32 1.32 0 0 0 2 10c0 .265.068.52.19.707.122.188.288.293.46.293h11.7c.172 0 .338-.105.46-.293A1.32 1.32 0 0 0 15 10c0-.265-.069-.52-.19-.707-.122-.188-.288-.293-.46-.293ZM21 14h-3v-3a1 1 0 0 0-2 0v3h-3a1 1 0 0 0 0 2h3v3a1 1 0 0 0 2 0v-3h3a1 1 0 0 0 0-2Z"/>
</svg>
