<svg width="24" height="24" viewBox="0 0 24 24" fill="none" xmlns="http://www.w3.org/2000/svg">
    <path d="M17.25 12.5263V9.8167C17.2487 8.6094 16.8088 7.44148 16.008 6.51978C15.2073 5.59808 14.0974 4.98208 12.875 4.78086V3.85209C12.875 3.6261 12.7828 3.40937 12.6187 3.24957C12.4546 3.08977 12.2321 3 12 3C11.7679 3 11.5454 3.08977 11.3813 3.24957C11.2172 3.40937 11.125 3.6261 11.125 3.85209V4.78086C9.90257 4.98208 8.79271 5.59808 7.99196 6.51978C7.19122 7.44148 6.75126 8.6094 6.75 9.8167V12.5263C6.23939 12.7021 5.79712 13.0274 5.48382 13.4576C5.17052 13.8878 5.00152 14.4018 5 14.9292V16.6334C5 16.8594 5.09219 17.0761 5.25628 17.2359C5.42038 17.3957 5.64294 17.4855 5.875 17.4855H8.6225C8.824 18.2075 9.26388 18.8449 9.87427 19.2994C10.4847 19.7538 11.2317 20 12 20C12.7683 20 13.5153 19.7538 14.1257 19.2994C14.7361 18.8449 15.176 18.2075 15.3775 17.4855H18.125C18.3571 17.4855 18.5796 17.3957 18.7437 17.2359C18.9078 17.0761 19 16.8594 19 16.6334V14.9292C18.9985 14.4018 18.8295 13.8878 18.5162 13.4576C18.2029 13.0274 17.7606 12.7021 17.25 12.5263ZM8.5 9.8167C8.5 8.91275 8.86875 8.04582 9.52513 7.40663C10.1815 6.76744 11.0717 6.40835 12 6.40835C12.9283 6.40835 13.8185 6.76744 14.4749 7.40663C15.1313 8.04582 15.5 8.91275 15.5 9.8167V12.373H8.5V9.8167ZM12 18.3376C11.6946 18.3358 11.395 18.2562 11.131 18.1067C10.867 17.9572 10.6477 17.7431 10.495 17.4855H13.505C13.3523 17.7431 13.133 17.9572 12.869 18.1067C12.605 18.2562 12.3054 18.3358 12 18.3376ZM17.25 15.7813H6.75V14.9292C6.75 14.7032 6.84219 14.4865 7.00628 14.3267C7.17038 14.1669 7.39294 14.0771 7.625 14.0771H16.375C16.6071 14.0771 16.8296 14.1669 16.9937 14.3267C17.1578 14.4865 17.25 14.7032 17.25 14.9292V15.7813Z"
          fill="currentColor"/>
</svg>
