<svg xmlns="http://www.w3.org/2000/svg" width="24" height="24" fill="none" viewBox="0 0 24 24">
  <path fill="currentColor" d="M13 16.001H7a1 1 0 1 0 0 2h6a1 1 0 1 0 0-2Zm-4-5.999h2a1 1 0 1 0 0-2H9a1 1 0 1 0 0 2Zm12 2h-3V3.004a1 1 0 0 0-1.5-.87l-3 1.72-3-1.72a1 1 0 0 0-1 0l-3 1.72-3-1.72a1 1 0 0 0-1.5.87V19a3 3 0 0 0 3 3h14a3 3 0 0 0 3-3v-5.998a1 1 0 0 0-1-1ZM5 20a1 1 0 0 1-1-1V4.734l2 1.14a1.08 1.08 0 0 0 1 0l3-1.72 3 1.72a1.08 1.08 0 0 0 1 0l2-1.14v14.268a3 3 0 0 0 .18 1H5Zm15-1a1 1 0 0 1-2 0v-4.998h2V19Zm-7-6.998H7a1 1 0 1 0 0 2h6a1 1 0 1 0 0-2Z"/>
</svg>
