<svg width="24" height="24" viewBox="0 0 24 24" fill="none" xmlns="http://www.w3.org/2000/svg">
    <path fill-rule="evenodd" clip-rule="evenodd"
          d="M12 16C12.4418 16 12.8 15.6418 12.8 15.2V11.2C12.8 10.7582 12.4418 10.4 12 10.4C11.5582 10.4 11.2 10.7582 11.2 11.2L11.2 15.2C11.2 15.6418 11.5582 16 12 16ZM20 12C20 16.416 16.416 20 12 20C7.584 20 4 16.416 4 12C4 7.584 7.584 4 12 4C16.416 4 20 7.584 20 12ZM18.4 12C18.4 8.472 15.528 5.6 12 5.6C8.472 5.6 5.6 8.472 5.6 12C5.6 15.528 8.472 18.4 12 18.4C15.528 18.4 18.4 15.528 18.4 12ZM11.9994 9.6C12.4413 9.6 12.7994 9.24183 12.7994 8.8C12.7994 8.35817 12.4413 8 11.9994 8C11.5576 8 11.1994 8.35817 11.1994 8.8C11.1994 9.24183 11.5576 9.6 11.9994 9.6Z"
          fill="currentColor"/>
</svg>
