<svg width="24" height="24" viewBox="0 0 24 24" fill="none" xmlns="http://www.w3.org/2000/svg">
    <path d="M9.832 13.032L5.6 17.272V16C5.6 15.7878 5.51571 15.5843 5.36569 15.4343C5.21566 15.2843 5.01217 15.2 4.8 15.2C4.58783 15.2 4.38434 15.2843 4.23431 15.4343C4.08429 15.5843 4 15.7878 4 16V19.2C4.00126 19.3045 4.02301 19.4078 4.064 19.504C4.14518 19.6995 4.30052 19.8548 4.496 19.936C4.59218 19.977 4.69546 19.9987 4.8 20H8C8.21217 20 8.41566 19.9157 8.56569 19.7657C8.71571 19.6157 8.8 19.4122 8.8 19.2C8.8 18.9878 8.71571 18.7843 8.56569 18.6343C8.41566 18.4843 8.21217 18.4 8 18.4H6.728L10.968 14.168C11.1186 14.0174 11.2033 13.813 11.2033 13.6C11.2033 13.387 11.1186 13.1826 10.968 13.032C10.8174 12.8814 10.613 12.7967 10.4 12.7967C10.187 12.7967 9.98264 12.8814 9.832 13.032ZM6.728 5.6H8C8.21217 5.6 8.41566 5.51571 8.56569 5.36569C8.71571 5.21566 8.8 5.01217 8.8 4.8C8.8 4.58783 8.71571 4.38434 8.56569 4.23431C8.41566 4.08429 8.21217 4 8 4H4.8C4.69546 4.00126 4.59218 4.02301 4.496 4.064C4.30052 4.14518 4.14518 4.30052 4.064 4.496C4.02301 4.59218 4.00126 4.69546 4 4.8V8C4 8.21217 4.08429 8.41566 4.23431 8.56569C4.38434 8.71571 4.58783 8.8 4.8 8.8C5.01217 8.8 5.21566 8.71571 5.36569 8.56569C5.51571 8.41566 5.6 8.21217 5.6 8V6.728L9.832 10.968C9.90637 11.043 9.99485 11.1025 10.0923 11.1431C10.1898 11.1837 10.2944 11.2046 10.4 11.2046C10.5056 11.2046 10.6102 11.1837 10.7077 11.1431C10.8051 11.1025 10.8936 11.043 10.968 10.968C11.043 10.8936 11.1025 10.8051 11.1431 10.7077C11.1837 10.6102 11.2046 10.5056 11.2046 10.4C11.2046 10.2944 11.1837 10.1898 11.1431 10.0923C11.1025 9.99485 11.043 9.90637 10.968 9.832L6.728 5.6ZM19.2 15.2C18.9878 15.2 18.7843 15.2843 18.6343 15.4343C18.4843 15.5843 18.4 15.7878 18.4 16V17.272L14.168 13.032C14.0174 12.8814 13.813 12.7967 13.6 12.7967C13.387 12.7967 13.1826 12.8814 13.032 13.032C12.8814 13.1826 12.7967 13.387 12.7967 13.6C12.7967 13.813 12.8814 14.0174 13.032 14.168L17.272 18.4H16C15.7878 18.4 15.5843 18.4843 15.4343 18.6343C15.2843 18.7843 15.2 18.9878 15.2 19.2C15.2 19.4122 15.2843 19.6157 15.4343 19.7657C15.5843 19.9157 15.7878 20 16 20H19.2C19.3045 19.9987 19.4078 19.977 19.504 19.936C19.6995 19.8548 19.8548 19.6995 19.936 19.504C19.977 19.4078 19.9987 19.3045 20 19.2V16C20 15.7878 19.9157 15.5843 19.7657 15.4343C19.6157 15.2843 19.4122 15.2 19.2 15.2ZM19.936 4.496C19.8548 4.30052 19.6995 4.14518 19.504 4.064C19.4078 4.02301 19.3045 4.00126 19.2 4H16C15.7878 4 15.5843 4.08429 15.4343 4.23431C15.2843 4.38434 15.2 4.58783 15.2 4.8C15.2 5.01217 15.2843 5.21566 15.4343 5.36569C15.5843 5.51571 15.7878 5.6 16 5.6H17.272L13.032 9.832C12.957 9.90637 12.8975 9.99485 12.8569 10.0923C12.8163 10.1898 12.7954 10.2944 12.7954 10.4C12.7954 10.5056 12.8163 10.6102 12.8569 10.7077C12.8975 10.8051 12.957 10.8936 13.032 10.968C13.1064 11.043 13.1949 11.1025 13.2923 11.1431C13.3898 11.1837 13.4944 11.2046 13.6 11.2046C13.7056 11.2046 13.8102 11.1837 13.9077 11.1431C14.0051 11.1025 14.0936 11.043 14.168 10.968L18.4 6.728V8C18.4 8.21217 18.4843 8.41566 18.6343 8.56569C18.7843 8.71571 18.9878 8.8 19.2 8.8C19.4122 8.8 19.6157 8.71571 19.7657 8.56569C19.9157 8.41566 20 8.21217 20 8V4.8C19.9987 4.69546 19.977 4.59218 19.936 4.496Z"
          fill="currentColor"/>
</svg>
