<svg xmlns="http://www.w3.org/2000/svg" width="24" height="24" fill="currentColor" viewBox="0 0 24 24">
  <path d="M12.5 18.364a.98.98 0 0 0 .528-.154.919.919 0 0 0 .35-.408.872.872 0 0 0 .054-.525.898.898 0 0 0-.26-.465.988.988 0 0 0-1.035-.197.942.942 0 0 0-.427.334.881.881 0 0 0 .118 1.148c.178.17.42.267.672.267Zm4.75 0a.98.98 0 0 0 .528-.154.919.919 0 0 0 .35-.408.872.872 0 0 0 .054-.525.898.898 0 0 0-.26-.465.988.988 0 0 0-1.035-.197.942.942 0 0 0-.427.334.881.881 0 0 0 .118 1.148c.178.17.42.267.672.267Zm0-3.637a.98.98 0 0 0 .528-.153.92.92 0 0 0 .35-.408.873.873 0 0 0 .054-.525.897.897 0 0 0-.26-.466.99.99 0 0 0-1.035-.197.942.942 0 0 0-.427.335.882.882 0 0 0 .118 1.148c.178.17.42.266.672.266Zm-4.75 0a.98.98 0 0 0 .528-.153.92.92 0 0 0 .35-.408.873.873 0 0 0 .054-.525.897.897 0 0 0-.26-.466.99.99 0 0 0-1.035-.197.942.942 0 0 0-.427.335.882.882 0 0 0 .118 1.148c.178.17.42.266.672.266Zm6.65-10.909h-.95V2.91a.89.89 0 0 0-.278-.643A.972.972 0 0 0 17.25 2a.972.972 0 0 0-.672.266.89.89 0 0 0-.278.643v.91H8.7v-.91a.89.89 0 0 0-.278-.643A.972.972 0 0 0 7.75 2a.972.972 0 0 0-.672.266.89.89 0 0 0-.278.643v.91h-.95c-.756 0-1.48.287-2.015.798A2.67 2.67 0 0 0 3 6.545v12.728c0 .723.3 1.417.835 1.928.534.512 1.26.799 2.015.799h13.3c.756 0 1.48-.287 2.015-.799A2.67 2.67 0 0 0 22 19.273V6.545c0-.723-.3-1.417-.835-1.928a2.916 2.916 0 0 0-2.015-.799Zm.95 15.455a.89.89 0 0 1-.278.643.973.973 0 0 1-.672.266H5.85a.972.972 0 0 1-.672-.266.89.89 0 0 1-.278-.643V11.09h15.2v8.182Zm0-10H4.9V6.545c0-.24.1-.472.278-.642a.972.972 0 0 1 .672-.267h.95v.91c0 .24.1.472.278.642.178.17.42.267.672.267a.972.972 0 0 0 .672-.267.89.89 0 0 0 .278-.643v-.909h7.6v.91c0 .24.1.472.278.642.178.17.42.267.672.267a.972.972 0 0 0 .672-.267.89.89 0 0 0 .278-.643v-.909h.95a.97.97 0 0 1 .672.267.89.89 0 0 1 .278.642v2.728ZM7.75 14.727a.98.98 0 0 0 .528-.153.92.92 0 0 0 .35-.408.873.873 0 0 0 .054-.525.898.898 0 0 0-.26-.466.963.963 0 0 0-.487-.248.99.99 0 0 0-.549.051.942.942 0 0 0-.426.335.882.882 0 0 0 .118 1.148c.178.17.42.266.672.266Zm0 3.637a.98.98 0 0 0 .528-.154.919.919 0 0 0 .35-.408.873.873 0 0 0 .054-.525.898.898 0 0 0-.26-.465.989.989 0 0 0-1.035-.197.942.942 0 0 0-.427.334.881.881 0 0 0 .118 1.148c.178.17.42.267.672.267Z"/>
</svg>
