<svg width="24" height="24" viewBox="0 0 24 24" fill="none" xmlns="http://www.w3.org/2000/svg">
    <path d="M19 8.66774C19.0005 8.57562 18.9829 8.4843 18.948 8.39902C18.9132 8.31374 18.8619 8.23618 18.797 8.17077L15.829 5.203C15.7636 5.13812 15.686 5.0868 15.6007 5.05197C15.5154 5.01714 15.4241 4.99948 15.332 5.00001C15.2399 4.99948 15.1485 5.01714 15.0633 5.05197C14.978 5.0868 14.9004 5.13812 14.835 5.203L12.854 7.18385L5.20301 14.8343C5.13813 14.8997 5.08681 14.9772 5.05197 15.0625C5.01714 15.1478 4.99948 15.2391 5.00001 15.3312V18.299C5.00001 18.4847 5.07376 18.6627 5.20504 18.794C5.33631 18.9252 5.51436 18.999 5.70001 18.999H8.66801C8.76595 19.0043 8.86393 18.989 8.95558 18.954C9.04723 18.919 9.1305 18.8652 9.2 18.796L16.809 11.1456L18.797 9.1997C18.8609 9.13186 18.9129 9.05378 18.951 8.96872C18.9577 8.91292 18.9577 8.85652 18.951 8.80073C18.9543 8.76815 18.9543 8.73532 18.951 8.70273L19 8.66774ZM8.38101 17.5991H6.40001V15.6182L13.351 8.66774L15.332 10.6486L8.38101 17.5991ZM16.319 9.66166L14.338 7.68081L15.332 6.69389L17.306 8.66774L16.319 9.66166Z"
          fill="currentColor"/>
</svg>
