<svg xmlns="http://www.w3.org/2000/svg" width="24" height="24" fill="currentColor" viewBox="0 0 24 24">
  <path d="M14 12.474h-1v-.948a.923.923 0 0 0-.293-.67A1.03 1.03 0 0 0 12 10.58c-.265 0-.52.1-.707.277a.923.923 0 0 0-.293.67v.948h-1c-.265 0-.52.1-.707.277a.923.923 0 0 0-.293.67c0 .251.105.492.293.67.187.178.442.277.707.277h1v.948c0 .251.105.492.293.67.187.177.442.277.707.277.265 0 .52-.1.707-.277a.923.923 0 0 0 .293-.67v-.948h1c.265 0 .52-.1.707-.277a.923.923 0 0 0 .293-.67.923.923 0 0 0-.293-.67 1.029 1.029 0 0 0-.707-.277Zm5-6.632h-6.28l-.32-.947a2.864 2.864 0 0 0-1.101-1.377A3.116 3.116 0 0 0 9.56 3H5c-.796 0-1.559.3-2.121.832A2.768 2.768 0 0 0 2 5.842v12.316c0 .754.316 1.477.879 2.01A3.087 3.087 0 0 0 5 21h14c.796 0 1.559-.3 2.121-.832a2.768 2.768 0 0 0 .879-2.01V8.684a2.77 2.77 0 0 0-.879-2.01A3.087 3.087 0 0 0 19 5.843Zm1 12.316a.923.923 0 0 1-.293.67 1.029 1.029 0 0 1-.707.277H5c-.265 0-.52-.1-.707-.277a.923.923 0 0 1-.293-.67V5.842c0-.251.105-.492.293-.67A1.03 1.03 0 0 1 5 4.895h4.56c.21 0 .414.061.585.177.17.115.298.279.365.467l.54 1.554a.953.953 0 0 0 .365.467c.17.115.375.177.585.177h7c.265 0 .52.1.707.277a.923.923 0 0 1 .293.67v9.474Z"/>
</svg>
