<svg xmlns="http://www.w3.org/2000/svg" width="24" height="24" fill="currentColor" viewBox="0 0 24 24">
  <path d="M19.852 15.49h-4.486a.997.997 0 0 0-.705 1.7c.187.187.44.292.705.292h2.393a7.975 7.975 0 0 1-5.763 2.49 8.061 8.061 0 0 1-3.11-.627L7.4 20.829a9.809 9.809 0 0 0 4.596 1.135 9.975 9.975 0 0 0 6.86-2.759v1.763a.996.996 0 0 0 1.701.705.995.995 0 0 0 .292-.705v-4.482a.996.996 0 0 0-.997-.996Zm-1.565-8.366 1.426-1.425 1.994-1.992a1 1 0 1 0-1.416-1.414l-1.994 1.992a9.866 9.866 0 0 0-6.301-2.241 9.975 9.975 0 0 0-6.86 2.759V3.04a.996.996 0 0 0-1.702-.704.996.996 0 0 0-.292.704v4.482a.996.996 0 0 0 .997.996h4.487a.997.997 0 0 0 .705-1.7.998.998 0 0 0-.705-.292H6.233a7.91 7.91 0 0 1 10.638-.807L5.705 16.875a7.894 7.894 0 0 1-1.685-4.87.996.996 0 0 0-1.702-.705.996.996 0 0 0-.292.704A9.845 9.845 0 0 0 4.289 18.3l-1.994 1.992a.996.996 0 0 0 0 1.414.998.998 0 0 0 1.416 0l1.994-1.992L7.13 18.29 18.287 7.124Zm1.057 1.773c.413.984.627 2.04.628 3.107a.995.995 0 0 0 1.702.704.995.995 0 0 0 .292-.704 9.783 9.783 0 0 0-1.137-4.592l-1.485 1.485Z"/>
</svg>
