<svg xmlns="http://www.w3.org/2000/svg" width="24" height="24" fill="none" viewBox="0 0 24 24">
  <path fill="currentColor" d="m17.232 10.358.96-.986a4.434 4.434 0 0 0 1.145-3.063 4.459 4.459 0 0 0-1.25-3.026 4.237 4.237 0 0 0-2.951-1.282 4.216 4.216 0 0 0-2.99 1.177l-7.614 7.793a6.157 6.157 0 0 0-1.53 4.26 6.179 6.179 0 0 0 1.77 4.165 5.857 5.857 0 0 0 4.086 1.752 5.89 5.89 0 0 0 3.105-.843A5.912 5.912 0 0 0 16.107 22C19.366 22 22 19.367 22 16.131c0-2.862-2.048-5.236-4.768-5.763v-.01Zm-8.384 8.856a4 4 0 0 1-2.74-1.216 4.215 4.215 0 0 1-.163-5.677l7.614-7.793a2.418 2.418 0 0 1 1.682-.69c.625 0 1.231.25 1.683.69a2.494 2.494 0 0 1 0 3.447l-2.452 2.508a5.88 5.88 0 0 0-4.066 4.164l-.039.048a.701.701 0 0 1-.788.191.707.707 0 0 1-.404-.392.9.9 0 0 1-.067-.287.586.586 0 0 1 .048-.287.805.805 0 0 1 .144-.25l4.884-4.987a.967.967 0 0 0 .279-.69.967.967 0 0 0-.952-.976.94.94 0 0 0-.673.287l-4.884 5.008c-.24.248-.442.545-.567.87-.135.326-.202.67-.202 1.025 0 .354.067.699.202 1.024.134.326.327.623.567.872.5.488 1.163.756 1.846.756.154 0 .308-.02.461-.048.077.68.28 1.33.577 1.915a3.938 3.938 0 0 1-1.98.479l-.01.01Zm10.777-3.82-2.98 3.188a1.071 1.071 0 0 1-.327.23.978.978 0 0 1-1.048-.115l-2.25-1.867a.952.952 0 0 1-.124-1.34.962.962 0 0 1 1.346-.124l1.567 1.302 2.403-2.566a.96.96 0 0 1 1.356-.048.951.951 0 0 1 .048 1.35l.01-.01Z"/>
</svg>
