<svg width="24" height="24" viewBox="0 0 24 24" fill="none" xmlns="http://www.w3.org/2000/svg">
    <path d="M7.27273 9.09091H7.63636V9.45455C7.63636 9.64743 7.71299 9.83242 7.84938 9.9688C7.98577 10.1052 8.17075 10.1818 8.36364 10.1818C8.55652 10.1818 8.74151 10.1052 8.8779 9.9688C9.01429 9.83242 9.09091 9.64743 9.09091 9.45455V9.09091H9.45455C9.64743 9.09091 9.83242 9.01429 9.9688 8.8779C10.1052 8.74151 10.1818 8.55652 10.1818 8.36364C10.1818 8.17075 10.1052 7.98577 9.9688 7.84938C9.83242 7.71299 9.64743 7.63636 9.45455 7.63636H9.09091V7.27273C9.09091 7.07984 9.01429 6.89486 8.8779 6.75847C8.74151 6.62208 8.55652 6.54545 8.36364 6.54545C8.17075 6.54545 7.98577 6.62208 7.84938 6.75847C7.71299 6.89486 7.63636 7.07984 7.63636 7.27273V7.63636H7.27273C7.07984 7.63636 6.89486 7.71299 6.75847 7.84938C6.62208 7.98577 6.54545 8.17075 6.54545 8.36364C6.54545 8.55652 6.62208 8.74151 6.75847 8.8779C6.89486 9.01429 7.07984 9.09091 7.27273 9.09091ZM6.82182 17.1782C6.95808 17.3136 7.14241 17.3897 7.33455 17.3897C7.52668 17.3897 7.71101 17.3136 7.84727 17.1782L8.36364 16.6618L8.88 17.1782C9.01626 17.3136 9.20059 17.3897 9.39273 17.3897C9.58486 17.3897 9.76919 17.3136 9.90545 17.1782C10.0409 17.0419 10.1169 16.8576 10.1169 16.6655C10.1169 16.4733 10.0409 16.289 9.90545 16.1527L9.38909 15.6364L9.90545 15.12C10.0246 14.9809 10.0869 14.8019 10.0798 14.6189C10.0727 14.4358 9.99684 14.2622 9.86732 14.1327C9.7378 14.0032 9.56417 13.9273 9.38113 13.9202C9.19809 13.9131 9.01913 13.9754 8.88 14.0945L8.36364 14.6109L7.84727 14.0945C7.70814 13.9754 7.52918 13.9131 7.34614 13.9202C7.16311 13.9273 6.98948 14.0032 6.85995 14.1327C6.73043 14.2622 6.65455 14.4358 6.64748 14.6189C6.64041 14.8019 6.70267 14.9809 6.82182 15.12L7.33818 15.6364L6.82182 16.1527C6.68636 16.289 6.61033 16.4733 6.61033 16.6655C6.61033 16.8576 6.68636 17.0419 6.82182 17.1782ZM17.8182 4H6.18182C5.60316 4 5.04821 4.22987 4.63904 4.63904C4.22987 5.04821 4 5.60316 4 6.18182V17.8182C4 18.3968 4.22987 18.9518 4.63904 19.361C5.04821 19.7701 5.60316 20 6.18182 20H17.8182C18.3968 20 18.9518 19.7701 19.361 19.361C19.7701 18.9518 20 18.3968 20 17.8182V6.18182C20 5.60316 19.7701 5.04821 19.361 4.63904C18.9518 4.22987 18.3968 4 17.8182 4ZM11.2727 18.5455H6.18182C5.98893 18.5455 5.80395 18.4688 5.66756 18.3324C5.53117 18.1961 5.45455 18.0111 5.45455 17.8182V12.7273H11.2727V18.5455ZM11.2727 11.2727H5.45455V6.18182C5.45455 5.98893 5.53117 5.80395 5.66756 5.66756C5.80395 5.53117 5.98893 5.45455 6.18182 5.45455H11.2727V11.2727ZM18.5455 17.8182C18.5455 18.0111 18.4688 18.1961 18.3324 18.3324C18.1961 18.4688 18.0111 18.5455 17.8182 18.5455H12.7273V12.7273H18.5455V17.8182ZM18.5455 11.2727H12.7273V5.45455H17.8182C18.0111 5.45455 18.1961 5.53117 18.3324 5.66756C18.4688 5.80395 18.5455 5.98893 18.5455 6.18182V11.2727ZM14.5455 15.2727H16.7273C16.9202 15.2727 17.1051 15.1961 17.2415 15.0597C17.3779 14.9233 17.4545 14.7383 17.4545 14.5455C17.4545 14.3526 17.3779 14.1676 17.2415 14.0312C17.1051 13.8948 16.9202 13.8182 16.7273 13.8182H14.5455C14.3526 13.8182 14.1676 13.8948 14.0312 14.0312C13.8948 14.1676 13.8182 14.3526 13.8182 14.5455C13.8182 14.7383 13.8948 14.9233 14.0312 15.0597C14.1676 15.1961 14.3526 15.2727 14.5455 15.2727ZM16.7273 7.63636H14.5455C14.3526 7.63636 14.1676 7.71299 14.0312 7.84938C13.8948 7.98577 13.8182 8.17075 13.8182 8.36364C13.8182 8.55652 13.8948 8.74151 14.0312 8.8779C14.1676 9.01429 14.3526 9.09091 14.5455 9.09091H16.7273C16.9202 9.09091 17.1051 9.01429 17.2415 8.8779C17.3779 8.74151 17.4545 8.55652 17.4545 8.36364C17.4545 8.17075 17.3779 7.98577 17.2415 7.84938C17.1051 7.71299 16.9202 7.63636 16.7273 7.63636ZM14.5455 17.4545H16.7273C16.9202 17.4545 17.1051 17.3779 17.2415 17.2415C17.3779 17.1051 17.4545 16.9202 17.4545 16.7273C17.4545 16.5344 17.3779 16.3494 17.2415 16.213C17.1051 16.0766 16.9202 16 16.7273 16H14.5455C14.3526 16 14.1676 16.0766 14.0312 16.213C13.8948 16.3494 13.8182 16.5344 13.8182 16.7273C13.8182 16.9202 13.8948 17.1051 14.0312 17.2415C14.1676 17.3779 14.3526 17.4545 14.5455 17.4545Z"
          fill="currentColor"/>
</svg>
