<svg width="24" height="24" viewBox="0 0 24 24" fill="none" xmlns="http://www.w3.org/2000/svg">
<path d="M16 4H8C7.46957 4 6.96086 4.22987 6.58579 4.63904C6.21071 5.04821 6 5.60316 6 6.18182V17.8182C6 18.3968 6.21071 18.9518 6.58579 19.361C6.96086 19.7701 7.46957 20 8 20H16C16.5304 20 17.0391 19.7701 17.4142 19.361C17.7893 18.9518 18 18.3968 18 17.8182V6.18182C18 5.60316 17.7893 5.04821 17.4142 4.63904C17.0391 4.22987 16.5304 4 16 4ZM16.6667 17.8182C16.6667 18.0111 16.5964 18.1961 16.4714 18.3324C16.3464 18.4688 16.1768 18.5455 16 18.5455H8C7.82319 18.5455 7.65362 18.4688 7.5286 18.3324C7.40357 18.1961 7.33333 18.0111 7.33333 17.8182V6.18182C7.33333 5.98893 7.40357 5.80395 7.5286 5.66756C7.65362 5.53117 7.82319 5.45455 8 5.45455H16C16.1768 5.45455 16.3464 5.53117 16.4714 5.66756C16.5964 5.80395 16.6667 5.98893 16.6667 6.18182V17.8182Z" fill="#2C333B"/>
<path d="M9.69231 6.25C9.69231 6.11193 9.79563 6 9.92308 6H14.0769C14.2044 6 14.3077 6.11193 14.3077 6.25C14.3077 6.38807 14.2044 6.5 14.0769 6.5H9.92308C9.79563 6.5 9.69231 6.38807 9.69231 6.25Z" fill="#2C333B"/>
<path d="M13 16C13 16.5523 12.5523 17 12 17C11.4477 17 11 16.5523 11 16C11 15.4477 11.4477 15 12 15C12.5523 15 13 15.4477 13 16Z" fill="#2C333B"/>
</svg>
