<svg xmlns="http://www.w3.org/2000/svg" width="24" height="24" fill="currentColor" viewBox="0 0 24 24">
  <path d="M16.278 20H8.722a2.756 2.756 0 0 1-2.003-.879A3.092 3.092 0 0 1 5.889 17V7c0-.265-.1-.52-.277-.707A.919.919 0 0 0 4.944 6c-.25 0-.49.105-.667.293A1.03 1.03 0 0 0 4 7v10c0 1.326.498 2.598 1.383 3.535C6.27 21.473 7.47 22 8.723 22h7.555a.92.92 0 0 0 .668-.293 1.03 1.03 0 0 0 .276-.707c0-.265-.1-.52-.276-.707a.919.919 0 0 0-.668-.293Zm-5.667-7c0 .265.1.52.277.707a.919.919 0 0 0 .668.293h4.722a.92.92 0 0 0 .668-.293 1.03 1.03 0 0 0 .276-.707c0-.265-.1-.52-.276-.707a.919.919 0 0 0-.668-.293h-4.722a.918.918 0 0 0-.668.293 1.03 1.03 0 0 0-.277.707ZM21 8.94a1.369 1.369 0 0 0-.057-.27v-.09a1.074 1.074 0 0 0-.18-.28l-5.666-6a1.01 1.01 0 0 0-.264-.19.286.286 0 0 0-.085 0 .8.8 0 0 0-.312-.11h-3.825c-.751 0-1.472.316-2.003.879A3.092 3.092 0 0 0 7.778 5v10c0 .796.298 1.559.83 2.121A2.756 2.756 0 0 0 10.61 18h7.556c.751 0 1.472-.316 2.003-.879.531-.562.83-1.325.83-2.121V8.94Zm-5.667-3.53L17.78 8h-1.501a.919.919 0 0 1-.668-.293A1.03 1.03 0 0 1 15.333 7V5.41ZM19.111 15c0 .265-.1.52-.277.707a.919.919 0 0 1-.667.293H10.61a.919.919 0 0 1-.668-.293A1.03 1.03 0 0 1 9.667 15V5c0-.265.1-.52.276-.707A.919.919 0 0 1 10.611 4h2.833v3c.003.341.06.68.17 1h-2.058a.918.918 0 0 0-.668.293A1.03 1.03 0 0 0 10.61 9c0 .265.1.52.277.707a.919.919 0 0 0 .668.293h7.555v5Z"/>
</svg>
