<svg width="24" height="24" viewBox="0 0 24 24" fill="none" xmlns="http://www.w3.org/2000/svg">
    <path d="M12.5522 15.8473C12.514 15.8144 12.4723 15.7851 12.4278 15.76C12.3881 15.7312 12.3433 15.7091 12.2956 15.6945C12.2492 15.6724 12.1993 15.6577 12.1478 15.6509C11.9988 15.6215 11.8436 15.6367 11.7044 15.6945C11.6079 15.7272 11.5203 15.7793 11.4477 15.8472C11.3751 15.9151 11.3194 15.997 11.2844 16.0873C11.2409 16.1736 11.2196 16.2682 11.2222 16.3636C11.221 16.4582 11.2395 16.5521 11.2767 16.64C11.3218 16.7269 11.3793 16.8076 11.4478 16.88C11.5205 16.9474 11.6066 17.0007 11.7014 17.0369C11.7962 17.0731 11.8976 17.0915 12 17.0909C12.102 17.0934 12.2032 17.0734 12.2956 17.0327C12.3898 16.9959 12.4766 16.9442 12.5522 16.88C12.6243 16.812 12.6813 16.7315 12.72 16.6428C12.7587 16.5542 12.7784 16.4594 12.7778 16.3636C12.7765 16.2686 12.7554 16.1747 12.7156 16.0873C12.6785 15.998 12.623 15.9164 12.5522 15.8473ZM9.31667 12.8509C9.27696 12.8221 9.23223 12.8 9.18444 12.7855C9.13914 12.7582 9.08915 12.7385 9.03667 12.7273C8.93689 12.7056 8.83311 12.7056 8.73333 12.7273L8.59333 12.7709L8.45333 12.8364L8.33667 12.9236C8.19086 13.0667 8.11001 13.257 8.11111 13.4545C8.11052 13.5503 8.13014 13.6451 8.16884 13.7338C8.20755 13.8224 8.26458 13.903 8.33667 13.9709C8.41227 14.0352 8.49908 14.0868 8.59333 14.1236C8.71117 14.1689 8.83908 14.1864 8.96585 14.1746C9.09261 14.1628 9.21434 14.1221 9.32033 14.0561C9.42633 13.99 9.51334 13.9006 9.57373 13.7957C9.63412 13.6908 9.66603 13.5737 9.66667 13.4545C9.6638 13.262 9.58324 13.0776 9.44111 12.9382L9.31667 12.8509ZM9.44111 15.8473C9.36714 15.7811 9.27992 15.7292 9.18444 15.6945C9.04365 15.6335 8.88654 15.6132 8.73333 15.6364L8.59333 15.68C8.54377 15.6959 8.49669 15.7179 8.45333 15.7455C8.41259 15.7723 8.37363 15.8015 8.33667 15.8327C8.26586 15.9019 8.21035 15.9835 8.17333 16.0727C8.13218 16.1598 8.11093 16.2539 8.11093 16.3491C8.11093 16.4443 8.13218 16.5384 8.17333 16.6255C8.21272 16.7136 8.26796 16.7948 8.33667 16.8655C8.40805 16.9355 8.49366 16.9915 8.58848 17.0302C8.6833 17.0689 8.78543 17.0896 8.88889 17.0909C8.99092 17.0934 9.09214 17.0734 9.18444 17.0327C9.2787 16.9959 9.36551 16.9442 9.44111 16.88C9.50981 16.8093 9.56506 16.7281 9.60444 16.64C9.64559 16.5529 9.66685 16.4588 9.66685 16.3636C9.66685 16.2685 9.64559 16.1743 9.60444 16.0873C9.56743 15.998 9.51192 15.9164 9.44111 15.8473ZM11.7044 12.7855C11.609 12.8201 11.5217 12.872 11.4478 12.9382C11.3057 13.0776 11.2251 13.262 11.2222 13.4545C11.2229 13.5737 11.2548 13.6908 11.3152 13.7957C11.3755 13.9006 11.4626 13.99 11.5686 14.0561C11.6746 14.1221 11.7963 14.1628 11.923 14.1746C12.0498 14.1864 12.1777 14.1689 12.2956 14.1236C12.3898 14.0868 12.4766 14.0352 12.5522 13.9709C12.6243 13.903 12.6813 13.8224 12.72 13.7338C12.7587 13.6451 12.7784 13.5503 12.7778 13.4545C12.7749 13.262 12.6943 13.0776 12.5522 12.9382C12.4428 12.8373 12.304 12.7689 12.1531 12.7417C12.0022 12.7145 11.8461 12.7298 11.7044 12.7855ZM15.6633 15.8473C15.5877 15.783 15.5009 15.7314 15.4067 15.6945C15.265 15.6389 15.1089 15.6236 14.958 15.6508C14.8072 15.678 14.6683 15.7464 14.5589 15.8473C14.4881 15.9164 14.4326 15.998 14.3956 16.0873C14.3544 16.1743 14.3332 16.2685 14.3332 16.3636C14.3332 16.4588 14.3544 16.5529 14.3956 16.64C14.4349 16.7281 14.4902 16.8093 14.5589 16.88C14.6316 16.9474 14.7178 17.0007 14.8125 17.0369C14.9073 17.0731 15.0088 17.0915 15.1111 17.0909C15.2131 17.0934 15.3144 17.0734 15.4067 17.0327C15.5009 16.9959 15.5877 16.9442 15.6633 16.88C15.7713 16.7777 15.8444 16.6479 15.8734 16.5068C15.9025 16.3657 15.8862 16.2197 15.8267 16.0873C15.7896 15.998 15.7341 15.9164 15.6633 15.8473ZM15.1111 6.90909H8.88889C8.68261 6.90909 8.48478 6.98571 8.33892 7.1221C8.19306 7.25849 8.11111 7.44348 8.11111 7.63636V10.5455C8.11111 10.7383 8.19306 10.9233 8.33892 11.0597C8.48478 11.1961 8.68261 11.2727 8.88889 11.2727H15.1111C15.3174 11.2727 15.5152 11.1961 15.6611 11.0597C15.8069 10.9233 15.8889 10.7383 15.8889 10.5455V7.63636C15.8889 7.44348 15.8069 7.25849 15.6611 7.1221C15.5152 6.98571 15.3174 6.90909 15.1111 6.90909ZM14.3333 9.81818H9.66667V8.36364H14.3333V9.81818ZM16.6667 4H7.33333C6.71449 4 6.121 4.22987 5.68342 4.63904C5.24583 5.04821 5 5.60316 5 6.18182V17.8182C5 18.3968 5.24583 18.9518 5.68342 19.361C6.121 19.7701 6.71449 20 7.33333 20H16.6667C17.2855 20 17.879 19.7701 18.3166 19.361C18.7542 18.9518 19 18.3968 19 17.8182V6.18182C19 5.60316 18.7542 5.04821 18.3166 4.63904C17.879 4.22987 17.2855 4 16.6667 4ZM17.4444 17.8182C17.4444 18.0111 17.3625 18.1961 17.2166 18.3324C17.0708 18.4688 16.8729 18.5455 16.6667 18.5455H7.33333C7.12705 18.5455 6.92922 18.4688 6.78336 18.3324C6.6375 18.1961 6.55556 18.0111 6.55556 17.8182V6.18182C6.55556 5.98893 6.6375 5.80395 6.78336 5.66756C6.92922 5.53117 7.12705 5.45455 7.33333 5.45455H16.6667C16.8729 5.45455 17.0708 5.53117 17.2166 5.66756C17.3625 5.80395 17.4444 5.98893 17.4444 6.18182V17.8182ZM15.5389 12.8509C15.4992 12.8221 15.4544 12.8 15.4067 12.7855C15.3604 12.7633 15.3104 12.7486 15.2589 12.7418C15.1591 12.7201 15.0553 12.7201 14.9556 12.7418L14.8156 12.7855L14.6756 12.8509L14.5589 12.9382C14.4168 13.0776 14.3362 13.262 14.3333 13.4545C14.334 13.5737 14.3659 13.6908 14.4263 13.7957C14.4867 13.9006 14.5737 13.99 14.6797 14.0561C14.7857 14.1221 14.9074 14.1628 15.0342 14.1746C15.1609 14.1864 15.2888 14.1689 15.4067 14.1236C15.5009 14.0868 15.5877 14.0352 15.6633 13.9709C15.7354 13.903 15.7924 13.8224 15.8312 13.7338C15.8699 13.6451 15.8895 13.5503 15.8889 13.4545C15.886 13.262 15.8055 13.0776 15.6633 12.9382L15.5389 12.8509Z"
          fill="currentColor"/>
</svg>
