<svg width="24" height="24" viewBox="0 0 24 24" fill="none" xmlns="http://www.w3.org/2000/svg">
    <path d="M5 12C5 12.2387 5.09219 12.4676 5.25628 12.6364C5.42038 12.8052 5.64294 12.9 5.875 12.9H12.5163L10.5037 14.961C10.4217 15.0447 10.3566 15.1442 10.3122 15.2539C10.2678 15.3636 10.2449 15.4812 10.2449 15.6C10.2449 15.7188 10.2678 15.8364 10.3122 15.9461C10.3566 16.0558 10.4217 16.1553 10.5037 16.239C10.5851 16.3234 10.6819 16.3903 10.7885 16.436C10.8951 16.4817 11.0095 16.5052 11.125 16.5052C11.2405 16.5052 11.3549 16.4817 11.4615 16.436C11.5681 16.3903 11.6649 16.3234 11.7463 16.239L15.2463 12.639C15.3259 12.5534 15.3884 12.4525 15.43 12.342C15.5175 12.1229 15.5175 11.8771 15.43 11.658C15.3884 11.5475 15.3259 11.4466 15.2463 11.361L11.7463 7.761C11.6647 7.67709 11.5678 7.61052 11.4612 7.56511C11.3546 7.51969 11.2404 7.49632 11.125 7.49632C11.0096 7.49632 10.8954 7.51969 10.7888 7.56511C10.6822 7.61052 10.5853 7.67709 10.5037 7.761C10.4222 7.84491 10.3575 7.94454 10.3133 8.05418C10.2691 8.16382 10.2464 8.28133 10.2464 8.4C10.2464 8.51867 10.2691 8.63618 10.3133 8.74582C10.3575 8.85546 10.4222 8.95509 10.5037 9.039L12.5163 11.1H5.875C5.64294 11.1 5.42038 11.1948 5.25628 11.3636C5.09219 11.5324 5 11.7613 5 12ZM16.375 3H7.625C6.92881 3 6.26113 3.28446 5.76884 3.79081C5.27656 4.29716 5 4.98392 5 5.7V8.4C5 8.63869 5.09219 8.86761 5.25628 9.0364C5.42038 9.20518 5.64294 9.3 5.875 9.3C6.10706 9.3 6.32962 9.20518 6.49372 9.0364C6.65781 8.86761 6.75 8.63869 6.75 8.4V5.7C6.75 5.46131 6.84219 5.23239 7.00628 5.0636C7.17038 4.89482 7.39294 4.8 7.625 4.8H16.375C16.6071 4.8 16.8296 4.89482 16.9937 5.0636C17.1578 5.23239 17.25 5.46131 17.25 5.7V18.3C17.25 18.5387 17.1578 18.7676 16.9937 18.9364C16.8296 19.1052 16.6071 19.2 16.375 19.2H7.625C7.39294 19.2 7.17038 19.1052 7.00628 18.9364C6.84219 18.7676 6.75 18.5387 6.75 18.3V15.6C6.75 15.3613 6.65781 15.1324 6.49372 14.9636C6.32962 14.7948 6.10706 14.7 5.875 14.7C5.64294 14.7 5.42038 14.7948 5.25628 14.9636C5.09219 15.1324 5 15.3613 5 15.6V18.3C5 19.0161 5.27656 19.7028 5.76884 20.2092C6.26113 20.7155 6.92881 21 7.625 21H16.375C17.0712 21 17.7389 20.7155 18.2312 20.2092C18.7234 19.7028 19 19.0161 19 18.3V5.7C19 4.98392 18.7234 4.29716 18.2312 3.79081C17.7389 3.28446 17.0712 3 16.375 3Z"
          fill="currentColor"/>
</svg>
