<svg width="24" height="24" viewBox="0 0 24 24" fill="none" xmlns="http://www.w3.org/2000/svg">
    <path d="M11.432 14.968C11.5081 15.0408 11.5978 15.0979 11.696 15.136C11.8908 15.216 12.1092 15.216 12.304 15.136C12.4022 15.0979 12.4919 15.0408 12.568 14.968L14.968 12.568C15.1186 12.4174 15.2033 12.213 15.2033 12C15.2033 11.787 15.1186 11.5826 14.968 11.432C14.8174 11.2814 14.613 11.1967 14.4 11.1967C14.187 11.1967 13.9826 11.2814 13.832 11.432L12.8 12.472V9.6C12.8 9.38783 12.7157 9.18435 12.5657 9.03432C12.4157 8.88429 12.2122 8.8 12 8.8C11.7878 8.8 11.5843 8.88429 11.4343 9.03432C11.2843 9.18435 11.2 9.38783 11.2 9.6V12.472L10.168 11.432C10.0936 11.357 10.0051 11.2975 9.90766 11.2569C9.81017 11.2163 9.70561 11.1954 9.6 11.1954C9.49439 11.1954 9.38983 11.2163 9.29234 11.2569C9.19485 11.2975 9.10637 11.357 9.032 11.432C8.95702 11.5064 8.8975 11.5949 8.85689 11.6923C8.81627 11.7898 8.79536 11.8944 8.79536 12C8.79536 12.1056 8.81627 12.2102 8.85689 12.3077C8.8975 12.4052 8.95702 12.4936 9.032 12.568L11.432 14.968ZM12 20C13.5822 20 15.129 19.5308 16.4446 18.6518C17.7602 17.7727 18.7855 16.5233 19.391 15.0615C19.9965 13.5997 20.155 11.9911 19.8463 10.4393C19.5376 8.88743 18.7757 7.46197 17.6569 6.34315C16.538 5.22433 15.1126 4.4624 13.5607 4.15372C12.0089 3.84504 10.4003 4.00347 8.93853 4.60897C7.47672 5.21447 6.22729 6.23985 5.34824 7.55544C4.46919 8.87103 4 10.4178 4 12C4 14.1217 4.84285 16.1566 6.34315 17.6569C7.08601 18.3997 7.96793 18.989 8.93853 19.391C9.90914 19.7931 10.9494 20 12 20V20ZM12 5.6C13.2658 5.6 14.5032 5.97536 15.5556 6.6786C16.6081 7.38184 17.4284 8.38138 17.9128 9.55083C18.3972 10.7203 18.524 12.0071 18.277 13.2486C18.0301 14.4901 17.4205 15.6304 16.5255 16.5255C15.6304 17.4205 14.4901 18.0301 13.2486 18.277C12.0071 18.524 10.7203 18.3972 9.55083 17.9128C8.38138 17.4284 7.38184 16.6081 6.67859 15.5557C5.97535 14.5032 5.6 13.2658 5.6 12C5.6 10.3026 6.27428 8.67475 7.47452 7.47452C8.67475 6.27429 10.3026 5.6 12 5.6V5.6Z"
          fill="currentColor"/>
</svg>
