<svg width="24" height="24" viewBox="0 0 24 24" fill="none" xmlns="http://www.w3.org/2000/svg">
  <path fill="currentColor"
        d="M 14.275391 4 C 14.062691 4 13.874294 4.1407464 13.808594 4.3476562 L 13.15625 6.4023438 L 11.042969 6.4023438 C 10.830269 6.4023438 10.641872 6.54309 10.576172 6.75 C 10.510472 6.9569 10.581806 7.1826769 10.753906 7.3105469 L 12.464844 8.5800781 L 11.810547 10.636719 C 11.744747 10.843619 11.818134 11.069366 11.990234 11.197266 C 12.162334 11.325166 12.394306 11.325166 12.566406 11.197266 L 14.275391 9.9277344 L 15.986328 11.197266 C 16.158428 11.325166 16.3904 11.325166 16.5625 11.197266 C 16.7346 11.069366 16.805934 10.843619 16.740234 10.636719 L 16.087891 8.5800781 L 17.796875 7.3105469 C 17.968975 7.1826769 18.042262 6.9569 17.976562 6.75 C 17.910763 6.54309 17.722466 6.4023437 17.509766 6.4023438 L 15.396484 6.4023438 L 14.742188 4.3476562 C 14.676386 4.1407463 14.488091 4 14.275391 4 z M 8.0214844 4.5019531 C 6.3527144 4.5019531 5 5.8851069 5 7.5917969 L 5 18.453125 C 5 19.709825 6.3887219 20.439484 7.3886719 19.708984 L 11.042969 17.039062 L 14.697266 19.708984 C 15.697166 20.439484 17.085938 19.709825 17.085938 18.453125 L 17.085938 13 C 17.085938 12.5733 16.747278 12.228516 16.330078 12.228516 C 15.912878 12.228516 15.576172 12.5733 15.576172 13 L 15.576172 18.453125 L 11.921875 15.783203 C 11.396575 15.399503 10.689362 15.399503 10.164062 15.783203 L 6.5117188 18.453125 L 6.5117188 7.5917969 C 6.5117188 6.7384469 7.1870944 6.046875 8.0214844 6.046875 L 8.7773438 6.046875 C 9.1945337 6.046875 9.5332031 5.7020606 9.5332031 5.2753906 C 9.5332031 4.8487106 9.1945337 4.5019531 8.7773438 4.5019531 L 8.0214844 4.5019531 z M 14.275391 6.1269531 L 14.572266 7.0585938 C 14.637966 7.2654938 14.826263 7.40625 15.039062 7.40625 L 15.998047 7.40625 L 15.222656 7.9824219 C 15.050556 8.1102919 14.977169 8.3380119 15.042969 8.5449219 L 15.339844 9.4765625 L 14.564453 8.9003906 C 14.392353 8.7725206 14.160381 8.7725206 13.988281 8.9003906 L 13.210938 9.4765625 L 13.507812 8.5449219 C 13.573512 8.3380119 13.502178 8.1102919 13.330078 7.9824219 L 12.554688 7.40625 L 13.513672 7.40625 C 13.726372 7.40625 13.914669 7.2654938 13.980469 7.0585938 L 14.275391 6.1269531 z " />
</svg>
