<svg width="24" height="24" viewBox="0 0 24 24" fill="none" xmlns="http://www.w3.org/2000/svg">
    <path d="M20.9249 11.65C19.1075 7.54625 15.6887 5 12 5C8.31129 5 4.89248 7.54625 3.07511 11.65C3.02557 11.7604 3 11.8795 3 12C3 12.1205 3.02557 12.2396 3.07511 12.35C4.89248 16.4537 8.31129 19 12 19C15.6887 19 19.1075 16.4537 20.9249 12.35C20.9744 12.2396 21 12.1205 21 12C21 11.8795 20.9744 11.7604 20.9249 11.65ZM12 17.25C9.14799 17.25 6.44893 15.2463 4.89248 12C6.44893 8.75375 9.14799 6.75 12 6.75C14.852 6.75 17.5511 8.75375 19.1075 12C17.5511 15.2463 14.852 17.25 12 17.25ZM12 8.5C11.2882 8.5 10.5925 8.70527 10.0006 9.08986C9.40883 9.47444 8.94757 10.0211 8.67519 10.6606C8.40281 11.3001 8.33154 12.0039 8.4704 12.6828C8.60926 13.3617 8.95201 13.9854 9.4553 14.4749C9.9586 14.9644 10.5998 15.2977 11.2979 15.4327C11.996 15.5678 12.7196 15.4985 13.3772 15.2336C14.0348 14.9687 14.5968 14.5201 14.9922 13.9445C15.3877 13.3689 15.5987 12.6922 15.5987 12C15.5987 11.0717 15.2196 10.1815 14.5447 9.52513C13.8698 8.86875 12.9544 8.5 12 8.5ZM12 13.75C11.6441 13.75 11.2962 13.6474 11.0003 13.4551C10.7044 13.2628 10.4738 12.9895 10.3376 12.6697C10.2014 12.3499 10.1658 11.9981 10.2352 11.6586C10.3046 11.3191 10.476 11.0073 10.7277 10.7626C10.9793 10.5178 11.2999 10.3511 11.649 10.2836C11.998 10.2161 12.3598 10.2508 12.6886 10.3832C13.0174 10.5157 13.2984 10.74 13.4961 11.0278C13.6938 11.3155 13.7994 11.6539 13.7994 12C13.7994 12.4641 13.6098 12.9092 13.2723 13.2374C12.9349 13.5656 12.4772 13.75 12 13.75Z"
          fill="currentColor"/>
</svg>
