<svg width="24" height="24" viewBox="0 0 24 24" fill="none" xmlns="http://www.w3.org/2000/svg">
    <path d="M6.21328 10.8686C6.42345 10.8961 6.63585 10.8384 6.80378 10.7081C6.9717 10.5779 7.08139 10.3857 7.10871 10.174C7.13603 9.96224 7.07875 9.74823 6.94946 9.57904C6.82017 9.40985 6.62947 9.29934 6.41931 9.27181L5.02467 8.92052C4.92299 8.88912 4.81608 8.87865 4.7103 8.88976C4.60453 8.90086 4.50205 8.9333 4.40899 8.98515C4.31592 9.03699 4.23416 9.10718 4.16858 9.19154C4.103 9.27589 4.05495 9.37268 4.02728 9.47614C3.99962 9.5796 3.9929 9.68761 4.00754 9.79374C4.02218 9.89987 4.05787 10.0019 4.11249 10.0939C4.16711 10.1858 4.23954 10.2657 4.32546 10.3289C4.41138 10.392 4.50904 10.4371 4.61261 10.4614L6.00726 10.8366C6.07364 10.859 6.14331 10.8698 6.21328 10.8686ZM9.27199 6.40561C9.31843 6.57979 9.42203 6.73299 9.56592 6.84027C9.70981 6.94755 9.88551 7.00259 10.0644 6.99642C10.1326 7.00745 10.2022 7.00745 10.2704 6.99642C10.4716 6.94036 10.6426 6.80663 10.7465 6.62426C10.8503 6.4419 10.8786 6.22562 10.8251 6.02239L10.4527 4.61723C10.4286 4.51288 10.3838 4.41448 10.3212 4.32791C10.2585 4.24134 10.1792 4.16837 10.0879 4.11334C9.99667 4.05831 9.89536 4.02235 9.79002 4.0076C9.68469 3.99285 9.57748 3.99962 9.4748 4.02749C9.37211 4.05537 9.27604 4.10378 9.19232 4.16985C9.1086 4.23592 9.03893 4.3183 8.98747 4.41207C8.93602 4.50584 8.90382 4.60908 8.8928 4.71566C8.88178 4.82223 8.89216 4.92995 8.92333 5.03239L9.27199 6.40561ZM13.0993 14.3895C13.0253 14.3109 12.9362 14.2484 12.8374 14.2057C12.7387 14.163 12.6323 14.141 12.5248 14.141C12.4174 14.141 12.311 14.163 12.2122 14.2057C12.1135 14.2484 12.0244 14.3109 11.9503 14.3895L9.17691 17.2317C8.85082 17.5469 8.41641 17.7229 7.96451 17.7229C7.51262 17.7229 7.07821 17.5469 6.75212 17.2317C6.5916 17.072 6.46415 16.8818 6.37716 16.6721C6.29017 16.4625 6.24537 16.2374 6.24537 16.0102C6.24537 15.7829 6.29017 15.5579 6.37716 15.3482C6.46415 15.1385 6.5916 14.9483 6.75212 14.7886L9.57311 11.9943C9.65606 11.9227 9.72343 11.8347 9.771 11.7356C9.81856 11.6365 9.84529 11.5287 9.8495 11.4187C9.85372 11.3088 9.83533 11.1991 9.79549 11.0967C9.75565 10.9942 9.69523 10.9012 9.618 10.8234C9.54078 10.7455 9.44842 10.6847 9.34674 10.6445C9.24505 10.6044 9.13623 10.5859 9.0271 10.5901C8.91797 10.5944 8.81089 10.6213 8.71258 10.6692C8.61427 10.7171 8.52685 10.785 8.45581 10.8686L5.61105 13.6549C5.30303 13.9653 5.0587 14.3337 4.892 14.7392C4.7253 15.1447 4.6395 15.5793 4.6395 16.0182C4.6395 16.4571 4.7253 16.8916 4.892 17.2971C5.0587 17.7026 5.30303 18.071 5.61105 18.3814C5.91907 18.6917 6.28475 18.9379 6.68719 19.1059C7.08964 19.2738 7.52098 19.3603 7.95659 19.3603C8.3922 19.3603 8.82354 19.2738 9.22599 19.1059C9.62844 18.9379 9.99411 18.6917 10.3021 18.3814L13.0993 15.5631C13.1798 15.4883 13.244 15.3976 13.2879 15.2966C13.3318 15.1956 13.3544 15.0865 13.3544 14.9763C13.3544 14.866 13.3318 14.7569 13.2879 14.656C13.244 14.555 13.1798 14.4642 13.0993 14.3895ZM6.5461 7.67504C6.69369 7.82254 6.8929 7.90569 7.10079 7.90657C7.20507 7.90718 7.30845 7.88704 7.405 7.84731C7.50154 7.80758 7.58936 7.74904 7.6634 7.67504C7.81099 7.52545 7.89383 7.3231 7.89383 7.11218C7.89383 6.90126 7.81099 6.69891 7.6634 6.54932L6.64119 5.5194C6.4896 5.38861 6.2946 5.32026 6.09517 5.32802C5.89574 5.33578 5.70656 5.41908 5.56544 5.56127C5.42431 5.70346 5.34164 5.89406 5.33394 6.095C5.32623 6.29593 5.39407 6.49239 5.52389 6.64513L6.5461 7.67504ZM19.2881 13.5272L17.8934 13.152C17.7901 13.116 17.6805 13.1019 17.5715 13.1107C17.4625 13.1195 17.3564 13.1509 17.2601 13.2029C17.1637 13.255 17.0791 13.3266 17.0115 13.4132C16.9439 13.4999 16.8949 13.5997 16.8675 13.7063C16.8401 13.813 16.8348 13.9242 16.8522 14.033C16.8695 14.1418 16.9089 14.2458 16.9681 14.3384C17.0273 14.4311 17.1048 14.5104 17.1959 14.5714C17.2869 14.6324 17.3895 14.6737 17.4972 14.6928L18.8919 15.0681H19.0979C19.3081 15.0956 19.5205 15.0379 19.6884 14.9076C19.8563 14.7774 19.966 14.5852 19.9933 14.3735C20.0206 14.1617 19.9634 13.9477 19.8341 13.7785C19.7048 13.6094 19.5141 13.4988 19.3039 13.4713L19.2881 13.5272ZM14.6287 17.583C14.6012 17.4818 14.5541 17.387 14.4903 17.3041C14.4264 17.2213 14.3469 17.1519 14.2564 17.1C14.1658 17.0481 14.066 17.0146 13.9627 17.0016C13.8593 16.9886 13.7545 16.9963 13.654 17.0241C13.4529 17.0802 13.2818 17.2139 13.178 17.3963C13.0741 17.5786 13.0459 17.7949 13.0993 17.9982L13.4718 19.4033C13.5182 19.5775 13.6218 19.7307 13.7657 19.838C13.9096 19.9453 14.0853 20.0003 14.2642 19.9941C14.3326 20.002 14.4018 20.002 14.4702 19.9941C14.5714 19.9673 14.6663 19.9205 14.7494 19.8565C14.8326 19.7925 14.9023 19.7125 14.9546 19.6212C15.0069 19.5299 15.0407 19.4291 15.0542 19.3245C15.0676 19.22 15.0603 19.1138 15.0328 19.0121L14.6287 17.583ZM17.3546 16.3295C17.203 16.1987 17.008 16.1304 16.8086 16.1381C16.6092 16.1459 16.42 16.2292 16.2788 16.3714C16.1377 16.5136 16.055 16.7042 16.0473 16.9051C16.0396 17.1061 16.1075 17.3025 16.2373 17.4553L17.2595 18.4852C17.408 18.6339 17.6088 18.7173 17.8182 18.7173C18.0275 18.7173 18.2283 18.6339 18.3768 18.4852C18.5244 18.3356 18.6072 18.1332 18.6072 17.9223C18.6072 17.7114 18.5244 17.509 18.3768 17.3594L17.3546 16.3295ZM19.2405 8.00238C19.2529 7.33847 19.0674 6.68609 18.708 6.12945C18.3487 5.57281 17.832 5.13747 17.2246 4.87964C16.6173 4.62181 15.9472 4.55332 15.3008 4.68301C14.6545 4.81271 14.0615 5.13463 13.5986 5.60723L10.8014 8.44948C10.7264 8.52549 10.6671 8.61563 10.6267 8.71474C10.5864 8.81386 10.5658 8.92001 10.5662 9.02713C10.5666 9.13426 10.5879 9.24027 10.6289 9.3391C10.6699 9.43793 10.7299 9.52765 10.8053 9.60314C10.8808 9.67863 10.9702 9.73841 11.0686 9.77906C11.167 9.81971 11.2723 9.84045 11.3787 9.84008C11.485 9.83971 11.5902 9.81824 11.6883 9.7769C11.7864 9.73556 11.8754 9.67516 11.9503 9.59915L14.7238 6.7569C15.0499 6.44169 15.4843 6.26569 15.9362 6.26569C16.3881 6.26569 16.8225 6.44169 17.1486 6.7569C17.3091 6.91657 17.4365 7.10677 17.5235 7.31646C17.6105 7.52615 17.6553 7.75116 17.6553 7.97843C17.6553 8.2057 17.6105 8.43071 17.5235 8.6404C17.4365 8.85009 17.3091 9.04029 17.1486 9.19996L14.3276 11.9943C14.18 12.1439 14.0972 12.3462 14.0972 12.5572C14.0972 12.7681 14.18 12.9704 14.3276 13.12C14.4761 13.2687 14.6769 13.3522 14.8862 13.3522C15.0956 13.3522 15.2964 13.2687 15.4449 13.12L18.2896 10.3337C18.8962 9.7112 19.2374 8.87466 19.2405 8.00238Z"
          fill="currentColor"/>
</svg>
