<svg width="24" height="24" viewBox="0 0 24 24" fill="none" xmlns="http://www.w3.org/2000/svg">
<path d="M16.0106 10.6131V10.605L16.8256 9.76672C17.4692 9.05846 17.8116 8.12266 17.7953 7.16247C17.779 6.19417 17.3959 5.27462 16.7361 4.59074C16.0682 3.90686 15.1718 3.51678 14.2341 3.50053C13.297 3.48428 12.3843 3.84247 11.6995 4.50134L5.24558 11.1257C4.37358 12.1184 3.9091 13.4124 3.94979 14.747C3.99048 16.0817 4.52006 17.3432 5.44902 18.2871C6.36984 19.2229 7.6168 19.7599 8.91259 19.7761C9.84155 19.7924 10.7542 19.5317 11.5448 19.0597C12.4494 19.9468 13.6882 20.5 15.0572 20.5C17.8197 20.5 20.0526 18.2621 20.0526 15.5116C20.0526 13.0786 18.3167 11.0601 16.0106 10.6125V10.6131ZM10.2246 14.2507L10.1921 14.2913C10.1351 14.3482 10.07 14.4051 9.99679 14.4376C9.92355 14.4701 9.84217 14.4945 9.76017 14.4945C9.67817 14.4945 9.59741 14.4864 9.52355 14.4539C9.45031 14.4213 9.37707 14.3807 9.3201 14.3238C9.26314 14.2669 9.21431 14.2019 9.18176 14.1207C9.14921 14.0475 9.13293 13.9663 9.1248 13.8762C9.11666 13.7869 9.13293 13.7137 9.16549 13.6318C9.1899 13.5506 9.23873 13.4855 9.28755 13.4205L13.4272 9.18098C13.5818 9.02658 13.6638 8.81466 13.6638 8.59525C13.6638 8.37583 13.5824 8.16391 13.4272 8.00951C13.2726 7.8551 13.0685 7.76509 12.8569 7.76509C12.6453 7.76509 12.4331 7.85448 12.2866 8.00951L8.14701 12.2653C7.94357 12.4766 7.77205 12.7292 7.66626 13.0061C7.55233 13.283 7.49536 13.5756 7.49536 13.8769C7.49536 14.1782 7.55233 14.4707 7.66626 14.7477C7.78018 15.0246 7.94357 15.2765 8.14701 15.4884C8.5708 15.9035 9.13293 16.131 9.71134 16.131C9.84155 16.131 9.97238 16.1148 10.1026 16.0904C10.1677 16.668 10.3392 17.2213 10.5915 17.7182C10.0782 17.9952 9.5079 18.1414 8.91259 18.1252L8.90445 18.1333C8.03246 18.1089 7.20115 17.7345 6.58205 17.1C5.96295 16.4655 5.60427 15.6109 5.57985 14.7158C5.55544 13.8206 5.8653 12.9417 6.44371 12.2747L12.8976 5.65031C13.2807 5.27587 13.794 5.06458 14.3236 5.06458C14.8532 5.06458 15.3665 5.27587 15.7496 5.65031C16.1245 6.04101 16.3361 6.56986 16.3361 7.11496C16.3361 7.66007 16.1245 8.18892 15.7496 8.57962L13.6713 10.7119C11.9843 11.2001 10.6641 12.5429 10.224 14.2519L10.2246 14.2507ZM17.4097 16.7268C17.7033 17.02 17.7033 17.4944 17.4097 17.7876C17.1161 18.0808 16.641 18.0808 16.3474 17.7876L15.1136 16.5555L13.8798 17.7876C13.5862 18.0808 13.1111 18.0808 12.8175 17.7876C12.5239 17.4944 12.5239 17.02 12.8175 16.7268L14.0513 15.4947L12.8175 14.2626C12.5239 13.9694 12.5239 13.4949 12.8175 13.2017C13.1111 12.9086 13.5862 12.9086 13.8798 13.2017L15.1136 14.4339L16.3474 13.2017C16.641 12.9086 17.1161 12.9086 17.4097 13.2017C17.7033 13.4949 17.7033 13.9694 17.4097 14.2626L16.1759 15.4947L17.4097 16.7268Z" fill="currentColor"/>
</svg>
