<svg width="24" height="24" viewBox="0 0 24 24" fill="none" xmlns="http://www.w3.org/2000/svg">
    <path d="M12.258 12.1812C12.6952 11.8008 13.0458 11.3304 13.2861 10.8018C13.5265 10.2732 13.6508 9.69882 13.6508 9.11765C13.6508 8.02558 13.2192 6.97824 12.451 6.20603C11.6828 5.43382 10.6408 5 9.55435 5C8.4679 5 7.42595 5.43382 6.65771 6.20603C5.88947 6.97824 5.45788 8.02558 5.45788 9.11765C5.45788 9.69882 5.58225 10.2732 5.82257 10.8018C6.06289 11.3304 6.41353 11.8008 6.85068 12.1812C5.70379 12.7032 4.73073 13.5462 4.04786 14.6094C3.36499 15.6726 3.00121 16.911 3 18.1765C3 18.3949 3.08632 18.6044 3.23997 18.7588C3.39361 18.9132 3.602 19 3.81929 19C4.03658 19 4.24498 18.9132 4.39862 18.7588C4.55227 18.6044 4.63859 18.3949 4.63859 18.1765C4.63859 16.866 5.1565 15.6092 6.07838 14.6825C7.00027 13.7559 8.25061 13.2353 9.55435 13.2353C10.8581 13.2353 12.1084 13.7559 13.0303 14.6825C13.9522 15.6092 14.4701 16.866 14.4701 18.1765C14.4701 18.3949 14.5564 18.6044 14.7101 18.7588C14.8637 18.9132 15.0721 19 15.2894 19C15.5067 19 15.7151 18.9132 15.8687 18.7588C16.0224 18.6044 16.1087 18.3949 16.1087 18.1765C16.1075 16.911 15.7437 15.6726 15.0608 14.6094C14.378 13.5462 13.4049 12.7032 12.258 12.1812ZM9.55435 11.5882C9.06823 11.5882 8.59302 11.4433 8.18883 11.1719C7.78463 10.9004 7.4696 10.5145 7.28357 10.0631C7.09754 9.61166 7.04886 9.11491 7.1437 8.63566C7.23854 8.15641 7.47263 7.7162 7.81637 7.37068C8.16011 7.02516 8.59806 6.78986 9.07485 6.69453C9.55163 6.5992 10.0458 6.64813 10.4949 6.83512C10.9441 7.02211 11.3279 7.33878 11.598 7.74506C11.8681 8.15135 12.0122 8.62901 12.0122 9.11765C12.0122 9.77289 11.7533 10.4013 11.2923 10.8646C10.8314 11.3279 10.2062 11.5882 9.55435 11.5882ZM17.5343 11.8518C18.0586 11.2583 18.4011 10.5251 18.5205 9.74051C18.64 8.95592 18.5313 8.15336 18.2075 7.42941C17.8838 6.70547 17.3588 6.09101 16.6957 5.66C16.0326 5.22898 15.2598 4.99979 14.4701 5C14.2528 5 14.0444 5.08676 13.8908 5.24121C13.7371 5.39565 13.6508 5.60512 13.6508 5.82353C13.6508 6.04194 13.7371 6.25141 13.8908 6.40585C14.0444 6.56029 14.2528 6.64706 14.4701 6.64706C15.122 6.64706 15.7472 6.90735 16.2081 7.37068C16.669 7.834 16.928 8.46241 16.928 9.11765C16.9268 9.5502 16.8127 9.97486 16.5971 10.3492C16.3814 10.7235 16.0717 11.0343 15.6991 11.2506C15.5776 11.321 15.4761 11.4216 15.4044 11.5427C15.3327 11.6638 15.2931 11.8014 15.2894 11.9424C15.286 12.0822 15.318 12.2205 15.3825 12.3444C15.447 12.4684 15.5419 12.5737 15.6581 12.6506L15.9776 12.8647L16.0841 12.9224C17.0717 13.3932 17.9049 14.1379 18.4855 15.0687C19.0661 15.9996 19.3699 17.0778 19.3613 18.1765C19.3613 18.3949 19.4476 18.6044 19.6013 18.7588C19.7549 18.9132 19.9633 19 20.1806 19C20.3979 19 20.6063 18.9132 20.7599 18.7588C20.9136 18.6044 20.9999 18.3949 20.9999 18.1765C21.0066 16.9127 20.6917 15.6682 20.0851 14.5612C19.4786 13.4542 18.6005 12.5216 17.5343 11.8518Z"
          fill="currentColor"/>
</svg>
