<svg width="24" height="24" viewBox="0 0 24 24" fill="none" xmlns="http://www.w3.org/2000/svg">
    <path d="M7.5 14.3333H10.2C10.4387 14.3333 10.6676 14.235 10.8364 14.06C11.0052 13.8849 11.1 13.6475 11.1 13.4C11.1 13.1525 11.0052 12.9151 10.8364 12.74C10.6676 12.565 10.4387 12.4667 10.2 12.4667H7.5C7.2613 12.4667 7.03239 12.565 6.8636 12.74C6.69482 12.9151 6.6 13.1525 6.6 13.4C6.6 13.6475 6.69482 13.8849 6.8636 14.06C7.03239 14.235 7.2613 14.3333 7.5 14.3333ZM18.3 5H5.7C4.98392 5 4.29716 5.295 3.79081 5.8201C3.28446 6.3452 3 7.05739 3 7.8V16.2C3 16.9426 3.28446 17.6548 3.79081 18.1799C4.29716 18.705 4.98392 19 5.7 19H18.3C19.0161 19 19.7028 18.705 20.2092 18.1799C20.7155 17.6548 21 16.9426 21 16.2V7.8C21 7.05739 20.7155 6.3452 20.2092 5.8201C19.7028 5.295 19.0161 5 18.3 5ZM19.2 16.2C19.2 16.4475 19.1052 16.6849 18.9364 16.86C18.7676 17.035 18.5387 17.1333 18.3 17.1333H5.7C5.46131 17.1333 5.23239 17.035 5.0636 16.86C4.89482 16.6849 4.8 16.4475 4.8 16.2V10.6H19.2V16.2ZM19.2 8.73333H4.8V7.8C4.8 7.55246 4.89482 7.31507 5.0636 7.14003C5.23239 6.965 5.46131 6.86667 5.7 6.86667H18.3C18.5387 6.86667 18.7676 6.965 18.9364 7.14003C19.1052 7.31507 19.2 7.55246 19.2 7.8V8.73333Z"
          fill="currentColor"/>
</svg>
