<svg width="24" height="24" viewBox="0 0 24 24" fill="none" xmlns="http://www.w3.org/2000/svg">
    <path d="M19.2002 11.1687C18.988 11.1687 18.7846 11.2564 18.6346 11.4126C18.4846 11.5689 18.4003 11.7808 18.4003 12.0017V14.1593L13.3694 8.91109C13.295 8.83301 13.2065 8.77104 13.1091 8.72874C13.0116 8.68645 12.9071 8.66468 12.8015 8.66468C12.6959 8.66468 12.5913 8.68645 12.4939 8.72874C12.3964 8.77104 12.3079 8.83301 12.2336 8.91109L9.60213 11.6602L5.37099 7.24499C5.22038 7.08813 5.01611 7 4.80311 7C4.59011 7 4.38584 7.08813 4.23523 7.24499C4.08461 7.40186 4 7.61462 4 7.83646C4 8.0583 4.08461 8.27106 4.23523 8.42792L9.03424 13.4262C9.1086 13.5043 9.19706 13.5663 9.29453 13.6086C9.392 13.6509 9.49654 13.6726 9.60213 13.6726C9.70772 13.6726 9.81226 13.6509 9.90973 13.6086C10.0072 13.5663 10.0957 13.5043 10.17 13.4262L12.8015 10.6772L17.2726 15.3339H15.201C14.9889 15.3339 14.7854 15.4217 14.6354 15.5779C14.4854 15.7341 14.4011 15.946 14.4011 16.167C14.4011 16.3879 14.4854 16.5998 14.6354 16.756C14.7854 16.9122 14.9889 17 15.201 17H19.2002C19.3047 16.9987 19.4079 16.976 19.5041 16.9334C19.6995 16.8488 19.8548 16.6871 19.936 16.4835C19.977 16.3834 19.9987 16.2758 20 16.167V12.0017C20 11.7808 19.9157 11.5689 19.7657 11.4126C19.6157 11.2564 19.4123 11.1687 19.2002 11.1687Z"
          fill="currentColor"/>
</svg>
