<svg width="24" height="24" viewBox="0 0 24 24" fill="none" xmlns="http://www.w3.org/2000/svg">
    <path d="M11.4975 18.2956H5.54926C5.32389 18.2956 5.10775 18.206 4.94839 18.0467C4.78903 17.8873 4.69951 17.6712 4.69951 17.4458V5.54926C4.69951 5.32389 4.78903 5.10775 4.94839 4.94839C5.10775 4.78903 5.32389 4.69951 5.54926 4.69951H9.79803V7.24877C9.79803 7.92487 10.0666 8.57329 10.5447 9.05137C11.0228 9.52945 11.6712 9.79803 12.3473 9.79803H14.8966V10.6478C14.8966 10.8732 14.9861 11.0893 15.1454 11.2486C15.3048 11.408 15.5209 11.4975 15.7463 11.4975C15.9717 11.4975 16.1878 11.408 16.3472 11.2486C16.5065 11.0893 16.5961 10.8732 16.5961 10.6478V8.94828C16.5961 8.94828 16.5961 8.94828 16.5961 8.89729C16.5872 8.81923 16.5701 8.74232 16.5451 8.66786V8.59138C16.5042 8.50401 16.4497 8.42369 16.3836 8.35345L11.2851 3.25493C11.2149 3.18883 11.1345 3.13433 11.0472 3.09347C11.0218 3.08987 10.9961 3.08987 10.9707 3.09347C10.8844 3.04397 10.789 3.01219 10.6903 3H5.54926C4.87315 3 4.22474 3.26858 3.74666 3.74666C3.26858 4.22474 3 4.87315 3 5.54926V17.4458C3 18.1219 3.26858 18.7703 3.74666 19.2484C4.22474 19.7265 4.87315 19.9951 5.54926 19.9951H11.4975C11.7229 19.9951 11.939 19.9055 12.0984 19.7462C12.2578 19.5868 12.3473 19.3707 12.3473 19.1453C12.3473 18.92 12.2578 18.7038 12.0984 18.5445C11.939 18.3851 11.7229 18.2956 11.4975 18.2956ZM11.4975 5.89766L13.6984 8.09852H12.3473C12.1219 8.09852 11.9058 8.00899 11.7464 7.84963C11.5871 7.69027 11.4975 7.47414 11.4975 7.24877V5.89766ZM7.24877 8.09852C7.0234 8.09852 6.80726 8.18805 6.6479 8.34741C6.48854 8.50677 6.39901 8.72291 6.39901 8.94828C6.39901 9.17364 6.48854 9.38978 6.6479 9.54914C6.80726 9.7085 7.0234 9.79803 7.24877 9.79803H8.09852C8.32389 9.79803 8.54003 9.7085 8.69939 9.54914C8.85875 9.38978 8.94828 9.17364 8.94828 8.94828C8.94828 8.72291 8.85875 8.50677 8.69939 8.34741C8.54003 8.18805 8.32389 8.09852 8.09852 8.09852H7.24877ZM19.7486 18.542L18.7544 17.5563C19.0722 17.0016 19.1994 16.3581 19.1165 15.7242C19.0336 15.0903 18.7453 14.5011 18.2956 14.0468C17.8818 13.6182 17.3485 13.3242 16.7652 13.2031C16.1819 13.082 15.5756 13.1393 15.0254 13.3677C14.4752 13.596 14.0065 13.9848 13.6804 14.4833C13.3542 14.9819 13.1858 15.5671 13.197 16.1627C13.1941 16.6752 13.3252 17.1797 13.5774 17.6259C13.8296 18.0722 14.194 18.4447 14.6346 18.7067C15.0752 18.9686 15.5766 19.1108 16.0891 19.1192C16.6016 19.1276 17.1074 19.0018 17.5563 18.7544L18.542 19.7486C18.621 19.8283 18.715 19.8915 18.8185 19.9346C18.9221 19.9778 19.0331 20 19.1453 20C19.2575 20 19.3686 19.9778 19.4721 19.9346C19.5757 19.8915 19.6696 19.8283 19.7486 19.7486C19.8283 19.6696 19.8915 19.5757 19.9346 19.4721C19.9778 19.3686 20 19.2575 20 19.1453C20 19.0331 19.9778 18.9221 19.9346 18.8185C19.8915 18.715 19.8283 18.621 19.7486 18.542ZM17.0549 17.0549C16.8122 17.2832 16.4916 17.4102 16.1584 17.4102C15.8253 17.4102 15.5046 17.2832 15.2619 17.0549C15.028 16.8168 14.8968 16.4965 14.8966 16.1627C14.8948 15.9951 14.927 15.8288 14.9913 15.674C15.0555 15.5192 15.1505 15.379 15.2704 15.2619C15.497 15.0366 15.8008 14.906 16.1202 14.8966C16.292 14.886 16.4641 14.9111 16.6258 14.9702C16.7874 15.0293 16.9351 15.1211 17.0596 15.24C17.1841 15.3589 17.2826 15.5022 17.3491 15.661C17.4155 15.8198 17.4485 15.9906 17.4458 16.1627C17.4388 16.5001 17.2982 16.821 17.0549 17.0549ZM12.3473 11.4975H7.24877C7.0234 11.4975 6.80726 11.5871 6.6479 11.7464C6.48854 11.9058 6.39901 12.1219 6.39901 12.3473C6.39901 12.5727 6.48854 12.7888 6.6479 12.9482C6.80726 13.1075 7.0234 13.197 7.24877 13.197H12.3473C12.5727 13.197 12.7888 13.1075 12.9482 12.9482C13.1075 12.7888 13.197 12.5727 13.197 12.3473C13.197 12.1219 13.1075 11.9058 12.9482 11.7464C12.7888 11.5871 12.5727 11.4975 12.3473 11.4975ZM10.6478 16.5961C10.8732 16.5961 11.0893 16.5065 11.2486 16.3472C11.408 16.1878 11.4975 15.9717 11.4975 15.7463C11.4975 15.5209 11.408 15.3048 11.2486 15.1454C11.0893 14.9861 10.8732 14.8966 10.6478 14.8966H7.24877C7.0234 14.8966 6.80726 14.9861 6.6479 15.1454C6.48854 15.3048 6.39901 15.5209 6.39901 15.7463C6.39901 15.9717 6.48854 16.1878 6.6479 16.3472C6.80726 16.5065 7.0234 16.5961 7.24877 16.5961H10.6478Z"
          fill="currentColor"/>
</svg>
