<svg width="24" height="24" viewBox="0 0 24 24" fill="none" xmlns="http://www.w3.org/2000/svg">
    <path d="M13.1739 11.9993L16.7537 8.42723C16.9105 8.27044 16.9986 8.05779 16.9986 7.83605C16.9986 7.61432 16.9105 7.40167 16.7537 7.24487C16.597 7.08808 16.3843 7 16.1626 7C15.9409 7 15.7283 7.08808 15.5715 7.24487L12 10.8253L8.42845 7.24487C8.27168 7.08808 8.05906 7 7.83736 7C7.61565 7 7.40303 7.08808 7.24626 7.24487C7.08949 7.40167 7.00142 7.61432 7.00142 7.83605C7.00142 8.05779 7.08949 8.27044 7.24626 8.42723L10.8261 11.9993L7.24626 15.5713C7.16823 15.6488 7.10629 15.7408 7.06403 15.8423C7.02176 15.9438 7 16.0526 7 16.1625C7 16.2724 7.02176 16.3813 7.06403 16.4827C7.10629 16.5842 7.16823 16.6763 7.24626 16.7537C7.32365 16.8317 7.41573 16.8937 7.51718 16.936C7.61864 16.9782 7.72745 17 7.83736 17C7.94726 17 8.05608 16.9782 8.15753 16.936C8.25898 16.8937 8.35106 16.8317 8.42845 16.7537L12 13.1733L15.5715 16.7537C15.6489 16.8317 15.741 16.8937 15.8425 16.936C15.9439 16.9782 16.0527 17 16.1626 17C16.2725 17 16.3814 16.9782 16.4828 16.936C16.5843 16.8937 16.6763 16.8317 16.7537 16.7537C16.8318 16.6763 16.8937 16.5842 16.936 16.4827C16.9782 16.3813 17 16.2724 17 16.1625C17 16.0526 16.9782 15.9438 16.936 15.8423C16.8937 15.7408 16.8318 15.6488 16.7537 15.5713L13.1739 11.9993Z"
          fill="currentColor"/>
</svg>
