<svg xmlns="http://www.w3.org/2000/svg" width="24" height="24" fill="currentColor" viewBox="0 0 24 24">
  <path d="m18.112 12.585-6.116 6.302a4.137 4.137 0 0 1-2.917 1.09 4.15 4.15 0 0 1-2.85-1.265 4.387 4.387 0 0 1-1.23-2.932 4.401 4.401 0 0 1 1.06-3.002l7.917-8.144a2.504 2.504 0 0 1 1.751-.719c.652 0 1.28.257 1.752.72.46.48.719 1.127.719 1.801 0 .675-.259 1.322-.72 1.802l-6.827 7.014a.758.758 0 0 1-.527.248.738.738 0 0 1-.542-.207.777.777 0 0 1-.241-.541.798.798 0 0 1 .201-.559l5.077-5.212c.186-.191.29-.451.29-.723 0-.27-.104-.53-.29-.722a.98.98 0 0 0-.703-.3.98.98 0 0 0-.702.3l-5.077 5.232c-.254.26-.456.568-.593.908a2.86 2.86 0 0 0 0 2.145c.137.34.339.648.593.907a2.75 2.75 0 0 0 1.925.792 2.75 2.75 0 0 0 1.925-.792l6.818-7.024A4.656 4.656 0 0 0 19.999 6.5a4.646 4.646 0 0 0-1.303-3.158A4.393 4.393 0 0 0 15.626 2a4.384 4.384 0 0 0-3.115 1.228l-7.917 8.145a6.47 6.47 0 0 0-1.591 4.447 6.45 6.45 0 0 0 1.838 4.346 6.1 6.1 0 0 0 4.25 1.832 6.09 6.09 0 0 0 4.3-1.697l6.126-6.292a1.023 1.023 0 0 0 .291-.723 1.046 1.046 0 0 0-.29-.722.99.99 0 0 0-.703-.3.969.969 0 0 0-.703.3v.02Z"/>
</svg>
