<svg xmlns="http://www.w3.org/2000/svg" width="24" height="24" fill="currentColor" viewBox="0 0 24 24">
  <path d="m2.5 8.92 9 5.1a1.015 1.015 0 0 0 1 0l9-5.1a.99.99 0 0 0 .364-.357.967.967 0 0 0-.364-1.34l-9-5.092a1.015 1.015 0 0 0-1 0l-9 5.092a.99.99 0 0 0-.367.36A.967.967 0 0 0 2.5 8.92ZM12 4.152l7 3.924L12 12 5 8.076l7-3.924Zm8.5 7.034L12 15.924l-8.5-4.777a1.011 1.011 0 0 0-1.37.362.965.965 0 0 0-.095.742c.07.25.237.463.465.593l9 5.1a1.015 1.015 0 0 0 1 0l9-5.1a.984.984 0 0 0 .465-.593.965.965 0 0 0-.352-1.032 1.01 1.01 0 0 0-1.113-.072v.039Zm0 3.924L12 19.848 3.5 15.07a1.013 1.013 0 0 0-1.37.363.965.965 0 0 0-.095.742c.07.25.237.463.465.592l9 5.102a1.015 1.015 0 0 0 1 0l9-5.102a.984.984 0 0 0 .465-.592.965.965 0 0 0-.352-1.032 1.01 1.01 0 0 0-1.113-.073v.04Z"/>
</svg>
