<svg xmlns="http://www.w3.org/2000/svg" width="24" height="24" fill="currentColor" viewBox="0 0 24 24">
  <path d="m21.712 8.517-4.001-5.14a1.028 1.028 0 0 0-.326-.279.815.815 0 0 0-.384-.098c-.266 0-.522.136-.71.378-.189.242-.294.57-.294.912 0 .342.105.67.294.912l2.3 2.942H7c-.265 0-.52.136-.707.377A1.49 1.49 0 0 0 6 9.429c0 .341.105.668.293.909.187.24.442.376.707.376h14.003a.854.854 0 0 0 .554-.22 1.28 1.28 0 0 0 .366-.576c.076-.234.097-.492.06-.742a1.434 1.434 0 0 0-.27-.659ZM17 13.284H2.998a.854.854 0 0 0-.554.22 1.271 1.271 0 0 0-.366.576 1.626 1.626 0 0 0-.06.741c.037.25.131.48.27.66L6.29 20.62c.093.12.204.216.325.281A.813.813 0 0 0 7 21a.813.813 0 0 0 .385-.099c.122-.065.232-.16.325-.281.094-.12.168-.262.22-.418a1.607 1.607 0 0 0 0-.988 1.354 1.354 0 0 0-.22-.418l-2.3-2.943H17c.265 0 .52-.135.707-.376a1.49 1.49 0 0 0 .293-.909c0-.34-.105-.667-.293-.908-.187-.24-.442-.376-.707-.376Z"/>
</svg>
