<svg width="24" height="24" viewBox="0 0 24 24" fill="none" xmlns="http://www.w3.org/2000/svg">
    <path d="M11.0457 7.26566C11.3612 7.22267 11.68 7.20128 11.9992 7.20169C14.8598 7.20169 17.5495 9.03278 19.1147 11.9993C18.8753 12.4508 18.605 12.8887 18.3051 13.3107C18.2099 13.4417 18.1599 13.5945 18.1612 13.7505C18.1632 13.925 18.2294 14.0941 18.3496 14.232C18.4699 14.37 18.6376 14.4692 18.8272 14.5145C19.0168 14.5598 19.2178 14.5487 19.3997 14.4829C19.5815 14.4172 19.7342 14.3003 19.8344 14.1503C20.2535 13.5649 20.6175 12.9498 20.9228 12.3112C20.9711 12.2114 20.996 12.1039 20.996 11.9953C20.996 11.8867 20.9711 11.7792 20.9228 11.6795C19.1057 7.92933 15.6874 5.60248 11.9992 5.60248C11.577 5.60059 11.1555 5.63271 10.7399 5.69843C10.6217 5.71628 10.5087 5.75464 10.4073 5.81132C10.3058 5.868 10.2179 5.94188 10.1486 6.02875C10.0792 6.11562 10.0298 6.21378 10.0032 6.31763C9.97652 6.42147 9.97314 6.52897 9.99322 6.63397C10.0133 6.73898 10.0565 6.83944 10.1202 6.92962C10.184 7.0198 10.2671 7.09794 10.3648 7.15956C10.4626 7.22119 10.573 7.2651 10.6898 7.2888C10.8066 7.31249 10.9276 7.31549 11.0457 7.29764V7.26566ZM4.54192 4.23516C4.45805 4.1606 4.35847 4.10146 4.24889 4.06112C4.1393 4.02077 4.02185 4 3.90324 4C3.78462 4 3.66717 4.02077 3.55758 4.06112C3.448 4.10146 3.34842 4.1606 3.26455 4.23516C3.09516 4.38573 3 4.58994 3 4.80288C3 5.01581 3.09516 5.22003 3.26455 5.3706L6.05317 7.84137C4.78082 8.93006 3.76817 10.2354 3.07564 11.6795C3.02611 11.7804 3.00055 11.8892 3.00055 11.9993C3.00055 12.1094 3.02611 12.2183 3.07564 12.3192C4.89275 16.0693 8.31106 18.3962 11.9992 18.3962C13.6158 18.3862 15.1942 17.9584 16.542 17.1648L19.4565 19.7635C19.5402 19.8384 19.6397 19.8979 19.7493 19.9385C19.8589 19.9791 19.9765 20 20.0952 20C20.214 20 20.3316 19.9791 20.4412 19.9385C20.5508 19.8979 20.6503 19.8384 20.7339 19.7635C20.8182 19.6891 20.8851 19.6007 20.9308 19.5033C20.9765 19.4058 21 19.3013 21 19.1958C21 19.0902 20.9765 18.9857 20.9308 18.8882C20.8851 18.7908 20.8182 18.7024 20.7339 18.628L4.54192 4.23516ZM10.2631 11.5835L12.467 13.5426C12.315 13.5813 12.1574 13.6002 11.9992 13.5985C11.5221 13.5985 11.0645 13.43 10.7271 13.1301C10.3897 12.8302 10.2001 12.4235 10.2001 11.9993C10.1983 11.8587 10.2195 11.7187 10.2631 11.5835ZM11.9992 16.7969C9.13865 16.7969 6.44898 14.9659 4.89275 11.9993C5.47394 10.8589 6.29882 9.82965 7.32155 8.96882L8.91376 10.4001C8.53977 11.0068 8.39718 11.705 8.50739 12.3899C8.6176 13.0748 8.97467 13.7094 9.52503 14.1986C10.0754 14.6878 10.7894 15.0052 11.5598 15.1032C12.3303 15.2011 13.1158 15.0744 13.7983 14.742L15.2286 15.9973C14.2491 16.5098 13.1358 16.7855 11.9992 16.7969Z"
          fill="currentColor"/>
</svg>
