<svg width="24" height="24" viewBox="0 0 24 24" fill="none" xmlns="http://www.w3.org/2000/svg">
    <path d="M6.18182 5.42859H9.49818C9.65065 5.4282 9.79939 5.47489 9.92337 5.56204C10.0473 5.6492 10.1403 5.77243 10.1891 5.9143L10.5818 7.08573C10.6306 7.2276 10.7236 7.35082 10.8475 7.43798C10.9715 7.52514 11.1203 7.57183 11.2727 7.57144H16.3636C16.5565 7.57144 16.7415 7.6467 16.8779 7.78065C17.0143 7.9146 17.0909 8.09629 17.0909 8.28573C17.0909 8.47517 17.1675 8.65685 17.3039 8.7908C17.4403 8.92476 17.6253 9.00001 17.8182 9.00001C18.0111 9.00001 18.1961 8.92476 18.3324 8.7908C18.4688 8.65685 18.5455 8.47517 18.5455 8.28573C18.5455 7.71741 18.3156 7.17236 17.9064 6.7705C17.4972 6.36864 16.9423 6.14287 16.3636 6.14287H11.7964L11.5636 5.42859C11.4128 5.00947 11.1329 4.6468 10.7628 4.39084C10.3928 4.13489 9.95081 3.9983 9.49818 4.00002H6.18182C5.60316 4.00002 5.04821 4.22578 4.63904 4.62764C4.22987 5.02951 4 5.57455 4 6.14287V15.4286C4 15.9969 4.22987 16.5419 4.63904 16.9438C5.04821 17.3457 5.60316 17.5714 6.18182 17.5714H10.5455C10.7383 17.5714 10.9233 17.4962 11.0597 17.3622C11.1961 17.2283 11.2727 17.0466 11.2727 16.8571C11.2727 16.6677 11.1961 16.486 11.0597 16.3521C10.9233 16.2181 10.7383 16.1429 10.5455 16.1429H6.18182C5.98893 16.1429 5.80395 16.0676 5.66756 15.9337C5.53117 15.7997 5.45455 15.618 5.45455 15.4286V6.14287C5.45455 5.95343 5.53117 5.77175 5.66756 5.6378C5.80395 5.50384 5.98893 5.42859 6.18182 5.42859ZM18.5455 13.4143V12.5714C18.5455 12.0031 18.3156 11.4581 17.9064 11.0562C17.4972 10.6543 16.9423 10.4286 16.3636 10.4286C15.785 10.4286 15.23 10.6543 14.8209 11.0562C14.4117 11.4581 14.1818 12.0031 14.1818 12.5714V13.4143C13.7574 13.5617 13.3898 13.8343 13.1294 14.195C12.869 14.5556 12.7285 14.9865 12.7273 15.4286V16.8571C12.7273 17.4255 12.9571 17.9705 13.3663 18.3724C13.7755 18.7742 14.3304 19 14.9091 19H17.8182C18.3968 19 18.9518 18.7742 19.361 18.3724C19.7701 17.9705 20 17.4255 20 16.8571V15.4286C19.9987 14.9865 19.8583 14.5556 19.5979 14.195C19.3375 13.8343 18.9699 13.5617 18.5455 13.4143ZM15.6364 12.5714C15.6364 12.382 15.713 12.2003 15.8494 12.0664C15.9858 11.9324 16.1708 11.8572 16.3636 11.8572C16.5565 11.8572 16.7415 11.9324 16.8779 12.0664C17.0143 12.2003 17.0909 12.382 17.0909 12.5714V13.2857H15.6364V12.5714ZM18.5455 16.8571C18.5455 17.0466 18.4688 17.2283 18.3324 17.3622C18.1961 17.4962 18.0111 17.5714 17.8182 17.5714H14.9091C14.7162 17.5714 14.5312 17.4962 14.3948 17.3622C14.2584 17.2283 14.1818 17.0466 14.1818 16.8571V15.4286C14.1818 15.2391 14.2584 15.0575 14.3948 14.9235C14.5312 14.7895 14.7162 14.7143 14.9091 14.7143H17.8182C18.0111 14.7143 18.1961 14.7895 18.3324 14.9235C18.4688 15.0575 18.5455 15.2391 18.5455 15.4286V16.8571Z"
          fill="currentColor"/>
</svg>
