<svg xmlns="http://www.w3.org/2000/svg" width="24" height="24" fill="currentColor" viewBox="0 0 24 24">
  <path d="M2 12.474v4.736c0 .252.096.493.266.67a.89.89 0 0 0 .643.278h.91c0 .754.287 1.477.798 2.01A2.673 2.673 0 0 0 6.545 21c.724 0 1.417-.3 1.929-.832a2.904 2.904 0 0 0 .799-2.01h5.454c0 .754.288 1.477.8 2.01a2.672 2.672 0 0 0 1.928.832c.723 0 1.417-.3 1.928-.832a2.904 2.904 0 0 0 .799-2.01h.909a.89.89 0 0 0 .643-.278.968.968 0 0 0 .266-.67V5.842c0-.754-.287-1.477-.799-2.01A2.673 2.673 0 0 0 19.273 3H11.09c-.723 0-1.417.3-1.929.832a2.904 2.904 0 0 0-.798 2.01v1.895H6.545c-.423 0-.84.103-1.22.3a2.757 2.757 0 0 0-.961.837l-2.182 3.031a.586.586 0 0 0-.064.133l-.054.104a.982.982 0 0 0-.064.332Zm14.546 5.684c0-.188.053-.37.153-.526a.918.918 0 0 1 .408-.35.875.875 0 0 1 .525-.053.9.9 0 0 1 .465.259.96.96 0 0 1 .25.485.985.985 0 0 1-.053.547.94.94 0 0 1-.334.426.883.883 0 0 1-1.148-.118.968.968 0 0 1-.267-.67ZM10.181 5.842c0-.251.096-.492.266-.67a.89.89 0 0 1 .643-.277h8.182c.24 0 .472.1.643.277.17.178.266.419.266.67v10.421h-.71a2.733 2.733 0 0 0-.914-.687 2.633 2.633 0 0 0-2.207 0 2.74 2.74 0 0 0-.915.687h-5.254V5.843Zm-1.818 5.684H4.727l1.091-1.515a.92.92 0 0 1 .32-.28.88.88 0 0 1 .407-.1h1.819v1.895Zm-2.728 6.632c0-.188.054-.37.154-.526a.918.918 0 0 1 .408-.35.875.875 0 0 1 .525-.053.899.899 0 0 1 .465.259.984.984 0 0 1 .197 1.032.94.94 0 0 1-.334.426.883.883 0 0 1-1.148-.118.968.968 0 0 1-.267-.67ZM3.818 13.42h4.546v2.634a2.661 2.661 0 0 0-1.96-.72 2.684 2.684 0 0 0-1.877.928h-.709V13.42Z"/>
</svg>
