<svg xmlns="http://www.w3.org/2000/svg" width="24" height="24" fill="currentColor" viewBox="0 0 24 24">
  <path d="M10.94 6.674c.35-.049.705-.073 1.06-.072 3.178 0 6.166 2.06 7.905 5.397-.266.508-.566 1-.9 1.476a.835.835 0 0 0-.16.494.844.844 0 0 0 .21.542c.134.155.32.267.53.318.211.05.435.038.637-.036a.977.977 0 0 0 .483-.374c.466-.659.87-1.35 1.21-2.069a.822.822 0 0 0 0-.71c-2.02-4.22-5.818-6.837-9.916-6.837a8.607 8.607 0 0 0-1.4.108c-.13.02-.256.063-.369.127a.979.979 0 0 0-.287.244.87.87 0 0 0-.162.325.823.823 0 0 0 .13.689c.071.101.164.19.272.259a1.125 1.125 0 0 0 .757.155v-.036Zm-7.227-3.41a1.018 1.018 0 0 0-.325-.195 1.101 1.101 0 0 0-.768 0 1.018 1.018 0 0 0-.326.196.86.86 0 0 0-.294.638c0 .24.106.47.294.639l3.098 2.78a13.211 13.211 0 0 0-3.308 4.317.823.823 0 0 0 0 .72c2.019 4.219 5.817 6.837 9.915 6.837a10.001 10.001 0 0 0 5.048-1.386l3.238 2.924c.093.084.203.151.325.197a1.096 1.096 0 0 0 .77 0 1.04 1.04 0 0 0 .324-.197.9.9 0 0 0 .22-.293.821.821 0 0 0 0-.692.9.9 0 0 0-.22-.293L3.714 3.265Zm6.357 8.268 2.449 2.203a1.995 1.995 0 0 1-.52.063c-.53 0-1.039-.19-1.413-.527A1.713 1.713 0 0 1 10 12a1.478 1.478 0 0 1 .07-.468ZM12 17.396c-3.18 0-6.168-2.06-7.897-5.398a10.975 10.975 0 0 1 2.699-3.41L8.57 10.2a3.293 3.293 0 0 0-.452 2.239 3.48 3.48 0 0 0 1.131 2.034c.612.55 1.405.908 2.26 1.018a4.382 4.382 0 0 0 2.488-.406l1.59 1.412a7.855 7.855 0 0 1-3.589.9Z"/>
</svg>
