<svg width="24" height="24" viewBox="0 0 24 24" fill="none" xmlns="http://www.w3.org/2000/svg">
    <path d="M16.8 11.056C16.5878 11.056 16.3843 11.1403 16.2343 11.2903C16.0843 11.4403 16 11.6438 16 11.856V17.6C16 17.8122 15.9157 18.0157 15.7657 18.1657C15.6157 18.3157 15.4122 18.4 15.2 18.4H6.4C6.18783 18.4 5.98434 18.3157 5.83431 18.1657C5.68429 18.0157 5.6 17.8122 5.6 17.6V8.8C5.6 8.58783 5.68429 8.38434 5.83431 8.23431C5.98434 8.08429 6.18783 8 6.4 8H12.144C12.3562 8 12.5597 7.91571 12.7097 7.76569C12.8597 7.61566 12.944 7.41217 12.944 7.2C12.944 6.98783 12.8597 6.78434 12.7097 6.63431C12.5597 6.48429 12.3562 6.4 12.144 6.4H6.4C5.76348 6.4 5.15303 6.65286 4.70294 7.10294C4.25286 7.55303 4 8.16348 4 8.8V17.6C4 18.2365 4.25286 18.847 4.70294 19.2971C5.15303 19.7471 5.76348 20 6.4 20H15.2C15.8365 20 16.447 19.7471 16.8971 19.2971C17.3471 18.847 17.6 18.2365 17.6 17.6V11.856C17.6 11.6438 17.5157 11.4403 17.3657 11.2903C17.2157 11.1403 17.0122 11.056 16.8 11.056ZM19.936 4.496C19.8548 4.30052 19.6995 4.14518 19.504 4.064C19.4078 4.02301 19.3045 4.00126 19.2 4H14.4C14.1878 4 13.9843 4.08429 13.8343 4.23431C13.6843 4.38434 13.6 4.58783 13.6 4.8C13.6 5.01217 13.6843 5.21566 13.8343 5.36569C13.9843 5.51571 14.1878 5.6 14.4 5.6H17.272L9.032 13.832C8.95702 13.9064 8.8975 13.9949 8.85689 14.0923C8.81627 14.1898 8.79536 14.2944 8.79536 14.4C8.79536 14.5056 8.81627 14.6102 8.85689 14.7077C8.8975 14.8051 8.95702 14.8936 9.032 14.968C9.10637 15.043 9.19485 15.1025 9.29234 15.1431C9.38983 15.1837 9.49439 15.2046 9.6 15.2046C9.70561 15.2046 9.81017 15.1837 9.90766 15.1431C10.0051 15.1025 10.0936 15.043 10.168 14.968L18.4 6.728V9.6C18.4 9.81217 18.4843 10.0157 18.6343 10.1657C18.7843 10.3157 18.9878 10.4 19.2 10.4C19.4122 10.4 19.6157 10.3157 19.7657 10.1657C19.9157 10.0157 20 9.81217 20 9.6V4.8C19.9987 4.69546 19.977 4.59218 19.936 4.496Z"
          fill="currentColor"/>
</svg>
