<svg width="24" height="24" viewBox="0 0 24 24" fill="none" xmlns="http://www.w3.org/2000/svg">
  <path fill="currentColor"
        d="M 9.1582031 6 C 8.5463931 6 7.9015962 6.1729075 7.3476562 6.4609375 C 6.7989263 6.7462575 6.2740056 7.1787894 5.9785156 7.7558594 C 5.9641356 7.7839194 5.9518663 7.81398 5.9414062 7.84375 L 4.28125 12.566406 C 4.09941 13.022006 4 13.518663 4 14.039062 L 4 14.041016 C 4.001 16.227516 5.7653963 18 7.9414062 18 C 9.8812963 18 11.494266 16.591128 11.822266 14.736328 L 12.177734 14.736328 C 12.505634 16.591128 14.118694 18 16.058594 18 C 18.235194 18 20 16.226464 20 14.039062 C 20 13.518663 19.90055 13.022106 19.71875 12.566406 L 18.058594 7.84375 C 18.048094 7.81398 18.035784 7.7839194 18.021484 7.7558594 C 17.725984 7.1787894 17.201044 6.7462575 16.652344 6.4609375 C 16.098344 6.1729075 15.453597 6 14.841797 6 C 13.965097 6 13.097566 6.3528763 12.447266 6.9101562 C 12.286466 7.0479163 12.1358 7.2004475 12 7.3671875 C 11.8642 7.2004475 11.713534 7.0479163 11.552734 6.9101562 C 10.902434 6.3528763 10.034903 6 9.1582031 6 z M 9.1582031 7.3945312 C 9.6763831 7.3945313 10.230844 7.6094631 10.652344 7.9707031 C 11.072544 8.3307731 11.306641 8.7860181 11.306641 9.2363281 L 11.306641 11.976562 C 10.614341 10.838764 9.3660563 10.078125 7.9414062 10.078125 C 7.4470664 10.078125 6.9733794 10.170691 6.5371094 10.337891 L 7.2324219 8.359375 C 7.3634919 8.128425 7.6227381 7.8882687 7.9863281 7.6992188 C 8.3641981 7.5027286 8.7909831 7.3945312 9.1582031 7.3945312 z M 14.841797 7.3945312 C 15.208997 7.3945314 15.635772 7.5027288 16.013672 7.6992188 C 16.377272 7.8882687 16.636478 8.128425 16.767578 8.359375 L 17.462891 10.337891 C 17.365991 10.300691 17.266416 10.267781 17.166016 10.238281 C 16.830116 10.139581 16.475575 10.084778 16.109375 10.080078 C 16.092275 10.079878 16.075694 10.078125 16.058594 10.078125 C 14.823994 10.078125 13.7224 10.648516 13 11.541016 C 12.8888 11.678516 12.785659 11.824765 12.693359 11.976562 L 12.693359 9.2363281 C 12.693359 8.7860181 12.927456 8.3307731 13.347656 7.9707031 C 13.769156 7.6094631 14.323597 7.3945312 14.841797 7.3945312 z M 7.9414062 11.474609 C 8.8224763 11.474609 9.5995132 11.922669 10.058594 12.605469 C 10.242094 12.878469 10.373406 13.187584 10.441406 13.521484 C 10.475406 13.688484 10.494141 13.861764 10.494141 14.039062 C 10.494141 15.456064 9.3513963 16.605469 7.9414062 16.605469 C 6.5314163 16.605469 5.3886719 15.456063 5.3886719 14.039062 C 5.3886719 12.980664 6.02651 12.071785 6.9375 11.679688 C 6.95643 11.671587 6.9749806 11.66395 6.9941406 11.65625 C 7.2869006 11.53865 7.6065762 11.474609 7.9414062 11.474609 z M 16.058594 11.474609 C 16.402294 11.474609 16.730197 11.542416 17.029297 11.666016 C 17.917297 12.033116 18.553322 12.887937 18.607422 13.898438 C 18.608822 13.923835 18.610728 13.950964 18.611328 13.976562 C 18.611828 13.997764 18.611328 14.017665 18.611328 14.039062 L 18.611328 14.041016 C 18.610428 15.457216 17.467994 16.605469 16.058594 16.605469 C 14.648594 16.605469 13.505859 15.456063 13.505859 14.039062 C 13.505859 13.507563 13.666106 13.014869 13.941406 12.605469 C 14.400406 11.922669 15.177394 11.474609 16.058594 11.474609 z " />
</svg>
