<svg width="24" height="24" viewBox="0 0 24 24" fill="none" xmlns="http://www.w3.org/2000/svg">
    <path d="M13.75 13.8H12.875V12.9C12.875 12.6613 12.7828 12.4324 12.6187 12.2636C12.4546 12.0948 12.2321 12 12 12C11.7679 12 11.5454 12.0948 11.3813 12.2636C11.2172 12.4324 11.125 12.6613 11.125 12.9V13.8H10.25C10.0179 13.8 9.79538 13.8948 9.63128 14.0636C9.46719 14.2324 9.375 14.4613 9.375 14.7C9.375 14.9387 9.46719 15.1676 9.63128 15.3364C9.79538 15.5052 10.0179 15.6 10.25 15.6H11.125V16.5C11.125 16.7387 11.2172 16.9676 11.3813 17.1364C11.5454 17.3052 11.7679 17.4 12 17.4C12.2321 17.4 12.4546 17.3052 12.6187 17.1364C12.7828 16.9676 12.875 16.7387 12.875 16.5V15.6H13.75C13.9821 15.6 14.2046 15.5052 14.3687 15.3364C14.5328 15.1676 14.625 14.9387 14.625 14.7C14.625 14.4613 14.5328 14.2324 14.3687 14.0636C14.2046 13.8948 13.9821 13.8 13.75 13.8ZM19 9.246C18.9909 9.16332 18.9733 9.08187 18.9475 9.003V8.922C18.9054 8.82946 18.8493 8.7444 18.7812 8.67L13.5312 3.27C13.4589 3.19999 13.3762 3.14227 13.2863 3.099H13.2075C13.1186 3.04657 13.0204 3.01291 12.9188 3H7.625C6.92881 3 6.26113 3.28446 5.76884 3.79081C5.27656 4.29716 5 4.98392 5 5.7V18.3C5 19.0161 5.27656 19.7028 5.76884 20.2092C6.26113 20.7155 6.92881 21 7.625 21H16.375C17.0712 21 17.7389 20.7155 18.2312 20.2092C18.7234 19.7028 19 19.0161 19 18.3V9.3C19 9.3 19 9.3 19 9.246ZM13.75 6.069L16.0163 8.4H14.625C14.3929 8.4 14.1704 8.30518 14.0063 8.1364C13.8422 7.96761 13.75 7.73869 13.75 7.5V6.069ZM17.25 18.3C17.25 18.5387 17.1578 18.7676 16.9937 18.9364C16.8296 19.1052 16.6071 19.2 16.375 19.2H7.625C7.39294 19.2 7.17038 19.1052 7.00628 18.9364C6.84219 18.7676 6.75 18.5387 6.75 18.3V5.7C6.75 5.46131 6.84219 5.23239 7.00628 5.0636C7.17038 4.89482 7.39294 4.8 7.625 4.8H12V7.5C12 8.21608 12.2766 8.90284 12.7688 9.40919C13.2611 9.91554 13.9288 10.2 14.625 10.2H17.25V18.3Z"
          fill="currentColor"/>
</svg>
