<svg width="24" height="24" viewBox="0 0 24 24" fill="none" xmlns="http://www.w3.org/2000/svg">
    <path d="M9.375 10.2H10.25C10.4821 10.2 10.7046 10.1052 10.8687 9.9364C11.0328 9.76761 11.125 9.53869 11.125 9.3C11.125 9.06131 11.0328 8.83239 10.8687 8.6636C10.7046 8.49482 10.4821 8.4 10.25 8.4H9.375C9.14294 8.4 8.92038 8.49482 8.75628 8.6636C8.59219 8.83239 8.5 9.06131 8.5 9.3C8.5 9.53869 8.59219 9.76761 8.75628 9.9364C8.92038 10.1052 9.14294 10.2 9.375 10.2ZM9.375 12C9.14294 12 8.92038 12.0948 8.75628 12.2636C8.59219 12.4324 8.5 12.6613 8.5 12.9C8.5 13.1387 8.59219 13.3676 8.75628 13.5364C8.92038 13.7052 9.14294 13.8 9.375 13.8H14.625C14.8571 13.8 15.0796 13.7052 15.2437 13.5364C15.4078 13.3676 15.5 13.1387 15.5 12.9C15.5 12.6613 15.4078 12.4324 15.2437 12.2636C15.0796 12.0948 14.8571 12 14.625 12H9.375ZM19 9.246C18.9909 9.16332 18.9733 9.08187 18.9475 9.003V8.922C18.9054 8.82946 18.8493 8.7444 18.7812 8.67L13.5312 3.27C13.4589 3.19999 13.3762 3.14227 13.2863 3.099C13.2601 3.09518 13.2336 3.09518 13.2075 3.099C13.1186 3.04657 13.0204 3.01291 12.9188 3H7.625C6.92881 3 6.26113 3.28446 5.76884 3.79081C5.27656 4.29716 5 4.98392 5 5.7V18.3C5 19.0161 5.27656 19.7028 5.76884 20.2092C6.26113 20.7155 6.92881 21 7.625 21H16.375C17.0712 21 17.7389 20.7155 18.2312 20.2092C18.7234 19.7028 19 19.0161 19 18.3V9.3C19 9.3 19 9.3 19 9.246ZM13.75 6.069L16.0163 8.4H14.625C14.3929 8.4 14.1704 8.30518 14.0063 8.1364C13.8422 7.96761 13.75 7.73869 13.75 7.5V6.069ZM17.25 18.3C17.25 18.5387 17.1578 18.7676 16.9937 18.9364C16.8296 19.1052 16.6071 19.2 16.375 19.2H7.625C7.39294 19.2 7.17038 19.1052 7.00628 18.9364C6.84219 18.7676 6.75 18.5387 6.75 18.3V5.7C6.75 5.46131 6.84219 5.23239 7.00628 5.0636C7.17038 4.89482 7.39294 4.8 7.625 4.8H12V7.5C12 8.21608 12.2766 8.90284 12.7688 9.40919C13.2611 9.91554 13.9288 10.2 14.625 10.2H17.25V18.3ZM14.625 15.6H9.375C9.14294 15.6 8.92038 15.6948 8.75628 15.8636C8.59219 16.0324 8.5 16.2613 8.5 16.5C8.5 16.7387 8.59219 16.9676 8.75628 17.1364C8.92038 17.3052 9.14294 17.4 9.375 17.4H14.625C14.8571 17.4 15.0796 17.3052 15.2437 17.1364C15.4078 16.9676 15.5 16.7387 15.5 16.5C15.5 16.2613 15.4078 16.0324 15.2437 15.8636C15.0796 15.6948 14.8571 15.6 14.625 15.6Z"
          fill="currentColor"/>
</svg>
