<svg width="24" height="24" viewBox="0 0 24 24" fill="none" xmlns="http://www.w3.org/2000/svg">
    <path d="M17.6 6H6.4C5.76348 6 5.15303 6.23705 4.70294 6.65901C4.25286 7.08097 4 7.65326 4 8.25V15.75C4 16.3467 4.25286 16.919 4.70294 17.341C5.15303 17.7629 5.76348 18 6.4 18H17.6C18.2365 18 18.847 17.7629 19.2971 17.341C19.7471 16.919 20 16.3467 20 15.75V8.25C20 7.65326 19.7471 7.08097 19.2971 6.65901C18.847 6.23705 18.2365 6 17.6 6ZM6.4 7.5H17.6C17.8122 7.5 18.0157 7.57902 18.1657 7.71967C18.3157 7.86032 18.4 8.05109 18.4 8.25L12 11.91L5.6 8.25C5.6 8.05109 5.68429 7.86032 5.83431 7.71967C5.98434 7.57902 6.18783 7.5 6.4 7.5ZM18.4 15.75C18.4 15.9489 18.3157 16.1397 18.1657 16.2803C18.0157 16.421 17.8122 16.5 17.6 16.5H6.4C6.18783 16.5 5.98434 16.421 5.83431 16.2803C5.68429 16.1397 5.6 15.9489 5.6 15.75V9.96L11.584 13.3875C11.7056 13.4533 11.8436 13.488 11.984 13.488C12.1244 13.488 12.2624 13.4533 12.384 13.3875L18.4 9.96V15.75Z"
          fill="currentColor"/>
</svg>
