<svg width="24" height="24" viewBox="0 0 24 24" fill="none" xmlns="http://www.w3.org/2000/svg">
    <path d="M11.4693 8.29537C11.3812 8.20178 11.2764 8.12749 11.1609 8.0768C11.0454 8.0261 10.9215 8 10.7964 8C10.6713 8 10.5474 8.0261 10.4319 8.0768C10.3164 8.12749 10.2116 8.20178 10.1235 8.29537L7.28034 11.291C7.19151 11.3839 7.121 11.4943 7.07289 11.616C7.02477 11.7377 7 11.8682 7 12C7 12.1318 7.02477 12.2623 7.07289 12.384C7.121 12.5057 7.19151 12.6161 7.28034 12.709L10.1235 15.7046C10.2116 15.7982 10.3164 15.8725 10.4319 15.9232C10.5474 15.9739 10.6713 16 10.7964 16C10.9215 16 11.0454 15.9739 11.1609 15.9232C11.2764 15.8725 11.3812 15.7982 11.4693 15.7046C11.5581 15.6118 11.6286 15.5014 11.6767 15.3797C11.7248 15.258 11.7496 15.1275 11.7496 14.9957C11.7496 14.8638 11.7248 14.7333 11.6767 14.6116C11.6286 14.49 11.5581 14.3795 11.4693 14.2867L9.28951 12L11.4693 9.71331C11.5581 9.62049 11.6286 9.51005 11.6767 9.38836C11.7248 9.26668 11.7496 9.13616 11.7496 9.00434C11.7496 8.87252 11.7248 8.74201 11.6767 8.62032C11.6286 8.49864 11.5581 8.3882 11.4693 8.29537ZM14.502 12L16.7197 9.71331C16.8981 9.52528 16.9984 9.27026 16.9984 9.00434C16.9984 8.73843 16.8981 8.4834 16.7197 8.29537C16.5412 8.10734 16.2992 8.0017 16.0468 8.0017C15.7944 8.0017 15.5524 8.10734 15.3739 8.29537L12.5307 11.291C12.4419 11.3839 12.3714 11.4943 12.3233 11.616C12.2752 11.7377 12.2504 11.8682 12.2504 12C12.2504 12.1318 12.2752 12.2623 12.3233 12.384C12.3714 12.5057 12.4419 12.6161 12.5307 12.709L15.3739 15.7046C15.462 15.7982 15.5668 15.8725 15.6823 15.9232C15.7978 15.9739 15.9217 16 16.0468 16C16.1719 16 16.2958 15.9739 16.4113 15.9232C16.5267 15.8725 16.6316 15.7982 16.7197 15.7046C16.8085 15.6118 16.879 15.5014 16.9271 15.3797C16.9752 15.258 17 15.1275 17 14.9957C17 14.8638 16.9752 14.7333 16.9271 14.6116C16.879 14.49 16.8085 14.3795 16.7197 14.2867L14.502 12Z"
          fill="currentColor"/>
</svg>
