<svg xmlns="http://www.w3.org/2000/svg" width="24" height="24" fill="currentColor" viewBox="0 0 24 24">
  <path d="M20.95 10.42c-.278 0-.545.113-.742.316a1.1 1.1 0 0 0-.308.766v2.805l-6.603-6.823a1.049 1.049 0 0 0-.745-.32 1.022 1.022 0 0 0-.745.32l-3.454 3.574-5.554-5.74A1.038 1.038 0 0 0 2.054 5c-.28 0-.548.115-.745.318a1.103 1.103 0 0 0-.309.77c0 .288.111.564.309.768l6.298 6.498a1.047 1.047 0 0 0 .746.32 1.022 1.022 0 0 0 .745-.32l3.454-3.574 5.868 6.054h-2.719c-.278 0-.545.114-.742.317a1.1 1.1 0 0 0-.307.766c0 .287.11.563.307.766.197.203.464.317.742.317h5.25a1.067 1.067 0 0 0 .966-.671c.053-.13.081-.27.083-.412v-5.415a1.1 1.1 0 0 0-.308-.766 1.034 1.034 0 0 0-.742-.317Z"/>
</svg>
