<svg width="24" height="24" viewBox="0 0 24 24" fill="none" xmlns="http://www.w3.org/2000/svg">
    <path d="M13.6 15.2C13.8122 15.2 14.0157 15.1157 14.1657 14.9657C14.3157 14.8157 14.4 14.6122 14.4 14.4L14.4 9.6C14.4 9.38783 14.3157 9.18434 14.1657 9.03432C14.0157 8.88429 13.8122 8.8 13.6 8.8C13.3878 8.8 13.1843 8.88429 13.0343 9.03432C12.8843 9.18434 12.8 9.38783 12.8 9.6L12.8 14.4C12.8 14.6122 12.8843 14.8157 13.0343 14.9657C13.1843 15.1157 13.3878 15.2 13.6 15.2ZM12 20C13.5822 20 15.129 19.5308 16.4446 18.6518C17.7602 17.7727 18.7855 16.5233 19.391 15.0615C19.9965 13.5997 20.155 11.9911 19.8463 10.4393C19.5376 8.88743 18.7757 7.46197 17.6568 6.34315C16.538 5.22433 15.1126 4.4624 13.5607 4.15372C12.0089 3.84504 10.4003 4.00346 8.93853 4.60897C7.47672 5.21447 6.22729 6.23985 5.34824 7.55544C4.46919 8.87103 4 10.4178 4 12C4 13.0506 4.20692 14.0909 4.60896 15.0615C5.011 16.0321 5.60028 16.914 6.34315 17.6569C7.08601 18.3997 7.96793 18.989 8.93853 19.391C9.90913 19.7931 10.9494 20 12 20ZM12 5.6C13.2658 5.6 14.5032 5.97536 15.5556 6.6786C16.6081 7.38184 17.4284 8.38138 17.9128 9.55083C18.3972 10.7203 18.524 12.0071 18.277 13.2486C18.0301 14.4901 17.4205 15.6304 16.5255 16.5255C15.6304 17.4205 14.4901 18.0301 13.2486 18.277C12.0071 18.524 10.7203 18.3972 9.55082 17.9128C8.38138 17.4284 7.38184 16.6081 6.67859 15.5557C5.97535 14.5032 5.6 13.2658 5.6 12C5.6 10.3026 6.27428 8.67475 7.47451 7.47452C8.67475 6.27429 10.3026 5.6 12 5.6ZM10.4 15.2C10.6122 15.2 10.8157 15.1157 10.9657 14.9657C11.1157 14.8157 11.2 14.6122 11.2 14.4L11.2 9.6C11.2 9.38783 11.1157 9.18435 10.9657 9.03432C10.8157 8.88429 10.6122 8.8 10.4 8.8C10.1878 8.8 9.98434 8.88429 9.83431 9.03432C9.68428 9.18435 9.6 9.38783 9.6 9.6L9.6 14.4C9.6 14.6122 9.68428 14.8157 9.83431 14.9657C9.98434 15.1157 10.1878 15.2 10.4 15.2Z"
          fill="currentColor"/>
</svg>
