<svg width="24" height="24" viewBox="0 0 24 24" fill="none" xmlns="http://www.w3.org/2000/svg">
<path d="M11.3 12.7273C11.1616 12.7273 11.0262 12.7699 10.9111 12.8498C10.796 12.9298 10.7063 13.0433 10.6533 13.1762C10.6003 13.3091 10.5864 13.4554 10.6135 13.5964C10.6405 13.7375 10.7071 13.8671 10.805 13.9688C10.9029 14.0705 11.0276 14.1398 11.1634 14.1678C11.2992 14.1959 11.44 14.1815 11.5679 14.1265C11.6958 14.0714 11.8051 13.9782 11.882 13.8586C11.9589 13.739 12 13.5984 12 13.4545C12 13.2617 11.9262 13.0767 11.795 12.9403C11.6637 12.8039 11.4857 12.7273 11.3 12.7273ZM8.5 12.7273C8.36155 12.7273 8.22622 12.7699 8.1111 12.8498C7.99599 12.9298 7.90627 13.0433 7.85328 13.1762C7.8003 13.3091 7.78644 13.4554 7.81345 13.5964C7.84046 13.7375 7.90713 13.8671 8.00503 13.9688C8.10292 14.0705 8.22765 14.1398 8.36344 14.1678C8.49922 14.1959 8.63997 14.1815 8.76788 14.1265C8.89579 14.0714 9.00511 13.9782 9.08203 13.8586C9.15895 13.739 9.2 13.5984 9.2 13.4545C9.2 13.2617 9.12625 13.0767 8.99497 12.9403C8.8637 12.8039 8.68565 12.7273 8.5 12.7273ZM19 6.18182C19 5.60316 18.7788 5.04821 18.3849 4.63904C17.9911 4.22987 17.457 4 16.9 4H7.1C6.54305 4 6.0089 4.22987 5.61508 4.63904C5.22125 5.04821 5 5.60316 5 6.18182V9.09091C5.00309 9.62913 5.19755 10.1472 5.546 10.5455C5.19755 10.9437 5.00309 11.4618 5 12V14.9091C5 15.4877 5.22125 16.0427 5.61508 16.4519C6.0089 16.861 6.54305 17.0909 7.1 17.0909H11.3V18.5455H5.7C5.51435 18.5455 5.3363 18.6221 5.20503 18.7585C5.07375 18.8949 5 19.0798 5 19.2727C5 19.4656 5.07375 19.6506 5.20503 19.787C5.3363 19.9234 5.51435 20 5.7 20H18.3C18.4857 20 18.6637 19.9234 18.795 19.787C18.9263 19.6506 19 19.4656 19 19.2727C19 19.0798 18.9263 18.8949 18.795 18.7585C18.6637 18.6221 18.4857 18.5455 18.3 18.5455H12.7V17.0909H16.9C17.457 17.0909 17.9911 16.861 18.3849 16.4519C18.7788 16.0427 19 15.4877 19 14.9091V12C18.9969 11.4618 18.8025 10.9437 18.454 10.5455C18.8025 10.1472 18.9969 9.62913 19 9.09091V6.18182ZM17.6 14.9091C17.6 15.102 17.5263 15.287 17.395 15.4234C17.2637 15.5597 17.0857 15.6364 16.9 15.6364H7.1C6.91435 15.6364 6.7363 15.5597 6.60503 15.4234C6.47375 15.287 6.4 15.102 6.4 14.9091V12C6.4 11.8071 6.47375 11.6221 6.60503 11.4857C6.7363 11.3494 6.91435 11.2727 7.1 11.2727H16.9C17.0857 11.2727 17.2637 11.3494 17.395 11.4857C17.5263 11.6221 17.6 11.8071 17.6 12V14.9091ZM17.6 9.09091C17.6 9.28379 17.5263 9.46878 17.395 9.60517C17.2637 9.74156 17.0857 9.81818 16.9 9.81818H7.1C6.91435 9.81818 6.7363 9.74156 6.60503 9.60517C6.47375 9.46878 6.4 9.28379 6.4 9.09091V6.18182C6.4 5.98893 6.47375 5.80395 6.60503 5.66756C6.7363 5.53117 6.91435 5.45455 7.1 5.45455H16.9C17.0857 5.45455 17.2637 5.53117 17.395 5.66756C17.5263 5.80395 17.6 5.98893 17.6 6.18182V9.09091ZM11.3 6.90909C11.1616 6.90909 11.0262 6.95174 10.9111 7.03166C10.796 7.11157 10.7063 7.22516 10.6533 7.35805C10.6003 7.49094 10.5864 7.63717 10.6135 7.77825C10.6405 7.91932 10.7071 8.04891 10.805 8.15062C10.9029 8.25233 11.0276 8.3216 11.1634 8.34966C11.2992 8.37772 11.44 8.36332 11.5679 8.30828C11.6958 8.25323 11.8051 8.16001 11.882 8.04041C11.9589 7.92082 12 7.7802 12 7.63636C12 7.44348 11.9262 7.25849 11.795 7.1221C11.6637 6.98571 11.4857 6.90909 11.3 6.90909ZM8.5 6.90909C8.36155 6.90909 8.22622 6.95174 8.1111 7.03166C7.99599 7.11157 7.90627 7.22516 7.85328 7.35805C7.8003 7.49094 7.78644 7.63717 7.81345 7.77825C7.84046 7.91932 7.90713 8.04891 8.00503 8.15062C8.10292 8.25233 8.22765 8.3216 8.36344 8.34966C8.49922 8.37772 8.63997 8.36332 8.76788 8.30828C8.89579 8.25323 9.00511 8.16001 9.08203 8.04041C9.15895 7.92082 9.2 7.7802 9.2 7.63636C9.2 7.44348 9.12625 7.25849 8.99497 7.1221C8.8637 6.98571 8.68565 6.90909 8.5 6.90909Z" fill="#2C333B"/>
</svg>
