<svg xmlns="http://www.w3.org/2000/svg" width="24" height="24" fill="currentColor" viewBox="0 0 24 24">
  <path d="M20.019 8.18V3a.999.999 0 0 0-1.002-1 1.004 1.004 0 0 0-1.003 1v5.18A3.006 3.006 0 0 0 16.033 11a2.995 2.995 0 0 0 1.981 2.82V21a1 1 0 0 0 1.003 1 1.004 1.004 0 0 0 1.002-1v-7.18A3.006 3.006 0 0 0 22 11a2.995 2.995 0 0 0-1.981-2.82ZM19.017 12a1.004 1.004 0 0 1-.927-.617.998.998 0 0 1 .731-1.364 1.005 1.005 0 0 1 1.198.981.999.999 0 0 1-1.002 1Zm-6.015 2.18V3A.999.999 0 0 0 12 2a1.004 1.004 0 0 0-1.002 1v11.18A3.006 3.006 0 0 0 9.017 17a2.995 2.995 0 0 0 1.98 2.82V21A.999.999 0 0 0 12 22a1.004 1.004 0 0 0 1.002-1v-1.18A3.006 3.006 0 0 0 14.983 17a2.995 2.995 0 0 0-1.98-2.82ZM12 18a1.004 1.004 0 0 1-.926-.617.998.998 0 0 1 .73-1.364 1.005 1.005 0 0 1 1.198.981A.999.999 0 0 1 12 18ZM5.986 6.18V3a.999.999 0 0 0-1.003-1 1.004 1.004 0 0 0-1.002 1v3.18A3.006 3.006 0 0 0 2 9a2.995 2.995 0 0 0 1.981 2.82V21a.999.999 0 0 0 1.002 1 1.004 1.004 0 0 0 1.003-1v-9.18A3.006 3.006 0 0 0 7.967 9a2.995 2.995 0 0 0-1.981-2.82ZM4.983 10a1.004 1.004 0 0 1-.926-.617.998.998 0 0 1 .73-1.364 1.005 1.005 0 0 1 1.2.981.999.999 0 0 1-1.003 1Z"/>
</svg>
