<svg width="24" height="24" viewBox="0 0 24 24" fill="none" xmlns="http://www.w3.org/2000/svg">
    <path d="M19.7372 16.239L17.5867 14.061C17.5041 13.9766 17.4058 13.9097 17.2976 13.864C17.1893 13.8183 17.0731 13.7948 16.9558 13.7948C16.8385 13.7948 16.7224 13.8183 16.6141 13.864C16.5058 13.9097 16.4075 13.9766 16.3249 14.061L13.1437 17.283C13.0614 17.3671 12.9962 17.4668 12.952 17.5765C12.9078 17.6861 12.8854 17.8035 12.886 17.922V20.1C12.886 20.3387 12.9796 20.5676 13.1463 20.7364C13.3129 20.9052 13.539 21 13.7746 21H15.925C16.042 21.0007 16.1579 20.978 16.2662 20.9332C16.3745 20.8884 16.4729 20.8224 16.556 20.739L19.7372 17.517C19.8204 17.4333 19.8865 17.3338 19.9317 17.2241C19.9768 17.1144 20 16.9968 20 16.878C20 16.7592 19.9768 16.6415 19.9317 16.5319C19.8865 16.4222 19.8204 16.3227 19.7372 16.239ZM15.5518 19.2H14.6632V18.3L16.9558 15.978L17.8444 16.878L15.5518 19.2ZM10.2202 19.2H6.66581C6.43014 19.2 6.20412 19.1052 6.03747 18.9364C5.87083 18.7676 5.77721 18.5387 5.77721 18.3V5.7C5.77721 5.4613 5.87083 5.23238 6.03747 5.0636C6.20412 4.89482 6.43014 4.8 6.66581 4.8H11.1088V7.5C11.1088 8.21608 11.3897 8.90284 11.8896 9.40918C12.3896 9.91553 13.0676 10.2 13.7746 10.2H16.4404V11.1C16.4404 11.3387 16.5341 11.5676 16.7007 11.7364C16.8673 11.9052 17.0934 12 17.329 12C17.5647 12 17.7907 11.9052 17.9574 11.7364C18.124 11.5676 18.2176 11.3387 18.2176 11.1V9.29999C18.2176 9.29999 18.2176 9.29999 18.2176 9.24599C18.2084 9.16332 18.1905 9.08186 18.1643 9.00299V8.92199C18.1216 8.82946 18.0646 8.74439 17.9955 8.67L12.6639 3.27C12.5904 3.19999 12.5064 3.14227 12.4151 3.099C12.3885 3.09518 12.3616 3.09518 12.3351 3.099L12.0507 3H6.66581C5.95879 3 5.28073 3.28446 4.7808 3.79081C4.28086 4.29716 4 4.98391 4 5.7V18.3C4 19.0161 4.28086 19.7028 4.7808 20.2092C5.28073 20.7155 5.95879 21 6.66581 21H10.2202C10.4559 21 10.6819 20.9052 10.8486 20.7364C11.0152 20.5676 11.1088 20.3387 11.1088 20.1C11.1088 19.8613 11.0152 19.6324 10.8486 19.4636C10.6819 19.2948 10.4559 19.2 10.2202 19.2ZM12.886 6.069L15.1875 8.4H13.7746C13.539 8.4 13.3129 8.30517 13.1463 8.13639C12.9796 7.96761 12.886 7.73869 12.886 7.5V6.069ZM8.44301 13.8H13.7746C14.0103 13.8 14.2363 13.7052 14.403 13.5364C14.5696 13.3676 14.6632 13.1387 14.6632 12.9C14.6632 12.6613 14.5696 12.4324 14.403 12.2636C14.2363 12.0948 14.0103 12 13.7746 12H8.44301C8.20734 12 7.98132 12.0948 7.81468 12.2636C7.64803 12.4324 7.55441 12.6613 7.55441 12.9C7.55441 13.1387 7.64803 13.3676 7.81468 13.5364C7.98132 13.7052 8.20734 13.8 8.44301 13.8ZM8.44301 10.2H9.33162C9.56729 10.2 9.79331 10.1052 9.95995 9.93639C10.1266 9.76761 10.2202 9.53869 10.2202 9.29999C10.2202 9.0613 10.1266 8.83238 9.95995 8.6636C9.79331 8.49482 9.56729 8.4 9.33162 8.4H8.44301C8.20734 8.4 7.98132 8.49482 7.81468 8.6636C7.64803 8.83238 7.55441 9.0613 7.55441 9.29999C7.55441 9.53869 7.64803 9.76761 7.81468 9.93639C7.98132 10.1052 8.20734 10.2 8.44301 10.2ZM10.2202 15.6H8.44301C8.20734 15.6 7.98132 15.6948 7.81468 15.8636C7.64803 16.0324 7.55441 16.2613 7.55441 16.5C7.55441 16.7387 7.64803 16.9676 7.81468 17.1364C7.98132 17.3052 8.20734 17.4 8.44301 17.4H10.2202C10.4559 17.4 10.6819 17.3052 10.8486 17.1364C11.0152 16.9676 11.1088 16.7387 11.1088 16.5C11.1088 16.2613 11.0152 16.0324 10.8486 15.8636C10.6819 15.6948 10.4559 15.6 10.2202 15.6Z"
          fill="currentColor"/>
</svg>
