<svg width="24" height="24" viewBox="0 0 24 24" fill="none" xmlns="http://www.w3.org/2000/svg">
    <path d="M10.6 6.12905C10.335 6.17677 10.0997 6.32786 9.94603 6.54909C9.79234 6.77031 9.73281 7.04355 9.78052 7.30869C9.82823 7.57382 9.97927 7.80914 10.2004 7.96287C10.4216 8.1166 10.6947 8.17616 10.9598 8.12844C11.2899 8.07138 11.6242 8.04129 11.9592 8.03846C13.5495 8.03846 15.0747 8.67041 16.1992 9.79529C17.3237 10.9202 17.9555 12.4458 17.9555 14.0366C17.9526 14.3718 17.9226 14.7061 17.8655 15.0363C17.8188 15.296 17.8766 15.5637 18.0264 15.7809C18.1762 15.9982 18.4057 16.1474 18.665 16.196H18.8449C19.0816 16.1998 19.3119 16.1196 19.4949 15.9694C19.6779 15.8193 19.8017 15.6091 19.8443 15.3762C19.9371 14.922 19.9873 14.4602 19.9942 13.9966C19.9896 12.217 19.3918 10.4896 18.2953 9.08814L19.2047 8.18842C19.3929 8.00017 19.4986 7.74485 19.4986 7.47863C19.4986 7.21241 19.3929 6.9571 19.2047 6.76885C19.0165 6.5806 18.7613 6.47485 18.4951 6.47485C18.229 6.47485 17.9738 6.5806 17.7856 6.76885L16.8861 7.67857C15.4879 6.59307 13.7691 6.00238 11.9991 5.99908C11.5297 5.99819 11.0613 6.0417 10.6 6.12905V6.12905ZM10.0004 4.99939H13.9979C14.263 4.99939 14.5172 4.89406 14.7046 4.70659C14.892 4.51911 14.9973 4.26483 14.9973 3.99969C14.9973 3.73456 14.892 3.48028 14.7046 3.2928C14.5172 3.10532 14.263 3 13.9979 3H10.0004C9.73533 3 9.48113 3.10532 9.29371 3.2928C9.10629 3.48028 9.001 3.73456 9.001 3.99969C9.001 4.26483 9.10629 4.51911 9.29371 4.70659C9.48113 4.89406 9.73533 4.99939 10.0004 4.99939V4.99939ZM13.4882 14.0766C13.4882 14.0766 13.4882 14.0266 13.4882 13.9966C13.4882 13.9667 13.4882 13.9467 13.4882 13.9167L14.8274 12.5871C14.9206 12.4939 14.9945 12.3832 15.0449 12.2614C15.0954 12.1396 15.1213 12.0091 15.1213 11.8773C15.1213 11.7455 15.0954 11.6149 15.0449 11.4932C14.9945 11.3714 14.9206 11.2607 14.8274 11.1675C14.7342 11.0743 14.6236 11.0004 14.5018 10.9499C14.3801 10.8995 14.2496 10.8735 14.1178 10.8735C13.9861 10.8735 13.8556 10.8995 13.7338 10.9499C13.6121 11.0004 13.5015 11.0743 13.4083 11.1675L12.0791 12.4971H11.9192L5.71303 6.289C5.52485 6.10075 5.26961 5.99499 5.00347 5.99499C4.73733 5.99499 4.4821 6.10075 4.29391 6.289C4.10572 6.47724 4 6.73256 4 6.99878C4 7.265 4.10572 7.52032 4.29391 7.70856L4.77361 8.18842L5.68305 9.09814C4.49725 10.6373 3.91221 12.5556 4.03722 14.4948C4.16223 16.4339 4.98874 18.2612 6.36234 19.6352C7.73594 21.0092 9.56266 21.836 11.5012 21.9611C13.4397 22.0861 15.3575 21.5009 16.8961 20.3147L18.2853 21.7043C18.3782 21.798 18.4887 21.8724 18.6105 21.9231C18.7323 21.9739 18.8629 22 18.9948 22C19.1268 22 19.2574 21.9739 19.3792 21.9231C19.5009 21.8724 19.6115 21.798 19.7044 21.7043C19.7981 21.6114 19.8724 21.5008 19.9231 21.379C19.9739 21.2571 20 21.1265 20 20.9945C20 20.8625 19.9739 20.7319 19.9231 20.61C19.8724 20.4882 19.7981 20.3777 19.7044 20.2847L13.4882 14.0766ZM11.9991 19.9948C10.8947 19.9979 9.81083 19.6957 8.86714 19.1217C7.92344 18.5477 7.15656 17.7241 6.65109 16.7418C6.14561 15.7595 5.92118 14.6566 6.00254 13.5548C6.0839 12.453 6.46789 11.3951 7.11217 10.4977L10.5101 13.8867C10.5101 13.8867 10.5101 13.9367 10.5101 13.9667C10.5061 14.1652 10.5416 14.3627 10.6145 14.5474C10.6875 14.7322 10.7964 14.9006 10.9349 15.0429C11.0734 15.1852 11.2389 15.2985 11.4215 15.3763C11.6042 15.4542 11.8006 15.4949 11.9991 15.4962H12.0791L15.467 18.8951C14.4528 19.6121 13.241 19.9963 11.9991 19.9948V19.9948Z"
          fill="currentColor"/>
</svg>
