<svg width="24" height="24" viewBox="0 0 24 24" fill="none" xmlns="http://www.w3.org/2000/svg">
    <path d="M19.1111 17.4H18.2222V16.5C18.2222 16.2613 18.1286 16.0324 17.9619 15.8636C17.7952 15.6948 17.5691 15.6 17.3333 15.6C17.0976 15.6 16.8715 15.6948 16.7048 15.8636C16.5381 16.0324 16.4444 16.2613 16.4444 16.5V17.4H15.5556C15.3198 17.4 15.0937 17.4948 14.927 17.6636C14.7603 17.8324 14.6667 18.0613 14.6667 18.3C14.6667 18.5387 14.7603 18.7676 14.927 18.9364C15.0937 19.1052 15.3198 19.2 15.5556 19.2H16.4444V20.1C16.4444 20.3387 16.5381 20.5676 16.7048 20.7364C16.8715 20.9052 17.0976 21 17.3333 21C17.5691 21 17.7952 20.9052 17.9619 20.7364C18.1286 20.5676 18.2222 20.3387 18.2222 20.1V19.2H19.1111C19.3469 19.2 19.573 19.1052 19.7397 18.9364C19.9064 18.7676 20 18.5387 20 18.3C20 18.0613 19.9064 17.8324 19.7397 17.6636C19.573 17.4948 19.3469 17.4 19.1111 17.4ZM12.8889 19.2H6.66667C6.43092 19.2 6.20483 19.1052 6.03813 18.9364C5.87143 18.7676 5.77778 18.5387 5.77778 18.3V5.7C5.77778 5.46131 5.87143 5.23239 6.03813 5.0636C6.20483 4.89482 6.43092 4.8 6.66667 4.8H11.1111V7.5C11.1111 8.21608 11.3921 8.90284 11.8922 9.40919C12.3923 9.91554 13.0705 10.2 13.7778 10.2H16.4444V12.9C16.4444 13.1387 16.5381 13.3676 16.7048 13.5364C16.8715 13.7052 17.0976 13.8 17.3333 13.8C17.5691 13.8 17.7952 13.7052 17.9619 13.5364C18.1286 13.3676 18.2222 13.1387 18.2222 12.9V9.3C18.2222 9.3 18.2222 9.3 18.2222 9.246C18.213 9.16332 18.1951 9.08187 18.1689 9.003V8.922C18.1262 8.82946 18.0691 8.7444 18 8.67L12.6667 3.27C12.5932 3.19999 12.5092 3.14227 12.4178 3.099C12.3884 3.09379 12.3583 3.09379 12.3289 3.099C12.2425 3.0522 12.1496 3.01883 12.0533 3H6.66667C5.95942 3 5.28115 3.28446 4.78105 3.79081C4.28095 4.29716 4 4.98392 4 5.7V18.3C4 19.0161 4.28095 19.7028 4.78105 20.2092C5.28115 20.7155 5.95942 21 6.66667 21H12.8889C13.1246 21 13.3507 20.9052 13.5174 20.7364C13.6841 20.5676 13.7778 20.3387 13.7778 20.1C13.7778 19.8613 13.6841 19.6324 13.5174 19.4636C13.3507 19.2948 13.1246 19.2 12.8889 19.2ZM12.8889 6.069L15.1911 8.4H13.7778C13.542 8.4 13.3159 8.30518 13.1492 8.1364C12.9825 7.96761 12.8889 7.73869 12.8889 7.5V6.069ZM8.44444 8.4C8.2087 8.4 7.9826 8.49482 7.81591 8.6636C7.64921 8.83239 7.55556 9.06131 7.55556 9.3C7.55556 9.53869 7.64921 9.76761 7.81591 9.9364C7.9826 10.1052 8.2087 10.2 8.44444 10.2H9.33333C9.56908 10.2 9.79517 10.1052 9.96187 9.9364C10.1286 9.76761 10.2222 9.53869 10.2222 9.3C10.2222 9.06131 10.1286 8.83239 9.96187 8.6636C9.79517 8.49482 9.56908 8.4 9.33333 8.4H8.44444ZM12.8889 15.6H8.44444C8.2087 15.6 7.9826 15.6948 7.81591 15.8636C7.64921 16.0324 7.55556 16.2613 7.55556 16.5C7.55556 16.7387 7.64921 16.9676 7.81591 17.1364C7.9826 17.3052 8.2087 17.4 8.44444 17.4H12.8889C13.1246 17.4 13.3507 17.3052 13.5174 17.1364C13.6841 16.9676 13.7778 16.7387 13.7778 16.5C13.7778 16.2613 13.6841 16.0324 13.5174 15.8636C13.3507 15.6948 13.1246 15.6 12.8889 15.6ZM13.7778 12H8.44444C8.2087 12 7.9826 12.0948 7.81591 12.2636C7.64921 12.4324 7.55556 12.6613 7.55556 12.9C7.55556 13.1387 7.64921 13.3676 7.81591 13.5364C7.9826 13.7052 8.2087 13.8 8.44444 13.8H13.7778C14.0135 13.8 14.2396 13.7052 14.4063 13.5364C14.573 13.3676 14.6667 13.1387 14.6667 12.9C14.6667 12.6613 14.573 12.4324 14.4063 12.2636C14.2396 12.0948 14.0135 12 13.7778 12Z"
          fill="currentColor"/>
</svg>
